<svg width="80" height="80" viewBox="0 0 80 80" fill="none" xmlns="http://www.w3.org/2000/svg">
<g id="States" clip-path="url(#clip0_6244_76461)">
<circle id="Ellipse 197" cx="40" cy="40" r="38.3333" fill="#D13F12" stroke="#D13F12" stroke-width="3.33333"/>
<g id="Essentials">
<path id="line" d="M26.0143 22.8745C25.1464 22.0067 23.7394 22.0067 22.8716 22.8745C22.0037 23.7423 22.0037 25.1494 22.8716 26.0172L36.856 40.0016L22.8716 53.986C22.0037 54.8538 22.0037 56.2608 22.8716 57.1287C23.7394 57.9965 25.1464 57.9965 26.0143 57.1287L39.9986 43.1443L53.9827 57.1283C54.8505 57.9961 56.2576 57.9961 57.1254 57.1283C57.9932 56.2605 57.9932 54.8535 57.1254 53.9856L43.1413 40.0016L57.1254 26.0175C57.9932 25.1497 57.9932 23.7427 57.1254 22.8748C56.2576 22.007 54.8505 22.007 53.9827 22.8748L39.9986 36.8589L26.0143 22.8745Z" fill="white"/>
</g>
</g>
<defs>
<clipPath id="clip0_6244_76461">
<rect width="80" height="80" fill="white"/>
</clipPath>
</defs>
</svg>
