<svg width="364" height="364" viewBox="0 0 364 364" fill="none" xmlns="http://www.w3.org/2000/svg">
<circle cx="182" cy="182" r="182" fill="url(#paint0_linear_1_8633)"/>
<circle cx="182" cy="182" r="96" fill="#EAEAF4"/>
<path d="M179.271 139.662C179.271 139.662 179.232 139.673 179.187 139.684C179.136 139.701 179.058 139.712 178.923 139.701C171.646 139.202 161.795 143.407 168.708 153.006C167.525 151.268 166.566 149.289 166.835 147.22C166.886 146.788 167.031 146.362 167.244 145.981C167.39 145.711 167.603 145.459 167.828 145.241C169.896 143.261 172.431 145.067 174.376 145.953C176.697 147.018 178.789 148.347 180.863 149.844C183.588 151.806 186.599 153.791 186.812 157.609C187.042 161.819 183.223 165.767 179.03 165.071C181.592 168.845 188.163 173.756 190.456 175.556C190.473 175.556 190.013 174.799 190.243 174.474C192.256 172.354 193.91 169.596 194.695 166.63C195.878 162.156 195.85 157.536 194.123 153.196C191.583 146.81 185.679 142.454 179.585 139.679C179.545 139.662 179.461 139.656 179.389 139.656C179.327 139.656 179.276 139.656 179.276 139.656" fill="url(#paint1_linear_1_8633)"/>
<path d="M159.166 150.494V150.528L159.177 150.539L160.371 155.82C163.023 167.493 163.942 179.531 162.642 191.4C162.614 191.686 162.014 196.559 161.969 196.844L160.483 204.357C160.483 204.357 160.696 205.17 160.702 205.17C160.775 205.283 168.91 216.378 180.746 215.094C181.166 215.049 181.587 214.982 181.996 214.898C181.603 214.943 181.2 214.993 180.79 214.982C174.741 214.786 171.175 210.329 170.491 205.692C170.474 205.596 170.233 202.631 170.934 201.313C172.689 196.256 177.421 193.682 183 193.565C186.19 193.497 189.144 194.411 191.494 196.003L189.397 192.802C188.741 191.804 188.018 190.84 187.255 189.903C186.442 188.894 185.584 187.919 184.71 186.949C183.773 185.917 182.809 184.902 181.845 183.893C180.819 182.817 179.787 181.746 178.761 180.669C177.673 179.525 176.597 178.382 175.537 177.215C174.427 175.993 173.334 174.749 172.28 173.481C171.169 172.153 170.093 170.796 169.067 169.405C167.99 167.942 166.964 166.451 166 164.926C164.98 163.317 164.032 161.668 163.163 159.986C162.238 158.203 161.397 156.381 160.657 154.531C160.051 153.028 159.435 151.391 159.003 149.709L159.182 150.488L159.166 150.494Z" fill="url(#paint2_linear_1_8633)"/>
<path d="M163.488 137.111C162.227 137.638 161.161 138.456 160.365 139.471C158.605 141.719 158.207 144.315 158.476 146.934C158.532 147.477 158.616 148.021 158.723 148.576C158.723 148.576 158.724 148.582 158.728 148.593L158.964 149.636C158.964 149.636 158.975 149.692 158.986 149.715C159.418 151.397 160.029 153.039 160.634 154.536C161.38 156.386 162.216 158.209 163.146 159.992C164.015 161.674 164.963 163.322 165.989 164.937C166.953 166.456 167.974 167.953 169.056 169.416C170.076 170.801 171.153 172.152 172.263 173.487C173.322 174.754 174.41 175.999 175.526 177.221C176.58 178.387 177.656 179.536 178.75 180.675C179.77 181.751 180.807 182.822 181.839 183.898C182.803 184.913 183.762 185.922 184.698 186.954C185.573 187.924 186.436 188.9 187.249 189.909C188.012 190.851 188.73 191.815 189.391 192.813C190.002 193.744 190.557 194.703 191.017 195.706C194.112 202.378 191.892 207.39 189.509 210.407C187.703 212.689 185.012 214.298 181.99 214.909C181.581 214.988 181.155 215.06 180.74 215.105C168.843 216.389 160.5 204.245 160.5 204.245C158.958 210.368 160.562 218.043 165.187 222.472C168.03 225.197 171.837 226.784 175.722 227.395C181.542 228.309 187.978 227.631 193.086 224.564C202.561 218.873 207.389 209.571 205.65 198.352C204.596 191.568 200.492 182.267 186.891 171.754C173.72 161.584 169 153.527 168.719 153.039C168.714 153.017 168.708 153.011 168.708 153.011C161.795 143.413 171.64 139.208 178.923 139.707C179.064 139.718 179.237 139.707 179.372 139.695C179.484 139.69 179.563 139.679 179.585 139.684C179.579 139.679 179.355 139.572 179.355 139.572C173.698 136.948 170.02 136.23 167.587 136.23C165.372 136.23 164.195 136.825 163.494 137.111" fill="url(#paint3_linear_1_8633)"/>
<defs>
<linearGradient id="paint0_linear_1_8633" x1="54.1771" y1="-2.89824" x2="103.851" y2="379.236" gradientUnits="userSpaceOnUse">
<stop stop-color="#009FFD"/>
<stop offset="1" stop-color="#2A2A72"/>
</linearGradient>
<linearGradient id="paint1_linear_1_8633" x1="178.385" y1="144.556" x2="186.756" y2="171.53" gradientUnits="userSpaceOnUse">
<stop stop-color="#009FFD"/>
<stop offset="1" stop-color="#2A2A72"/>
</linearGradient>
<linearGradient id="paint2_linear_1_8633" x1="182.697" y1="224.755" x2="169.656" y2="177.047" gradientUnits="userSpaceOnUse">
<stop stop-color="#009FFD"/>
<stop offset="1" stop-color="#2A2A72"/>
</linearGradient>
<linearGradient id="paint3_linear_1_8633" x1="165.484" y1="135.502" x2="188.477" y2="227.479" gradientUnits="userSpaceOnUse">
<stop stop-color="#009FFD"/>
<stop offset="1" stop-color="#2A2A72"/>
</linearGradient>
</defs>
</svg>
