<svg width="181" height="21" viewBox="0 0 181 21" fill="none" xmlns="http://www.w3.org/2000/svg">
    <path fill-rule="evenodd" clip-rule="evenodd" d="M4.5 8.5C4.22386 8.5 4 8.72386 4 9V12C4 12.2761 4.22386 12.5 4.5 12.5H7.5C7.77614 12.5 8 12.2761 8 12V9C8 8.72386 7.77614 8.5 7.5 8.5H4.5ZM5 11.5V9.5H7V11.5H5Z" fill="#B5AEFF"/>
    <path fill-rule="evenodd" clip-rule="evenodd" d="M5 5.5C5 5.22386 4.77614 5 4.5 5C4.22386 5 4 5.22386 4 5.5V6.5H3.5C2.67157 6.5 2 7.17157 2 8V8.5H1C0.723858 8.5 0.5 8.72386 0.5 9C0.5 9.27614 0.723858 9.5 1 9.5H2V11.5H1C0.723858 11.5 0.5 11.7239 0.5 12C0.5 12.2761 0.723858 12.5 1 12.5H2V13C2 13.8284 2.67157 14.5 3.5 14.5H4V15.5C4 15.7761 4.22386 16 4.5 16C4.77614 16 5 15.7761 5 15.5V14.5H7V15.5C7 15.7761 7.22386 16 7.5 16C7.77614 16 8 15.7761 8 15.5V14.5H8.5C9.32843 14.5 10 13.8284 10 13V12.5H11C11.2761 12.5 11.5 12.2761 11.5 12C11.5 11.7239 11.2761 11.5 11 11.5H10V9.5H11C11.2761 9.5 11.5 9.27614 11.5 9C11.5 8.72386 11.2761 8.5 11 8.5H10V8C10 7.17157 9.32843 6.5 8.5 6.5H8V5.5C8 5.22386 7.77614 5 7.5 5C7.22386 5 7 5.22386 7 5.5V6.5H5V5.5ZM3 8C3 7.72386 3.22386 7.5 3.5 7.5H8.5C8.77614 7.5 9 7.72386 9 8V13C9 13.2761 8.77614 13.5 8.5 13.5H3.5C3.22386 13.5 3 13.2761 3 13V8Z" fill="#B5AEFF"/>
    <path d="M22.881 13.684H24.897C25.4103 13.684 25.8863 13.5953 26.325 13.418C26.7637 13.2313 27.1463 12.9793 27.473 12.662C27.809 12.3353 28.0657 11.9573 28.243 11.528C28.4297 11.0893 28.523 10.6133 28.523 10.1C28.523 9.596 28.4297 9.12467 28.243 8.686C28.0657 8.24733 27.809 7.86933 27.473 7.552C27.1463 7.22533 26.7637 6.97333 26.325 6.796C25.8863 6.60933 25.4103 6.516 24.897 6.516H22.881V13.684ZM21.411 15V5.2H24.869C25.6063 5.2 26.2877 5.326 26.913 5.578C27.5383 5.82067 28.0843 6.16133 28.551 6.6C29.0177 7.03867 29.3817 7.55667 29.643 8.154C29.9043 8.75133 30.035 9.4 30.035 10.1C30.035 10.8093 29.9043 11.4627 29.643 12.06C29.391 12.648 29.0317 13.1613 28.565 13.6C28.0983 14.0387 27.5477 14.384 26.913 14.636C26.2877 14.8787 25.6063 15 24.869 15H21.411ZM33.5321 15.126C33.0188 15.126 32.5661 15.0373 32.1741 14.86C31.7821 14.6733 31.4741 14.4167 31.2501 14.09C31.0261 13.7633 30.9141 13.3853 30.9141 12.956C30.9141 12.284 31.1708 11.7567 31.6841 11.374C32.1975 10.982 32.9021 10.786 33.7981 10.786C34.4981 10.786 35.1468 10.9213 35.7441 11.192V10.436C35.7441 9.92267 35.5948 9.54 35.2961 9.288C35.0068 9.036 34.5775 8.91 34.0081 8.91C33.6815 8.91 33.3408 8.96133 32.9861 9.064C32.6315 9.15733 32.2348 9.30667 31.7961 9.512L31.2781 8.462C31.8195 8.21 32.3235 8.028 32.7901 7.916C33.2568 7.79467 33.7281 7.734 34.2041 7.734C35.1281 7.734 35.8421 7.95333 36.3461 8.392C36.8595 8.83067 37.1161 9.456 37.1161 10.268V15H35.7441V14.384C35.4268 14.636 35.0861 14.8227 34.7221 14.944C34.3581 15.0653 33.9615 15.126 33.5321 15.126ZM32.2581 12.928C32.2581 13.2733 32.4028 13.5533 32.6921 13.768C32.9908 13.9827 33.3781 14.09 33.8541 14.09C34.2275 14.09 34.5681 14.034 34.8761 13.922C35.1935 13.81 35.4828 13.6373 35.7441 13.404V12.2C35.4735 12.0413 35.1888 11.9293 34.8901 11.864C34.6008 11.7893 34.2741 11.752 33.9101 11.752C33.3968 11.752 32.9908 11.8593 32.6921 12.074C32.4028 12.2793 32.2581 12.564 32.2581 12.928ZM41.5762 15.126C40.8856 15.126 40.3582 14.9673 39.9942 14.65C39.6302 14.3233 39.4482 13.852 39.4482 13.236V9.05H37.9362V7.874H39.4482V6.054L40.8342 5.718V7.874H42.9342V9.05H40.8342V12.914C40.8342 13.278 40.9136 13.5393 41.0722 13.698C41.2402 13.8473 41.5109 13.922 41.8842 13.922C42.0802 13.922 42.2529 13.908 42.4022 13.88C42.5609 13.852 42.7289 13.81 42.9062 13.754V14.93C42.7196 14.9953 42.5002 15.042 42.2482 15.07C42.0056 15.1073 41.7816 15.126 41.5762 15.126ZM46.2196 15.126C45.7063 15.126 45.2536 15.0373 44.8616 14.86C44.4696 14.6733 44.1616 14.4167 43.9376 14.09C43.7136 13.7633 43.6016 13.3853 43.6016 12.956C43.6016 12.284 43.8583 11.7567 44.3716 11.374C44.885 10.982 45.5896 10.786 46.4856 10.786C47.1856 10.786 47.8343 10.9213 48.4316 11.192V10.436C48.4316 9.92267 48.2823 9.54 47.9836 9.288C47.6943 9.036 47.265 8.91 46.6956 8.91C46.369 8.91 46.0283 8.96133 45.6736 9.064C45.319 9.15733 44.9223 9.30667 44.4836 9.512L43.9656 8.462C44.507 8.21 45.011 8.028 45.4776 7.916C45.9443 7.79467 46.4156 7.734 46.8916 7.734C47.8156 7.734 48.5296 7.95333 49.0336 8.392C49.547 8.83067 49.8036 9.456 49.8036 10.268V15H48.4316V14.384C48.1143 14.636 47.7736 14.8227 47.4096 14.944C47.0456 15.0653 46.649 15.126 46.2196 15.126ZM44.9456 12.928C44.9456 13.2733 45.0903 13.5533 45.3796 13.768C45.6783 13.9827 46.0656 14.09 46.5416 14.09C46.915 14.09 47.2556 14.034 47.5636 13.922C47.881 13.81 48.1703 13.6373 48.4316 13.404V12.2C48.161 12.0413 47.8763 11.9293 47.5776 11.864C47.2883 11.7893 46.9616 11.752 46.5976 11.752C46.0843 11.752 45.6783 11.8593 45.3796 12.074C45.0903 12.2793 44.9456 12.564 44.9456 12.928ZM51.2348 11.654V10.436H56.2748V11.654H51.2348ZM61.1596 15.112C60.497 15.112 59.8903 14.9487 59.3396 14.622C58.789 14.2953 58.355 13.8567 58.0376 13.306C57.7203 12.746 57.5616 12.1207 57.5616 11.43C57.5616 10.7393 57.7203 10.1187 58.0376 9.568C58.3643 9.01733 58.803 8.57867 59.3536 8.252C59.9043 7.92533 60.5156 7.762 61.1876 7.762C61.5796 7.762 61.9576 7.82267 62.3216 7.944C62.6856 8.06533 63.0216 8.24267 63.3296 8.476V5.2L64.7296 4.934V15H63.3436V14.314C62.737 14.846 62.009 15.112 61.1596 15.112ZM61.3416 13.894C61.7523 13.894 62.1256 13.8193 62.4616 13.67C62.807 13.5207 63.0963 13.306 63.3296 13.026V9.82C63.0963 9.55867 62.807 9.35333 62.4616 9.204C62.1256 9.04533 61.7523 8.966 61.3416 8.966C60.8936 8.966 60.4876 9.07333 60.1236 9.288C59.7596 9.50267 59.4703 9.79667 59.2556 10.17C59.041 10.534 58.9336 10.9493 58.9336 11.416C58.9336 11.8827 59.041 12.3027 59.2556 12.676C59.4703 13.0493 59.7596 13.348 60.1236 13.572C60.4876 13.7867 60.8936 13.894 61.3416 13.894ZM66.3875 15V7.874H67.7875V8.784C68.0115 8.448 68.2869 8.18667 68.6135 8C68.9495 7.804 69.3275 7.706 69.7475 7.706C70.0369 7.71533 70.2749 7.75733 70.4615 7.832V9.092C70.3309 9.036 70.1955 8.99867 70.0555 8.98C69.9155 8.952 69.7755 8.938 69.6355 8.938C69.2249 8.938 68.8609 9.05 68.5435 9.274C68.2262 9.48867 67.9742 9.806 67.7875 10.226V15H66.3875ZM71.5828 15V7.874H72.9828V15H71.5828ZM72.2828 6.726C72.0495 6.726 71.8488 6.642 71.6808 6.474C71.5128 6.29667 71.4288 6.09133 71.4288 5.858C71.4288 5.61533 71.5128 5.41467 71.6808 5.256C71.8488 5.088 72.0495 5.004 72.2828 5.004C72.5255 5.004 72.7308 5.088 72.8988 5.256C73.0668 5.41467 73.1508 5.61533 73.1508 5.858C73.1508 6.09133 73.0668 6.29667 72.8988 6.474C72.7308 6.642 72.5255 6.726 72.2828 6.726ZM76.9277 15L73.8477 7.874H75.3877L77.6137 13.208L79.8397 7.874H81.3237L78.2717 15H76.9277ZM85.4031 15.126C84.7031 15.126 84.0685 14.9627 83.4991 14.636C82.9391 14.3093 82.4911 13.866 82.1551 13.306C81.8285 12.746 81.6651 12.1207 81.6651 11.43C81.6651 10.7487 81.8238 10.1327 82.1411 9.582C82.4585 9.022 82.8878 8.57867 83.4291 8.252C83.9705 7.916 84.5725 7.748 85.2351 7.748C85.8978 7.748 86.4858 7.916 86.9991 8.252C87.5125 8.57867 87.9185 9.02667 88.2171 9.596C88.5251 10.156 88.6791 10.7907 88.6791 11.5V11.892H83.0651C83.1398 12.284 83.2845 12.634 83.4991 12.942C83.7231 13.25 84.0031 13.4927 84.3391 13.67C84.6845 13.8473 85.0578 13.936 85.4591 13.936C85.8045 13.936 86.1358 13.8847 86.4531 13.782C86.7798 13.67 87.0505 13.5113 87.2651 13.306L88.1611 14.188C87.7411 14.5053 87.3071 14.7433 86.8591 14.902C86.4205 15.0513 85.9351 15.126 85.4031 15.126ZM83.0791 10.842H87.2931C87.2371 10.4687 87.1065 10.142 86.9011 9.862C86.7051 9.57267 86.4578 9.34867 86.1591 9.19C85.8698 9.022 85.5525 8.938 85.2071 8.938C84.8525 8.938 84.5258 9.01733 84.2271 9.176C83.9285 9.33467 83.6765 9.55867 83.4711 9.848C83.2751 10.128 83.1445 10.4593 83.0791 10.842ZM90.0125 15V7.874H91.4125V8.602C91.9632 8.02333 92.6772 7.734 93.5545 7.734C94.1052 7.734 94.5859 7.85067 94.9965 8.084C95.4165 8.31733 95.7432 8.644 95.9765 9.064C96.2192 9.484 96.3405 9.96933 96.3405 10.52V15H94.9405V10.758C94.9405 10.198 94.7819 9.75933 94.4645 9.442C94.1565 9.11533 93.7225 8.952 93.1625 8.952C92.7892 8.952 92.4532 9.03133 92.1545 9.19C91.8559 9.34867 91.6085 9.57733 91.4125 9.876V15H90.0125ZM104.228 15.126C103.546 15.126 102.926 14.9627 102.366 14.636C101.806 14.3093 101.362 13.866 101.036 13.306C100.718 12.746 100.56 12.1207 100.56 11.43C100.56 10.7393 100.723 10.1187 101.05 9.568C101.376 9.008 101.815 8.56467 102.366 8.238C102.926 7.902 103.546 7.734 104.228 7.734C104.769 7.734 105.287 7.83667 105.782 8.042C106.286 8.24733 106.72 8.53667 107.084 8.91L106.216 9.876C105.945 9.57733 105.642 9.35333 105.306 9.204C104.97 9.05467 104.62 8.98 104.256 8.98C103.826 8.98 103.434 9.08733 103.08 9.302C102.734 9.51667 102.459 9.81067 102.254 10.184C102.048 10.5573 101.946 10.9727 101.946 11.43C101.946 11.8873 102.048 12.3027 102.254 12.676C102.459 13.0493 102.739 13.348 103.094 13.572C103.448 13.7867 103.845 13.894 104.284 13.894C104.648 13.894 104.988 13.824 105.306 13.684C105.623 13.5347 105.922 13.32 106.202 13.04L107.056 13.936C106.682 14.3187 106.248 14.6127 105.754 14.818C105.268 15.0233 104.76 15.126 104.228 15.126ZM111.365 15.14C110.675 15.14 110.045 14.9767 109.475 14.65C108.915 14.3233 108.472 13.88 108.145 13.32C107.819 12.76 107.655 12.1347 107.655 11.444C107.655 10.7533 107.819 10.128 108.145 9.568C108.472 9.008 108.915 8.56467 109.475 8.238C110.045 7.902 110.675 7.734 111.365 7.734C112.065 7.734 112.695 7.902 113.255 8.238C113.815 8.56467 114.259 9.008 114.585 9.568C114.912 10.128 115.075 10.7533 115.075 11.444C115.075 12.1347 114.912 12.76 114.585 13.32C114.259 13.88 113.815 14.3233 113.255 14.65C112.695 14.9767 112.065 15.14 111.365 15.14ZM111.365 13.908C111.804 13.908 112.201 13.8007 112.555 13.586C112.91 13.362 113.19 13.0633 113.395 12.69C113.601 12.3167 113.703 11.8967 113.703 11.43C113.703 10.9727 113.596 10.562 113.381 10.198C113.176 9.82467 112.896 9.526 112.541 9.302C112.196 9.078 111.804 8.966 111.365 8.966C110.927 8.966 110.53 9.078 110.175 9.302C109.83 9.526 109.55 9.82467 109.335 10.198C109.13 10.562 109.027 10.9727 109.027 11.43C109.027 11.8967 109.13 12.3167 109.335 12.69C109.541 13.0633 109.821 13.362 110.175 13.586C110.53 13.8007 110.927 13.908 111.365 13.908ZM116.399 15V7.874H117.799V8.56C118.331 8.00933 118.999 7.734 119.801 7.734C120.287 7.734 120.716 7.84133 121.089 8.056C121.472 8.27067 121.775 8.56 121.999 8.924C122.298 8.532 122.648 8.238 123.049 8.042C123.451 7.83667 123.903 7.734 124.407 7.734C124.939 7.734 125.401 7.85067 125.793 8.084C126.195 8.31733 126.507 8.644 126.731 9.064C126.965 9.484 127.081 9.96933 127.081 10.52V15H125.681V10.758C125.681 10.198 125.532 9.75933 125.233 9.442C124.944 9.11533 124.547 8.952 124.043 8.952C123.698 8.952 123.385 9.03133 123.105 9.19C122.825 9.34867 122.583 9.59133 122.377 9.918C122.396 10.0113 122.41 10.1093 122.419 10.212C122.429 10.3147 122.433 10.4173 122.433 10.52V15H121.047V10.758C121.047 10.198 120.898 9.75933 120.599 9.442C120.31 9.11533 119.913 8.952 119.409 8.952C119.073 8.952 118.77 9.02667 118.499 9.176C118.229 9.316 117.995 9.53067 117.799 9.82V15H116.399ZM128.69 17.856V7.874H130.076V8.56C130.674 8.028 131.402 7.762 132.26 7.762C132.932 7.762 133.539 7.92533 134.08 8.252C134.631 8.57867 135.065 9.01733 135.382 9.568C135.7 10.1187 135.858 10.7393 135.858 11.43C135.858 12.1207 135.695 12.746 135.368 13.306C135.051 13.8567 134.617 14.2953 134.066 14.622C133.525 14.9487 132.914 15.112 132.232 15.112C131.84 15.112 131.462 15.0513 131.098 14.93C130.734 14.7993 130.398 14.6173 130.09 14.384V17.856H128.69ZM132.078 13.894C132.536 13.894 132.942 13.7867 133.296 13.572C133.66 13.3573 133.95 13.068 134.164 12.704C134.379 12.3307 134.486 11.9107 134.486 11.444C134.486 10.9773 134.379 10.5573 134.164 10.184C133.95 9.81067 133.66 9.51667 133.296 9.302C132.942 9.08733 132.536 8.98 132.078 8.98C131.677 8.98 131.304 9.05467 130.958 9.204C130.613 9.35333 130.324 9.56333 130.09 9.834V13.054C130.324 13.3153 130.613 13.5207 130.958 13.67C131.313 13.8193 131.686 13.894 132.078 13.894ZM140.582 15.14C139.891 15.14 139.261 14.9767 138.692 14.65C138.132 14.3233 137.689 13.88 137.362 13.32C137.035 12.76 136.872 12.1347 136.872 11.444C136.872 10.7533 137.035 10.128 137.362 9.568C137.689 9.008 138.132 8.56467 138.692 8.238C139.261 7.902 139.891 7.734 140.582 7.734C141.282 7.734 141.912 7.902 142.472 8.238C143.032 8.56467 143.475 9.008 143.802 9.568C144.129 10.128 144.292 10.7533 144.292 11.444C144.292 12.1347 144.129 12.76 143.802 13.32C143.475 13.88 143.032 14.3233 142.472 14.65C141.912 14.9767 141.282 15.14 140.582 15.14ZM140.582 13.908C141.021 13.908 141.417 13.8007 141.772 13.586C142.127 13.362 142.407 13.0633 142.612 12.69C142.817 12.3167 142.92 11.8967 142.92 11.43C142.92 10.9727 142.813 10.562 142.598 10.198C142.393 9.82467 142.113 9.526 141.758 9.302C141.413 9.078 141.021 8.966 140.582 8.966C140.143 8.966 139.747 9.078 139.392 9.302C139.047 9.526 138.767 9.82467 138.552 10.198C138.347 10.562 138.244 10.9727 138.244 11.43C138.244 11.8967 138.347 12.3167 138.552 12.69C138.757 13.0633 139.037 13.362 139.392 13.586C139.747 13.8007 140.143 13.908 140.582 13.908ZM145.616 15V7.874H147.016V8.602C147.567 8.02333 148.281 7.734 149.158 7.734C149.709 7.734 150.189 7.85067 150.6 8.084C151.02 8.31733 151.347 8.644 151.58 9.064C151.823 9.484 151.944 9.96933 151.944 10.52V15H150.544V10.758C150.544 10.198 150.385 9.75933 150.068 9.442C149.76 9.11533 149.326 8.952 148.766 8.952C148.393 8.952 148.057 9.03133 147.758 9.19C147.459 9.34867 147.212 9.57733 147.016 9.876V15H145.616ZM156.975 15.126C156.275 15.126 155.641 14.9627 155.071 14.636C154.511 14.3093 154.063 13.866 153.727 13.306C153.401 12.746 153.237 12.1207 153.237 11.43C153.237 10.7487 153.396 10.1327 153.713 9.582C154.031 9.022 154.46 8.57867 155.001 8.252C155.543 7.916 156.145 7.748 156.807 7.748C157.47 7.748 158.058 7.916 158.571 8.252C159.085 8.57867 159.491 9.02667 159.789 9.596C160.097 10.156 160.251 10.7907 160.251 11.5V11.892H154.637C154.712 12.284 154.857 12.634 155.071 12.942C155.295 13.25 155.575 13.4927 155.911 13.67C156.257 13.8473 156.63 13.936 157.031 13.936C157.377 13.936 157.708 13.8847 158.025 13.782C158.352 13.67 158.623 13.5113 158.837 13.306L159.733 14.188C159.313 14.5053 158.879 14.7433 158.431 14.902C157.993 15.0513 157.507 15.126 156.975 15.126ZM154.651 10.842H158.865C158.809 10.4687 158.679 10.142 158.473 9.862C158.277 9.57267 158.03 9.34867 157.731 9.19C157.442 9.022 157.125 8.938 156.779 8.938C156.425 8.938 156.098 9.01733 155.799 9.176C155.501 9.33467 155.249 9.55867 155.043 9.848C154.847 10.128 154.717 10.4593 154.651 10.842ZM161.585 15V7.874H162.985V8.602C163.535 8.02333 164.249 7.734 165.127 7.734C165.677 7.734 166.158 7.85067 166.569 8.084C166.989 8.31733 167.315 8.644 167.549 9.064C167.791 9.484 167.913 9.96933 167.913 10.52V15H166.513V10.758C166.513 10.198 166.354 9.75933 166.037 9.442C165.729 9.11533 165.295 8.952 164.735 8.952C164.361 8.952 164.025 9.03133 163.727 9.19C163.428 9.34867 163.181 9.57733 162.985 9.876V15H161.585ZM172.375 15.126C171.684 15.126 171.157 14.9673 170.793 14.65C170.429 14.3233 170.247 13.852 170.247 13.236V9.05H168.735V7.874H170.247V6.054L171.633 5.718V7.874H173.733V9.05H171.633V12.914C171.633 13.278 171.712 13.5393 171.871 13.698C172.039 13.8473 172.31 13.922 172.683 13.922C172.879 13.922 173.052 13.908 173.201 13.88C173.36 13.852 173.528 13.81 173.705 13.754V14.93C173.518 14.9953 173.299 15.042 173.047 15.07C172.804 15.1073 172.58 15.126 172.375 15.126ZM177.351 15.14C176.735 15.14 176.157 15.0513 175.615 14.874C175.083 14.6873 174.621 14.426 174.229 14.09L174.999 13.166C175.363 13.4553 175.737 13.6793 176.119 13.838C176.511 13.9873 176.908 14.062 177.309 14.062C177.813 14.062 178.224 13.964 178.541 13.768C178.859 13.572 179.017 13.3153 179.017 12.998C179.017 12.7367 178.924 12.5313 178.737 12.382C178.551 12.2327 178.261 12.13 177.869 12.074L176.581 11.892C175.872 11.7893 175.34 11.57 174.985 11.234C174.631 10.898 174.453 10.45 174.453 9.89C174.453 9.46067 174.57 9.08733 174.803 8.77C175.037 8.44333 175.363 8.19133 175.783 8.014C176.203 7.82733 176.693 7.734 177.253 7.734C177.767 7.734 178.261 7.80867 178.737 7.958C179.213 8.10733 179.671 8.34067 180.109 8.658L179.395 9.582C179.003 9.32067 178.621 9.12933 178.247 9.008C177.883 8.88667 177.515 8.826 177.141 8.826C176.712 8.826 176.367 8.91933 176.105 9.106C175.844 9.28333 175.713 9.51667 175.713 9.806C175.713 10.0673 175.802 10.2727 175.979 10.422C176.166 10.562 176.469 10.66 176.889 10.716L178.177 10.898C178.887 11.0007 179.423 11.22 179.787 11.556C180.151 11.8827 180.333 12.326 180.333 12.886C180.333 13.3153 180.203 13.7027 179.941 14.048C179.68 14.384 179.325 14.65 178.877 14.846C178.429 15.042 177.921 15.14 177.351 15.14Z" fill="white"/>
    </svg>
    