<svg class="initiate-1" height="368" width="368" viewBox="0 0 368 368" fill="none" xmlns="http://www.w3.org/2000/svg">
							<circle opacity="0.6" cx="184" cy="184" r="183" fill="url(#paint0_linear_1_8448)" stroke="url(#paint1_linear_1_8448)" stroke-width="2"/>
							<circle cx="184" cy="184" r="96" fill="#EAEAF4"/>
							<path d="M135.68 193V176.2H139.16V193H135.68ZM142.003 193V180.496H145.291V181.528C146.235 180.68 147.403 180.256 148.795 180.256C149.771 180.256 150.627 180.472 151.363 180.904C152.115 181.32 152.699 181.904 153.115 182.656C153.531 183.392 153.739 184.256 153.739 185.248V193H150.451V185.728C150.451 184.912 150.219 184.272 149.755 183.808C149.291 183.328 148.659 183.088 147.859 183.088C147.299 183.088 146.803 183.2 146.371 183.424C145.939 183.632 145.579 183.936 145.291 184.336V193H142.003ZM156.23 193V180.496H159.518V193H156.23ZM157.862 179.008C157.35 179.008 156.91 178.824 156.542 178.456C156.174 178.088 155.99 177.648 155.99 177.136C155.99 176.608 156.174 176.168 156.542 175.816C156.91 175.448 157.35 175.264 157.862 175.264C158.39 175.264 158.83 175.448 159.182 175.816C159.55 176.168 159.734 176.608 159.734 177.136C159.734 177.648 159.55 178.088 159.182 178.456C158.83 178.824 158.39 179.008 157.862 179.008ZM168.017 193.192C166.625 193.192 165.569 192.88 164.849 192.256C164.145 191.616 163.793 190.688 163.793 189.472V183.232H161.225V180.496H163.793V177.304L167.081 176.56V180.496H170.657V183.232H167.081V188.8C167.081 189.376 167.209 189.792 167.465 190.048C167.721 190.288 168.169 190.408 168.809 190.408C169.129 190.408 169.417 190.392 169.673 190.36C169.945 190.312 170.241 190.232 170.561 190.12V192.832C170.225 192.944 169.801 193.032 169.289 193.096C168.793 193.16 168.369 193.192 168.017 193.192ZM172.261 193V180.496H175.549V193H172.261ZM173.893 179.008C173.381 179.008 172.941 178.824 172.573 178.456C172.205 178.088 172.021 177.648 172.021 177.136C172.021 176.608 172.205 176.168 172.573 175.816C172.941 175.448 173.381 175.264 173.893 175.264C174.421 175.264 174.861 175.448 175.213 175.816C175.581 176.168 175.765 176.608 175.765 177.136C175.765 177.648 175.581 178.088 175.213 178.456C174.861 178.824 174.421 179.008 173.893 179.008ZM182.104 193.216C181.208 193.216 180.416 193.056 179.728 192.736C179.04 192.4 178.504 191.944 178.12 191.368C177.736 190.792 177.544 190.128 177.544 189.376C177.544 188.176 177.992 187.248 178.888 186.592C179.8 185.92 181.048 185.584 182.632 185.584C183.72 185.584 184.744 185.752 185.704 186.088V185.176C185.704 184.456 185.48 183.912 185.032 183.544C184.584 183.176 183.928 182.992 183.064 182.992C182.536 182.992 181.968 183.08 181.36 183.256C180.752 183.416 180.048 183.672 179.248 184.024L178.048 181.6C179.04 181.152 179.984 180.816 180.88 180.592C181.792 180.368 182.704 180.256 183.616 180.256C185.296 180.256 186.6 180.664 187.528 181.48C188.472 182.28 188.944 183.416 188.944 184.888V193H185.704V192.112C185.192 192.496 184.64 192.776 184.048 192.952C183.456 193.128 182.808 193.216 182.104 193.216ZM180.664 189.304C180.664 189.784 180.872 190.168 181.288 190.456C181.704 190.728 182.256 190.864 182.944 190.864C183.488 190.864 183.992 190.8 184.456 190.672C184.92 190.528 185.336 190.32 185.704 190.048V188.224C185.304 188.064 184.888 187.944 184.456 187.864C184.024 187.784 183.56 187.744 183.064 187.744C182.312 187.744 181.72 187.888 181.288 188.176C180.872 188.448 180.664 188.824 180.664 189.304ZM197.009 193.192C195.617 193.192 194.561 192.88 193.841 192.256C193.137 191.616 192.785 190.688 192.785 189.472V183.232H190.217V180.496H192.785V177.304L196.073 176.56V180.496H199.649V183.232H196.073V188.8C196.073 189.376 196.201 189.792 196.457 190.048C196.713 190.288 197.161 190.408 197.801 190.408C198.121 190.408 198.409 190.392 198.665 190.36C198.937 190.312 199.233 190.232 199.553 190.12V192.832C199.217 192.944 198.793 193.032 198.281 193.096C197.785 193.16 197.361 193.192 197.009 193.192ZM201.253 193V180.496H204.541V193H201.253ZM202.885 179.008C202.373 179.008 201.933 178.824 201.565 178.456C201.197 178.088 201.013 177.648 201.013 177.136C201.013 176.608 201.197 176.168 201.565 175.816C201.933 175.448 202.373 175.264 202.885 175.264C203.413 175.264 203.853 175.448 204.205 175.816C204.573 176.168 204.757 176.608 204.757 177.136C204.757 177.648 204.573 178.088 204.205 178.456C203.853 178.824 203.413 179.008 202.885 179.008ZM213.208 193.24C211.96 193.24 210.832 192.952 209.824 192.376C208.816 191.8 208.016 191.024 207.424 190.048C206.832 189.072 206.536 187.976 206.536 186.76C206.536 185.544 206.824 184.448 207.4 183.472C207.992 182.48 208.792 181.696 209.8 181.12C210.824 180.544 211.96 180.256 213.208 180.256C214.456 180.256 215.584 180.544 216.592 181.12C217.616 181.696 218.416 182.48 218.992 183.472C219.584 184.448 219.88 185.544 219.88 186.76C219.88 187.976 219.584 189.072 218.992 190.048C218.416 191.024 217.624 191.8 216.616 192.376C215.608 192.952 214.472 193.24 213.208 193.24ZM213.208 190.384C213.864 190.384 214.448 190.224 214.96 189.904C215.488 189.584 215.904 189.152 216.208 188.608C216.528 188.048 216.688 187.432 216.688 186.76C216.688 186.072 216.528 185.456 216.208 184.912C215.904 184.368 215.488 183.936 214.96 183.616C214.448 183.28 213.864 183.112 213.208 183.112C212.568 183.112 211.984 183.28 211.456 183.616C210.928 183.936 210.512 184.368 210.208 184.912C209.904 185.456 209.752 186.072 209.752 186.76C209.752 187.432 209.904 188.048 210.208 188.608C210.512 189.152 210.928 189.584 211.456 189.904C211.984 190.224 212.568 190.384 213.208 190.384ZM221.901 193V180.496H225.189V181.528C226.133 180.68 227.301 180.256 228.693 180.256C229.669 180.256 230.525 180.472 231.261 180.904C232.013 181.32 232.597 181.904 233.013 182.656C233.429 183.392 233.637 184.256 233.637 185.248V193H230.349V185.728C230.349 184.912 230.117 184.272 229.653 183.808C229.189 183.328 228.557 183.088 227.757 183.088C227.197 183.088 226.701 183.2 226.269 183.424C225.837 183.632 225.477 183.936 225.189 184.336V193H221.901Z" fill="#1A1B35"/>
							<defs>
							<linearGradient id="paint0_linear_1_8448" x1="184" y1="2" x2="184" y2="366" gradientUnits="userSpaceOnUse">
							<stop stop-color="#316EC4"/>
							<stop offset="1" stop-color="#C4D4FF" stop-opacity="0"/>
							</linearGradient>
							<linearGradient id="paint1_linear_1_8448" x1="49.775" y1="2" x2="297.295" y2="358.72" gradientUnits="userSpaceOnUse">
							<stop stop-color="white" stop-opacity="0.12"/>
							<stop offset="1" stop-color="white" stop-opacity="0.4"/>
							</linearGradient>
							</defs>
							</svg>