<svg width="" height="315" viewBox="0 0 322 315" fill="none" xmlns="http://www.w3.org/2000/svg">
<rect x="1" y="13" width="320" height="301" rx="16" fill="url(#paint0_linear_1_10406)" fill-opacity="0.1" stroke="url(#paint1_linear_1_10406)"/>
<path d="M25.756 285V276.6H29.704C30.272 276.6 30.768 276.696 31.192 276.888C31.616 277.08 31.948 277.352 32.188 277.704C32.428 278.048 32.548 278.448 32.548 278.904C32.548 279.272 32.452 279.612 32.26 279.924C32.076 280.228 31.824 280.476 31.504 280.668C31.912 280.86 32.236 281.12 32.476 281.448C32.716 281.776 32.836 282.148 32.836 282.564C32.836 283.044 32.712 283.468 32.464 283.836C32.224 284.204 31.88 284.492 31.432 284.7C30.992 284.9 30.48 285 29.896 285H25.756ZM27.496 280.032H29.596C29.972 280.032 30.268 279.944 30.484 279.768C30.708 279.584 30.82 279.34 30.82 279.036C30.82 278.732 30.708 278.492 30.484 278.316C30.268 278.132 29.972 278.04 29.596 278.04H27.496V280.032ZM27.496 283.56H29.764C30.164 283.56 30.484 283.464 30.724 283.272C30.964 283.072 31.084 282.808 31.084 282.48C31.084 282.144 30.964 281.88 30.724 281.688C30.484 281.488 30.164 281.388 29.764 281.388H27.496V283.56ZM33.7889 282.276V280.884H38.3009V282.276H33.7889ZM39.549 285V276.6H41.781L44.085 281.136L46.389 276.6H48.621V285H46.977V278.82L44.061 284.4L41.157 278.796V285H39.549ZM51.8978 285.108C51.4498 285.108 51.0538 285.028 50.7098 284.868C50.3658 284.7 50.0978 284.472 49.9058 284.184C49.7138 283.896 49.6178 283.564 49.6178 283.188C49.6178 282.588 49.8418 282.124 50.2898 281.796C50.7458 281.46 51.3698 281.292 52.1618 281.292C52.7058 281.292 53.2178 281.376 53.6978 281.544V281.088C53.6978 280.728 53.5858 280.456 53.3618 280.272C53.1378 280.088 52.8098 279.996 52.3778 279.996C52.1138 279.996 51.8298 280.04 51.5258 280.128C51.2218 280.208 50.8698 280.336 50.4698 280.512L49.8698 279.3C50.3658 279.076 50.8378 278.908 51.2858 278.796C51.7418 278.684 52.1978 278.628 52.6538 278.628C53.4938 278.628 54.1458 278.832 54.6098 279.24C55.0818 279.64 55.3178 280.208 55.3178 280.944V285H53.6978V284.556C53.4418 284.748 53.1658 284.888 52.8698 284.976C52.5738 285.064 52.2498 285.108 51.8978 285.108ZM51.1778 283.152C51.1778 283.392 51.2818 283.584 51.4898 283.728C51.6978 283.864 51.9738 283.932 52.3178 283.932C52.5898 283.932 52.8418 283.9 53.0738 283.836C53.3058 283.764 53.5138 283.66 53.6978 283.524V282.612C53.4978 282.532 53.2898 282.472 53.0738 282.432C52.8578 282.392 52.6258 282.372 52.3778 282.372C52.0018 282.372 51.7058 282.444 51.4898 282.588C51.2818 282.724 51.1778 282.912 51.1778 283.152ZM55.8901 285L58.2901 281.82L55.9501 278.748H57.8581L59.2381 280.608L60.6061 278.748H62.4541L60.1501 281.796L62.5981 285H60.6781L59.2021 283.008L57.7261 285H55.8901ZM62.7221 285L65.1221 281.82L62.7821 278.748H64.6901L66.0701 280.608L67.4381 278.748H69.2861L66.9821 281.796L69.4301 285H67.5101L66.0341 283.008L64.5581 285H62.7221ZM72.4884 287.556V276.6H76.0764V277.884H74.0484V286.272H76.0764V287.556H72.4884ZM77.2833 285V276.6H81.2313C81.7993 276.6 82.2953 276.696 82.7193 276.888C83.1433 277.08 83.4753 277.352 83.7153 277.704C83.9553 278.048 84.0753 278.448 84.0753 278.904C84.0753 279.272 83.9793 279.612 83.7873 279.924C83.6033 280.228 83.3513 280.476 83.0313 280.668C83.4393 280.86 83.7633 281.12 84.0033 281.448C84.2433 281.776 84.3633 282.148 84.3633 282.564C84.3633 283.044 84.2393 283.468 83.9913 283.836C83.7513 284.204 83.4073 284.492 82.9593 284.7C82.5193 284.9 82.0073 285 81.4233 285H77.2833ZM79.0233 280.032H81.1233C81.4993 280.032 81.7953 279.944 82.0113 279.768C82.2353 279.584 82.3473 279.34 82.3473 279.036C82.3473 278.732 82.2353 278.492 82.0113 278.316C81.7953 278.132 81.4993 278.04 81.1233 278.04H79.0233V280.032ZM79.0233 283.56H81.2913C81.6913 283.56 82.0113 283.464 82.2513 283.272C82.4913 283.072 82.6113 282.808 82.6113 282.48C82.6113 282.144 82.4913 281.88 82.2513 281.688C82.0113 281.488 81.6913 281.388 81.2913 281.388H79.0233V283.56ZM85.4122 285V283.872L88.9162 280.32C89.0842 280.144 89.2162 279.98 89.3122 279.828C89.4162 279.676 89.4882 279.528 89.5282 279.384C89.5762 279.232 89.6002 279.08 89.6002 278.928C89.6002 278.616 89.4682 278.356 89.2042 278.148C88.9482 277.94 88.6202 277.836 88.2202 277.836C87.8362 277.836 87.4802 277.916 87.1522 278.076C86.8242 278.228 86.4642 278.492 86.0722 278.868L85.1842 277.788C85.6562 277.348 86.1482 277.02 86.6602 276.804C87.1722 276.58 87.7082 276.468 88.2682 276.468C88.8362 276.468 89.3362 276.568 89.7682 276.768C90.2002 276.968 90.5362 277.244 90.7762 277.596C91.0162 277.948 91.1362 278.36 91.1362 278.832C91.1362 279.104 91.0962 279.36 91.0162 279.6C90.9442 279.84 90.8242 280.084 90.6562 280.332C90.4882 280.572 90.2642 280.832 89.9842 281.112L87.4402 283.668L91.2682 283.656V285H85.4122ZM96.5991 285.12C95.9751 285.12 95.3911 285.012 94.8471 284.796C94.3031 284.572 93.8271 284.264 93.4191 283.872C93.0191 283.48 92.7031 283.024 92.4711 282.504C92.2471 281.976 92.1351 281.408 92.1351 280.8C92.1351 280.184 92.2471 279.616 92.4711 279.096C92.7031 278.568 93.0231 278.108 93.4311 277.716C93.8391 277.324 94.3111 277.02 94.8471 276.804C95.3911 276.58 95.9751 276.468 96.5991 276.468C97.0631 276.468 97.5111 276.532 97.9431 276.66C98.3751 276.788 98.7751 276.968 99.1431 277.2C99.5191 277.432 99.8391 277.712 100.103 278.04L98.9271 279.204C98.6231 278.828 98.2711 278.544 97.8711 278.352C97.4791 278.16 97.0551 278.064 96.5991 278.064C96.2231 278.064 95.8711 278.136 95.5431 278.28C95.2151 278.416 94.9311 278.608 94.6911 278.856C94.4511 279.096 94.2631 279.384 94.1271 279.72C93.9911 280.048 93.9231 280.408 93.9231 280.8C93.9231 281.184 93.9911 281.544 94.1271 281.88C94.2631 282.208 94.4551 282.496 94.7031 282.744C94.9511 282.984 95.2391 283.172 95.5671 283.308C95.9031 283.444 96.2671 283.512 96.6591 283.512C97.0991 283.512 97.5111 283.42 97.8951 283.236C98.2791 283.052 98.6191 282.788 98.9151 282.444L100.055 283.572C99.7911 283.892 99.4751 284.168 99.1071 284.4C98.7391 284.632 98.3391 284.812 97.9071 284.94C97.4831 285.06 97.0471 285.12 96.5991 285.12ZM104.36 276.6V287.556H100.772V286.272H102.8V277.884H100.772V276.6H104.36ZM108.197 285V276.6H112.145C112.713 276.6 113.209 276.696 113.633 276.888C114.057 277.08 114.389 277.352 114.629 277.704C114.869 278.048 114.989 278.448 114.989 278.904C114.989 279.272 114.893 279.612 114.701 279.924C114.517 280.228 114.265 280.476 113.945 280.668C114.353 280.86 114.677 281.12 114.917 281.448C115.157 281.776 115.277 282.148 115.277 282.564C115.277 283.044 115.153 283.468 114.905 283.836C114.665 284.204 114.321 284.492 113.873 284.7C113.433 284.9 112.921 285 112.337 285H108.197ZM109.937 280.032H112.037C112.413 280.032 112.709 279.944 112.925 279.768C113.149 279.584 113.261 279.34 113.261 279.036C113.261 278.732 113.149 278.492 112.925 278.316C112.709 278.132 112.413 278.04 112.037 278.04H109.937V280.032ZM109.937 283.56H112.205C112.605 283.56 112.925 283.464 113.165 283.272C113.405 283.072 113.525 282.808 113.525 282.48C113.525 282.144 113.405 281.88 113.165 281.688C112.925 281.488 112.605 281.388 112.205 281.388H109.937V283.56ZM116.386 285V278.748H118.03V279.444C118.23 279.172 118.47 278.964 118.75 278.82C119.03 278.676 119.346 278.604 119.698 278.604C120.002 278.612 120.23 278.66 120.382 278.748V280.188C120.262 280.132 120.13 280.092 119.986 280.068C119.842 280.036 119.694 280.02 119.542 280.02C119.222 280.02 118.93 280.1 118.666 280.26C118.402 280.42 118.19 280.648 118.03 280.944V285H116.386ZM123.101 285.108C122.653 285.108 122.257 285.028 121.913 284.868C121.569 284.7 121.301 284.472 121.109 284.184C120.917 283.896 120.821 283.564 120.821 283.188C120.821 282.588 121.045 282.124 121.493 281.796C121.949 281.46 122.573 281.292 123.365 281.292C123.909 281.292 124.421 281.376 124.901 281.544V281.088C124.901 280.728 124.789 280.456 124.565 280.272C124.341 280.088 124.013 279.996 123.581 279.996C123.317 279.996 123.033 280.04 122.729 280.128C122.425 280.208 122.073 280.336 121.673 280.512L121.073 279.3C121.569 279.076 122.041 278.908 122.489 278.796C122.945 278.684 123.401 278.628 123.857 278.628C124.697 278.628 125.349 278.832 125.813 279.24C126.285 279.64 126.521 280.208 126.521 280.944V285H124.901V284.556C124.645 284.748 124.369 284.888 124.073 284.976C123.777 285.064 123.453 285.108 123.101 285.108ZM122.381 283.152C122.381 283.392 122.485 283.584 122.693 283.728C122.901 283.864 123.177 283.932 123.521 283.932C123.793 283.932 124.045 283.9 124.277 283.836C124.509 283.764 124.717 283.66 124.901 283.524V282.612C124.701 282.532 124.493 282.472 124.277 282.432C124.061 282.392 123.829 282.372 123.581 282.372C123.205 282.372 122.909 282.444 122.693 282.588C122.485 282.724 122.381 282.912 122.381 283.152ZM127.765 285V278.748H129.409V279.264C129.881 278.84 130.465 278.628 131.161 278.628C131.649 278.628 132.077 278.736 132.445 278.952C132.821 279.16 133.113 279.452 133.321 279.828C133.529 280.196 133.633 280.628 133.633 281.124V285H131.989V281.364C131.989 280.956 131.873 280.636 131.641 280.404C131.409 280.164 131.093 280.044 130.693 280.044C130.413 280.044 130.165 280.1 129.949 280.212C129.733 280.316 129.553 280.468 129.409 280.668V285H127.765ZM137.77 285.084C137.178 285.084 136.642 284.94 136.162 284.652C135.682 284.364 135.298 283.98 135.01 283.5C134.73 283.012 134.59 282.468 134.59 281.868C134.59 281.268 134.73 280.728 135.01 280.248C135.298 279.76 135.686 279.376 136.174 279.096C136.662 278.808 137.21 278.664 137.818 278.664C138.13 278.664 138.43 278.708 138.718 278.796C139.006 278.876 139.274 278.996 139.522 279.156V276.6L141.166 276.324V285H139.546V284.484C139.034 284.884 138.442 285.084 137.77 285.084ZM138.034 283.68C138.338 283.68 138.614 283.632 138.862 283.536C139.118 283.432 139.338 283.28 139.522 283.08V280.644C139.338 280.46 139.118 280.316 138.862 280.212C138.606 280.108 138.33 280.056 138.034 280.056C137.69 280.056 137.378 280.136 137.098 280.296C136.826 280.448 136.61 280.664 136.45 280.944C136.29 281.216 136.21 281.524 136.21 281.868C136.21 282.212 136.29 282.52 136.45 282.792C136.61 283.064 136.826 283.28 137.098 283.44C137.378 283.6 137.69 283.68 138.034 283.68ZM145.509 285.12C144.885 285.12 144.317 284.976 143.805 284.688C143.301 284.4 142.901 284.012 142.605 283.524C142.309 283.036 142.161 282.488 142.161 281.88C142.161 281.272 142.301 280.724 142.581 280.236C142.869 279.748 143.257 279.36 143.745 279.072C144.233 278.784 144.777 278.64 145.377 278.64C145.977 278.64 146.509 278.788 146.973 279.084C147.437 279.38 147.801 279.78 148.065 280.284C148.337 280.788 148.473 281.36 148.473 282V282.432H143.841C143.913 282.68 144.029 282.904 144.189 283.104C144.357 283.304 144.561 283.46 144.801 283.572C145.049 283.684 145.313 283.74 145.593 283.74C145.873 283.74 146.129 283.696 146.361 283.608C146.601 283.52 146.805 283.396 146.973 283.236L148.053 284.22C147.669 284.532 147.273 284.76 146.865 284.904C146.465 285.048 146.013 285.12 145.509 285.12ZM143.817 281.256H146.853C146.797 281.008 146.693 280.792 146.541 280.608C146.397 280.416 146.221 280.268 146.013 280.164C145.813 280.052 145.589 279.996 145.341 279.996C145.085 279.996 144.853 280.048 144.645 280.152C144.437 280.256 144.261 280.404 144.117 280.596C143.981 280.78 143.881 281 143.817 281.256ZM152.419 285.084C151.827 285.084 151.291 284.94 150.811 284.652C150.331 284.364 149.947 283.98 149.659 283.5C149.379 283.012 149.239 282.468 149.239 281.868C149.239 281.268 149.379 280.728 149.659 280.248C149.947 279.76 150.335 279.376 150.823 279.096C151.311 278.808 151.859 278.664 152.467 278.664C152.779 278.664 153.079 278.708 153.367 278.796C153.655 278.876 153.923 278.996 154.171 279.156V276.6L155.815 276.324V285H154.195V284.484C153.683 284.884 153.091 285.084 152.419 285.084ZM152.683 283.68C152.987 283.68 153.263 283.632 153.511 283.536C153.767 283.432 153.987 283.28 154.171 283.08V280.644C153.987 280.46 153.767 280.316 153.511 280.212C153.255 280.108 152.979 280.056 152.683 280.056C152.339 280.056 152.027 280.136 151.747 280.296C151.475 280.448 151.259 280.664 151.099 280.944C150.939 281.216 150.859 281.524 150.859 281.868C150.859 282.212 150.939 282.52 151.099 282.792C151.259 283.064 151.475 283.28 151.747 283.44C152.027 283.6 152.339 283.68 152.683 283.68Z" fill="white"/>
<path d="M25.756 60V51.6H29.704C30.272 51.6 30.768 51.696 31.192 51.888C31.616 52.08 31.948 52.352 32.188 52.704C32.428 53.048 32.548 53.448 32.548 53.904C32.548 54.272 32.452 54.612 32.26 54.924C32.076 55.228 31.824 55.476 31.504 55.668C31.912 55.86 32.236 56.12 32.476 56.448C32.716 56.776 32.836 57.148 32.836 57.564C32.836 58.044 32.712 58.468 32.464 58.836C32.224 59.204 31.88 59.492 31.432 59.7C30.992 59.9 30.48 60 29.896 60H25.756ZM27.496 55.032H29.596C29.972 55.032 30.268 54.944 30.484 54.768C30.708 54.584 30.82 54.34 30.82 54.036C30.82 53.732 30.708 53.492 30.484 53.316C30.268 53.132 29.972 53.04 29.596 53.04H27.496V55.032ZM27.496 58.56H29.764C30.164 58.56 30.484 58.464 30.724 58.272C30.964 58.072 31.084 57.808 31.084 57.48C31.084 57.144 30.964 56.88 30.724 56.688C30.484 56.488 30.164 56.388 29.764 56.388H27.496V58.56ZM33.8849 60V58.872L37.3889 55.32C37.5569 55.144 37.6889 54.98 37.7849 54.828C37.8889 54.676 37.9609 54.528 38.0009 54.384C38.0489 54.232 38.0729 54.08 38.0729 53.928C38.0729 53.616 37.9409 53.356 37.6769 53.148C37.4209 52.94 37.0929 52.836 36.6929 52.836C36.3089 52.836 35.9529 52.916 35.6249 53.076C35.2969 53.228 34.9369 53.492 34.5449 53.868L33.6569 52.788C34.1289 52.348 34.6209 52.02 35.1329 51.804C35.6449 51.58 36.1809 51.468 36.7409 51.468C37.3089 51.468 37.8089 51.568 38.2409 51.768C38.6729 51.968 39.0089 52.244 39.2489 52.596C39.4889 52.948 39.6089 53.36 39.6089 53.832C39.6089 54.104 39.5689 54.36 39.4889 54.6C39.4169 54.84 39.2969 55.084 39.1289 55.332C38.9609 55.572 38.7369 55.832 38.4569 56.112L35.9129 58.668L39.7409 58.656V60H33.8849ZM40.9318 60V51.6H44.8798C45.4478 51.6 45.9438 51.696 46.3678 51.888C46.7918 52.08 47.1238 52.352 47.3638 52.704C47.6038 53.048 47.7238 53.448 47.7238 53.904C47.7238 54.272 47.6278 54.612 47.4358 54.924C47.2518 55.228 46.9998 55.476 46.6798 55.668C47.0878 55.86 47.4118 56.12 47.6518 56.448C47.8918 56.776 48.0118 57.148 48.0118 57.564C48.0118 58.044 47.8878 58.468 47.6398 58.836C47.3998 59.204 47.0558 59.492 46.6078 59.7C46.1678 59.9 45.6558 60 45.0718 60H40.9318ZM42.6718 55.032H44.7718C45.1478 55.032 45.4438 54.944 45.6598 54.768C45.8838 54.584 45.9958 54.34 45.9958 54.036C45.9958 53.732 45.8838 53.492 45.6598 53.316C45.4438 53.132 45.1478 53.04 44.7718 53.04H42.6718V55.032ZM42.6718 58.56H44.9398C45.3398 58.56 45.6598 58.464 45.8998 58.272C46.1398 58.072 46.2598 57.808 46.2598 57.48C46.2598 57.144 46.1398 56.88 45.8998 56.688C45.6598 56.488 45.3398 56.388 44.9398 56.388H42.6718V58.56ZM51.6427 60V51.6H53.3827V58.464H57.9787V60H51.6427ZM59.0699 60V53.748H60.7139V60H59.0699ZM59.8859 53.004C59.6299 53.004 59.4099 52.912 59.2259 52.728C59.0419 52.544 58.9499 52.324 58.9499 52.068C58.9499 51.804 59.0419 51.584 59.2259 51.408C59.4099 51.224 59.6299 51.132 59.8859 51.132C60.1499 51.132 60.3699 51.224 60.5459 51.408C60.7299 51.584 60.8219 51.804 60.8219 52.068C60.8219 52.324 60.7299 52.544 60.5459 52.728C60.3699 52.912 60.1499 53.004 59.8859 53.004ZM66.6436 62.448V59.508C66.1396 59.892 65.5556 60.084 64.8916 60.084C64.2996 60.084 63.7636 59.94 63.2836 59.652C62.8036 59.364 62.4196 58.98 62.1316 58.5C61.8516 58.012 61.7116 57.468 61.7116 56.868C61.7116 56.268 61.8516 55.728 62.1316 55.248C62.4196 54.76 62.8076 54.376 63.2956 54.096C63.7836 53.808 64.3316 53.664 64.9396 53.664C65.2596 53.664 65.5636 53.708 65.8516 53.796C66.1476 53.884 66.4196 54.008 66.6676 54.168V53.748H68.2876V62.448H66.6436ZM65.1556 58.68C65.4596 58.68 65.7356 58.632 65.9836 58.536C66.2396 58.432 66.4596 58.28 66.6436 58.08V55.644C66.4596 55.46 66.2396 55.316 65.9836 55.212C65.7276 55.108 65.4516 55.056 65.1556 55.056C64.8116 55.056 64.4996 55.136 64.2196 55.296C63.9476 55.448 63.7316 55.664 63.5716 55.944C63.4116 56.216 63.3316 56.524 63.3316 56.868C63.3316 57.212 63.4116 57.52 63.5716 57.792C63.7316 58.064 63.9476 58.28 64.2196 58.44C64.4996 58.6 64.8116 58.68 65.1556 58.68ZM71.9939 60.12C71.5139 60.12 71.0859 60.016 70.7099 59.808C70.3419 59.592 70.0499 59.296 69.8339 58.92C69.6259 58.544 69.5219 58.112 69.5219 57.624V53.748H71.1659V57.384C71.1659 57.784 71.2819 58.104 71.5139 58.344C71.7539 58.584 72.0739 58.704 72.4739 58.704C72.7459 58.704 72.9899 58.652 73.2059 58.548C73.4299 58.436 73.6139 58.28 73.7579 58.08V53.748H75.4019V60H73.7579V59.496C73.2779 59.912 72.6899 60.12 71.9939 60.12ZM76.6832 60V53.748H78.3272V60H76.6832ZM77.4992 53.004C77.2432 53.004 77.0232 52.912 76.8392 52.728C76.6552 52.544 76.5632 52.324 76.5632 52.068C76.5632 51.804 76.6552 51.584 76.8392 51.408C77.0232 51.224 77.2432 51.132 77.4992 51.132C77.7632 51.132 77.9832 51.224 78.1592 51.408C78.3432 51.584 78.4352 51.804 78.4352 52.068C78.4352 52.324 78.3432 52.544 78.1592 52.728C77.9832 52.912 77.7632 53.004 77.4992 53.004ZM82.5048 60.084C81.9128 60.084 81.3768 59.94 80.8968 59.652C80.4168 59.364 80.0328 58.98 79.7448 58.5C79.4648 58.012 79.3248 57.468 79.3248 56.868C79.3248 56.268 79.4648 55.728 79.7448 55.248C80.0328 54.76 80.4208 54.376 80.9088 54.096C81.3968 53.808 81.9448 53.664 82.5528 53.664C82.8648 53.664 83.1648 53.708 83.4528 53.796C83.7408 53.876 84.0088 53.996 84.2568 54.156V51.6L85.9008 51.324V60H84.2808V59.484C83.7688 59.884 83.1768 60.084 82.5048 60.084ZM82.7688 58.68C83.0728 58.68 83.3488 58.632 83.5968 58.536C83.8528 58.432 84.0728 58.28 84.2568 58.08V55.644C84.0728 55.46 83.8528 55.316 83.5968 55.212C83.3408 55.108 83.0648 55.056 82.7688 55.056C82.4248 55.056 82.1128 55.136 81.8328 55.296C81.5608 55.448 81.3448 55.664 81.1848 55.944C81.0248 56.216 80.9448 56.524 80.9448 56.868C80.9448 57.212 81.0248 57.52 81.1848 57.792C81.3448 58.064 81.5608 58.28 81.8328 58.44C82.1128 58.6 82.4248 58.68 82.7688 58.68ZM89.1752 60.108C88.7272 60.108 88.3312 60.028 87.9872 59.868C87.6432 59.7 87.3752 59.472 87.1832 59.184C86.9912 58.896 86.8952 58.564 86.8952 58.188C86.8952 57.588 87.1192 57.124 87.5672 56.796C88.0232 56.46 88.6472 56.292 89.4392 56.292C89.9832 56.292 90.4952 56.376 90.9752 56.544V56.088C90.9752 55.728 90.8632 55.456 90.6392 55.272C90.4152 55.088 90.0872 54.996 89.6552 54.996C89.3912 54.996 89.1072 55.04 88.8032 55.128C88.4992 55.208 88.1472 55.336 87.7472 55.512L87.1472 54.3C87.6432 54.076 88.1152 53.908 88.5632 53.796C89.0192 53.684 89.4752 53.628 89.9312 53.628C90.7712 53.628 91.4232 53.832 91.8872 54.24C92.3592 54.64 92.5952 55.208 92.5952 55.944V60H90.9752V59.556C90.7192 59.748 90.4432 59.888 90.1472 59.976C89.8512 60.064 89.5272 60.108 89.1752 60.108ZM88.4552 58.152C88.4552 58.392 88.5592 58.584 88.7672 58.728C88.9752 58.864 89.2512 58.932 89.5952 58.932C89.8672 58.932 90.1192 58.9 90.3512 58.836C90.5832 58.764 90.7912 58.66 90.9752 58.524V57.612C90.7752 57.532 90.5672 57.472 90.3512 57.432C90.1352 57.392 89.9032 57.372 89.6552 57.372C89.2792 57.372 88.9832 57.444 88.7672 57.588C88.5592 57.724 88.4552 57.912 88.4552 58.152ZM96.6276 60.096C95.9316 60.096 95.4036 59.94 95.0436 59.628C94.6916 59.308 94.5156 58.844 94.5156 58.236V55.116H93.2316V53.748H94.5156V52.152L96.1596 51.78V53.748H97.9476V55.116H96.1596V57.9C96.1596 58.188 96.2236 58.396 96.3516 58.524C96.4796 58.644 96.7036 58.704 97.0236 58.704C97.1836 58.704 97.3276 58.696 97.4556 58.68C97.5916 58.656 97.7396 58.616 97.8996 58.56V59.916C97.7316 59.972 97.5196 60.016 97.2636 60.048C97.0156 60.08 96.8036 60.096 96.6276 60.096ZM98.7496 60V53.748H100.394V60H98.7496ZM99.5656 53.004C99.3096 53.004 99.0896 52.912 98.9056 52.728C98.7216 52.544 98.6296 52.324 98.6296 52.068C98.6296 51.804 98.7216 51.584 98.9056 51.408C99.0896 51.224 99.3096 51.132 99.5656 51.132C99.8296 51.132 100.05 51.224 100.226 51.408C100.41 51.584 100.502 51.804 100.502 52.068C100.502 52.324 100.41 52.544 100.226 52.728C100.05 52.912 99.8296 53.004 99.5656 53.004ZM104.727 60.12C104.103 60.12 103.539 59.976 103.035 59.688C102.531 59.4 102.131 59.012 101.835 58.524C101.539 58.036 101.391 57.488 101.391 56.88C101.391 56.272 101.535 55.724 101.823 55.236C102.119 54.74 102.519 54.348 103.023 54.06C103.535 53.772 104.103 53.628 104.727 53.628C105.351 53.628 105.915 53.772 106.419 54.06C106.931 54.348 107.331 54.74 107.619 55.236C107.915 55.724 108.063 56.272 108.063 56.88C108.063 57.488 107.915 58.036 107.619 58.524C107.331 59.012 106.935 59.4 106.431 59.688C105.927 59.976 105.359 60.12 104.727 60.12ZM104.727 58.692C105.055 58.692 105.347 58.612 105.603 58.452C105.867 58.292 106.075 58.076 106.227 57.804C106.387 57.524 106.467 57.216 106.467 56.88C106.467 56.536 106.387 56.228 106.227 55.956C106.075 55.684 105.867 55.468 105.603 55.308C105.347 55.14 105.055 55.056 104.727 55.056C104.407 55.056 104.115 55.14 103.851 55.308C103.587 55.468 103.379 55.684 103.227 55.956C103.075 56.228 102.999 56.536 102.999 56.88C102.999 57.216 103.075 57.524 103.227 57.804C103.379 58.076 103.587 58.292 103.851 58.452C104.115 58.612 104.407 58.692 104.727 58.692ZM109.074 60V53.748H110.718V54.264C111.19 53.84 111.774 53.628 112.47 53.628C112.958 53.628 113.386 53.736 113.754 53.952C114.13 54.16 114.422 54.452 114.63 54.828C114.838 55.196 114.942 55.628 114.942 56.124V60H113.298V56.364C113.298 55.956 113.182 55.636 112.95 55.404C112.718 55.164 112.402 55.044 112.002 55.044C111.722 55.044 111.474 55.1 111.258 55.212C111.042 55.316 110.862 55.468 110.718 55.668V60H109.074ZM118.625 62.556V51.6H122.213V52.884H120.185V61.272H122.213V62.556H118.625ZM123.42 60V51.6H127.368C127.936 51.6 128.432 51.696 128.856 51.888C129.28 52.08 129.612 52.352 129.852 52.704C130.092 53.048 130.212 53.448 130.212 53.904C130.212 54.272 130.116 54.612 129.924 54.924C129.74 55.228 129.488 55.476 129.168 55.668C129.576 55.86 129.9 56.12 130.14 56.448C130.38 56.776 130.5 57.148 130.5 57.564C130.5 58.044 130.376 58.468 130.128 58.836C129.888 59.204 129.544 59.492 129.096 59.7C128.656 59.9 128.144 60 127.56 60H123.42ZM125.16 55.032H127.26C127.636 55.032 127.932 54.944 128.148 54.768C128.372 54.584 128.484 54.34 128.484 54.036C128.484 53.732 128.372 53.492 128.148 53.316C127.932 53.132 127.636 53.04 127.26 53.04H125.16V55.032ZM125.16 58.56H127.428C127.828 58.56 128.148 58.464 128.388 58.272C128.628 58.072 128.748 57.808 128.748 57.48C128.748 57.144 128.628 56.88 128.388 56.688C128.148 56.488 127.828 56.388 127.428 56.388H125.16V58.56ZM136.025 60V58.032H131.285V56.712L135.773 51.6H137.669V56.652H138.701V58.032H137.669V60H136.025ZM133.181 56.652H136.025V53.424L133.181 56.652ZM144.497 60V53.136H141.665V51.6H149.057V53.136H146.237V60H144.497ZM149.41 60V53.748H151.054V54.444C151.254 54.172 151.494 53.964 151.774 53.82C152.054 53.676 152.37 53.604 152.722 53.604C153.026 53.612 153.254 53.66 153.406 53.748V55.188C153.286 55.132 153.154 55.092 153.01 55.068C152.866 55.036 152.718 55.02 152.566 55.02C152.246 55.02 151.954 55.1 151.69 55.26C151.426 55.42 151.214 55.648 151.054 55.944V60H149.41ZM156.124 60.108C155.676 60.108 155.28 60.028 154.936 59.868C154.592 59.7 154.324 59.472 154.132 59.184C153.94 58.896 153.844 58.564 153.844 58.188C153.844 57.588 154.068 57.124 154.516 56.796C154.972 56.46 155.596 56.292 156.388 56.292C156.932 56.292 157.444 56.376 157.924 56.544V56.088C157.924 55.728 157.812 55.456 157.588 55.272C157.364 55.088 157.036 54.996 156.604 54.996C156.34 54.996 156.056 55.04 155.752 55.128C155.448 55.208 155.096 55.336 154.696 55.512L154.096 54.3C154.592 54.076 155.064 53.908 155.512 53.796C155.968 53.684 156.424 53.628 156.88 53.628C157.72 53.628 158.372 53.832 158.836 54.24C159.308 54.64 159.544 55.208 159.544 55.944V60H157.924V59.556C157.668 59.748 157.392 59.888 157.096 59.976C156.8 60.064 156.476 60.108 156.124 60.108ZM155.404 58.152C155.404 58.392 155.508 58.584 155.716 58.728C155.924 58.864 156.2 58.932 156.544 58.932C156.816 58.932 157.068 58.9 157.3 58.836C157.532 58.764 157.74 58.66 157.924 58.524V57.612C157.724 57.532 157.516 57.472 157.3 57.432C157.084 57.392 156.852 57.372 156.604 57.372C156.228 57.372 155.932 57.444 155.716 57.588C155.508 57.724 155.404 57.912 155.404 58.152ZM163.681 60.084C163.089 60.084 162.553 59.94 162.073 59.652C161.593 59.364 161.209 58.98 160.921 58.5C160.641 58.012 160.501 57.468 160.501 56.868C160.501 56.268 160.641 55.728 160.921 55.248C161.209 54.76 161.597 54.376 162.085 54.096C162.573 53.808 163.121 53.664 163.729 53.664C164.041 53.664 164.341 53.708 164.629 53.796C164.917 53.876 165.185 53.996 165.433 54.156V51.6L167.077 51.324V60H165.457V59.484C164.945 59.884 164.353 60.084 163.681 60.084ZM163.945 58.68C164.249 58.68 164.525 58.632 164.773 58.536C165.029 58.432 165.249 58.28 165.433 58.08V55.644C165.249 55.46 165.029 55.316 164.773 55.212C164.517 55.108 164.241 55.056 163.945 55.056C163.601 55.056 163.289 55.136 163.009 55.296C162.737 55.448 162.521 55.664 162.361 55.944C162.201 56.216 162.121 56.524 162.121 56.868C162.121 57.212 162.201 57.52 162.361 57.792C162.521 58.064 162.737 58.28 163.009 58.44C163.289 58.6 163.601 58.68 163.945 58.68ZM171.419 60.12C170.795 60.12 170.227 59.976 169.715 59.688C169.211 59.4 168.811 59.012 168.515 58.524C168.219 58.036 168.071 57.488 168.071 56.88C168.071 56.272 168.211 55.724 168.491 55.236C168.779 54.748 169.167 54.36 169.655 54.072C170.143 53.784 170.687 53.64 171.287 53.64C171.887 53.64 172.419 53.788 172.883 54.084C173.347 54.38 173.711 54.78 173.975 55.284C174.247 55.788 174.383 56.36 174.383 57V57.432H169.751C169.823 57.68 169.939 57.904 170.099 58.104C170.267 58.304 170.471 58.46 170.711 58.572C170.959 58.684 171.223 58.74 171.503 58.74C171.783 58.74 172.039 58.696 172.271 58.608C172.511 58.52 172.715 58.396 172.883 58.236L173.963 59.22C173.579 59.532 173.183 59.76 172.775 59.904C172.375 60.048 171.923 60.12 171.419 60.12ZM169.727 56.256H172.763C172.707 56.008 172.603 55.792 172.451 55.608C172.307 55.416 172.131 55.268 171.923 55.164C171.723 55.052 171.499 54.996 171.251 54.996C170.995 54.996 170.763 55.048 170.555 55.152C170.347 55.256 170.171 55.404 170.027 55.596C169.891 55.78 169.791 56 169.727 56.256ZM175.39 60V53.748H177.034V54.444C177.234 54.172 177.474 53.964 177.754 53.82C178.034 53.676 178.35 53.604 178.702 53.604C179.006 53.612 179.234 53.66 179.386 53.748V55.188C179.266 55.132 179.134 55.092 178.99 55.068C178.846 55.036 178.698 55.02 178.546 55.02C178.226 55.02 177.934 55.1 177.67 55.26C177.406 55.42 177.194 55.648 177.034 55.944V60H175.39ZM182.699 60.12C182.123 60.12 181.591 60.048 181.103 59.904C180.615 59.752 180.191 59.536 179.831 59.256L180.647 58.164C181.007 58.404 181.351 58.584 181.679 58.704C182.015 58.824 182.347 58.884 182.675 58.884C183.043 58.884 183.335 58.824 183.551 58.704C183.775 58.576 183.887 58.412 183.887 58.212C183.887 58.052 183.823 57.924 183.695 57.828C183.575 57.732 183.379 57.664 183.107 57.624L181.907 57.444C181.283 57.348 180.811 57.148 180.491 56.844C180.171 56.532 180.011 56.124 180.011 55.62C180.011 55.212 180.115 54.864 180.323 54.576C180.539 54.28 180.839 54.052 181.223 53.892C181.615 53.724 182.079 53.64 182.615 53.64C183.071 53.64 183.515 53.704 183.947 53.832C184.387 53.96 184.799 54.156 185.183 54.42L184.391 55.488C184.047 55.272 183.719 55.116 183.407 55.02C183.095 54.924 182.779 54.876 182.459 54.876C182.163 54.876 181.923 54.932 181.739 55.044C181.563 55.156 181.475 55.304 181.475 55.488C181.475 55.656 181.539 55.788 181.667 55.884C181.795 55.98 182.015 56.048 182.327 56.088L183.515 56.268C184.139 56.356 184.615 56.556 184.943 56.868C185.271 57.172 185.435 57.568 185.435 58.056C185.435 58.456 185.315 58.812 185.075 59.124C184.835 59.428 184.511 59.672 184.103 59.856C183.695 60.032 183.227 60.12 182.699 60.12ZM189.649 51.6V62.556H186.061V61.272H188.089V52.884H186.061V51.6H189.649Z" fill="white"/>
<path d="M29.884 93.132C29.26 93.132 28.68 93.024 28.144 92.808C27.608 92.584 27.136 92.276 26.728 91.884C26.32 91.484 26 91.024 25.768 90.504C25.544 89.976 25.432 89.408 25.432 88.8C25.432 88.192 25.544 87.628 25.768 87.108C26 86.58 26.316 86.12 26.716 85.728C27.116 85.328 27.584 85.02 28.12 84.804C28.664 84.58 29.244 84.468 29.86 84.468C30.556 84.468 31.212 84.608 31.828 84.888C32.444 85.16 32.952 85.544 33.352 86.04L32.14 87.156C31.852 86.796 31.512 86.524 31.12 86.34C30.728 86.156 30.308 86.064 29.86 86.064C29.484 86.064 29.136 86.136 28.816 86.28C28.496 86.416 28.216 86.608 27.976 86.856C27.736 87.096 27.548 87.384 27.412 87.72C27.284 88.048 27.22 88.408 27.22 88.8C27.22 89.192 27.288 89.556 27.424 89.892C27.56 90.228 27.748 90.52 27.988 90.768C28.236 91.008 28.52 91.2 28.84 91.344C29.168 91.48 29.524 91.548 29.908 91.548C30.308 91.548 30.668 91.476 30.988 91.332C31.308 91.18 31.576 90.972 31.792 90.708C32.016 90.436 32.164 90.132 32.236 89.796H29.752V88.284H34.096V88.812C34.096 89.436 33.988 90.012 33.772 90.54C33.564 91.06 33.272 91.516 32.896 91.908C32.52 92.292 32.076 92.592 31.564 92.808C31.052 93.024 30.492 93.132 29.884 93.132ZM35.1753 93V86.748H36.8193V87.444C37.0193 87.172 37.2593 86.964 37.5393 86.82C37.8193 86.676 38.1353 86.604 38.4873 86.604C38.7913 86.612 39.0193 86.66 39.1713 86.748V88.188C39.0513 88.132 38.9193 88.092 38.7753 88.068C38.6313 88.036 38.4833 88.02 38.3313 88.02C38.0113 88.02 37.7193 88.1 37.4553 88.26C37.1913 88.42 36.9793 88.648 36.8193 88.944V93H35.1753ZM41.89 93.108C41.442 93.108 41.046 93.028 40.702 92.868C40.358 92.7 40.09 92.472 39.898 92.184C39.706 91.896 39.61 91.564 39.61 91.188C39.61 90.588 39.834 90.124 40.282 89.796C40.738 89.46 41.362 89.292 42.154 89.292C42.698 89.292 43.21 89.376 43.69 89.544V89.088C43.69 88.728 43.578 88.456 43.354 88.272C43.13 88.088 42.802 87.996 42.37 87.996C42.106 87.996 41.822 88.04 41.518 88.128C41.214 88.208 40.862 88.336 40.462 88.512L39.862 87.3C40.358 87.076 40.83 86.908 41.278 86.796C41.734 86.684 42.19 86.628 42.646 86.628C43.486 86.628 44.138 86.832 44.602 87.24C45.074 87.64 45.31 88.208 45.31 88.944V93H43.69V92.556C43.434 92.748 43.158 92.888 42.862 92.976C42.566 93.064 42.242 93.108 41.89 93.108ZM41.17 91.152C41.17 91.392 41.274 91.584 41.482 91.728C41.69 91.864 41.966 91.932 42.31 91.932C42.582 91.932 42.834 91.9 43.066 91.836C43.298 91.764 43.506 91.66 43.69 91.524V90.612C43.49 90.532 43.282 90.472 43.066 90.432C42.85 90.392 42.618 90.372 42.37 90.372C41.994 90.372 41.698 90.444 41.482 90.588C41.274 90.724 41.17 90.912 41.17 91.152ZM49.4463 93.084C48.8543 93.084 48.3183 92.94 47.8383 92.652C47.3583 92.364 46.9743 91.98 46.6863 91.5C46.4063 91.012 46.2663 90.468 46.2663 89.868C46.2663 89.268 46.4063 88.728 46.6863 88.248C46.9743 87.76 47.3623 87.376 47.8503 87.096C48.3383 86.808 48.8863 86.664 49.4943 86.664C49.8063 86.664 50.1063 86.708 50.3943 86.796C50.6823 86.876 50.9503 86.996 51.1983 87.156V84.6L52.8423 84.324V93H51.2223V92.484C50.7103 92.884 50.1183 93.084 49.4463 93.084ZM49.7103 91.68C50.0143 91.68 50.2903 91.632 50.5383 91.536C50.7943 91.432 51.0143 91.28 51.1983 91.08V88.644C51.0143 88.46 50.7943 88.316 50.5383 88.212C50.2823 88.108 50.0063 88.056 49.7103 88.056C49.3663 88.056 49.0543 88.136 48.7743 88.296C48.5023 88.448 48.2863 88.664 48.1263 88.944C47.9663 89.216 47.8863 89.524 47.8863 89.868C47.8863 90.212 47.9663 90.52 48.1263 90.792C48.2863 91.064 48.5023 91.28 48.7743 91.44C49.0543 91.6 49.3663 91.68 49.7103 91.68ZM54.1246 93V86.748H55.7686V93H54.1246ZM54.9406 86.004C54.6846 86.004 54.4646 85.912 54.2806 85.728C54.0966 85.544 54.0046 85.324 54.0046 85.068C54.0046 84.804 54.0966 84.584 54.2806 84.408C54.4646 84.224 54.6846 84.132 54.9406 84.132C55.2046 84.132 55.4246 84.224 55.6006 84.408C55.7846 84.584 55.8766 84.804 55.8766 85.068C55.8766 85.324 55.7846 85.544 55.6006 85.728C55.4246 85.912 55.2046 86.004 54.9406 86.004ZM57.0543 93V86.748H58.6983V87.264C59.1703 86.84 59.7543 86.628 60.4503 86.628C60.9383 86.628 61.3663 86.736 61.7343 86.952C62.1103 87.16 62.4023 87.452 62.6103 87.828C62.8183 88.196 62.9223 88.628 62.9223 89.124V93H61.2783V89.364C61.2783 88.956 61.1623 88.636 60.9303 88.404C60.6983 88.164 60.3823 88.044 59.9823 88.044C59.7023 88.044 59.4543 88.1 59.2383 88.212C59.0223 88.316 58.8423 88.468 58.6983 88.668V93H57.0543ZM67.3115 95.568C66.8315 95.568 66.3675 95.516 65.9195 95.412C65.4715 95.316 65.0675 95.176 64.7075 94.992L65.2835 93.72C65.6275 93.888 65.9635 94.012 66.2915 94.092C66.6195 94.172 66.9475 94.212 67.2755 94.212C67.7635 94.212 68.1315 94.108 68.3795 93.9C68.6355 93.692 68.7635 93.38 68.7635 92.964V92.472C68.2515 92.848 67.6795 93.036 67.0475 93.036C66.4555 93.036 65.9195 92.896 65.4395 92.616C64.9675 92.328 64.5875 91.94 64.2995 91.452C64.0195 90.964 63.8795 90.424 63.8795 89.832C63.8795 89.24 64.0195 88.704 64.2995 88.224C64.5875 87.744 64.9755 87.364 65.4635 87.084C65.9515 86.796 66.4955 86.652 67.0955 86.652C67.3995 86.652 67.6955 86.696 67.9835 86.784C68.2715 86.872 68.5395 86.996 68.7875 87.156V86.748H70.4075V92.988C70.4075 93.812 70.1395 94.448 69.6035 94.896C69.0755 95.344 68.3115 95.568 67.3115 95.568ZM67.2995 91.644C67.6035 91.644 67.8795 91.596 68.1275 91.5C68.3755 91.396 68.5875 91.252 68.7635 91.068V88.62C68.5875 88.444 68.3715 88.308 68.1155 88.212C67.8675 88.108 67.5995 88.056 67.3115 88.056C66.9675 88.056 66.6595 88.136 66.3875 88.296C66.1155 88.448 65.8995 88.66 65.7395 88.932C65.5795 89.196 65.4995 89.496 65.4995 89.832C65.4995 90.176 65.5755 90.484 65.7275 90.756C65.8875 91.028 66.1035 91.244 66.3755 91.404C66.6555 91.564 66.9635 91.644 67.2995 91.644Z" fill="#B5AEFF"/>
<g clip-path="url(#clip0_1_10406)">
<path fill-rule="evenodd" clip-rule="evenodd" d="M82.0003 86.3333C81.6321 86.3333 81.3337 86.6318 81.3337 87V91C81.3337 91.3681 81.6321 91.6666 82.0003 91.6666H86.0003C86.3685 91.6666 86.667 91.3681 86.667 91V87C86.667 86.6318 86.3685 86.3333 86.0003 86.3333H82.0003ZM82.667 90.3333V87.6666H85.3337V90.3333H82.667Z" fill="#B5AEFF"/>
<path fill-rule="evenodd" clip-rule="evenodd" d="M82.667 82.3333C82.667 81.9651 82.3685 81.6666 82.0003 81.6666C81.6321 81.6666 81.3337 81.9651 81.3337 82.3333V83.6666H80.667C79.5624 83.6666 78.667 84.5621 78.667 85.6666V86.3333H77.3337C76.9655 86.3333 76.667 86.6318 76.667 87C76.667 87.3681 76.9655 87.6666 77.3337 87.6666H78.667V90.3333H77.3337C76.9655 90.3333 76.667 90.6318 76.667 91C76.667 91.3681 76.9655 91.6666 77.3337 91.6666H78.667V92.3333C78.667 93.4379 79.5624 94.3333 80.667 94.3333H81.3337V95.6666C81.3337 96.0348 81.6321 96.3333 82.0003 96.3333C82.3685 96.3333 82.667 96.0348 82.667 95.6666V94.3333H85.3337V95.6666C85.3337 96.0348 85.6321 96.3333 86.0003 96.3333C86.3685 96.3333 86.667 96.0348 86.667 95.6666V94.3333H87.3337C88.4382 94.3333 89.3337 93.4379 89.3337 92.3333V91.6666H90.667C91.0352 91.6666 91.3337 91.3681 91.3337 91C91.3337 90.6318 91.0352 90.3333 90.667 90.3333H89.3337V87.6666H90.667C91.0352 87.6666 91.3337 87.3681 91.3337 87C91.3337 86.6318 91.0352 86.3333 90.667 86.3333H89.3337V85.6666C89.3337 84.5621 88.4382 83.6666 87.3337 83.6666H86.667V82.3333C86.667 81.9651 86.3685 81.6666 86.0003 81.6666C85.6321 81.6666 85.3337 81.9651 85.3337 82.3333V83.6666H82.667V82.3333ZM80.0003 85.6666C80.0003 85.2984 80.2988 85 80.667 85H87.3337C87.7018 85 88.0003 85.2984 88.0003 85.6666V92.3333C88.0003 92.7015 87.7018 93 87.3337 93H80.667C80.2988 93 80.0003 92.7015 80.0003 92.3333V85.6666Z" fill="#B5AEFF"/>
</g>
<path d="M25.756 210V201.6H29.704C30.272 201.6 30.768 201.696 31.192 201.888C31.616 202.08 31.948 202.352 32.188 202.704C32.428 203.048 32.548 203.448 32.548 203.904C32.548 204.272 32.452 204.612 32.26 204.924C32.076 205.228 31.824 205.476 31.504 205.668C31.912 205.86 32.236 206.12 32.476 206.448C32.716 206.776 32.836 207.148 32.836 207.564C32.836 208.044 32.712 208.468 32.464 208.836C32.224 209.204 31.88 209.492 31.432 209.7C30.992 209.9 30.48 210 29.896 210H25.756ZM27.496 205.032H29.596C29.972 205.032 30.268 204.944 30.484 204.768C30.708 204.584 30.82 204.34 30.82 204.036C30.82 203.732 30.708 203.492 30.484 203.316C30.268 203.132 29.972 203.04 29.596 203.04H27.496V205.032ZM27.496 208.56H29.764C30.164 208.56 30.484 208.464 30.724 208.272C30.964 208.072 31.084 207.808 31.084 207.48C31.084 207.144 30.964 206.88 30.724 206.688C30.484 206.488 30.164 206.388 29.764 206.388H27.496V208.56ZM33.8849 210V208.872L37.3889 205.32C37.5569 205.144 37.6889 204.98 37.7849 204.828C37.8889 204.676 37.9609 204.528 38.0009 204.384C38.0489 204.232 38.0729 204.08 38.0729 203.928C38.0729 203.616 37.9409 203.356 37.6769 203.148C37.4209 202.94 37.0929 202.836 36.6929 202.836C36.3089 202.836 35.9529 202.916 35.6249 203.076C35.2969 203.228 34.9369 203.492 34.5449 203.868L33.6569 202.788C34.1289 202.348 34.6209 202.02 35.1329 201.804C35.6449 201.58 36.1809 201.468 36.7409 201.468C37.3089 201.468 37.8089 201.568 38.2409 201.768C38.6729 201.968 39.0089 202.244 39.2489 202.596C39.4889 202.948 39.6089 203.36 39.6089 203.832C39.6089 204.104 39.5689 204.36 39.4889 204.6C39.4169 204.84 39.2969 205.084 39.1289 205.332C38.9609 205.572 38.7369 205.832 38.4569 206.112L35.9129 208.668L39.7409 208.656V210H33.8849ZM45.0718 210.12C44.4478 210.12 43.8638 210.012 43.3198 209.796C42.7758 209.572 42.2998 209.264 41.8918 208.872C41.4918 208.48 41.1758 208.024 40.9438 207.504C40.7198 206.976 40.6078 206.408 40.6078 205.8C40.6078 205.184 40.7198 204.616 40.9438 204.096C41.1758 203.568 41.4958 203.108 41.9038 202.716C42.3118 202.324 42.7838 202.02 43.3198 201.804C43.8638 201.58 44.4478 201.468 45.0718 201.468C45.5358 201.468 45.9838 201.532 46.4158 201.66C46.8478 201.788 47.2478 201.968 47.6158 202.2C47.9918 202.432 48.3118 202.712 48.5758 203.04L47.3998 204.204C47.0958 203.828 46.7438 203.544 46.3438 203.352C45.9518 203.16 45.5278 203.064 45.0718 203.064C44.6958 203.064 44.3438 203.136 44.0158 203.28C43.6878 203.416 43.4038 203.608 43.1638 203.856C42.9238 204.096 42.7358 204.384 42.5998 204.72C42.4638 205.048 42.3958 205.408 42.3958 205.8C42.3958 206.184 42.4638 206.544 42.5998 206.88C42.7358 207.208 42.9278 207.496 43.1758 207.744C43.4238 207.984 43.7118 208.172 44.0398 208.308C44.3758 208.444 44.7398 208.512 45.1318 208.512C45.5718 208.512 45.9838 208.42 46.3678 208.236C46.7518 208.052 47.0918 207.788 47.3878 207.444L48.5278 208.572C48.2638 208.892 47.9478 209.168 47.5798 209.4C47.2118 209.632 46.8118 209.812 46.3798 209.94C45.9558 210.06 45.5198 210.12 45.0718 210.12ZM51.9591 210V201.6H53.6991V208.464H58.2951V210H51.9591ZM59.3863 210V203.748H61.0303V210H59.3863ZM60.2023 203.004C59.9463 203.004 59.7263 202.912 59.5423 202.728C59.3583 202.544 59.2663 202.324 59.2663 202.068C59.2663 201.804 59.3583 201.584 59.5423 201.408C59.7263 201.224 59.9463 201.132 60.2023 201.132C60.4663 201.132 60.6863 201.224 60.8623 201.408C61.0463 201.584 61.1383 201.804 61.1383 202.068C61.1383 202.324 61.0463 202.544 60.8623 202.728C60.6863 202.912 60.4663 203.004 60.2023 203.004ZM66.96 212.448V209.508C66.456 209.892 65.872 210.084 65.208 210.084C64.616 210.084 64.08 209.94 63.6 209.652C63.12 209.364 62.736 208.98 62.448 208.5C62.168 208.012 62.028 207.468 62.028 206.868C62.028 206.268 62.168 205.728 62.448 205.248C62.736 204.76 63.124 204.376 63.612 204.096C64.1 203.808 64.648 203.664 65.256 203.664C65.576 203.664 65.88 203.708 66.168 203.796C66.464 203.884 66.736 204.008 66.984 204.168V203.748H68.604V212.448H66.96ZM65.472 208.68C65.776 208.68 66.052 208.632 66.3 208.536C66.556 208.432 66.776 208.28 66.96 208.08V205.644C66.776 205.46 66.556 205.316 66.3 205.212C66.044 205.108 65.768 205.056 65.472 205.056C65.128 205.056 64.816 205.136 64.536 205.296C64.264 205.448 64.048 205.664 63.888 205.944C63.728 206.216 63.648 206.524 63.648 206.868C63.648 207.212 63.728 207.52 63.888 207.792C64.048 208.064 64.264 208.28 64.536 208.44C64.816 208.6 65.128 208.68 65.472 208.68ZM72.3103 210.12C71.8303 210.12 71.4023 210.016 71.0263 209.808C70.6583 209.592 70.3663 209.296 70.1503 208.92C69.9423 208.544 69.8383 208.112 69.8383 207.624V203.748H71.4823V207.384C71.4823 207.784 71.5983 208.104 71.8303 208.344C72.0703 208.584 72.3903 208.704 72.7903 208.704C73.0623 208.704 73.3063 208.652 73.5223 208.548C73.7463 208.436 73.9303 208.28 74.0743 208.08V203.748H75.7183V210H74.0743V209.496C73.5943 209.912 73.0063 210.12 72.3103 210.12ZM76.9996 210V203.748H78.6436V210H76.9996ZM77.8156 203.004C77.5596 203.004 77.3396 202.912 77.1556 202.728C76.9716 202.544 76.8796 202.324 76.8796 202.068C76.8796 201.804 76.9716 201.584 77.1556 201.408C77.3396 201.224 77.5596 201.132 77.8156 201.132C78.0796 201.132 78.2996 201.224 78.4756 201.408C78.6596 201.584 78.7516 201.804 78.7516 202.068C78.7516 202.324 78.6596 202.544 78.4756 202.728C78.2996 202.912 78.0796 203.004 77.8156 203.004ZM82.8213 210.084C82.2293 210.084 81.6933 209.94 81.2133 209.652C80.7333 209.364 80.3493 208.98 80.0613 208.5C79.7813 208.012 79.6413 207.468 79.6413 206.868C79.6413 206.268 79.7813 205.728 80.0613 205.248C80.3493 204.76 80.7373 204.376 81.2253 204.096C81.7133 203.808 82.2613 203.664 82.8693 203.664C83.1813 203.664 83.4813 203.708 83.7693 203.796C84.0573 203.876 84.3253 203.996 84.5733 204.156V201.6L86.2173 201.324V210H84.5973V209.484C84.0853 209.884 83.4933 210.084 82.8213 210.084ZM83.0853 208.68C83.3893 208.68 83.6653 208.632 83.9133 208.536C84.1693 208.432 84.3893 208.28 84.5733 208.08V205.644C84.3893 205.46 84.1693 205.316 83.9133 205.212C83.6573 205.108 83.3813 205.056 83.0853 205.056C82.7413 205.056 82.4293 205.136 82.1493 205.296C81.8773 205.448 81.6613 205.664 81.5013 205.944C81.3413 206.216 81.2613 206.524 81.2613 206.868C81.2613 207.212 81.3413 207.52 81.5013 207.792C81.6613 208.064 81.8773 208.28 82.1493 208.44C82.4293 208.6 82.7413 208.68 83.0853 208.68ZM89.4916 210.108C89.0436 210.108 88.6476 210.028 88.3036 209.868C87.9596 209.7 87.6916 209.472 87.4996 209.184C87.3076 208.896 87.2116 208.564 87.2116 208.188C87.2116 207.588 87.4356 207.124 87.8836 206.796C88.3396 206.46 88.9636 206.292 89.7556 206.292C90.2996 206.292 90.8116 206.376 91.2916 206.544V206.088C91.2916 205.728 91.1796 205.456 90.9556 205.272C90.7316 205.088 90.4036 204.996 89.9716 204.996C89.7076 204.996 89.4236 205.04 89.1196 205.128C88.8156 205.208 88.4636 205.336 88.0636 205.512L87.4636 204.3C87.9596 204.076 88.4316 203.908 88.8796 203.796C89.3356 203.684 89.7916 203.628 90.2476 203.628C91.0876 203.628 91.7396 203.832 92.2036 204.24C92.6756 204.64 92.9116 205.208 92.9116 205.944V210H91.2916V209.556C91.0356 209.748 90.7596 209.888 90.4636 209.976C90.1676 210.064 89.8436 210.108 89.4916 210.108ZM88.7716 208.152C88.7716 208.392 88.8756 208.584 89.0836 208.728C89.2916 208.864 89.5676 208.932 89.9116 208.932C90.1836 208.932 90.4356 208.9 90.6676 208.836C90.8996 208.764 91.1076 208.66 91.2916 208.524V207.612C91.0916 207.532 90.8836 207.472 90.6676 207.432C90.4516 207.392 90.2196 207.372 89.9716 207.372C89.5956 207.372 89.2996 207.444 89.0836 207.588C88.8756 207.724 88.7716 207.912 88.7716 208.152ZM96.944 210.096C96.248 210.096 95.72 209.94 95.36 209.628C95.008 209.308 94.832 208.844 94.832 208.236V205.116H93.548V203.748H94.832V202.152L96.476 201.78V203.748H98.264V205.116H96.476V207.9C96.476 208.188 96.54 208.396 96.668 208.524C96.796 208.644 97.02 208.704 97.34 208.704C97.5 208.704 97.644 208.696 97.772 208.68C97.908 208.656 98.056 208.616 98.216 208.56V209.916C98.048 209.972 97.836 210.016 97.58 210.048C97.332 210.08 97.12 210.096 96.944 210.096ZM99.066 210V203.748H100.71V210H99.066ZM99.882 203.004C99.626 203.004 99.406 202.912 99.222 202.728C99.038 202.544 98.946 202.324 98.946 202.068C98.946 201.804 99.038 201.584 99.222 201.408C99.406 201.224 99.626 201.132 99.882 201.132C100.146 201.132 100.366 201.224 100.542 201.408C100.726 201.584 100.818 201.804 100.818 202.068C100.818 202.324 100.726 202.544 100.542 202.728C100.366 202.912 100.146 203.004 99.882 203.004ZM105.044 210.12C104.42 210.12 103.856 209.976 103.352 209.688C102.848 209.4 102.448 209.012 102.152 208.524C101.856 208.036 101.708 207.488 101.708 206.88C101.708 206.272 101.852 205.724 102.14 205.236C102.436 204.74 102.836 204.348 103.34 204.06C103.852 203.772 104.42 203.628 105.044 203.628C105.668 203.628 106.232 203.772 106.736 204.06C107.248 204.348 107.648 204.74 107.936 205.236C108.232 205.724 108.38 206.272 108.38 206.88C108.38 207.488 108.232 208.036 107.936 208.524C107.648 209.012 107.252 209.4 106.748 209.688C106.244 209.976 105.676 210.12 105.044 210.12ZM105.044 208.692C105.372 208.692 105.664 208.612 105.92 208.452C106.184 208.292 106.392 208.076 106.544 207.804C106.704 207.524 106.784 207.216 106.784 206.88C106.784 206.536 106.704 206.228 106.544 205.956C106.392 205.684 106.184 205.468 105.92 205.308C105.664 205.14 105.372 205.056 105.044 205.056C104.724 205.056 104.432 205.14 104.168 205.308C103.904 205.468 103.696 205.684 103.544 205.956C103.392 206.228 103.316 206.536 103.316 206.88C103.316 207.216 103.392 207.524 103.544 207.804C103.696 208.076 103.904 208.292 104.168 208.452C104.432 208.612 104.724 208.692 105.044 208.692ZM109.39 210V203.748H111.034V204.264C111.506 203.84 112.09 203.628 112.786 203.628C113.274 203.628 113.702 203.736 114.07 203.952C114.446 204.16 114.738 204.452 114.946 204.828C115.154 205.196 115.258 205.628 115.258 206.124V210H113.614V206.364C113.614 205.956 113.498 205.636 113.266 205.404C113.034 205.164 112.718 205.044 112.318 205.044C112.038 205.044 111.79 205.1 111.574 205.212C111.358 205.316 111.178 205.468 111.034 205.668V210H109.39ZM118.942 212.556V201.6H122.53V202.884H120.502V211.272H122.53V212.556H118.942ZM123.736 210V201.6H127.684C128.252 201.6 128.748 201.696 129.172 201.888C129.596 202.08 129.928 202.352 130.168 202.704C130.408 203.048 130.528 203.448 130.528 203.904C130.528 204.272 130.432 204.612 130.24 204.924C130.056 205.228 129.804 205.476 129.484 205.668C129.892 205.86 130.216 206.12 130.456 206.448C130.696 206.776 130.816 207.148 130.816 207.564C130.816 208.044 130.692 208.468 130.444 208.836C130.204 209.204 129.86 209.492 129.412 209.7C128.972 209.9 128.46 210 127.876 210H123.736ZM125.476 205.032H127.576C127.952 205.032 128.248 204.944 128.464 204.768C128.688 204.584 128.8 204.34 128.8 204.036C128.8 203.732 128.688 203.492 128.464 203.316C128.248 203.132 127.952 203.04 127.576 203.04H125.476V205.032ZM125.476 208.56H127.744C128.144 208.56 128.464 208.464 128.704 208.272C128.944 208.072 129.064 207.808 129.064 207.48C129.064 207.144 128.944 206.88 128.704 206.688C128.464 206.488 128.144 206.388 127.744 206.388H125.476V208.56ZM131.769 207.276V205.884H136.281V207.276H131.769ZM137.529 210V201.6H139.761L142.065 206.136L144.369 201.6H146.601V210H144.957V203.82L142.041 209.4L139.137 203.796V210H137.529ZM149.878 210.108C149.43 210.108 149.034 210.028 148.69 209.868C148.346 209.7 148.078 209.472 147.886 209.184C147.694 208.896 147.598 208.564 147.598 208.188C147.598 207.588 147.822 207.124 148.27 206.796C148.726 206.46 149.35 206.292 150.142 206.292C150.686 206.292 151.198 206.376 151.678 206.544V206.088C151.678 205.728 151.566 205.456 151.342 205.272C151.118 205.088 150.79 204.996 150.358 204.996C150.094 204.996 149.81 205.04 149.506 205.128C149.202 205.208 148.85 205.336 148.45 205.512L147.85 204.3C148.346 204.076 148.818 203.908 149.266 203.796C149.722 203.684 150.178 203.628 150.634 203.628C151.474 203.628 152.126 203.832 152.59 204.24C153.062 204.64 153.298 205.208 153.298 205.944V210H151.678V209.556C151.422 209.748 151.146 209.888 150.85 209.976C150.554 210.064 150.23 210.108 149.878 210.108ZM149.158 208.152C149.158 208.392 149.262 208.584 149.47 208.728C149.678 208.864 149.954 208.932 150.298 208.932C150.57 208.932 150.822 208.9 151.054 208.836C151.286 208.764 151.494 208.66 151.678 208.524V207.612C151.478 207.532 151.27 207.472 151.054 207.432C150.838 207.392 150.606 207.372 150.358 207.372C149.982 207.372 149.686 207.444 149.47 207.588C149.262 207.724 149.158 207.912 149.158 208.152ZM153.871 210L156.271 206.82L153.931 203.748H155.839L157.219 205.608L158.587 203.748H160.435L158.131 206.796L160.579 210H158.659L157.183 208.008L155.707 210H153.871ZM160.703 210L163.103 206.82L160.763 203.748H162.671L164.051 205.608L165.419 203.748H167.267L164.963 206.796L167.411 210H165.491L164.015 208.008L162.539 210H160.703ZM171.286 201.6V212.556H167.698V211.272H169.726V202.884H167.698V201.6H171.286Z" fill="white"/>
<path d="M24.952 243L28.408 234.6H30.412L33.832 243H31.948L31.096 240.792H27.628L26.764 243H24.952ZM28.168 239.4H30.568L29.368 236.304L28.168 239.4ZM36.6853 243.12C36.2053 243.12 35.7773 243.016 35.4013 242.808C35.0333 242.592 34.7413 242.296 34.5253 241.92C34.3173 241.544 34.2133 241.112 34.2133 240.624V236.748H35.8573V240.384C35.8573 240.784 35.9733 241.104 36.2053 241.344C36.4453 241.584 36.7653 241.704 37.1653 241.704C37.4373 241.704 37.6813 241.652 37.8973 241.548C38.1213 241.436 38.3053 241.28 38.4493 241.08V236.748H40.0933V243H38.4493V242.496C37.9693 242.912 37.3813 243.12 36.6853 243.12ZM44.3386 243.096C43.6426 243.096 43.1146 242.94 42.7546 242.628C42.4026 242.308 42.2266 241.844 42.2266 241.236V238.116H40.9426V236.748H42.2266V235.152L43.8706 234.78V236.748H45.6586V238.116H43.8706V240.9C43.8706 241.188 43.9346 241.396 44.0626 241.524C44.1906 241.644 44.4146 241.704 44.7346 241.704C44.8946 241.704 45.0386 241.696 45.1666 241.68C45.3026 241.656 45.4506 241.616 45.6106 241.56V242.916C45.4426 242.972 45.2306 243.016 44.9746 243.048C44.7266 243.08 44.5146 243.096 44.3386 243.096ZM49.4382 243.12C48.8142 243.12 48.2502 242.976 47.7462 242.688C47.2422 242.4 46.8422 242.012 46.5462 241.524C46.2502 241.036 46.1022 240.488 46.1022 239.88C46.1022 239.272 46.2462 238.724 46.5342 238.236C46.8302 237.74 47.2302 237.348 47.7342 237.06C48.2462 236.772 48.8142 236.628 49.4382 236.628C50.0622 236.628 50.6262 236.772 51.1302 237.06C51.6422 237.348 52.0422 237.74 52.3302 238.236C52.6262 238.724 52.7742 239.272 52.7742 239.88C52.7742 240.488 52.6262 241.036 52.3302 241.524C52.0422 242.012 51.6462 242.4 51.1422 242.688C50.6382 242.976 50.0702 243.12 49.4382 243.12ZM49.4382 241.692C49.7662 241.692 50.0582 241.612 50.3142 241.452C50.5782 241.292 50.7862 241.076 50.9382 240.804C51.0982 240.524 51.1782 240.216 51.1782 239.88C51.1782 239.536 51.0982 239.228 50.9382 238.956C50.7862 238.684 50.5782 238.468 50.3142 238.308C50.0582 238.14 49.7662 238.056 49.4382 238.056C49.1182 238.056 48.8262 238.14 48.5622 238.308C48.2982 238.468 48.0902 238.684 47.9382 238.956C47.7862 239.228 47.7102 239.536 47.7102 239.88C47.7102 240.216 47.7862 240.524 47.9382 240.804C48.0902 241.076 48.2982 241.292 48.5622 241.452C48.8262 241.612 49.1182 241.692 49.4382 241.692ZM56.3068 243V234.6H58.0468V241.464H62.6428V243H56.3068ZM66.5476 243.12C65.9236 243.12 65.3596 242.976 64.8556 242.688C64.3516 242.4 63.9516 242.012 63.6556 241.524C63.3596 241.036 63.2116 240.488 63.2116 239.88C63.2116 239.272 63.3556 238.724 63.6436 238.236C63.9396 237.74 64.3396 237.348 64.8436 237.06C65.3556 236.772 65.9236 236.628 66.5476 236.628C67.1716 236.628 67.7356 236.772 68.2396 237.06C68.7516 237.348 69.1516 237.74 69.4396 238.236C69.7356 238.724 69.8836 239.272 69.8836 239.88C69.8836 240.488 69.7356 241.036 69.4396 241.524C69.1516 242.012 68.7556 242.4 68.2516 242.688C67.7476 242.976 67.1796 243.12 66.5476 243.12ZM66.5476 241.692C66.8756 241.692 67.1676 241.612 67.4236 241.452C67.6876 241.292 67.8956 241.076 68.0476 240.804C68.2076 240.524 68.2876 240.216 68.2876 239.88C68.2876 239.536 68.2076 239.228 68.0476 238.956C67.8956 238.684 67.6876 238.468 67.4236 238.308C67.1676 238.14 66.8756 238.056 66.5476 238.056C66.2276 238.056 65.9356 238.14 65.6716 238.308C65.4076 238.468 65.1996 238.684 65.0476 238.956C64.8956 239.228 64.8196 239.536 64.8196 239.88C64.8196 240.216 64.8956 240.524 65.0476 240.804C65.1996 241.076 65.4076 241.292 65.6716 241.452C65.9356 241.612 66.2276 241.692 66.5476 241.692ZM73.612 243.096C72.916 243.096 72.388 242.94 72.028 242.628C71.676 242.308 71.5 241.844 71.5 241.236V238.116H70.216V236.748H71.5V235.152L73.144 234.78V236.748H74.932V238.116H73.144V240.9C73.144 241.188 73.208 241.396 73.336 241.524C73.464 241.644 73.688 241.704 74.008 241.704C74.168 241.704 74.312 241.696 74.44 241.68C74.576 241.656 74.724 241.616 74.884 241.56V242.916C74.716 242.972 74.504 243.016 74.248 243.048C74 243.08 73.788 243.096 73.612 243.096ZM78.256 243V234.6H84.712V236.112H79.996V238.032H83.104V239.496H79.996V241.488H84.76V243H78.256ZM85.8824 243V236.748H87.5264V237.264C87.9984 236.84 88.5824 236.628 89.2784 236.628C89.7664 236.628 90.1944 236.736 90.5624 236.952C90.9384 237.16 91.2304 237.452 91.4384 237.828C91.6464 238.196 91.7504 238.628 91.7504 239.124V243H90.1064V239.364C90.1064 238.956 89.9904 238.636 89.7584 238.404C89.5264 238.164 89.2104 238.044 88.8104 238.044C88.5304 238.044 88.2824 238.1 88.0664 238.212C87.8504 238.316 87.6704 238.468 87.5264 238.668V243H85.8824ZM96.1397 245.568C95.6597 245.568 95.1957 245.516 94.7477 245.412C94.2997 245.316 93.8957 245.176 93.5357 244.992L94.1117 243.72C94.4557 243.888 94.7917 244.012 95.1197 244.092C95.4477 244.172 95.7757 244.212 96.1037 244.212C96.5917 244.212 96.9597 244.108 97.2077 243.9C97.4637 243.692 97.5917 243.38 97.5917 242.964V242.472C97.0797 242.848 96.5077 243.036 95.8757 243.036C95.2837 243.036 94.7477 242.896 94.2677 242.616C93.7957 242.328 93.4157 241.94 93.1277 241.452C92.8477 240.964 92.7077 240.424 92.7077 239.832C92.7077 239.24 92.8477 238.704 93.1277 238.224C93.4157 237.744 93.8037 237.364 94.2917 237.084C94.7797 236.796 95.3237 236.652 95.9237 236.652C96.2277 236.652 96.5237 236.696 96.8117 236.784C97.0997 236.872 97.3677 236.996 97.6157 237.156V236.748H99.2357V242.988C99.2357 243.812 98.9677 244.448 98.4317 244.896C97.9037 245.344 97.1397 245.568 96.1397 245.568ZM96.1277 241.644C96.4317 241.644 96.7077 241.596 96.9557 241.5C97.2037 241.396 97.4157 241.252 97.5917 241.068V238.62C97.4157 238.444 97.1997 238.308 96.9437 238.212C96.6957 238.108 96.4277 238.056 96.1397 238.056C95.7957 238.056 95.4877 238.136 95.2157 238.296C94.9437 238.448 94.7277 238.66 94.5677 238.932C94.4077 239.196 94.3277 239.496 94.3277 239.832C94.3277 240.176 94.4037 240.484 94.5557 240.756C94.7157 241.028 94.9317 241.244 95.2037 241.404C95.4837 241.564 95.7917 241.644 96.1277 241.644ZM100.519 243V236.748H102.163V243H100.519ZM101.335 236.004C101.079 236.004 100.859 235.912 100.675 235.728C100.491 235.544 100.399 235.324 100.399 235.068C100.399 234.804 100.491 234.584 100.675 234.408C100.859 234.224 101.079 234.132 101.335 234.132C101.599 234.132 101.819 234.224 101.995 234.408C102.179 234.584 102.271 234.804 102.271 235.068C102.271 235.324 102.179 235.544 101.995 235.728C101.819 235.912 101.599 236.004 101.335 236.004ZM103.449 243V236.748H105.093V237.264C105.565 236.84 106.149 236.628 106.845 236.628C107.333 236.628 107.761 236.736 108.129 236.952C108.505 237.16 108.797 237.452 109.005 237.828C109.213 238.196 109.317 238.628 109.317 239.124V243H107.673V239.364C107.673 238.956 107.557 238.636 107.325 238.404C107.093 238.164 106.777 238.044 106.377 238.044C106.097 238.044 105.849 238.1 105.633 238.212C105.417 238.316 105.237 238.468 105.093 238.668V243H103.449ZM113.622 243.12C112.998 243.12 112.43 242.976 111.918 242.688C111.414 242.4 111.014 242.012 110.718 241.524C110.422 241.036 110.274 240.488 110.274 239.88C110.274 239.272 110.414 238.724 110.694 238.236C110.982 237.748 111.37 237.36 111.858 237.072C112.346 236.784 112.89 236.64 113.49 236.64C114.09 236.64 114.622 236.788 115.086 237.084C115.55 237.38 115.914 237.78 116.178 238.284C116.45 238.788 116.586 239.36 116.586 240V240.432H111.954C112.026 240.68 112.142 240.904 112.302 241.104C112.47 241.304 112.674 241.46 112.914 241.572C113.162 241.684 113.426 241.74 113.706 241.74C113.986 241.74 114.242 241.696 114.474 241.608C114.714 241.52 114.918 241.396 115.086 241.236L116.166 242.22C115.782 242.532 115.386 242.76 114.978 242.904C114.578 243.048 114.126 243.12 113.622 243.12ZM111.93 239.256H114.966C114.91 239.008 114.806 238.792 114.654 238.608C114.51 238.416 114.334 238.268 114.126 238.164C113.926 238.052 113.702 237.996 113.454 237.996C113.198 237.996 112.966 238.048 112.758 238.152C112.55 238.256 112.374 238.404 112.23 238.596C112.094 238.78 111.994 239 111.93 239.256Z" fill="#B5AEFF"/>
<g clip-path="url(#clip1_1_10406)">
<path fill-rule="evenodd" clip-rule="evenodd" d="M128 236.333C127.632 236.333 127.334 236.632 127.334 237V241C127.334 241.368 127.632 241.667 128 241.667H132C132.369 241.667 132.667 241.368 132.667 241V237C132.667 236.632 132.369 236.333 132 236.333H128ZM128.667 240.333V237.667H131.334V240.333H128.667Z" fill="#B5AEFF"/>
<path fill-rule="evenodd" clip-rule="evenodd" d="M128.667 232.333C128.667 231.965 128.369 231.667 128 231.667C127.632 231.667 127.334 231.965 127.334 232.333V233.667H126.667C125.562 233.667 124.667 234.562 124.667 235.667V236.333H123.334C122.965 236.333 122.667 236.632 122.667 237C122.667 237.368 122.965 237.667 123.334 237.667H124.667V240.333H123.334C122.965 240.333 122.667 240.632 122.667 241C122.667 241.368 122.965 241.667 123.334 241.667H124.667V242.333C124.667 243.438 125.562 244.333 126.667 244.333H127.334V245.667C127.334 246.035 127.632 246.333 128 246.333C128.369 246.333 128.667 246.035 128.667 245.667V244.333H131.334V245.667C131.334 246.035 131.632 246.333 132 246.333C132.369 246.333 132.667 246.035 132.667 245.667V244.333H133.334C134.438 244.333 135.334 243.438 135.334 242.333V241.667H136.667C137.035 241.667 137.334 241.368 137.334 241C137.334 240.632 137.035 240.333 136.667 240.333H135.334V237.667H136.667C137.035 237.667 137.334 237.368 137.334 237C137.334 236.632 137.035 236.333 136.667 236.333H135.334V235.667C135.334 234.562 134.438 233.667 133.334 233.667H132.667V232.333C132.667 231.965 132.369 231.667 132 231.667C131.632 231.667 131.334 231.965 131.334 232.333V233.667H128.667V232.333ZM126 235.667C126 235.298 126.299 235 126.667 235H133.334C133.702 235 134 235.298 134 235.667V242.333C134 242.701 133.702 243 133.334 243H126.667C126.299 243 126 242.701 126 242.333V235.667Z" fill="#B5AEFF"/>
</g>
<path d="M28.588 135.132C27.94 135.132 27.336 135.02 26.776 134.796C26.224 134.564 25.76 134.24 25.384 133.824L26.44 132.84C26.76 133.184 27.076 133.424 27.388 133.56C27.708 133.688 28.1 133.752 28.564 133.752C28.9 133.752 29.192 133.704 29.44 133.608C29.696 133.504 29.892 133.36 30.028 133.176C30.172 132.992 30.244 132.78 30.244 132.54C30.244 132.316 30.188 132.124 30.076 131.964C29.964 131.804 29.812 131.68 29.62 131.592C29.428 131.496 29.2 131.448 28.936 131.448H27.88V130.152H28.792C29.168 130.152 29.464 130.056 29.68 129.864C29.896 129.664 30.004 129.392 30.004 129.048C30.004 128.824 29.94 128.624 29.812 128.448C29.684 128.264 29.508 128.12 29.284 128.016C29.068 127.912 28.82 127.86 28.54 127.86C28.124 127.86 27.764 127.932 27.46 128.076C27.164 128.22 26.852 128.476 26.524 128.844L25.456 127.86C25.848 127.42 26.316 127.08 26.86 126.84C27.412 126.592 27.992 126.468 28.6 126.468C29.184 126.468 29.7 126.572 30.148 126.78C30.596 126.98 30.948 127.26 31.204 127.62C31.46 127.98 31.588 128.392 31.588 128.856C31.588 129.304 31.44 129.704 31.144 130.056C30.848 130.4 30.464 130.64 29.992 130.776C30.552 130.888 30.996 131.112 31.324 131.448C31.66 131.784 31.828 132.188 31.828 132.66C31.828 133.132 31.688 133.556 31.408 133.932C31.128 134.308 30.744 134.604 30.256 134.82C29.776 135.028 29.22 135.132 28.588 135.132ZM33.1505 135V126.6H37.3625C37.9145 126.6 38.3985 126.712 38.8145 126.936C39.2385 127.16 39.5705 127.472 39.8105 127.872C40.0505 128.264 40.1705 128.72 40.1705 129.24C40.1705 129.736 40.0505 130.18 39.8105 130.572C39.5705 130.964 39.2385 131.272 38.8145 131.496C38.3905 131.72 37.9065 131.832 37.3625 131.832H34.8905V135H33.1505ZM34.8905 130.392H37.1705C37.5465 130.392 37.8465 130.288 38.0705 130.08C38.3025 129.872 38.4185 129.596 38.4185 129.252C38.4185 128.9 38.3025 128.62 38.0705 128.412C37.8465 128.204 37.5465 128.1 37.1705 128.1H34.8905V130.392ZM43.7326 135V126.6H47.9446C48.4966 126.6 48.9806 126.712 49.3966 126.936C49.8206 127.16 50.1526 127.472 50.3926 127.872C50.6326 128.264 50.7526 128.72 50.7526 129.24C50.7526 129.736 50.6326 130.18 50.3926 130.572C50.1526 130.964 49.8206 131.272 49.3966 131.496C48.9726 131.72 48.4886 131.832 47.9446 131.832H45.4726V135H43.7326ZM45.4726 130.392H47.7526C48.1286 130.392 48.4286 130.288 48.6526 130.08C48.8846 129.872 49.0006 129.596 49.0006 129.252C49.0006 128.9 48.8846 128.62 48.6526 128.412C48.4286 128.204 48.1286 128.1 47.7526 128.1H45.4726V130.392ZM51.7925 135V126.6L53.4365 126.324V135H51.7925ZM56.7142 135.108C56.2662 135.108 55.8702 135.028 55.5262 134.868C55.1822 134.7 54.9142 134.472 54.7222 134.184C54.5302 133.896 54.4342 133.564 54.4342 133.188C54.4342 132.588 54.6582 132.124 55.1062 131.796C55.5622 131.46 56.1862 131.292 56.9782 131.292C57.5222 131.292 58.0342 131.376 58.5142 131.544V131.088C58.5142 130.728 58.4022 130.456 58.1782 130.272C57.9542 130.088 57.6262 129.996 57.1942 129.996C56.9302 129.996 56.6462 130.04 56.3422 130.128C56.0382 130.208 55.6862 130.336 55.2862 130.512L54.6862 129.3C55.1822 129.076 55.6542 128.908 56.1022 128.796C56.5582 128.684 57.0142 128.628 57.4702 128.628C58.3102 128.628 58.9622 128.832 59.4262 129.24C59.8982 129.64 60.1342 130.208 60.1342 130.944V135H58.5142V134.556C58.2582 134.748 57.9822 134.888 57.6862 134.976C57.3902 135.064 57.0662 135.108 56.7142 135.108ZM55.9942 133.152C55.9942 133.392 56.0982 133.584 56.3062 133.728C56.5142 133.864 56.7902 133.932 57.1342 133.932C57.4062 133.932 57.6582 133.9 57.8902 133.836C58.1222 133.764 58.3302 133.66 58.5142 133.524V132.612C58.3142 132.532 58.1062 132.472 57.8902 132.432C57.6742 132.392 57.4422 132.372 57.1942 132.372C56.8182 132.372 56.5222 132.444 56.3062 132.588C56.0982 132.724 55.9942 132.912 55.9942 133.152ZM64.1667 135.096C63.4707 135.096 62.9427 134.94 62.5827 134.628C62.2307 134.308 62.0547 133.844 62.0547 133.236V130.116H60.7707V128.748H62.0547V127.152L63.6987 126.78V128.748H65.4867V130.116H63.6987V132.9C63.6987 133.188 63.7627 133.396 63.8907 133.524C64.0187 133.644 64.2427 133.704 64.5627 133.704C64.7227 133.704 64.8667 133.696 64.9947 133.68C65.1307 133.656 65.2787 133.616 65.4387 133.56V134.916C65.2707 134.972 65.0587 135.016 64.8027 135.048C64.5547 135.08 64.3427 135.096 64.1667 135.096ZM67.3658 135V130.116H65.9738V128.748H67.3658V128.148C67.3658 127.444 67.5698 126.908 67.9778 126.54C68.3858 126.164 68.9738 125.976 69.7418 125.976C69.9098 125.976 70.0818 125.984 70.2578 126C70.4338 126.016 70.5858 126.044 70.7138 126.084V127.464C70.5618 127.432 70.4298 127.408 70.3178 127.392C70.2058 127.376 70.0818 127.368 69.9458 127.368C69.6338 127.368 69.3978 127.436 69.2378 127.572C69.0858 127.7 69.0098 127.904 69.0098 128.184V128.748H70.7138V130.116H69.0098V135H67.3658ZM74.364 135.12C73.74 135.12 73.176 134.976 72.672 134.688C72.168 134.4 71.768 134.012 71.472 133.524C71.176 133.036 71.028 132.488 71.028 131.88C71.028 131.272 71.172 130.724 71.46 130.236C71.756 129.74 72.156 129.348 72.66 129.06C73.172 128.772 73.74 128.628 74.364 128.628C74.988 128.628 75.552 128.772 76.056 129.06C76.568 129.348 76.968 129.74 77.256 130.236C77.552 130.724 77.7 131.272 77.7 131.88C77.7 132.488 77.552 133.036 77.256 133.524C76.968 134.012 76.572 134.4 76.068 134.688C75.564 134.976 74.996 135.12 74.364 135.12ZM74.364 133.692C74.692 133.692 74.984 133.612 75.24 133.452C75.504 133.292 75.712 133.076 75.864 132.804C76.024 132.524 76.104 132.216 76.104 131.88C76.104 131.536 76.024 131.228 75.864 130.956C75.712 130.684 75.504 130.468 75.24 130.308C74.984 130.14 74.692 130.056 74.364 130.056C74.044 130.056 73.752 130.14 73.488 130.308C73.224 130.468 73.016 130.684 72.864 130.956C72.712 131.228 72.636 131.536 72.636 131.88C72.636 132.216 72.712 132.524 72.864 132.804C73.016 133.076 73.224 133.292 73.488 133.452C73.752 133.612 74.044 133.692 74.364 133.692ZM78.7105 135V128.748H80.3545V129.444C80.5545 129.172 80.7945 128.964 81.0745 128.82C81.3545 128.676 81.6705 128.604 82.0225 128.604C82.3265 128.612 82.5545 128.66 82.7065 128.748V130.188C82.5865 130.132 82.4545 130.092 82.3105 130.068C82.1665 130.036 82.0185 130.02 81.8665 130.02C81.5465 130.02 81.2545 130.1 80.9905 130.26C80.7265 130.42 80.5145 130.648 80.3545 130.944V135H78.7105ZM83.6089 135V128.748H85.2529V129.228C85.7009 128.828 86.2449 128.628 86.8849 128.628C87.2929 128.628 87.6569 128.712 87.9769 128.88C88.2969 129.04 88.5609 129.268 88.7689 129.564C89.0249 129.26 89.3249 129.028 89.6689 128.868C90.0209 128.708 90.4089 128.628 90.8329 128.628C91.3049 128.628 91.7169 128.736 92.0689 128.952C92.4289 129.16 92.7089 129.452 92.9089 129.828C93.1169 130.196 93.2209 130.628 93.2209 131.124V135H91.5889V131.364C91.5889 130.956 91.4809 130.636 91.2649 130.404C91.0489 130.164 90.7609 130.044 90.4009 130.044C90.1529 130.044 89.9249 130.096 89.7169 130.2C89.5169 130.304 89.3449 130.46 89.2009 130.668C89.2089 130.74 89.2169 130.812 89.2249 130.884C89.2329 130.956 89.2369 131.036 89.2369 131.124V135H87.5929V131.364C87.5929 130.956 87.4849 130.636 87.2689 130.404C87.0609 130.164 86.7769 130.044 86.4169 130.044C86.1689 130.044 85.9449 130.092 85.7449 130.188C85.5529 130.284 85.3889 130.428 85.2529 130.62V135H83.6089ZM96.8122 135.12C96.2362 135.12 95.7042 135.048 95.2162 134.904C94.7282 134.752 94.3042 134.536 93.9442 134.256L94.7602 133.164C95.1202 133.404 95.4642 133.584 95.7922 133.704C96.1282 133.824 96.4602 133.884 96.7882 133.884C97.1562 133.884 97.4482 133.824 97.6642 133.704C97.8882 133.576 98.0002 133.412 98.0002 133.212C98.0002 133.052 97.9362 132.924 97.8082 132.828C97.6882 132.732 97.4922 132.664 97.2202 132.624L96.0202 132.444C95.3962 132.348 94.9242 132.148 94.6042 131.844C94.2842 131.532 94.1242 131.124 94.1242 130.62C94.1242 130.212 94.2282 129.864 94.4362 129.576C94.6522 129.28 94.9522 129.052 95.3362 128.892C95.7282 128.724 96.1922 128.64 96.7282 128.64C97.1842 128.64 97.6282 128.704 98.0602 128.832C98.5002 128.96 98.9122 129.156 99.2962 129.42L98.5042 130.488C98.1602 130.272 97.8322 130.116 97.5202 130.02C97.2082 129.924 96.8922 129.876 96.5722 129.876C96.2762 129.876 96.0362 129.932 95.8522 130.044C95.6762 130.156 95.5882 130.304 95.5882 130.488C95.5882 130.656 95.6522 130.788 95.7802 130.884C95.9082 130.98 96.1282 131.048 96.4402 131.088L97.6282 131.268C98.2522 131.356 98.7282 131.556 99.0562 131.868C99.3842 132.172 99.5482 132.568 99.5482 133.056C99.5482 133.456 99.4282 133.812 99.1882 134.124C98.9482 134.428 98.6242 134.672 98.2162 134.856C97.8082 135.032 97.3402 135.12 96.8122 135.12ZM102.805 137.556V126.6H106.393V127.884H104.365V136.272H106.393V137.556H102.805ZM107.6 135V126.6H109.34V135H107.6ZM110.761 135V128.748H112.405V129.264C112.877 128.84 113.461 128.628 114.157 128.628C114.645 128.628 115.073 128.736 115.441 128.952C115.817 129.16 116.109 129.452 116.317 129.828C116.525 130.196 116.629 130.628 116.629 131.124V135H114.985V131.364C114.985 130.956 114.869 130.636 114.637 130.404C114.405 130.164 114.089 130.044 113.689 130.044C113.409 130.044 113.161 130.1 112.945 130.212C112.729 130.316 112.549 130.468 112.405 130.668V135H110.761ZM120.663 135.096C119.967 135.096 119.439 134.94 119.079 134.628C118.727 134.308 118.551 133.844 118.551 133.236V130.116H117.267V128.748H118.551V127.152L120.195 126.78V128.748H121.983V130.116H120.195V132.9C120.195 133.188 120.259 133.396 120.387 133.524C120.515 133.644 120.739 133.704 121.059 133.704C121.219 133.704 121.363 133.696 121.491 133.68C121.627 133.656 121.775 133.616 121.935 133.56V134.916C121.767 134.972 121.555 135.016 121.299 135.048C121.051 135.08 120.839 135.096 120.663 135.096ZM125.774 135.12C125.15 135.12 124.582 134.976 124.07 134.688C123.566 134.4 123.166 134.012 122.87 133.524C122.574 133.036 122.426 132.488 122.426 131.88C122.426 131.272 122.566 130.724 122.846 130.236C123.134 129.748 123.522 129.36 124.01 129.072C124.498 128.784 125.042 128.64 125.642 128.64C126.242 128.64 126.774 128.788 127.238 129.084C127.702 129.38 128.066 129.78 128.33 130.284C128.602 130.788 128.738 131.36 128.738 132V132.432H124.106C124.178 132.68 124.294 132.904 124.454 133.104C124.622 133.304 124.826 133.46 125.066 133.572C125.314 133.684 125.578 133.74 125.858 133.74C126.138 133.74 126.394 133.696 126.626 133.608C126.866 133.52 127.07 133.396 127.238 133.236L128.318 134.22C127.934 134.532 127.538 134.76 127.13 134.904C126.73 135.048 126.278 135.12 125.774 135.12ZM124.082 131.256H127.118C127.062 131.008 126.958 130.792 126.806 130.608C126.662 130.416 126.486 130.268 126.278 130.164C126.078 130.052 125.854 129.996 125.606 129.996C125.35 129.996 125.118 130.048 124.91 130.152C124.702 130.256 124.526 130.404 124.382 130.596C124.246 130.78 124.146 131 124.082 131.256ZM132.937 137.568C132.457 137.568 131.993 137.516 131.545 137.412C131.097 137.316 130.693 137.176 130.333 136.992L130.909 135.72C131.253 135.888 131.589 136.012 131.917 136.092C132.245 136.172 132.573 136.212 132.901 136.212C133.389 136.212 133.757 136.108 134.005 135.9C134.261 135.692 134.389 135.38 134.389 134.964V134.472C133.877 134.848 133.305 135.036 132.673 135.036C132.081 135.036 131.545 134.896 131.065 134.616C130.593 134.328 130.213 133.94 129.925 133.452C129.645 132.964 129.505 132.424 129.505 131.832C129.505 131.24 129.645 130.704 129.925 130.224C130.213 129.744 130.601 129.364 131.089 129.084C131.577 128.796 132.121 128.652 132.721 128.652C133.025 128.652 133.321 128.696 133.609 128.784C133.897 128.872 134.165 128.996 134.413 129.156V128.748H136.033V134.988C136.033 135.812 135.765 136.448 135.229 136.896C134.701 137.344 133.937 137.568 132.937 137.568ZM132.925 133.644C133.229 133.644 133.505 133.596 133.753 133.5C134.001 133.396 134.213 133.252 134.389 133.068V130.62C134.213 130.444 133.997 130.308 133.741 130.212C133.493 130.108 133.225 130.056 132.937 130.056C132.593 130.056 132.285 130.136 132.013 130.296C131.741 130.448 131.525 130.66 131.365 130.932C131.205 131.196 131.125 131.496 131.125 131.832C131.125 132.176 131.201 132.484 131.353 132.756C131.513 133.028 131.729 133.244 132.001 133.404C132.281 133.564 132.589 133.644 132.925 133.644ZM137.316 135V128.748H138.96V129.444C139.16 129.172 139.4 128.964 139.68 128.82C139.96 128.676 140.276 128.604 140.628 128.604C140.932 128.612 141.16 128.66 141.312 128.748V130.188C141.192 130.132 141.06 130.092 140.916 130.068C140.772 130.036 140.624 130.02 140.472 130.02C140.152 130.02 139.86 130.1 139.596 130.26C139.332 130.42 139.12 130.648 138.96 130.944V135H137.316ZM144.031 135.108C143.583 135.108 143.187 135.028 142.843 134.868C142.499 134.7 142.231 134.472 142.039 134.184C141.847 133.896 141.751 133.564 141.751 133.188C141.751 132.588 141.975 132.124 142.423 131.796C142.879 131.46 143.503 131.292 144.295 131.292C144.839 131.292 145.351 131.376 145.831 131.544V131.088C145.831 130.728 145.719 130.456 145.495 130.272C145.271 130.088 144.943 129.996 144.511 129.996C144.247 129.996 143.963 130.04 143.659 130.128C143.355 130.208 143.003 130.336 142.603 130.512L142.003 129.3C142.499 129.076 142.971 128.908 143.419 128.796C143.875 128.684 144.331 128.628 144.787 128.628C145.627 128.628 146.279 128.832 146.743 129.24C147.215 129.64 147.451 130.208 147.451 130.944V135H145.831V134.556C145.575 134.748 145.299 134.888 145.003 134.976C144.707 135.064 144.383 135.108 144.031 135.108ZM143.311 133.152C143.311 133.392 143.415 133.584 143.623 133.728C143.831 133.864 144.107 133.932 144.451 133.932C144.723 133.932 144.975 133.9 145.207 133.836C145.439 133.764 145.647 133.66 145.831 133.524V132.612C145.631 132.532 145.423 132.472 145.207 132.432C144.991 132.392 144.759 132.372 144.511 132.372C144.135 132.372 143.839 132.444 143.623 132.588C143.415 132.724 143.311 132.912 143.311 133.152ZM151.483 135.096C150.787 135.096 150.259 134.94 149.899 134.628C149.547 134.308 149.371 133.844 149.371 133.236V130.116H148.087V128.748H149.371V127.152L151.015 126.78V128.748H152.803V130.116H151.015V132.9C151.015 133.188 151.079 133.396 151.207 133.524C151.335 133.644 151.559 133.704 151.879 133.704C152.039 133.704 152.183 133.696 152.311 133.68C152.447 133.656 152.595 133.616 152.755 133.56V134.916C152.587 134.972 152.375 135.016 152.119 135.048C151.871 135.08 151.659 135.096 151.483 135.096ZM153.605 135V128.748H155.249V135H153.605ZM154.421 128.004C154.165 128.004 153.945 127.912 153.761 127.728C153.577 127.544 153.485 127.324 153.485 127.068C153.485 126.804 153.577 126.584 153.761 126.408C153.945 126.224 154.165 126.132 154.421 126.132C154.685 126.132 154.905 126.224 155.081 126.408C155.265 126.584 155.357 126.804 155.357 127.068C155.357 127.324 155.265 127.544 155.081 127.728C154.905 127.912 154.685 128.004 154.421 128.004ZM159.583 135.12C158.959 135.12 158.395 134.976 157.891 134.688C157.387 134.4 156.987 134.012 156.691 133.524C156.395 133.036 156.247 132.488 156.247 131.88C156.247 131.272 156.391 130.724 156.679 130.236C156.975 129.74 157.375 129.348 157.879 129.06C158.391 128.772 158.959 128.628 159.583 128.628C160.207 128.628 160.771 128.772 161.275 129.06C161.787 129.348 162.187 129.74 162.475 130.236C162.771 130.724 162.919 131.272 162.919 131.88C162.919 132.488 162.771 133.036 162.475 133.524C162.187 134.012 161.791 134.4 161.287 134.688C160.783 134.976 160.215 135.12 159.583 135.12ZM159.583 133.692C159.911 133.692 160.203 133.612 160.459 133.452C160.723 133.292 160.931 133.076 161.083 132.804C161.243 132.524 161.323 132.216 161.323 131.88C161.323 131.536 161.243 131.228 161.083 130.956C160.931 130.684 160.723 130.468 160.459 130.308C160.203 130.14 159.911 130.056 159.583 130.056C159.263 130.056 158.971 130.14 158.707 130.308C158.443 130.468 158.235 130.684 158.083 130.956C157.931 131.228 157.855 131.536 157.855 131.88C157.855 132.216 157.931 132.524 158.083 132.804C158.235 133.076 158.443 133.292 158.707 133.452C158.971 133.612 159.263 133.692 159.583 133.692ZM163.929 135V128.748H165.573V129.264C166.045 128.84 166.629 128.628 167.325 128.628C167.813 128.628 168.241 128.736 168.609 128.952C168.985 129.16 169.277 129.452 169.485 129.828C169.693 130.196 169.797 130.628 169.797 131.124V135H168.153V131.364C168.153 130.956 168.037 130.636 167.805 130.404C167.573 130.164 167.257 130.044 166.857 130.044C166.577 130.044 166.329 130.1 166.113 130.212C165.897 130.316 165.717 130.468 165.573 130.668V135H163.929ZM174.439 126.6V137.556H170.851V136.272H172.879V127.884H170.851V126.6H174.439Z" fill="white"/>
<path d="M25.756 168V159.6H29.968C30.52 159.6 31.004 159.712 31.42 159.936C31.844 160.16 32.176 160.472 32.416 160.872C32.656 161.264 32.776 161.72 32.776 162.24C32.776 162.736 32.656 163.18 32.416 163.572C32.176 163.964 31.844 164.272 31.42 164.496C30.996 164.72 30.512 164.832 29.968 164.832H27.496V168H25.756ZM27.496 163.392H29.776C30.152 163.392 30.452 163.288 30.676 163.08C30.908 162.872 31.024 162.596 31.024 162.252C31.024 161.9 30.908 161.62 30.676 161.412C30.452 161.204 30.152 161.1 29.776 161.1H27.496V163.392ZM33.8043 168V161.748H35.4483V162.444C35.6483 162.172 35.8883 161.964 36.1683 161.82C36.4483 161.676 36.7643 161.604 37.1163 161.604C37.4203 161.612 37.6483 161.66 37.8003 161.748V163.188C37.6803 163.132 37.5483 163.092 37.4043 163.068C37.2603 163.036 37.1123 163.02 36.9603 163.02C36.6403 163.02 36.3483 163.1 36.0843 163.26C35.8203 163.42 35.6083 163.648 35.4483 163.944V168H33.8043ZM38.7027 168V161.748H40.3467V168H38.7027ZM39.5187 161.004C39.2627 161.004 39.0427 160.912 38.8587 160.728C38.6747 160.544 38.5827 160.324 38.5827 160.068C38.5827 159.804 38.6747 159.584 38.8587 159.408C39.0427 159.224 39.2627 159.132 39.5187 159.132C39.7827 159.132 40.0027 159.224 40.1787 159.408C40.3627 159.584 40.4547 159.804 40.4547 160.068C40.4547 160.324 40.3627 160.544 40.1787 160.728C40.0027 160.912 39.7827 161.004 39.5187 161.004ZM44.6204 168.12C44.0044 168.12 43.4484 167.98 42.9524 167.7C42.4564 167.412 42.0644 167.024 41.7764 166.536C41.4884 166.04 41.3444 165.488 41.3444 164.88C41.3444 164.264 41.4884 163.712 41.7764 163.224C42.0644 162.736 42.4564 162.348 42.9524 162.06C43.4484 161.772 44.0044 161.628 44.6204 161.628C45.1164 161.628 45.5884 161.724 46.0364 161.916C46.4924 162.108 46.8844 162.384 47.2124 162.744L46.2044 163.812C45.9724 163.556 45.7284 163.368 45.4724 163.248C45.2244 163.12 44.9524 163.056 44.6564 163.056C44.3364 163.056 44.0484 163.136 43.7924 163.296C43.5444 163.456 43.3444 163.672 43.1924 163.944C43.0484 164.216 42.9764 164.528 42.9764 164.88C42.9764 165.216 43.0484 165.524 43.1924 165.804C43.3444 166.076 43.5524 166.292 43.8164 166.452C44.0804 166.604 44.3724 166.68 44.6924 166.68C44.9724 166.68 45.2324 166.624 45.4724 166.512C45.7204 166.392 45.9564 166.216 46.1804 165.984L47.1644 167.016C46.8444 167.36 46.4604 167.632 46.0124 167.832C45.5644 168.024 45.1004 168.12 44.6204 168.12ZM48.0191 168V161.748H49.6631V168H48.0191ZM48.8351 161.004C48.5791 161.004 48.3591 160.912 48.1751 160.728C47.9911 160.544 47.8991 160.324 47.8991 160.068C47.8991 159.804 47.9911 159.584 48.1751 159.408C48.3591 159.224 48.5791 159.132 48.8351 159.132C49.0991 159.132 49.3191 159.224 49.4951 159.408C49.6791 159.584 49.7711 159.804 49.7711 160.068C49.7711 160.324 49.6791 160.544 49.4951 160.728C49.3191 160.912 49.0991 161.004 48.8351 161.004ZM50.9488 168V161.748H52.5928V162.264C53.0648 161.84 53.6488 161.628 54.3448 161.628C54.8328 161.628 55.2608 161.736 55.6288 161.952C56.0048 162.16 56.2968 162.452 56.5048 162.828C56.7128 163.196 56.8168 163.628 56.8168 164.124V168H55.1728V164.364C55.1728 163.956 55.0568 163.636 54.8248 163.404C54.5928 163.164 54.2768 163.044 53.8768 163.044C53.5968 163.044 53.3488 163.1 53.1328 163.212C52.9168 163.316 52.7368 163.468 52.5928 163.668V168H50.9488ZM61.2061 170.568C60.7261 170.568 60.2621 170.516 59.8141 170.412C59.3661 170.316 58.9621 170.176 58.6021 169.992L59.1781 168.72C59.5221 168.888 59.8581 169.012 60.1861 169.092C60.5141 169.172 60.8421 169.212 61.1701 169.212C61.6581 169.212 62.0261 169.108 62.2741 168.9C62.5301 168.692 62.6581 168.38 62.6581 167.964V167.472C62.1461 167.848 61.5741 168.036 60.9421 168.036C60.3501 168.036 59.8141 167.896 59.3341 167.616C58.8621 167.328 58.4821 166.94 58.1941 166.452C57.9141 165.964 57.7741 165.424 57.7741 164.832C57.7741 164.24 57.9141 163.704 58.1941 163.224C58.4821 162.744 58.8701 162.364 59.3581 162.084C59.8461 161.796 60.3901 161.652 60.9901 161.652C61.2941 161.652 61.5901 161.696 61.8781 161.784C62.1661 161.872 62.4341 161.996 62.6821 162.156V161.748H64.3021V167.988C64.3021 168.812 64.0341 169.448 63.4981 169.896C62.9701 170.344 62.2061 170.568 61.2061 170.568ZM61.1941 166.644C61.4981 166.644 61.7741 166.596 62.0221 166.5C62.2701 166.396 62.4821 166.252 62.6581 166.068V163.62C62.4821 163.444 62.2661 163.308 62.0101 163.212C61.7621 163.108 61.4941 163.056 61.2061 163.056C60.8621 163.056 60.5541 163.136 60.2821 163.296C60.0101 163.448 59.7941 163.66 59.6341 163.932C59.4741 164.196 59.3941 164.496 59.3941 164.832C59.3941 165.176 59.4701 165.484 59.6221 165.756C59.7821 166.028 59.9981 166.244 60.2701 166.404C60.5501 166.564 60.8581 166.644 61.1941 166.644ZM68.1076 168V159.6H74.5636V161.112H69.8476V163.032H72.9556V164.496H69.8476V166.488H74.6116V168H68.1076ZM75.7339 168V161.748H77.3779V162.264C77.8499 161.84 78.4339 161.628 79.1299 161.628C79.6179 161.628 80.0459 161.736 80.4139 161.952C80.7899 162.16 81.0819 162.452 81.2899 162.828C81.4979 163.196 81.6019 163.628 81.6019 164.124V168H79.9579V164.364C79.9579 163.956 79.8419 163.636 79.6099 163.404C79.3779 163.164 79.0619 163.044 78.6619 163.044C78.3819 163.044 78.1339 163.1 77.9179 163.212C77.7019 163.316 77.5219 163.468 77.3779 163.668V168H75.7339ZM85.9912 170.568C85.5112 170.568 85.0472 170.516 84.5992 170.412C84.1512 170.316 83.7472 170.176 83.3872 169.992L83.9632 168.72C84.3072 168.888 84.6432 169.012 84.9712 169.092C85.2992 169.172 85.6272 169.212 85.9552 169.212C86.4432 169.212 86.8112 169.108 87.0592 168.9C87.3152 168.692 87.4432 168.38 87.4432 167.964V167.472C86.9312 167.848 86.3592 168.036 85.7272 168.036C85.1352 168.036 84.5992 167.896 84.1192 167.616C83.6472 167.328 83.2672 166.94 82.9792 166.452C82.6992 165.964 82.5592 165.424 82.5592 164.832C82.5592 164.24 82.6992 163.704 82.9792 163.224C83.2672 162.744 83.6552 162.364 84.1432 162.084C84.6312 161.796 85.1752 161.652 85.7752 161.652C86.0792 161.652 86.3752 161.696 86.6632 161.784C86.9512 161.872 87.2192 161.996 87.4672 162.156V161.748H89.0872V167.988C89.0872 168.812 88.8192 169.448 88.2832 169.896C87.7552 170.344 86.9912 170.568 85.9912 170.568ZM85.9792 166.644C86.2832 166.644 86.5592 166.596 86.8072 166.5C87.0552 166.396 87.2672 166.252 87.4432 166.068V163.62C87.2672 163.444 87.0512 163.308 86.7952 163.212C86.5472 163.108 86.2792 163.056 85.9912 163.056C85.6472 163.056 85.3392 163.136 85.0672 163.296C84.7952 163.448 84.5792 163.66 84.4192 163.932C84.2592 164.196 84.1792 164.496 84.1792 164.832C84.1792 165.176 84.2552 165.484 84.4072 165.756C84.5672 166.028 84.7832 166.244 85.0552 166.404C85.3352 166.564 85.6432 166.644 85.9792 166.644ZM90.3707 168V161.748H92.0147V168H90.3707ZM91.1867 161.004C90.9307 161.004 90.7107 160.912 90.5267 160.728C90.3427 160.544 90.2507 160.324 90.2507 160.068C90.2507 159.804 90.3427 159.584 90.5267 159.408C90.7107 159.224 90.9307 159.132 91.1867 159.132C91.4507 159.132 91.6707 159.224 91.8467 159.408C92.0307 159.584 92.1227 159.804 92.1227 160.068C92.1227 160.324 92.0307 160.544 91.8467 160.728C91.6707 160.912 91.4507 161.004 91.1867 161.004ZM93.3003 168V161.748H94.9443V162.264C95.4163 161.84 96.0003 161.628 96.6963 161.628C97.1843 161.628 97.6123 161.736 97.9803 161.952C98.3563 162.16 98.6483 162.452 98.8563 162.828C99.0643 163.196 99.1683 163.628 99.1683 164.124V168H97.5243V164.364C97.5243 163.956 97.4083 163.636 97.1763 163.404C96.9443 163.164 96.6283 163.044 96.2283 163.044C95.9483 163.044 95.7003 163.1 95.4843 163.212C95.2683 163.316 95.0883 163.468 94.9443 163.668V168H93.3003ZM103.474 168.12C102.85 168.12 102.282 167.976 101.77 167.688C101.266 167.4 100.866 167.012 100.57 166.524C100.274 166.036 100.126 165.488 100.126 164.88C100.126 164.272 100.266 163.724 100.546 163.236C100.834 162.748 101.222 162.36 101.71 162.072C102.198 161.784 102.742 161.64 103.342 161.64C103.942 161.64 104.474 161.788 104.938 162.084C105.402 162.38 105.766 162.78 106.03 163.284C106.302 163.788 106.438 164.36 106.438 165V165.432H101.806C101.878 165.68 101.994 165.904 102.154 166.104C102.322 166.304 102.526 166.46 102.766 166.572C103.014 166.684 103.278 166.74 103.558 166.74C103.838 166.74 104.094 166.696 104.326 166.608C104.566 166.52 104.77 166.396 104.938 166.236L106.018 167.22C105.634 167.532 105.238 167.76 104.83 167.904C104.43 168.048 103.978 168.12 103.474 168.12ZM101.782 164.256H104.818C104.762 164.008 104.658 163.792 104.506 163.608C104.362 163.416 104.186 163.268 103.978 163.164C103.778 163.052 103.554 162.996 103.306 162.996C103.05 162.996 102.818 163.048 102.61 163.152C102.402 163.256 102.226 163.404 102.082 163.596C101.946 163.78 101.846 164 101.782 164.256Z" fill="#B5AEFF"/>
<g clip-path="url(#clip2_1_10406)">
<path fill-rule="evenodd" clip-rule="evenodd" d="M117 161.333C116.632 161.333 116.334 161.632 116.334 162V166C116.334 166.368 116.632 166.667 117 166.667H121C121.369 166.667 121.667 166.368 121.667 166V162C121.667 161.632 121.369 161.333 121 161.333H117ZM117.667 165.333V162.667H120.334V165.333H117.667Z" fill="#B5AEFF"/>
<path fill-rule="evenodd" clip-rule="evenodd" d="M117.667 157.333C117.667 156.965 117.369 156.667 117 156.667C116.632 156.667 116.334 156.965 116.334 157.333V158.667H115.667C114.562 158.667 113.667 159.562 113.667 160.667V161.333H112.334C111.965 161.333 111.667 161.632 111.667 162C111.667 162.368 111.965 162.667 112.334 162.667H113.667V165.333H112.334C111.965 165.333 111.667 165.632 111.667 166C111.667 166.368 111.965 166.667 112.334 166.667H113.667V167.333C113.667 168.438 114.562 169.333 115.667 169.333H116.334V170.667C116.334 171.035 116.632 171.333 117 171.333C117.369 171.333 117.667 171.035 117.667 170.667V169.333H120.334V170.667C120.334 171.035 120.632 171.333 121 171.333C121.369 171.333 121.667 171.035 121.667 170.667V169.333H122.334C123.438 169.333 124.334 168.438 124.334 167.333V166.667H125.667C126.035 166.667 126.334 166.368 126.334 166C126.334 165.632 126.035 165.333 125.667 165.333H124.334V162.667H125.667C126.035 162.667 126.334 162.368 126.334 162C126.334 161.632 126.035 161.333 125.667 161.333H124.334V160.667C124.334 159.562 123.438 158.667 122.334 158.667H121.667V157.333C121.667 156.965 121.369 156.667 121 156.667C120.632 156.667 120.334 156.965 120.334 157.333V158.667H117.667V157.333ZM115 160.667C115 160.298 115.299 160 115.667 160H122.334C122.702 160 123 160.298 123 160.667V167.333C123 167.701 122.702 168 122.334 168H115.667C115.299 168 115 167.701 115 167.333V160.667Z" fill="#B5AEFF"/>
</g>
<rect x="49" y="0.5" width="224" height="22" rx="11" fill="#1A1B35"/>
<path d="M73.3554 15V8H76.8654C77.3254 8 77.7287 8.09333 78.0754 8.28C78.4287 8.46667 78.7054 8.72667 78.9054 9.06C79.1054 9.38667 79.2054 9.76667 79.2054 10.2C79.2054 10.6133 79.1054 10.9833 78.9054 11.31C78.7054 11.6367 78.4287 11.8933 78.0754 12.08C77.7221 12.2667 77.3187 12.36 76.8654 12.36H74.8054V15H73.3554ZM74.8054 11.16H76.7054C77.0187 11.16 77.2687 11.0733 77.4554 10.9C77.6487 10.7267 77.7454 10.4967 77.7454 10.21C77.7454 9.91667 77.6487 9.68333 77.4554 9.51C77.2687 9.33667 77.0187 9.25 76.7054 9.25H74.8054V11.16ZM81.762 15V8H85.182C85.6554 8 86.072 8.09333 86.432 8.28C86.7987 8.46 87.082 8.71333 87.282 9.04C87.4887 9.36667 87.592 9.74333 87.592 10.17C87.592 10.6167 87.4687 11.01 87.222 11.35C86.9754 11.69 86.6454 11.9433 86.232 12.11L87.782 15H86.162L84.792 12.32H83.212V15H81.762ZM83.212 11.13H85.052C85.3787 11.13 85.6387 11.0433 85.832 10.87C86.032 10.6967 86.132 10.47 86.132 10.19C86.132 9.91 86.032 9.68333 85.832 9.51C85.6387 9.33667 85.3787 9.25 85.052 9.25H83.212V11.13ZM93.5791 15.11C93.0591 15.11 92.5758 15.02 92.1291 14.84C91.6825 14.6533 91.2891 14.3967 90.9491 14.07C90.6158 13.7367 90.3525 13.3533 90.1591 12.92C89.9725 12.48 89.8791 12.0067 89.8791 11.5C89.8791 10.9933 89.9725 10.5233 90.1591 10.09C90.3525 9.65 90.6158 9.26667 90.9491 8.94C91.2891 8.60667 91.6825 8.35 92.1291 8.17C92.5758 7.98333 93.0591 7.89 93.5791 7.89C94.0991 7.89 94.5825 7.98333 95.0291 8.17C95.4825 8.35 95.8758 8.60667 96.2091 8.94C96.5491 9.26667 96.8125 9.65 96.9991 10.09C97.1858 10.5233 97.2791 10.9933 97.2791 11.5C97.2791 12.0067 97.1858 12.48 96.9991 12.92C96.8125 13.3533 96.5491 13.7367 96.2091 14.07C95.8758 14.3967 95.4825 14.6533 95.0291 14.84C94.5825 15.02 94.0991 15.11 93.5791 15.11ZM93.5791 13.78C93.8991 13.78 94.1925 13.7233 94.4591 13.61C94.7258 13.49 94.9591 13.33 95.1591 13.13C95.3591 12.9233 95.5158 12.68 95.6291 12.4C95.7425 12.12 95.7991 11.82 95.7991 11.5C95.7991 11.1733 95.7425 10.8733 95.6291 10.6C95.5158 10.32 95.3591 10.08 95.1591 9.88C94.9591 9.67333 94.7258 9.51333 94.4591 9.4C94.1925 9.28 93.8991 9.22 93.5791 9.22C93.2658 9.22 92.9758 9.28 92.7091 9.4C92.4425 9.51333 92.2091 9.67333 92.0091 9.88C91.8091 10.08 91.6525 10.32 91.5391 10.6C91.4258 10.8733 91.3691 11.17 91.3691 11.49C91.3691 11.8167 91.4258 12.12 91.5391 12.4C91.6525 12.68 91.8091 12.9233 92.0091 13.13C92.2091 13.33 92.4425 13.49 92.7091 13.61C92.9758 13.7233 93.2658 13.78 93.5791 13.78ZM103.334 15.1C102.814 15.1 102.327 15.01 101.874 14.83C101.421 14.6433 101.024 14.3867 100.684 14.06C100.351 13.7333 100.087 13.3533 99.8939 12.92C99.7072 12.48 99.6139 12.0067 99.6139 11.5C99.6139 10.9867 99.7072 10.5133 99.8939 10.08C100.087 9.64 100.354 9.25667 100.694 8.93C101.034 8.60333 101.427 8.35 101.874 8.17C102.327 7.98333 102.814 7.89 103.334 7.89C103.721 7.89 104.094 7.94333 104.454 8.05C104.814 8.15667 105.147 8.30667 105.454 8.5C105.767 8.69333 106.034 8.92667 106.254 9.2L105.274 10.17C105.021 9.85667 104.727 9.62 104.394 9.46C104.067 9.3 103.714 9.22 103.334 9.22C103.021 9.22 102.727 9.28 102.454 9.4C102.181 9.51333 101.944 9.67333 101.744 9.88C101.544 10.08 101.387 10.32 101.274 10.6C101.161 10.8733 101.104 11.1733 101.104 11.5C101.104 11.82 101.161 12.12 101.274 12.4C101.387 12.6733 101.547 12.9133 101.754 13.12C101.961 13.32 102.201 13.4767 102.474 13.59C102.754 13.7033 103.057 13.76 103.384 13.76C103.751 13.76 104.094 13.6833 104.414 13.53C104.734 13.3767 105.017 13.1567 105.264 12.87L106.214 13.81C105.994 14.0767 105.731 14.3067 105.424 14.5C105.117 14.6933 104.784 14.8433 104.424 14.95C104.071 15.05 103.707 15.1 103.334 15.1ZM108.662 15V8H114.042V9.26H110.112V10.86H112.702V12.08H110.112V13.74H114.082V15H108.662ZM119.207 15.1C118.64 15.1 118.087 14.9967 117.547 14.79C117.007 14.5767 116.527 14.2767 116.107 13.89L116.937 12.85C117.344 13.21 117.734 13.47 118.107 13.63C118.487 13.79 118.887 13.87 119.307 13.87C119.6 13.87 119.854 13.8367 120.067 13.77C120.28 13.6967 120.444 13.5933 120.557 13.46C120.677 13.3267 120.737 13.17 120.737 12.99C120.737 12.75 120.65 12.5667 120.477 12.44C120.304 12.3067 120.007 12.2033 119.587 12.13L118.197 11.89C117.604 11.79 117.15 11.58 116.837 11.26C116.53 10.94 116.377 10.5267 116.377 10.02C116.377 9.58667 116.487 9.21 116.707 8.89C116.934 8.57 117.25 8.32667 117.657 8.16C118.07 7.98667 118.56 7.9 119.127 7.9C119.64 7.9 120.15 7.98667 120.657 8.16C121.17 8.33333 121.624 8.57333 122.017 8.88L121.237 9.96C120.504 9.4 119.767 9.12 119.027 9.12C118.767 9.12 118.54 9.15333 118.347 9.22C118.154 9.28667 118.004 9.38 117.897 9.5C117.797 9.61333 117.747 9.75 117.747 9.91C117.747 10.1233 117.824 10.29 117.977 10.41C118.13 10.5233 118.387 10.61 118.747 10.67L120.067 10.89C120.767 11.0033 121.29 11.2267 121.637 11.56C121.984 11.8867 122.157 12.32 122.157 12.86C122.157 13.3133 122.037 13.71 121.797 14.05C121.557 14.3833 121.214 14.6433 120.767 14.83C120.327 15.01 119.807 15.1 119.207 15.1ZM127.213 15.1C126.647 15.1 126.093 14.9967 125.553 14.79C125.013 14.5767 124.533 14.2767 124.113 13.89L124.943 12.85C125.35 13.21 125.74 13.47 126.113 13.63C126.493 13.79 126.893 13.87 127.313 13.87C127.607 13.87 127.86 13.8367 128.073 13.77C128.287 13.6967 128.45 13.5933 128.563 13.46C128.683 13.3267 128.743 13.17 128.743 12.99C128.743 12.75 128.657 12.5667 128.483 12.44C128.31 12.3067 128.013 12.2033 127.593 12.13L126.203 11.89C125.61 11.79 125.157 11.58 124.843 11.26C124.537 10.94 124.383 10.5267 124.383 10.02C124.383 9.58667 124.493 9.21 124.713 8.89C124.94 8.57 125.257 8.32667 125.663 8.16C126.077 7.98667 126.567 7.9 127.133 7.9C127.647 7.9 128.157 7.98667 128.663 8.16C129.177 8.33333 129.63 8.57333 130.023 8.88L129.243 9.96C128.51 9.4 127.773 9.12 127.033 9.12C126.773 9.12 126.547 9.15333 126.353 9.22C126.16 9.28667 126.01 9.38 125.903 9.5C125.803 9.61333 125.753 9.75 125.753 9.91C125.753 10.1233 125.83 10.29 125.983 10.41C126.137 10.5233 126.393 10.61 126.753 10.67L128.073 10.89C128.773 11.0033 129.297 11.2267 129.643 11.56C129.99 11.8867 130.163 12.32 130.163 12.86C130.163 13.3133 130.043 13.71 129.803 14.05C129.563 14.3833 129.22 14.6433 128.773 14.83C128.333 15.01 127.813 15.1 127.213 15.1ZM132.622 15V8H138.002V9.26H134.072V10.86H136.662V12.08H134.072V13.74H138.042V15H132.622ZM143.167 15.1C142.6 15.1 142.047 14.9967 141.507 14.79C140.967 14.5767 140.487 14.2767 140.067 13.89L140.897 12.85C141.304 13.21 141.694 13.47 142.067 13.63C142.447 13.79 142.847 13.87 143.267 13.87C143.56 13.87 143.814 13.8367 144.027 13.77C144.24 13.6967 144.404 13.5933 144.517 13.46C144.637 13.3267 144.697 13.17 144.697 12.99C144.697 12.75 144.61 12.5667 144.437 12.44C144.264 12.3067 143.967 12.2033 143.547 12.13L142.157 11.89C141.564 11.79 141.11 11.58 140.797 11.26C140.49 10.94 140.337 10.5267 140.337 10.02C140.337 9.58667 140.447 9.21 140.667 8.89C140.894 8.57 141.21 8.32667 141.617 8.16C142.03 7.98667 142.52 7.9 143.087 7.9C143.6 7.9 144.11 7.98667 144.617 8.16C145.13 8.33333 145.584 8.57333 145.977 8.88L145.197 9.96C144.464 9.4 143.727 9.12 142.987 9.12C142.727 9.12 142.5 9.15333 142.307 9.22C142.114 9.28667 141.964 9.38 141.857 9.5C141.757 9.61333 141.707 9.75 141.707 9.91C141.707 10.1233 141.784 10.29 141.937 10.41C142.09 10.5233 142.347 10.61 142.707 10.67L144.027 10.89C144.727 11.0033 145.25 11.2267 145.597 11.56C145.944 11.8867 146.117 12.32 146.117 12.86C146.117 13.3133 145.997 13.71 145.757 14.05C145.517 14.3833 145.174 14.6433 144.727 14.83C144.287 15.01 143.767 15.1 143.167 15.1ZM151.517 15L154.397 8H156.067L158.917 15H157.347L156.637 13.16H153.747L153.027 15H151.517ZM154.197 12H156.197L155.197 9.42L154.197 12ZM161.112 15V8H162.492L165.972 12.52V8H167.332V15H166.052L162.482 10.32V15H161.112ZM171.652 13.71H172.872C173.185 13.71 173.475 13.6567 173.742 13.55C174.015 13.4367 174.252 13.28 174.452 13.08C174.659 12.88 174.815 12.6467 174.922 12.38C175.035 12.1133 175.092 11.8233 175.092 11.51C175.092 11.1967 175.035 10.9067 174.922 10.64C174.809 10.3667 174.652 10.13 174.452 9.93C174.252 9.73 174.015 9.57333 173.742 9.46C173.475 9.34667 173.185 9.29 172.872 9.29H171.652V13.71ZM170.202 15V8H172.892C173.419 8 173.905 8.09 174.352 8.27C174.799 8.44333 175.189 8.69 175.522 9.01C175.855 9.33 176.115 9.70333 176.302 10.13C176.495 10.5567 176.592 11.0167 176.592 11.51C176.592 12.01 176.499 12.47 176.312 12.89C176.125 13.31 175.862 13.68 175.522 14C175.189 14.3133 174.799 14.56 174.352 14.74C173.905 14.9133 173.419 15 172.892 15H170.202ZM186.246 15.1C185.726 15.1 185.24 15.01 184.786 14.83C184.333 14.6433 183.936 14.3867 183.596 14.06C183.263 13.7333 183 13.3533 182.806 12.92C182.62 12.48 182.526 12.0067 182.526 11.5C182.526 10.9867 182.62 10.5133 182.806 10.08C183 9.64 183.266 9.25667 183.606 8.93C183.946 8.60333 184.34 8.35 184.786 8.17C185.24 7.98333 185.726 7.89 186.246 7.89C186.633 7.89 187.006 7.94333 187.366 8.05C187.726 8.15667 188.06 8.30667 188.366 8.5C188.68 8.69333 188.946 8.92667 189.166 9.2L188.186 10.17C187.933 9.85667 187.64 9.62 187.306 9.46C186.98 9.3 186.626 9.22 186.246 9.22C185.933 9.22 185.64 9.28 185.366 9.4C185.093 9.51333 184.856 9.67333 184.656 9.88C184.456 10.08 184.3 10.32 184.186 10.6C184.073 10.8733 184.016 11.1733 184.016 11.5C184.016 11.82 184.073 12.12 184.186 12.4C184.3 12.6733 184.46 12.9133 184.666 13.12C184.873 13.32 185.113 13.4767 185.386 13.59C185.666 13.7033 185.97 13.76 186.296 13.76C186.663 13.76 187.006 13.6833 187.326 13.53C187.646 13.3767 187.93 13.1567 188.176 12.87L189.126 13.81C188.906 14.0767 188.643 14.3067 188.336 14.5C188.03 14.6933 187.696 14.8433 187.336 14.95C186.983 15.05 186.62 15.1 186.246 15.1ZM191.574 15V8H193.024V10.82H196.244V8H197.694V15H196.244V12.13H193.024V15H191.574ZM199.897 15L202.777 8H204.447L207.297 15H205.727L205.017 13.16H202.127L201.407 15H199.897ZM202.577 12H204.577L203.577 9.42L202.577 12ZM209.491 15V8H210.871L214.351 12.52V8H215.711V15H214.431L210.861 10.32V15H209.491ZM218.581 15V8H219.961L223.441 12.52V8H224.801V15H223.521L219.951 10.32V15H218.581ZM227.671 15V8H233.051V9.26H229.121V10.86H231.711V12.08H229.121V13.74H233.091V15H227.671ZM235.717 15V8H237.167V13.72H240.997V15H235.717ZM246.096 15.1C245.529 15.1 244.976 14.9967 244.436 14.79C243.896 14.5767 243.416 14.2767 242.996 13.89L243.826 12.85C244.233 13.21 244.623 13.47 244.996 13.63C245.376 13.79 245.776 13.87 246.196 13.87C246.489 13.87 246.743 13.8367 246.956 13.77C247.169 13.6967 247.333 13.5933 247.446 13.46C247.566 13.3267 247.626 13.17 247.626 12.99C247.626 12.75 247.539 12.5667 247.366 12.44C247.193 12.3067 246.896 12.2033 246.476 12.13L245.086 11.89C244.493 11.79 244.039 11.58 243.726 11.26C243.419 10.94 243.266 10.5267 243.266 10.02C243.266 9.58667 243.376 9.21 243.596 8.89C243.823 8.57 244.139 8.32667 244.546 8.16C244.959 7.98667 245.449 7.9 246.016 7.9C246.529 7.9 247.039 7.98667 247.546 8.16C248.059 8.33333 248.513 8.57333 248.906 8.88L248.126 9.96C247.393 9.4 246.656 9.12 245.916 9.12C245.656 9.12 245.429 9.15333 245.236 9.22C245.043 9.28667 244.893 9.38 244.786 9.5C244.686 9.61333 244.636 9.75 244.636 9.91C244.636 10.1233 244.713 10.29 244.866 10.41C245.019 10.5233 245.276 10.61 245.636 10.67L246.956 10.89C247.656 11.0033 248.179 11.2267 248.526 11.56C248.873 11.8867 249.046 12.32 249.046 12.86C249.046 13.3133 248.926 13.71 248.686 14.05C248.446 14.3833 248.103 14.6433 247.656 14.83C247.216 15.01 246.696 15.1 246.096 15.1Z" fill="white"/>
<rect x="49" y="0.5" width="224" height="22" rx="11" stroke="#7EB5BE"/>
<defs>
<linearGradient id="paint0_linear_1_10406" x1="161" y1="13" x2="161" y2="314" gradientUnits="userSpaceOnUse">
<stop stop-color="#E1EEFA"/>
<stop offset="1" stop-color="#E1EEFA" stop-opacity="0"/>
</linearGradient>
<linearGradient id="paint1_linear_1_10406" x1="161" y1="13" x2="161" y2="314" gradientUnits="userSpaceOnUse">
<stop stop-color="#7EB5BE" stop-opacity="0.69"/>
<stop offset="1" stop-color="#7EB5BE" stop-opacity="0.85"/>
</linearGradient>
<clipPath id="clip0_1_10406">
<rect width="16" height="16" fill="white" transform="translate(76 81)"/>
</clipPath>
<clipPath id="clip1_1_10406">
<rect width="16" height="16" fill="white" transform="translate(122 231)"/>
</clipPath>
<clipPath id="clip2_1_10406">
<rect width="16" height="16" fill="white" transform="translate(111 156)"/>
</clipPath>
</defs>
</svg>
