<svg width="504" height="504" viewBox="0 0 504 504" fill="none" xmlns="http://www.w3.org/2000/svg">
<path opacity="0.2" fill-rule="evenodd" clip-rule="evenodd" d="M252 22.9091C125.477 22.9091 22.9091 125.477 22.9091 252C22.9091 378.523 125.477 481.091 252 481.091C378.523 481.091 481.091 378.523 481.091 252C481.091 125.477 378.523 22.9091 252 22.9091ZM0 252C0 112.824 112.824 0 252 0C391.176 0 504 112.824 504 252C504 391.176 391.176 504 252 504C112.824 504 0 391.176 0 252Z" fill="#5A98E1"/>
<circle cx="252" cy="252.001" r="240.545" stroke="#5A98E1" stroke-width="2.29091"/>
<circle cx="252" cy="11.4542" r="3.43636" fill="#9BEFF8"/>
<circle cx="300.109" cy="17.1807" r="3.43636" fill="#9BEFF8"/>
<circle cx="348.218" cy="30.927" r="3.43636" fill="#9BEFF8"/>
<circle cx="396.327" cy="59.5636" r="3.43636" fill="#9BEFF8"/>
<circle cx="438.709" cy="100.8" r="3.43636" fill="#9BEFF8"/>
<circle cx="468.491" cy="145.472" r="3.43636" fill="#9BEFF8"/>
<circle cx="485.673" cy="194.728" r="3.43636" fill="#9BEFF8"/>
<circle cx="492.545" cy="250.855" r="3.43636" fill="#9BEFF8"/>
<circle cx="486.818" cy="303.546" r="3.43636" fill="#9BEFF8"/>
<circle cx="470.782" cy="351.653" r="3.43636" fill="#9BEFF8"/>
<circle cx="442.145" cy="399.763" r="3.43636" fill="#9BEFF8"/>
<circle cx="402.055" cy="439.855" r="3.43636" fill="#9BEFF8"/>
<circle cx="361.964" cy="466.2" r="3.43636" fill="#9BEFF8"/>
<circle cx="310.418" cy="485.673" r="3.43636" fill="#9BEFF8"/>
<circle cx="258.873" cy="492.546" r="3.43636" fill="#9BEFF8"/>
<circle cx="201.6" cy="487.964" r="3.43636" fill="#9BEFF8"/>
<circle cx="139.745" cy="465.054" r="3.43636" fill="#9BEFF8"/>
<circle cx="88.2" cy="427.255" r="3.43636" fill="#9BEFF8"/>
<circle cx="49.2547" cy="382.581" r="3.43636" fill="#9BEFF8"/>
<circle cx="25.2" cy="332.181" r="3.43636" fill="#9BEFF8"/>
<circle cx="13.7454" cy="281.782" r="3.43636" fill="#9BEFF8"/>
<circle cx="12.5999" cy="224.509" r="3.43636" fill="#9BEFF8"/>
<circle cx="27.4911" cy="166.091" r="3.43636" fill="#9BEFF8"/>
<circle cx="59.5638" cy="107.673" r="3.43636" fill="#9BEFF8"/>
<circle cx="109.964" cy="57.2724" r="3.43636" fill="#9BEFF8"/>
<circle cx="175.255" cy="24.0538" r="3.43636" fill="#9BEFF8"/>
</svg>
