<svg viewBox="0 0 683 123" fill="none" xmlns="http://www.w3.org/2000/svg">
<rect x="1" y="13" width="681" height="109" rx="16" fill="url(#paint0_linear_1_8508)" fill-opacity="0.1" stroke="url(#paint1_linear_1_8508)"/>
<path d="M31.896 60L29.416 48.8H31.8L33.32 56.384L35.496 48.8H37.688L39.864 56.368L41.384 48.8H43.688L41.224 60H38.776L36.568 52.192L34.328 60H31.896ZM45.1174 60V48.8H48.0934L51.1654 54.848L54.2374 48.8H57.2134V60H55.0214V51.76L51.1334 59.2L47.2614 51.728V60H45.1174ZM63.2268 60.16C62.3201 60.16 61.4348 59.9947 60.5707 59.664C59.7067 59.3227 58.9387 58.8427 58.2668 58.224L59.5948 56.56C60.2454 57.136 60.8694 57.552 61.4668 57.808C62.0748 58.064 62.7148 58.192 63.3868 58.192C63.8561 58.192 64.2614 58.1387 64.6028 58.032C64.9441 57.9147 65.2054 57.7493 65.3868 57.536C65.5788 57.3227 65.6748 57.072 65.6748 56.784C65.6748 56.4 65.5361 56.1067 65.2588 55.904C64.9814 55.6907 64.5068 55.5253 63.8348 55.408L61.6108 55.024C60.6614 54.864 59.9361 54.528 59.4348 54.016C58.9441 53.504 58.6988 52.8427 58.6988 52.032C58.6988 51.3387 58.8748 50.736 59.2268 50.224C59.5894 49.712 60.0961 49.3227 60.7468 49.056C61.4081 48.7787 62.1921 48.64 63.0988 48.64C63.9201 48.64 64.7361 48.7787 65.5468 49.056C66.3681 49.3333 67.0934 49.7173 67.7228 50.208L66.4748 51.936C65.3014 51.04 64.1228 50.592 62.9388 50.592C62.5228 50.592 62.1601 50.6453 61.8508 50.752C61.5414 50.8587 61.3014 51.008 61.1308 51.2C60.9708 51.3813 60.8908 51.6 60.8908 51.856C60.8908 52.1973 61.0134 52.464 61.2588 52.656C61.5041 52.8373 61.9148 52.976 62.4908 53.072L64.6028 53.424C65.7228 53.6053 66.5601 53.9627 67.1148 54.496C67.6694 55.0187 67.9468 55.712 67.9468 56.576C67.9468 57.3013 67.7548 57.936 67.3708 58.48C66.9868 59.0133 66.4374 59.4293 65.7228 59.728C65.0188 60.016 64.1868 60.16 63.2268 60.16Z" fill="white"/>
<path d="M30.008 96V84.8H35.48C36.2373 84.8 36.904 84.9493 37.48 85.248C38.0667 85.536 38.52 85.9413 38.84 86.464C39.1707 86.9867 39.336 87.5893 39.336 88.272C39.336 88.9867 39.1387 89.616 38.744 90.16C38.3493 90.704 37.8213 91.1093 37.16 91.376L39.64 96H37.048L34.856 91.712H32.328V96H30.008ZM32.328 89.808H35.272C35.7947 89.808 36.2107 89.6693 36.52 89.392C36.84 89.1147 37 88.752 37 88.304C37 87.856 36.84 87.4933 36.52 87.216C36.2107 86.9387 35.7947 86.8 35.272 86.8H32.328V89.808ZM44.319 96.16C43.487 96.16 42.7297 95.968 42.047 95.584C41.375 95.2 40.8417 94.6827 40.447 94.032C40.0523 93.3813 39.855 92.6507 39.855 91.84C39.855 91.0293 40.0417 90.2987 40.415 89.648C40.799 88.9973 41.3163 88.48 41.967 88.096C42.6177 87.712 43.343 87.52 44.143 87.52C44.943 87.52 45.6523 87.7173 46.271 88.112C46.8897 88.5067 47.375 89.04 47.727 89.712C48.0897 90.384 48.271 91.1467 48.271 92V92.576H42.095C42.191 92.9067 42.3457 93.2053 42.559 93.472C42.783 93.7387 43.055 93.9467 43.375 94.096C43.7057 94.2453 44.0577 94.32 44.431 94.32C44.8043 94.32 45.1457 94.2613 45.455 94.144C45.775 94.0267 46.047 93.8613 46.271 93.648L47.711 94.96C47.199 95.376 46.671 95.68 46.127 95.872C45.5937 96.064 44.991 96.16 44.319 96.16ZM42.063 91.008H46.111C46.0363 90.6773 45.8977 90.3893 45.695 90.144C45.503 89.888 45.2683 89.6907 44.991 89.552C44.7243 89.4027 44.4257 89.328 44.095 89.328C43.7537 89.328 43.4443 89.3973 43.167 89.536C42.8897 89.6747 42.655 89.872 42.463 90.128C42.2817 90.3733 42.1483 90.6667 42.063 91.008ZM49.614 99.264V87.664H51.774V88.352C52.4567 87.8187 53.246 87.552 54.142 87.552C54.9313 87.552 55.646 87.744 56.286 88.128C56.926 88.512 57.4327 89.0293 57.806 89.68C58.19 90.32 58.382 91.04 58.382 91.84C58.382 92.64 58.19 93.3653 57.806 94.016C57.422 94.656 56.9047 95.168 56.254 95.552C55.6033 95.9253 54.878 96.112 54.078 96.112C53.662 96.112 53.262 96.0587 52.878 95.952C52.494 95.8347 52.1367 95.6693 51.806 95.456V99.264H49.614ZM53.79 94.256C54.2487 94.256 54.6593 94.1493 55.022 93.936C55.3953 93.7227 55.6887 93.4347 55.902 93.072C56.1153 92.7093 56.222 92.2987 56.222 91.84C56.222 91.3813 56.1153 90.9707 55.902 90.608C55.6887 90.2347 55.3953 89.9467 55.022 89.744C54.6593 89.5307 54.2487 89.424 53.79 89.424C53.3847 89.424 53.0113 89.4933 52.67 89.632C52.3393 89.76 52.0513 89.9573 51.806 90.224V93.472C52.0407 93.7173 52.3287 93.9093 52.67 94.048C53.022 94.1867 53.3953 94.256 53.79 94.256ZM62.4419 96.144C61.8445 96.144 61.3165 96.0373 60.8579 95.824C60.3992 95.6 60.0419 95.296 59.7859 94.912C59.5299 94.528 59.4019 94.0853 59.4019 93.584C59.4019 92.784 59.7005 92.1653 60.2979 91.728C60.9059 91.28 61.7379 91.056 62.7939 91.056C63.5192 91.056 64.2019 91.168 64.8419 91.392V90.784C64.8419 90.304 64.6925 89.9413 64.3939 89.696C64.0952 89.4507 63.6579 89.328 63.0819 89.328C62.7299 89.328 62.3512 89.3867 61.9459 89.504C61.5405 89.6107 61.0712 89.7813 60.5379 90.016L59.7379 88.4C60.3992 88.1013 61.0285 87.8773 61.6259 87.728C62.2339 87.5787 62.8419 87.504 63.4499 87.504C64.5699 87.504 65.4392 87.776 66.0579 88.32C66.6872 88.8533 67.0019 89.6107 67.0019 90.592V96H64.8419V95.408C64.5005 95.664 64.1325 95.8507 63.7379 95.968C63.3432 96.0853 62.9112 96.144 62.4419 96.144ZM61.4819 93.536C61.4819 93.856 61.6205 94.112 61.8979 94.304C62.1752 94.4853 62.5432 94.576 63.0019 94.576C63.3645 94.576 63.7005 94.5333 64.0099 94.448C64.3192 94.352 64.5965 94.2133 64.8419 94.032V92.816C64.5752 92.7093 64.2979 92.6293 64.0099 92.576C63.7219 92.5227 63.4125 92.496 63.0819 92.496C62.5805 92.496 62.1859 92.592 61.8979 92.784C61.6205 92.9653 61.4819 93.216 61.4819 93.536ZM68.6609 96V87.664H70.8529V96H68.6609ZM69.7489 86.672C69.4075 86.672 69.1142 86.5493 68.8689 86.304C68.6235 86.0587 68.5009 85.7653 68.5009 85.424C68.5009 85.072 68.6235 84.7787 68.8689 84.544C69.1142 84.2987 69.4075 84.176 69.7489 84.176C70.1009 84.176 70.3942 84.2987 70.6289 84.544C70.8742 84.7787 70.9969 85.072 70.9969 85.424C70.9969 85.7653 70.8742 86.0587 70.6289 86.304C70.3942 86.5493 70.1009 86.672 69.7489 86.672ZM72.5671 96V87.664H74.7591V88.592C75.0258 88.2293 75.3458 87.952 75.7191 87.76C76.0925 87.568 76.5138 87.472 76.9831 87.472C77.3885 87.4827 77.6925 87.5467 77.8951 87.664V89.584C77.7351 89.5093 77.5591 89.456 77.3671 89.424C77.1751 89.3813 76.9778 89.36 76.7751 89.36C76.3485 89.36 75.9591 89.4667 75.6071 89.68C75.2551 89.8933 74.9725 90.1973 74.7591 90.592V96H72.5671Z" fill="white"/>
<path d="M136.008 60.16C135.101 60.16 134.216 59.9947 133.352 59.664C132.488 59.3227 131.72 58.8427 131.048 58.224L132.376 56.56C133.027 57.136 133.651 57.552 134.248 57.808C134.856 58.064 135.496 58.192 136.168 58.192C136.637 58.192 137.043 58.1387 137.384 58.032C137.725 57.9147 137.987 57.7493 138.168 57.536C138.36 57.3227 138.456 57.072 138.456 56.784C138.456 56.4 138.317 56.1067 138.04 55.904C137.763 55.6907 137.288 55.5253 136.616 55.408L134.392 55.024C133.443 54.864 132.717 54.528 132.216 54.016C131.725 53.504 131.48 52.8427 131.48 52.032C131.48 51.3387 131.656 50.736 132.008 50.224C132.371 49.712 132.877 49.3227 133.528 49.056C134.189 48.7787 134.973 48.64 135.88 48.64C136.701 48.64 137.517 48.7787 138.328 49.056C139.149 49.3333 139.875 49.7173 140.504 50.208L139.256 51.936C138.083 51.04 136.904 50.592 135.72 50.592C135.304 50.592 134.941 50.6453 134.632 50.752C134.323 50.8587 134.083 51.008 133.912 51.2C133.752 51.3813 133.672 51.6 133.672 51.856C133.672 52.1973 133.795 52.464 134.04 52.656C134.285 52.8373 134.696 52.976 135.272 53.072L137.384 53.424C138.504 53.6053 139.341 53.9627 139.896 54.496C140.451 55.0187 140.728 55.712 140.728 56.576C140.728 57.3013 140.536 57.936 140.152 58.48C139.768 59.0133 139.219 59.4293 138.504 59.728C137.8 60.016 136.968 60.16 136.008 60.16ZM141.958 60V48.8L144.15 48.32V52.352C144.779 51.7867 145.558 51.504 146.486 51.504C147.136 51.504 147.707 51.648 148.198 51.936C148.699 52.2133 149.088 52.6027 149.366 53.104C149.643 53.5947 149.782 54.1707 149.782 54.832V60H147.59V55.152C147.59 54.608 147.435 54.1813 147.126 53.872C146.816 53.552 146.395 53.392 145.862 53.392C145.488 53.392 145.158 53.4667 144.87 53.616C144.582 53.7547 144.342 53.9573 144.15 54.224V60H141.958ZM151.442 60V51.664H153.634V60H151.442ZM152.53 50.672C152.189 50.672 151.895 50.5493 151.65 50.304C151.405 50.0587 151.282 49.7653 151.282 49.424C151.282 49.072 151.405 48.7787 151.65 48.544C151.895 48.2987 152.189 48.176 152.53 48.176C152.882 48.176 153.175 48.2987 153.41 48.544C153.655 48.7787 153.778 49.072 153.778 49.424C153.778 49.7653 153.655 50.0587 153.41 50.304C153.175 50.5493 152.882 50.672 152.53 50.672ZM155.348 63.264V51.664H157.508V52.352C158.191 51.8187 158.98 51.552 159.876 51.552C160.666 51.552 161.38 51.744 162.02 52.128C162.66 52.512 163.167 53.0293 163.54 53.68C163.924 54.32 164.116 55.04 164.116 55.84C164.116 56.64 163.924 57.3653 163.54 58.016C163.156 58.656 162.639 59.168 161.988 59.552C161.338 59.9253 160.612 60.112 159.812 60.112C159.396 60.112 158.996 60.0587 158.612 59.952C158.228 59.8347 157.871 59.6693 157.54 59.456V63.264H155.348ZM159.524 58.256C159.983 58.256 160.394 58.1493 160.756 57.936C161.13 57.7227 161.423 57.4347 161.636 57.072C161.85 56.7093 161.956 56.2987 161.956 55.84C161.956 55.3813 161.85 54.9707 161.636 54.608C161.423 54.2347 161.13 53.9467 160.756 53.744C160.394 53.5307 159.983 53.424 159.524 53.424C159.119 53.424 158.746 53.4933 158.404 53.632C158.074 53.76 157.786 53.9573 157.54 54.224V57.472C157.775 57.7173 158.063 57.9093 158.404 58.048C158.756 58.1867 159.13 58.256 159.524 58.256ZM165.442 63.264V51.664H167.602V52.352C168.285 51.8187 169.074 51.552 169.97 51.552C170.759 51.552 171.474 51.744 172.114 52.128C172.754 52.512 173.261 53.0293 173.634 53.68C174.018 54.32 174.21 55.04 174.21 55.84C174.21 56.64 174.018 57.3653 173.634 58.016C173.25 58.656 172.733 59.168 172.082 59.552C171.431 59.9253 170.706 60.112 169.906 60.112C169.49 60.112 169.09 60.0587 168.706 59.952C168.322 59.8347 167.965 59.6693 167.634 59.456V63.264H165.442ZM169.618 58.256C170.077 58.256 170.487 58.1493 170.85 57.936C171.223 57.7227 171.517 57.4347 171.73 57.072C171.943 56.7093 172.05 56.2987 172.05 55.84C172.05 55.3813 171.943 54.9707 171.73 54.608C171.517 54.2347 171.223 53.9467 170.85 53.744C170.487 53.5307 170.077 53.424 169.618 53.424C169.213 53.424 168.839 53.4933 168.498 53.632C168.167 53.76 167.879 53.9573 167.634 54.224V57.472C167.869 57.7173 168.157 57.9093 168.498 58.048C168.85 58.1867 169.223 58.256 169.618 58.256ZM175.536 60V51.664H177.728V60H175.536ZM176.624 50.672C176.283 50.672 175.989 50.5493 175.744 50.304C175.499 50.0587 175.376 49.7653 175.376 49.424C175.376 49.072 175.499 48.7787 175.744 48.544C175.989 48.2987 176.283 48.176 176.624 48.176C176.976 48.176 177.269 48.2987 177.504 48.544C177.749 48.7787 177.872 49.072 177.872 49.424C177.872 49.7653 177.749 50.0587 177.504 50.304C177.269 50.5493 176.976 50.672 176.624 50.672ZM179.442 60V51.664H181.634V52.352C182.263 51.7867 183.042 51.504 183.97 51.504C184.621 51.504 185.191 51.648 185.682 51.936C186.183 52.2133 186.573 52.6027 186.85 53.104C187.127 53.5947 187.266 54.1707 187.266 54.832V60H185.074V55.152C185.074 54.608 184.919 54.1813 184.61 53.872C184.301 53.552 183.879 53.392 183.346 53.392C182.973 53.392 182.642 53.4667 182.354 53.616C182.066 53.7547 181.826 53.9573 181.634 54.224V60H179.442ZM193.119 63.424C192.479 63.424 191.86 63.3547 191.263 63.216C190.665 63.088 190.127 62.9013 189.647 62.656L190.414 60.96C190.873 61.184 191.321 61.3493 191.759 61.456C192.196 61.5627 192.633 61.616 193.071 61.616C193.721 61.616 194.212 61.4773 194.543 61.2C194.884 60.9227 195.055 60.5067 195.055 59.952V59.296C194.372 59.7973 193.609 60.048 192.766 60.048C191.977 60.048 191.263 59.8613 190.623 59.488C189.993 59.104 189.487 58.5867 189.103 57.936C188.729 57.2853 188.543 56.5653 188.543 55.776C188.543 54.9867 188.729 54.272 189.103 53.632C189.487 52.992 190.004 52.4853 190.655 52.112C191.305 51.728 192.031 51.536 192.831 51.536C193.236 51.536 193.631 51.5947 194.015 51.712C194.399 51.8293 194.756 51.9947 195.087 52.208V51.664H197.247V59.984C197.247 61.0827 196.889 61.9307 196.175 62.528C195.471 63.1253 194.452 63.424 193.119 63.424ZM193.103 58.192C193.508 58.192 193.876 58.128 194.207 58C194.537 57.8613 194.82 57.6693 195.055 57.424V54.16C194.82 53.9253 194.532 53.744 194.191 53.616C193.86 53.4773 193.503 53.408 193.119 53.408C192.66 53.408 192.249 53.5147 191.887 53.728C191.524 53.9307 191.236 54.2133 191.023 54.576C190.809 54.928 190.703 55.328 190.703 55.776C190.703 56.2347 190.804 56.6453 191.007 57.008C191.22 57.3707 191.508 57.6587 191.871 57.872C192.244 58.0853 192.655 58.192 193.103 58.192Z" fill="white"/>
<path d="M137.528 96.16C136.696 96.16 135.917 96.016 135.192 95.728C134.467 95.4293 133.832 95.0187 133.288 94.496C132.755 93.9733 132.333 93.3653 132.024 92.672C131.725 91.968 131.576 91.2107 131.576 90.4C131.576 89.5787 131.725 88.8213 132.024 88.128C132.333 87.424 132.76 86.8107 133.304 86.288C133.848 85.7653 134.477 85.36 135.192 85.072C135.917 84.7733 136.696 84.624 137.528 84.624C138.147 84.624 138.744 84.7093 139.32 84.88C139.896 85.0507 140.429 85.2907 140.92 85.6C141.421 85.9093 141.848 86.2827 142.2 86.72L140.632 88.272C140.227 87.7707 139.757 87.392 139.224 87.136C138.701 86.88 138.136 86.752 137.528 86.752C137.027 86.752 136.557 86.848 136.12 87.04C135.683 87.2213 135.304 87.4773 134.984 87.808C134.664 88.128 134.413 88.512 134.232 88.96C134.051 89.3973 133.96 89.8773 133.96 90.4C133.96 90.912 134.051 91.392 134.232 91.84C134.413 92.2773 134.669 92.6613 135 92.992C135.331 93.312 135.715 93.5627 136.152 93.744C136.6 93.9253 137.085 94.016 137.608 94.016C138.195 94.016 138.744 93.8933 139.256 93.648C139.768 93.4027 140.221 93.0507 140.616 92.592L142.136 94.096C141.784 94.5227 141.363 94.8907 140.872 95.2C140.381 95.5093 139.848 95.7493 139.272 95.92C138.707 96.08 138.125 96.16 137.528 96.16ZM146.004 96.144C145.407 96.144 144.879 96.0373 144.42 95.824C143.962 95.6 143.604 95.296 143.348 94.912C143.092 94.528 142.964 94.0853 142.964 93.584C142.964 92.784 143.263 92.1653 143.86 91.728C144.468 91.28 145.3 91.056 146.356 91.056C147.082 91.056 147.764 91.168 148.404 91.392V90.784C148.404 90.304 148.255 89.9413 147.956 89.696C147.658 89.4507 147.22 89.328 146.644 89.328C146.292 89.328 145.914 89.3867 145.508 89.504C145.103 89.6107 144.634 89.7813 144.1 90.016L143.3 88.4C143.962 88.1013 144.591 87.8773 145.188 87.728C145.796 87.5787 146.404 87.504 147.012 87.504C148.132 87.504 149.002 87.776 149.62 88.32C150.25 88.8533 150.564 89.6107 150.564 90.592V96H148.404V95.408C148.063 95.664 147.695 95.8507 147.3 95.968C146.906 96.0853 146.474 96.144 146.004 96.144ZM145.044 93.536C145.044 93.856 145.183 94.112 145.46 94.304C145.738 94.4853 146.106 94.576 146.564 94.576C146.927 94.576 147.263 94.5333 147.572 94.448C147.882 94.352 148.159 94.2133 148.404 94.032V92.816C148.138 92.7093 147.86 92.6293 147.572 92.576C147.284 92.5227 146.975 92.496 146.644 92.496C146.143 92.496 145.748 92.592 145.46 92.784C145.183 92.9653 145.044 93.216 145.044 93.536ZM152.223 96V87.664H154.415V88.352C155.045 87.7867 155.823 87.504 156.751 87.504C157.402 87.504 157.973 87.648 158.463 87.936C158.965 88.2133 159.354 88.6027 159.631 89.104C159.909 89.5947 160.047 90.1707 160.047 90.832V96H157.855V91.152C157.855 90.608 157.701 90.1813 157.391 89.872C157.082 89.552 156.661 89.392 156.127 89.392C155.754 89.392 155.423 89.4667 155.135 89.616C154.847 89.7547 154.607 89.9573 154.415 90.224V96H152.223ZM161.708 96V87.664H163.9V88.352C164.529 87.7867 165.308 87.504 166.236 87.504C166.886 87.504 167.457 87.648 167.948 87.936C168.449 88.2133 168.838 88.6027 169.116 89.104C169.393 89.5947 169.532 90.1707 169.532 90.832V96H167.34V91.152C167.34 90.608 167.185 90.1813 166.876 89.872C166.566 89.552 166.145 89.392 165.612 89.392C165.238 89.392 164.908 89.4667 164.62 89.616C164.332 89.7547 164.092 89.9573 163.9 90.224V96H161.708ZM171.192 96V87.664H173.384V96H171.192ZM172.28 86.672C171.939 86.672 171.645 86.5493 171.4 86.304C171.155 86.0587 171.032 85.7653 171.032 85.424C171.032 85.072 171.155 84.7787 171.4 84.544C171.645 84.2987 171.939 84.176 172.28 84.176C172.632 84.176 172.925 84.2987 173.16 84.544C173.405 84.7787 173.528 85.072 173.528 85.424C173.528 85.7653 173.405 86.0587 173.16 86.304C172.925 86.5493 172.632 86.672 172.28 86.672ZM175.098 96V84.8L177.29 84.432V88.336C177.952 87.8133 178.73 87.552 179.626 87.552C180.416 87.552 181.13 87.744 181.77 88.128C182.41 88.512 182.917 89.0293 183.29 89.68C183.674 90.32 183.866 91.04 183.866 91.84C183.866 92.64 183.674 93.3653 183.29 94.016C182.906 94.656 182.389 95.168 181.738 95.552C181.088 95.9253 180.362 96.112 179.562 96.112C179.146 96.112 178.741 96.0533 178.346 95.936C177.952 95.8187 177.589 95.648 177.258 95.424V96H175.098ZM179.274 94.256C179.733 94.256 180.144 94.1493 180.506 93.936C180.88 93.7227 181.173 93.4347 181.386 93.072C181.6 92.7093 181.706 92.2987 181.706 91.84C181.706 91.3813 181.6 90.9707 181.386 90.608C181.173 90.2347 180.88 89.9467 180.506 89.744C180.144 89.5307 179.733 89.424 179.274 89.424C178.869 89.424 178.496 89.4933 178.154 89.632C177.824 89.76 177.536 89.9573 177.29 90.224V93.472C177.525 93.7173 177.813 93.9093 178.154 94.048C178.506 94.1867 178.88 94.256 179.274 94.256ZM187.926 96.144C187.329 96.144 186.801 96.0373 186.342 95.824C185.884 95.6 185.526 95.296 185.27 94.912C185.014 94.528 184.886 94.0853 184.886 93.584C184.886 92.784 185.185 92.1653 185.782 91.728C186.39 91.28 187.222 91.056 188.278 91.056C189.004 91.056 189.686 91.168 190.326 91.392V90.784C190.326 90.304 190.177 89.9413 189.878 89.696C189.58 89.4507 189.142 89.328 188.566 89.328C188.214 89.328 187.836 89.3867 187.43 89.504C187.025 89.6107 186.556 89.7813 186.022 90.016L185.222 88.4C185.884 88.1013 186.513 87.8773 187.11 87.728C187.718 87.5787 188.326 87.504 188.934 87.504C190.054 87.504 190.924 87.776 191.542 88.32C192.172 88.8533 192.486 89.6107 192.486 90.592V96H190.326V95.408C189.985 95.664 189.617 95.8507 189.222 95.968C188.828 96.0853 188.396 96.144 187.926 96.144ZM186.966 93.536C186.966 93.856 187.105 94.112 187.382 94.304C187.66 94.4853 188.028 94.576 188.486 94.576C188.849 94.576 189.185 94.5333 189.494 94.448C189.804 94.352 190.081 94.2133 190.326 94.032V92.816C190.06 92.7093 189.782 92.6293 189.494 92.576C189.206 92.5227 188.897 92.496 188.566 92.496C188.065 92.496 187.67 92.592 187.382 92.784C187.105 92.9653 186.966 93.216 186.966 93.536ZM194.145 96V84.8L196.337 84.432V96H194.145ZM198.052 96V87.664H200.244V96H198.052ZM199.14 86.672C198.798 86.672 198.505 86.5493 198.26 86.304C198.014 86.0587 197.892 85.7653 197.892 85.424C197.892 85.072 198.014 84.7787 198.26 84.544C198.505 84.2987 198.798 84.176 199.14 84.176C199.492 84.176 199.785 84.2987 200.02 84.544C200.265 84.7787 200.388 85.072 200.388 85.424C200.388 85.7653 200.265 86.0587 200.02 86.304C199.785 86.5493 199.492 86.672 199.14 86.672ZM201.526 96V94.448L205.718 89.504H201.558V87.664H208.518V89.216L204.326 94.16H208.63V96H201.526ZM213.772 96.16C212.94 96.16 212.183 95.968 211.5 95.584C210.828 95.2 210.295 94.6827 209.9 94.032C209.505 93.3813 209.308 92.6507 209.308 91.84C209.308 91.0293 209.495 90.2987 209.868 89.648C210.252 88.9973 210.769 88.48 211.42 88.096C212.071 87.712 212.796 87.52 213.596 87.52C214.396 87.52 215.105 87.7173 215.724 88.112C216.343 88.5067 216.828 89.04 217.18 89.712C217.543 90.384 217.724 91.1467 217.724 92V92.576H211.548C211.644 92.9067 211.799 93.2053 212.012 93.472C212.236 93.7387 212.508 93.9467 212.828 94.096C213.159 94.2453 213.511 94.32 213.884 94.32C214.257 94.32 214.599 94.2613 214.908 94.144C215.228 94.0267 215.5 93.8613 215.724 93.648L217.164 94.96C216.652 95.376 216.124 95.68 215.58 95.872C215.047 96.064 214.444 96.16 213.772 96.16ZM211.516 91.008H215.564C215.489 90.6773 215.351 90.3893 215.148 90.144C214.956 89.888 214.721 89.6907 214.444 89.552C214.177 89.4027 213.879 89.328 213.548 89.328C213.207 89.328 212.897 89.3973 212.62 89.536C212.343 89.6747 212.108 89.872 211.916 90.128C211.735 90.3733 211.601 90.6667 211.516 91.008Z" fill="white"/>
<path d="M274.328 93.936H276.28C276.781 93.936 277.245 93.8507 277.672 93.68C278.109 93.4987 278.488 93.248 278.808 92.928C279.139 92.608 279.389 92.2347 279.56 91.808C279.741 91.3813 279.832 90.9173 279.832 90.416C279.832 89.9147 279.741 89.4507 279.56 89.024C279.379 88.5867 279.128 88.208 278.808 87.888C278.488 87.568 278.109 87.3173 277.672 87.136C277.245 86.9547 276.781 86.864 276.28 86.864H274.328V93.936ZM272.008 96V84.8H276.312C277.155 84.8 277.933 84.944 278.648 85.232C279.363 85.5093 279.987 85.904 280.52 86.416C281.053 86.928 281.469 87.5253 281.768 88.208C282.077 88.8907 282.232 89.6267 282.232 90.416C282.232 91.216 282.083 91.952 281.784 92.624C281.485 93.296 281.064 93.888 280.52 94.4C279.987 94.9013 279.363 95.296 278.648 95.584C277.933 95.8613 277.155 96 276.312 96H272.008ZM283.677 96V87.664H285.869V96H283.677ZM284.765 86.672C284.423 86.672 284.13 86.5493 283.885 86.304C283.639 86.0587 283.517 85.7653 283.517 85.424C283.517 85.072 283.639 84.7787 283.885 84.544C284.13 84.2987 284.423 84.176 284.765 84.176C285.117 84.176 285.41 84.2987 285.645 84.544C285.89 84.7787 286.013 85.072 286.013 85.424C286.013 85.7653 285.89 86.0587 285.645 86.304C285.41 86.5493 285.117 86.672 284.765 86.672ZM290.703 96.16C289.935 96.16 289.225 96.064 288.575 95.872C287.924 95.6693 287.359 95.3813 286.879 95.008L287.967 93.552C288.447 93.872 288.905 94.112 289.343 94.272C289.791 94.432 290.233 94.512 290.671 94.512C291.161 94.512 291.551 94.432 291.839 94.272C292.137 94.1013 292.287 93.8827 292.287 93.616C292.287 93.4027 292.201 93.232 292.031 93.104C291.871 92.976 291.609 92.8853 291.247 92.832L289.647 92.592C288.815 92.464 288.185 92.1973 287.759 91.792C287.332 91.376 287.119 90.832 287.119 90.16C287.119 89.616 287.257 89.152 287.535 88.768C287.823 88.3733 288.223 88.0693 288.735 87.856C289.257 87.632 289.876 87.52 290.591 87.52C291.199 87.52 291.791 87.6053 292.367 87.776C292.953 87.9467 293.503 88.208 294.015 88.56L292.959 89.984C292.5 89.696 292.063 89.488 291.647 89.36C291.231 89.232 290.809 89.168 290.383 89.168C289.988 89.168 289.668 89.2427 289.423 89.392C289.188 89.5413 289.071 89.7387 289.071 89.984C289.071 90.208 289.156 90.384 289.327 90.512C289.497 90.64 289.791 90.7307 290.207 90.784L291.791 91.024C292.623 91.1413 293.257 91.408 293.695 91.824C294.132 92.2293 294.351 92.7573 294.351 93.408C294.351 93.9413 294.191 94.416 293.871 94.832C293.551 95.2373 293.119 95.5627 292.575 95.808C292.031 96.0427 291.407 96.16 290.703 96.16ZM295.442 99.264V87.664H297.602V88.352C298.285 87.8187 299.074 87.552 299.97 87.552C300.759 87.552 301.474 87.744 302.114 88.128C302.754 88.512 303.261 89.0293 303.634 89.68C304.018 90.32 304.21 91.04 304.21 91.84C304.21 92.64 304.018 93.3653 303.634 94.016C303.25 94.656 302.733 95.168 302.082 95.552C301.431 95.9253 300.706 96.112 299.906 96.112C299.49 96.112 299.09 96.0587 298.706 95.952C298.322 95.8347 297.965 95.6693 297.634 95.456V99.264H295.442ZM299.618 94.256C300.077 94.256 300.487 94.1493 300.85 93.936C301.223 93.7227 301.517 93.4347 301.73 93.072C301.943 92.7093 302.05 92.2987 302.05 91.84C302.05 91.3813 301.943 90.9707 301.73 90.608C301.517 90.2347 301.223 89.9467 300.85 89.744C300.487 89.5307 300.077 89.424 299.618 89.424C299.213 89.424 298.839 89.4933 298.498 89.632C298.167 89.76 297.879 89.9573 297.634 90.224V93.472C297.869 93.7173 298.157 93.9093 298.498 94.048C298.85 94.1867 299.223 94.256 299.618 94.256ZM309.6 96.16C308.768 96.16 308.016 95.968 307.344 95.584C306.672 95.2 306.139 94.6827 305.744 94.032C305.349 93.3813 305.152 92.6507 305.152 91.84C305.152 91.0293 305.344 90.2987 305.728 89.648C306.123 88.9867 306.656 88.464 307.328 88.08C308.011 87.696 308.768 87.504 309.6 87.504C310.432 87.504 311.184 87.696 311.856 88.08C312.539 88.464 313.072 88.9867 313.456 89.648C313.851 90.2987 314.048 91.0293 314.048 91.84C314.048 92.6507 313.851 93.3813 313.456 94.032C313.072 94.6827 312.544 95.2 311.872 95.584C311.2 95.968 310.443 96.16 309.6 96.16ZM309.6 94.256C310.037 94.256 310.427 94.1493 310.768 93.936C311.12 93.7227 311.397 93.4347 311.6 93.072C311.813 92.6987 311.92 92.288 311.92 91.84C311.92 91.3813 311.813 90.9707 311.6 90.608C311.397 90.2453 311.12 89.9573 310.768 89.744C310.427 89.52 310.037 89.408 309.6 89.408C309.173 89.408 308.784 89.52 308.432 89.744C308.08 89.9573 307.803 90.2453 307.6 90.608C307.397 90.9707 307.296 91.3813 307.296 91.84C307.296 92.288 307.397 92.6987 307.6 93.072C307.803 93.4347 308.08 93.7227 308.432 93.936C308.784 94.1493 309.173 94.256 309.6 94.256ZM318.515 96.16C317.747 96.16 317.038 96.064 316.387 95.872C315.737 95.6693 315.171 95.3813 314.691 95.008L315.779 93.552C316.259 93.872 316.718 94.112 317.155 94.272C317.603 94.432 318.046 94.512 318.483 94.512C318.974 94.512 319.363 94.432 319.651 94.272C319.95 94.1013 320.099 93.8827 320.099 93.616C320.099 93.4027 320.014 93.232 319.843 93.104C319.683 92.976 319.422 92.8853 319.059 92.832L317.459 92.592C316.627 92.464 315.998 92.1973 315.571 91.792C315.145 91.376 314.931 90.832 314.931 90.16C314.931 89.616 315.07 89.152 315.347 88.768C315.635 88.3733 316.035 88.0693 316.547 87.856C317.07 87.632 317.689 87.52 318.403 87.52C319.011 87.52 319.603 87.6053 320.179 87.776C320.766 87.9467 321.315 88.208 321.827 88.56L320.771 89.984C320.313 89.696 319.875 89.488 319.459 89.36C319.043 89.232 318.622 89.168 318.195 89.168C317.801 89.168 317.481 89.2427 317.235 89.392C317.001 89.5413 316.883 89.7387 316.883 89.984C316.883 90.208 316.969 90.384 317.139 90.512C317.31 90.64 317.603 90.7307 318.019 90.784L319.603 91.024C320.435 91.1413 321.07 91.408 321.507 91.824C321.945 92.2293 322.163 92.7573 322.163 93.408C322.163 93.9413 322.003 94.416 321.683 94.832C321.363 95.2373 320.931 95.5627 320.387 95.808C319.843 96.0427 319.219 96.16 318.515 96.16ZM323.255 96V87.664H325.447V96H323.255ZM324.343 86.672C324.001 86.672 323.708 86.5493 323.463 86.304C323.217 86.0587 323.095 85.7653 323.095 85.424C323.095 85.072 323.217 84.7787 323.463 84.544C323.708 84.2987 324.001 84.176 324.343 84.176C324.695 84.176 324.988 84.2987 325.223 84.544C325.468 84.7787 325.591 85.072 325.591 85.424C325.591 85.7653 325.468 86.0587 325.223 86.304C324.988 86.5493 324.695 86.672 324.343 86.672ZM331.113 96.128C330.185 96.128 329.481 95.92 329.001 95.504C328.532 95.0773 328.297 94.4587 328.297 93.648V89.488H326.585V87.664H328.297V85.536L330.489 85.04V87.664H332.873V89.488H330.489V93.2C330.489 93.584 330.574 93.8613 330.745 94.032C330.916 94.192 331.214 94.272 331.641 94.272C331.854 94.272 332.046 94.2613 332.217 94.24C332.398 94.208 332.596 94.1547 332.809 94.08V95.888C332.585 95.9627 332.302 96.0213 331.961 96.064C331.63 96.1067 331.348 96.128 331.113 96.128ZM333.942 96V87.664H336.134V96H333.942ZM335.03 86.672C334.689 86.672 334.395 86.5493 334.15 86.304C333.905 86.0587 333.782 85.7653 333.782 85.424C333.782 85.072 333.905 84.7787 334.15 84.544C334.395 84.2987 334.689 84.176 335.03 84.176C335.382 84.176 335.675 84.2987 335.91 84.544C336.155 84.7787 336.278 85.072 336.278 85.424C336.278 85.7653 336.155 86.0587 335.91 86.304C335.675 86.5493 335.382 86.672 335.03 86.672ZM341.912 96.16C341.08 96.16 340.328 95.968 339.656 95.584C338.984 95.2 338.451 94.6827 338.056 94.032C337.662 93.3813 337.464 92.6507 337.464 91.84C337.464 91.0293 337.656 90.2987 338.04 89.648C338.435 88.9867 338.968 88.464 339.64 88.08C340.323 87.696 341.08 87.504 341.912 87.504C342.744 87.504 343.496 87.696 344.168 88.08C344.851 88.464 345.384 88.9867 345.768 89.648C346.163 90.2987 346.36 91.0293 346.36 91.84C346.36 92.6507 346.163 93.3813 345.768 94.032C345.384 94.6827 344.856 95.2 344.184 95.584C343.512 95.968 342.755 96.16 341.912 96.16ZM341.912 94.256C342.35 94.256 342.739 94.1493 343.08 93.936C343.432 93.7227 343.71 93.4347 343.912 93.072C344.126 92.6987 344.232 92.288 344.232 91.84C344.232 91.3813 344.126 90.9707 343.912 90.608C343.71 90.2453 343.432 89.9573 343.08 89.744C342.739 89.52 342.35 89.408 341.912 89.408C341.486 89.408 341.096 89.52 340.744 89.744C340.392 89.9573 340.115 90.2453 339.912 90.608C339.71 90.9707 339.608 91.3813 339.608 91.84C339.608 92.288 339.71 92.6987 339.912 93.072C340.115 93.4347 340.392 93.7227 340.744 93.936C341.096 94.1493 341.486 94.256 341.912 94.256ZM347.708 96V87.664H349.9V88.352C350.529 87.7867 351.308 87.504 352.236 87.504C352.886 87.504 353.457 87.648 353.948 87.936C354.449 88.2133 354.838 88.6027 355.116 89.104C355.393 89.5947 355.532 90.1707 355.532 90.832V96H353.34V91.152C353.34 90.608 353.185 90.1813 352.876 89.872C352.566 89.552 352.145 89.392 351.612 89.392C351.238 89.392 350.908 89.4667 350.62 89.616C350.332 89.7547 350.092 89.9573 349.9 90.224V96H347.708Z" fill="#B5AEFF"/>
<g clip-path="url(#clip0_1_8508)">
<path fill-rule="evenodd" clip-rule="evenodd" d="M367 87.3333C366.632 87.3333 366.333 87.6318 366.333 88V92C366.333 92.3681 366.632 92.6666 367 92.6666H371C371.368 92.6666 371.667 92.3681 371.667 92V88C371.667 87.6318 371.368 87.3333 371 87.3333H367ZM367.667 91.3333V88.6666H370.333V91.3333H367.667Z" fill="#B5AEFF"/>
<path fill-rule="evenodd" clip-rule="evenodd" d="M367.667 83.3333C367.667 82.9651 367.368 82.6666 367 82.6666C366.632 82.6666 366.333 82.9651 366.333 83.3333V84.6666H365.667C364.562 84.6666 363.667 85.5621 363.667 86.6666V87.3333H362.333C361.965 87.3333 361.667 87.6318 361.667 88C361.667 88.3681 361.965 88.6666 362.333 88.6666H363.667V91.3333H362.333C361.965 91.3333 361.667 91.6318 361.667 92C361.667 92.3681 361.965 92.6666 362.333 92.6666H363.667V93.3333C363.667 94.4379 364.562 95.3333 365.667 95.3333H366.333V96.6666C366.333 97.0348 366.632 97.3333 367 97.3333C367.368 97.3333 367.667 97.0348 367.667 96.6666V95.3333H370.333V96.6666C370.333 97.0348 370.632 97.3333 371 97.3333C371.368 97.3333 371.667 97.0348 371.667 96.6666V95.3333H372.333C373.438 95.3333 374.333 94.4379 374.333 93.3333V92.6666H375.667C376.035 92.6666 376.333 92.3681 376.333 92C376.333 91.6318 376.035 91.3333 375.667 91.3333H374.333V88.6666H375.667C376.035 88.6666 376.333 88.3681 376.333 88C376.333 87.6318 376.035 87.3333 375.667 87.3333H374.333V86.6666C374.333 85.5621 373.438 84.6666 372.333 84.6666H371.667V83.3333C371.667 82.9651 371.368 82.6666 371 82.6666C370.632 82.6666 370.333 82.9651 370.333 83.3333V84.6666H367.667V83.3333ZM365 86.6666C365 86.2984 365.298 86 365.667 86H372.333C372.702 86 373 86.2984 373 86.6666V93.3333C373 93.7015 372.702 94 372.333 94H365.667C365.298 94 365 93.7015 365 93.3333V86.6666Z" fill="#B5AEFF"/>
</g>
<path d="M275.784 60.176C274.92 60.176 274.115 60.0267 273.368 59.728C272.632 59.4187 272.013 58.9867 271.512 58.432L272.92 57.12C273.347 57.5787 273.768 57.8987 274.184 58.08C274.611 58.2507 275.133 58.336 275.752 58.336C276.2 58.336 276.589 58.272 276.92 58.144C277.261 58.0053 277.523 57.8133 277.704 57.568C277.896 57.3227 277.992 57.04 277.992 56.72C277.992 56.4213 277.917 56.1653 277.768 55.952C277.619 55.7387 277.416 55.5733 277.16 55.456C276.904 55.328 276.6 55.264 276.248 55.264H274.84V53.536H276.056C276.557 53.536 276.952 53.408 277.24 53.152C277.528 52.8853 277.672 52.5227 277.672 52.064C277.672 51.7653 277.587 51.4987 277.416 51.264C277.245 51.0187 277.011 50.8267 276.712 50.688C276.424 50.5493 276.093 50.48 275.72 50.48C275.165 50.48 274.685 50.576 274.28 50.768C273.885 50.96 273.469 51.3013 273.032 51.792L271.608 50.48C272.131 49.8933 272.755 49.44 273.48 49.12C274.216 48.7893 274.989 48.624 275.8 48.624C276.579 48.624 277.267 48.7627 277.864 49.04C278.461 49.3067 278.931 49.68 279.272 50.16C279.613 50.64 279.784 51.1893 279.784 51.808C279.784 52.4053 279.587 52.9387 279.192 53.408C278.797 53.8667 278.285 54.1867 277.656 54.368C278.403 54.5173 278.995 54.816 279.432 55.264C279.88 55.712 280.104 56.2507 280.104 56.88C280.104 57.5093 279.917 58.0747 279.544 58.576C279.171 59.0773 278.659 59.472 278.008 59.76C277.368 60.0373 276.627 60.176 275.784 60.176ZM281.867 60V48.8H287.483C288.219 48.8 288.865 48.9493 289.419 49.248C289.985 49.5467 290.427 49.9627 290.747 50.496C291.067 51.0187 291.227 51.6267 291.227 52.32C291.227 52.9813 291.067 53.5733 290.747 54.096C290.427 54.6187 289.985 55.0293 289.419 55.328C288.854 55.6267 288.209 55.776 287.483 55.776H284.187V60H281.867ZM284.187 53.856H287.227C287.729 53.856 288.129 53.7173 288.427 53.44C288.737 53.1627 288.891 52.7947 288.891 52.336C288.891 51.8667 288.737 51.4933 288.427 51.216C288.129 50.9387 287.729 50.8 287.227 50.8H284.187V53.856ZM301.497 60.16C300.665 60.16 299.886 60.016 299.161 59.728C298.435 59.4293 297.801 59.0187 297.257 58.496C296.723 57.9733 296.302 57.3653 295.993 56.672C295.694 55.968 295.545 55.2107 295.545 54.4C295.545 53.5787 295.694 52.8213 295.993 52.128C296.302 51.424 296.729 50.8107 297.273 50.288C297.817 49.7653 298.446 49.36 299.161 49.072C299.886 48.7733 300.665 48.624 301.497 48.624C302.115 48.624 302.713 48.7093 303.289 48.88C303.865 49.0507 304.398 49.2907 304.889 49.6C305.39 49.9093 305.817 50.2827 306.169 50.72L304.601 52.272C304.195 51.7707 303.726 51.392 303.193 51.136C302.67 50.88 302.105 50.752 301.497 50.752C300.995 50.752 300.526 50.848 300.089 51.04C299.651 51.2213 299.273 51.4773 298.953 51.808C298.633 52.128 298.382 52.512 298.201 52.96C298.019 53.3973 297.929 53.8773 297.929 54.4C297.929 54.912 298.019 55.392 298.201 55.84C298.382 56.2773 298.638 56.6613 298.969 56.992C299.299 57.312 299.683 57.5627 300.121 57.744C300.569 57.9253 301.054 58.016 301.577 58.016C302.163 58.016 302.713 57.8933 303.225 57.648C303.737 57.4027 304.19 57.0507 304.585 56.592L306.105 58.096C305.753 58.5227 305.331 58.8907 304.841 59.2C304.35 59.5093 303.817 59.7493 303.241 59.92C302.675 60.08 302.094 60.16 301.497 60.16ZM307.317 60V48.8L309.509 48.432V60H307.317ZM313.879 60.144C313.282 60.144 312.754 60.0373 312.295 59.824C311.837 59.6 311.479 59.296 311.223 58.912C310.967 58.528 310.839 58.0853 310.839 57.584C310.839 56.784 311.138 56.1653 311.735 55.728C312.343 55.28 313.175 55.056 314.231 55.056C314.957 55.056 315.639 55.168 316.279 55.392V54.784C316.279 54.304 316.13 53.9413 315.831 53.696C315.533 53.4507 315.095 53.328 314.519 53.328C314.167 53.328 313.789 53.3867 313.383 53.504C312.978 53.6107 312.509 53.7813 311.975 54.016L311.175 52.4C311.837 52.1013 312.466 51.8773 313.063 51.728C313.671 51.5787 314.279 51.504 314.887 51.504C316.007 51.504 316.877 51.776 317.495 52.32C318.125 52.8533 318.439 53.6107 318.439 54.592V60H316.279V59.408C315.938 59.664 315.57 59.8507 315.175 59.968C314.781 60.0853 314.349 60.144 313.879 60.144ZM312.919 57.536C312.919 57.856 313.058 58.112 313.335 58.304C313.613 58.4853 313.981 58.576 314.439 58.576C314.802 58.576 315.138 58.5333 315.447 58.448C315.757 58.352 316.034 58.2133 316.279 58.032V56.816C316.013 56.7093 315.735 56.6293 315.447 56.576C315.159 56.5227 314.85 56.496 314.519 56.496C314.018 56.496 313.623 56.592 313.335 56.784C313.058 56.9653 312.919 57.216 312.919 57.536ZM320.098 60V51.664H322.29V60H320.098ZM321.186 50.672C320.845 50.672 320.552 50.5493 320.306 50.304C320.061 50.0587 319.938 49.7653 319.938 49.424C319.938 49.072 320.061 48.7787 320.306 48.544C320.552 48.2987 320.845 48.176 321.186 48.176C321.538 48.176 321.832 48.2987 322.066 48.544C322.312 48.7787 322.434 49.072 322.434 49.424C322.434 49.7653 322.312 50.0587 322.066 50.304C321.832 50.5493 321.538 50.672 321.186 50.672ZM324.005 60V51.664H326.197V52.304C326.794 51.7707 327.519 51.504 328.373 51.504C328.917 51.504 329.402 51.616 329.829 51.84C330.255 52.0533 330.607 52.3573 330.885 52.752C331.226 52.3467 331.626 52.0373 332.085 51.824C332.554 51.6107 333.071 51.504 333.637 51.504C334.266 51.504 334.815 51.648 335.285 51.936C335.765 52.2133 336.138 52.6027 336.405 53.104C336.682 53.5947 336.821 54.1707 336.821 54.832V60H334.645V55.152C334.645 54.608 334.501 54.1813 334.213 53.872C333.925 53.552 333.541 53.392 333.061 53.392C332.73 53.392 332.426 53.4613 332.149 53.6C331.882 53.7387 331.653 53.9467 331.461 54.224C331.471 54.32 331.482 54.416 331.493 54.512C331.503 54.608 331.509 54.7147 331.509 54.832V60H329.317V55.152C329.317 54.608 329.173 54.1813 328.885 53.872C328.607 53.552 328.229 53.392 327.749 53.392C327.418 53.392 327.119 53.456 326.853 53.584C326.597 53.712 326.378 53.904 326.197 54.16V60H324.005Z" fill="white"/>
<path d="M410.008 60V48.8H415.272C416.029 48.8 416.691 48.928 417.256 49.184C417.821 49.44 418.264 49.8027 418.584 50.272C418.904 50.7307 419.064 51.264 419.064 51.872C419.064 52.3627 418.936 52.816 418.68 53.232C418.435 53.6373 418.099 53.968 417.672 54.224C418.216 54.48 418.648 54.8267 418.968 55.264C419.288 55.7013 419.448 56.1973 419.448 56.752C419.448 57.392 419.283 57.9573 418.952 58.448C418.632 58.9387 418.173 59.3227 417.576 59.6C416.989 59.8667 416.307 60 415.528 60H410.008ZM412.328 53.376H415.128C415.629 53.376 416.024 53.2587 416.312 53.024C416.611 52.7787 416.76 52.4533 416.76 52.048C416.76 51.6427 416.611 51.3227 416.312 51.088C416.024 50.8427 415.629 50.72 415.128 50.72H412.328V53.376ZM412.328 58.08H415.352C415.885 58.08 416.312 57.952 416.632 57.696C416.952 57.4293 417.112 57.0773 417.112 56.64C417.112 56.192 416.952 55.84 416.632 55.584C416.312 55.3173 415.885 55.184 415.352 55.184H412.328V58.08ZM420.927 60V51.664H423.119V52.592C423.385 52.2293 423.705 51.952 424.079 51.76C424.452 51.568 424.873 51.472 425.343 51.472C425.748 51.4827 426.052 51.5467 426.255 51.664V53.584C426.095 53.5093 425.919 53.456 425.727 53.424C425.535 53.3813 425.337 53.36 425.135 53.36C424.708 53.36 424.319 53.4667 423.967 53.68C423.615 53.8933 423.332 54.1973 423.119 54.592V60H420.927ZM429.879 60.144C429.282 60.144 428.754 60.0373 428.295 59.824C427.837 59.6 427.479 59.296 427.223 58.912C426.967 58.528 426.839 58.0853 426.839 57.584C426.839 56.784 427.138 56.1653 427.735 55.728C428.343 55.28 429.175 55.056 430.231 55.056C430.957 55.056 431.639 55.168 432.279 55.392V54.784C432.279 54.304 432.13 53.9413 431.831 53.696C431.533 53.4507 431.095 53.328 430.519 53.328C430.167 53.328 429.789 53.3867 429.383 53.504C428.978 53.6107 428.509 53.7813 427.975 54.016L427.175 52.4C427.837 52.1013 428.466 51.8773 429.063 51.728C429.671 51.5787 430.279 51.504 430.887 51.504C432.007 51.504 432.877 51.776 433.495 52.32C434.125 52.8533 434.439 53.6107 434.439 54.592V60H432.279V59.408C431.938 59.664 431.57 59.8507 431.175 59.968C430.781 60.0853 430.349 60.144 429.879 60.144ZM428.919 57.536C428.919 57.856 429.058 58.112 429.335 58.304C429.613 58.4853 429.981 58.576 430.439 58.576C430.802 58.576 431.138 58.5333 431.447 58.448C431.757 58.352 432.034 58.2133 432.279 58.032V56.816C432.013 56.7093 431.735 56.6293 431.447 56.576C431.159 56.5227 430.85 56.496 430.519 56.496C430.018 56.496 429.623 56.592 429.335 56.784C429.058 56.9653 428.919 57.216 428.919 57.536ZM436.098 60V51.664H438.29V52.352C438.92 51.7867 439.698 51.504 440.626 51.504C441.277 51.504 441.848 51.648 442.338 51.936C442.84 52.2133 443.229 52.6027 443.506 53.104C443.784 53.5947 443.922 54.1707 443.922 54.832V60H441.73V55.152C441.73 54.608 441.576 54.1813 441.266 53.872C440.957 53.552 440.536 53.392 440.002 53.392C439.629 53.392 439.298 53.4667 439.01 53.616C438.722 53.7547 438.482 53.9573 438.29 54.224V60H436.098ZM449.439 60.112C448.649 60.112 447.935 59.92 447.295 59.536C446.655 59.152 446.143 58.64 445.759 58C445.385 57.3493 445.199 56.624 445.199 55.824C445.199 55.024 445.385 54.304 445.759 53.664C446.143 53.0133 446.66 52.5013 447.311 52.128C447.961 51.744 448.692 51.552 449.503 51.552C449.919 51.552 450.319 51.6107 450.703 51.728C451.087 51.8347 451.444 51.9947 451.775 52.208V48.8L453.967 48.432V60H451.807V59.312C451.124 59.8453 450.335 60.112 449.439 60.112ZM449.791 58.24C450.196 58.24 450.564 58.176 450.895 58.048C451.236 57.9093 451.529 57.7067 451.775 57.44V54.192C451.529 53.9467 451.236 53.7547 450.895 53.616C450.553 53.4773 450.185 53.408 449.791 53.408C449.332 53.408 448.916 53.5147 448.543 53.728C448.18 53.9307 447.892 54.2187 447.679 54.592C447.465 54.9547 447.359 55.3653 447.359 55.824C447.359 56.2827 447.465 56.6933 447.679 57.056C447.892 57.4187 448.18 57.7067 448.543 57.92C448.916 58.1333 449.332 58.24 449.791 58.24ZM464.559 60.16C463.727 60.16 462.949 60.016 462.223 59.728C461.498 59.4293 460.863 59.0187 460.319 58.496C459.786 57.9733 459.365 57.3653 459.055 56.672C458.757 55.968 458.607 55.2107 458.607 54.4C458.607 53.5787 458.757 52.8213 459.055 52.128C459.365 51.424 459.791 50.8107 460.335 50.288C460.879 49.7653 461.509 49.36 462.223 49.072C462.949 48.7733 463.727 48.624 464.559 48.624C465.178 48.624 465.775 48.7093 466.351 48.88C466.927 49.0507 467.461 49.2907 467.951 49.6C468.453 49.9093 468.879 50.2827 469.231 50.72L467.663 52.272C467.258 51.7707 466.789 51.392 466.255 51.136C465.733 50.88 465.167 50.752 464.559 50.752C464.058 50.752 463.589 50.848 463.151 51.04C462.714 51.2213 462.335 51.4773 462.015 51.808C461.695 52.128 461.445 52.512 461.263 52.96C461.082 53.3973 460.991 53.8773 460.991 54.4C460.991 54.912 461.082 55.392 461.263 55.84C461.445 56.2773 461.701 56.6613 462.031 56.992C462.362 57.312 462.746 57.5627 463.183 57.744C463.631 57.9253 464.117 58.016 464.639 58.016C465.226 58.016 465.775 57.8933 466.287 57.648C466.799 57.4027 467.253 57.0507 467.647 56.592L469.167 58.096C468.815 58.5227 468.394 58.8907 467.903 59.2C467.413 59.5093 466.879 59.7493 466.303 59.92C465.738 60.08 465.157 60.16 464.559 60.16ZM470.38 60V48.8L472.572 48.432V60H470.38ZM476.942 60.144C476.345 60.144 475.817 60.0373 475.358 59.824C474.899 59.6 474.542 59.296 474.286 58.912C474.03 58.528 473.902 58.0853 473.902 57.584C473.902 56.784 474.201 56.1653 474.798 55.728C475.406 55.28 476.238 55.056 477.294 55.056C478.019 55.056 478.702 55.168 479.342 55.392V54.784C479.342 54.304 479.193 53.9413 478.894 53.696C478.595 53.4507 478.158 53.328 477.582 53.328C477.23 53.328 476.851 53.3867 476.446 53.504C476.041 53.6107 475.571 53.7813 475.038 54.016L474.238 52.4C474.899 52.1013 475.529 51.8773 476.126 51.728C476.734 51.5787 477.342 51.504 477.95 51.504C479.07 51.504 479.939 51.776 480.558 52.32C481.187 52.8533 481.502 53.6107 481.502 54.592V60H479.342V59.408C479.001 59.664 478.633 59.8507 478.238 59.968C477.843 60.0853 477.411 60.144 476.942 60.144ZM475.982 57.536C475.982 57.856 476.121 58.112 476.398 58.304C476.675 58.4853 477.043 58.576 477.502 58.576C477.865 58.576 478.201 58.5333 478.51 58.448C478.819 58.352 479.097 58.2133 479.342 58.032V56.816C479.075 56.7093 478.798 56.6293 478.51 56.576C478.222 56.5227 477.913 56.496 477.582 56.496C477.081 56.496 476.686 56.592 476.398 56.784C476.121 56.9653 475.982 57.216 475.982 57.536ZM483.161 60V51.664H485.353V60H483.161ZM484.249 50.672C483.908 50.672 483.614 50.5493 483.369 50.304C483.124 50.0587 483.001 49.7653 483.001 49.424C483.001 49.072 483.124 48.7787 483.369 48.544C483.614 48.2987 483.908 48.176 484.249 48.176C484.601 48.176 484.894 48.2987 485.129 48.544C485.374 48.7787 485.497 49.072 485.497 49.424C485.497 49.7653 485.374 50.0587 485.129 50.304C484.894 50.5493 484.601 50.672 484.249 50.672ZM487.067 60V51.664H489.259V52.304C489.856 51.7707 490.582 51.504 491.435 51.504C491.979 51.504 492.464 51.616 492.891 51.84C493.318 52.0533 493.67 52.3573 493.947 52.752C494.288 52.3467 494.688 52.0373 495.147 51.824C495.616 51.6107 496.134 51.504 496.699 51.504C497.328 51.504 497.878 51.648 498.347 51.936C498.827 52.2133 499.2 52.6027 499.467 53.104C499.744 53.5947 499.883 54.1707 499.883 54.832V60H497.707V55.152C497.707 54.608 497.563 54.1813 497.275 53.872C496.987 53.552 496.603 53.392 496.123 53.392C495.792 53.392 495.488 53.4613 495.211 53.6C494.944 53.7387 494.715 53.9467 494.523 54.224C494.534 54.32 494.544 54.416 494.555 54.512C494.566 54.608 494.571 54.7147 494.571 54.832V60H492.379V55.152C492.379 54.608 492.235 54.1813 491.947 53.872C491.67 53.552 491.291 53.392 490.811 53.392C490.48 53.392 490.182 53.456 489.915 53.584C489.659 53.712 489.44 53.904 489.259 54.16V60H487.067Z" fill="white"/>
<path d="M410.008 96V84.8H415.48C416.237 84.8 416.904 84.9493 417.48 85.248C418.067 85.536 418.52 85.9413 418.84 86.464C419.171 86.9867 419.336 87.5893 419.336 88.272C419.336 88.9867 419.139 89.616 418.744 90.16C418.349 90.704 417.821 91.1093 417.16 91.376L419.64 96H417.048L414.856 91.712H412.328V96H410.008ZM412.328 89.808H415.272C415.795 89.808 416.211 89.6693 416.52 89.392C416.84 89.1147 417 88.752 417 88.304C417 87.856 416.84 87.4933 416.52 87.216C416.211 86.9387 415.795 86.8 415.272 86.8H412.328V89.808ZM424.303 96.16C423.471 96.16 422.719 95.968 422.047 95.584C421.375 95.2 420.842 94.6827 420.447 94.032C420.052 93.3813 419.855 92.6507 419.855 91.84C419.855 91.0293 420.047 90.2987 420.431 89.648C420.826 88.9867 421.359 88.464 422.031 88.08C422.714 87.696 423.471 87.504 424.303 87.504C425.135 87.504 425.887 87.696 426.559 88.08C427.242 88.464 427.775 88.9867 428.159 89.648C428.554 90.2987 428.751 91.0293 428.751 91.84C428.751 92.6507 428.554 93.3813 428.159 94.032C427.775 94.6827 427.247 95.2 426.575 95.584C425.903 95.968 425.146 96.16 424.303 96.16ZM424.303 94.256C424.74 94.256 425.13 94.1493 425.471 93.936C425.823 93.7227 426.1 93.4347 426.303 93.072C426.516 92.6987 426.623 92.288 426.623 91.84C426.623 91.3813 426.516 90.9707 426.303 90.608C426.1 90.2453 425.823 89.9573 425.471 89.744C425.13 89.52 424.74 89.408 424.303 89.408C423.876 89.408 423.487 89.52 423.135 89.744C422.783 89.9573 422.506 90.2453 422.303 90.608C422.1 90.9707 421.999 91.3813 421.999 91.84C421.999 92.288 422.1 92.6987 422.303 93.072C422.506 93.4347 422.783 93.7227 423.135 93.936C423.487 94.1493 423.876 94.256 424.303 94.256ZM433.33 96.16C432.69 96.16 432.12 96.0213 431.618 95.744C431.128 95.456 430.738 95.0613 430.45 94.56C430.173 94.0587 430.034 93.4827 430.034 92.832V87.664H432.226V92.512C432.226 93.0453 432.381 93.472 432.69 93.792C433.01 94.112 433.437 94.272 433.97 94.272C434.333 94.272 434.658 94.2027 434.946 94.064C435.245 93.9147 435.49 93.7067 435.682 93.44V87.664H437.874V96H435.682V95.328C435.042 95.8827 434.258 96.16 433.33 96.16ZM443.535 96.128C442.607 96.128 441.903 95.92 441.423 95.504C440.953 95.0773 440.719 94.4587 440.719 93.648V89.488H439.007V87.664H440.719V85.536L442.911 85.04V87.664H445.295V89.488H442.911V93.2C442.911 93.584 442.996 93.8613 443.167 94.032C443.337 94.192 443.636 94.272 444.063 94.272C444.276 94.272 444.468 94.2613 444.639 94.24C444.82 94.208 445.017 94.1547 445.231 94.08V95.888C445.007 95.9627 444.724 96.0213 444.383 96.064C444.052 96.1067 443.769 96.128 443.535 96.128ZM446.364 96V87.664H448.556V96H446.364ZM447.452 86.672C447.111 86.672 446.817 86.5493 446.572 86.304C446.327 86.0587 446.204 85.7653 446.204 85.424C446.204 85.072 446.327 84.7787 446.572 84.544C446.817 84.2987 447.111 84.176 447.452 84.176C447.804 84.176 448.097 84.2987 448.332 84.544C448.577 84.7787 448.7 85.072 448.7 85.424C448.7 85.7653 448.577 86.0587 448.332 86.304C448.097 86.5493 447.804 86.672 447.452 86.672ZM450.27 96V87.664H452.462V88.352C453.092 87.7867 453.87 87.504 454.798 87.504C455.449 87.504 456.02 87.648 456.51 87.936C457.012 88.2133 457.401 88.6027 457.678 89.104C457.956 89.5947 458.094 90.1707 458.094 90.832V96H455.902V91.152C455.902 90.608 455.748 90.1813 455.438 89.872C455.129 89.552 454.708 89.392 454.174 89.392C453.801 89.392 453.47 89.4667 453.182 89.616C452.894 89.7547 452.654 89.9573 452.462 90.224V96H450.27ZM463.947 99.424C463.307 99.424 462.688 99.3547 462.091 99.216C461.493 99.088 460.955 98.9013 460.475 98.656L461.243 96.96C461.701 97.184 462.149 97.3493 462.587 97.456C463.024 97.5627 463.461 97.616 463.899 97.616C464.549 97.616 465.04 97.4773 465.371 97.2C465.712 96.9227 465.883 96.5067 465.883 95.952V95.296C465.2 95.7973 464.437 96.048 463.595 96.048C462.805 96.048 462.091 95.8613 461.451 95.488C460.821 95.104 460.315 94.5867 459.931 93.936C459.557 93.2853 459.371 92.5653 459.371 91.776C459.371 90.9867 459.557 90.272 459.931 89.632C460.315 88.992 460.832 88.4853 461.483 88.112C462.133 87.728 462.859 87.536 463.659 87.536C464.064 87.536 464.459 87.5947 464.843 87.712C465.227 87.8293 465.584 87.9947 465.915 88.208V87.664H468.075V95.984C468.075 97.0827 467.717 97.9307 467.003 98.528C466.299 99.1253 465.28 99.424 463.947 99.424ZM463.931 94.192C464.336 94.192 464.704 94.128 465.035 94C465.365 93.8613 465.648 93.6693 465.883 93.424V90.16C465.648 89.9253 465.36 89.744 465.019 89.616C464.688 89.4773 464.331 89.408 463.947 89.408C463.488 89.408 463.077 89.5147 462.715 89.728C462.352 89.9307 462.064 90.2133 461.851 90.576C461.637 90.928 461.531 91.328 461.531 91.776C461.531 92.2347 461.632 92.6453 461.835 93.008C462.048 93.3707 462.336 93.6587 462.699 93.872C463.072 94.0853 463.483 94.192 463.931 94.192Z" fill="#B5AEFF"/>
<g clip-path="url(#clip1_1_8508)">
<path fill-rule="evenodd" clip-rule="evenodd" d="M479 87.3333C478.632 87.3333 478.333 87.6318 478.333 88V92C478.333 92.3681 478.632 92.6666 479 92.6666H483C483.368 92.6666 483.667 92.3681 483.667 92V88C483.667 87.6318 483.368 87.3333 483 87.3333H479ZM479.667 91.3333V88.6666H482.333V91.3333H479.667Z" fill="#B5AEFF"/>
<path fill-rule="evenodd" clip-rule="evenodd" d="M479.667 83.3333C479.667 82.9651 479.368 82.6666 479 82.6666C478.632 82.6666 478.333 82.9651 478.333 83.3333V84.6666H477.667C476.562 84.6666 475.667 85.5621 475.667 86.6666V87.3333H474.333C473.965 87.3333 473.667 87.6318 473.667 88C473.667 88.3681 473.965 88.6666 474.333 88.6666H475.667V91.3333H474.333C473.965 91.3333 473.667 91.6318 473.667 92C473.667 92.3681 473.965 92.6666 474.333 92.6666H475.667V93.3333C475.667 94.4379 476.562 95.3333 477.667 95.3333H478.333V96.6666C478.333 97.0348 478.632 97.3333 479 97.3333C479.368 97.3333 479.667 97.0348 479.667 96.6666V95.3333H482.333V96.6666C482.333 97.0348 482.632 97.3333 483 97.3333C483.368 97.3333 483.667 97.0348 483.667 96.6666V95.3333H484.333C485.438 95.3333 486.333 94.4379 486.333 93.3333V92.6666H487.667C488.035 92.6666 488.333 92.3681 488.333 92C488.333 91.6318 488.035 91.3333 487.667 91.3333H486.333V88.6666H487.667C488.035 88.6666 488.333 88.3681 488.333 88C488.333 87.6318 488.035 87.3333 487.667 87.3333H486.333V86.6666C486.333 85.5621 485.438 84.6666 484.333 84.6666H483.667V83.3333C483.667 82.9651 483.368 82.6666 483 82.6666C482.632 82.6666 482.333 82.9651 482.333 83.3333V84.6666H479.667V83.3333ZM477 86.6666C477 86.2984 477.298 86 477.667 86H484.333C484.702 86 485 86.2984 485 86.6666V93.3333C485 93.7015 484.702 94 484.333 94H477.667C477.298 94 477 93.7015 477 93.3333V86.6666Z" fill="#B5AEFF"/>
</g>
<path d="M554.008 60V48.8H559.48C560.237 48.8 560.904 48.9493 561.48 49.248C562.067 49.536 562.52 49.9413 562.84 50.464C563.171 50.9867 563.336 51.5893 563.336 52.272C563.336 52.9867 563.139 53.616 562.744 54.16C562.349 54.704 561.821 55.1093 561.16 55.376L563.64 60H561.048L558.856 55.712H556.328V60H554.008ZM556.328 53.808H559.272C559.795 53.808 560.211 53.6693 560.52 53.392C560.84 53.1147 561 52.752 561 52.304C561 51.856 560.84 51.4933 560.52 51.216C560.211 50.9387 559.795 50.8 559.272 50.8H556.328V53.808ZM568.319 60.16C567.487 60.16 566.73 59.968 566.047 59.584C565.375 59.2 564.842 58.6827 564.447 58.032C564.052 57.3813 563.855 56.6507 563.855 55.84C563.855 55.0293 564.042 54.2987 564.415 53.648C564.799 52.9973 565.316 52.48 565.967 52.096C566.618 51.712 567.343 51.52 568.143 51.52C568.943 51.52 569.652 51.7173 570.271 52.112C570.89 52.5067 571.375 53.04 571.727 53.712C572.09 54.384 572.271 55.1467 572.271 56V56.576H566.095C566.191 56.9067 566.346 57.2053 566.559 57.472C566.783 57.7387 567.055 57.9467 567.375 58.096C567.706 58.2453 568.058 58.32 568.431 58.32C568.804 58.32 569.146 58.2613 569.455 58.144C569.775 58.0267 570.047 57.8613 570.271 57.648L571.711 58.96C571.199 59.376 570.671 59.68 570.127 59.872C569.594 60.064 568.991 60.16 568.319 60.16ZM566.063 55.008H570.111C570.036 54.6773 569.898 54.3893 569.695 54.144C569.503 53.888 569.268 53.6907 568.991 53.552C568.724 53.4027 568.426 53.328 568.095 53.328C567.754 53.328 567.444 53.3973 567.167 53.536C566.89 53.6747 566.655 53.872 566.463 54.128C566.282 54.3733 566.148 54.6667 566.063 55.008ZM573.614 63.264V51.664H575.774V52.352C576.457 51.8187 577.246 51.552 578.142 51.552C578.931 51.552 579.646 51.744 580.286 52.128C580.926 52.512 581.433 53.0293 581.806 53.68C582.19 54.32 582.382 55.04 582.382 55.84C582.382 56.64 582.19 57.3653 581.806 58.016C581.422 58.656 580.905 59.168 580.254 59.552C579.603 59.9253 578.878 60.112 578.078 60.112C577.662 60.112 577.262 60.0587 576.878 59.952C576.494 59.8347 576.137 59.6693 575.806 59.456V63.264H573.614ZM577.79 58.256C578.249 58.256 578.659 58.1493 579.022 57.936C579.395 57.7227 579.689 57.4347 579.902 57.072C580.115 56.7093 580.222 56.2987 580.222 55.84C580.222 55.3813 580.115 54.9707 579.902 54.608C579.689 54.2347 579.395 53.9467 579.022 53.744C578.659 53.5307 578.249 53.424 577.79 53.424C577.385 53.424 577.011 53.4933 576.67 53.632C576.339 53.76 576.051 53.9573 575.806 54.224V57.472C576.041 57.7173 576.329 57.9093 576.67 58.048C577.022 58.1867 577.395 58.256 577.79 58.256ZM583.708 60V48.8L585.9 48.432V60H583.708ZM590.27 60.144C589.673 60.144 589.145 60.0373 588.686 59.824C588.227 59.6 587.87 59.296 587.614 58.912C587.358 58.528 587.23 58.0853 587.23 57.584C587.23 56.784 587.529 56.1653 588.126 55.728C588.734 55.28 589.566 55.056 590.622 55.056C591.347 55.056 592.03 55.168 592.67 55.392V54.784C592.67 54.304 592.521 53.9413 592.222 53.696C591.923 53.4507 591.486 53.328 590.91 53.328C590.558 53.328 590.179 53.3867 589.774 53.504C589.369 53.6107 588.899 53.7813 588.366 54.016L587.566 52.4C588.227 52.1013 588.857 51.8773 589.454 51.728C590.062 51.5787 590.67 51.504 591.278 51.504C592.398 51.504 593.267 51.776 593.886 52.32C594.515 52.8533 594.83 53.6107 594.83 54.592V60H592.67V59.408C592.329 59.664 591.961 59.8507 591.566 59.968C591.171 60.0853 590.739 60.144 590.27 60.144ZM589.31 57.536C589.31 57.856 589.449 58.112 589.726 58.304C590.003 58.4853 590.371 58.576 590.83 58.576C591.193 58.576 591.529 58.5333 591.838 58.448C592.147 58.352 592.425 58.2133 592.67 58.032V56.816C592.403 56.7093 592.126 56.6293 591.838 56.576C591.55 56.5227 591.241 56.496 590.91 56.496C590.409 56.496 590.014 56.592 589.726 56.784C589.449 56.9653 589.31 57.216 589.31 57.536ZM600.473 60.16C599.652 60.16 598.91 59.9733 598.249 59.6C597.588 59.216 597.065 58.6987 596.681 58.048C596.297 57.3867 596.105 56.6507 596.105 55.84C596.105 55.0187 596.297 54.2827 596.681 53.632C597.065 52.9813 597.588 52.464 598.249 52.08C598.91 51.696 599.652 51.504 600.473 51.504C601.134 51.504 601.764 51.632 602.361 51.888C602.969 52.144 603.492 52.512 603.929 52.992L602.585 54.416C602.276 54.0747 601.95 53.824 601.609 53.664C601.278 53.4933 600.916 53.408 600.521 53.408C600.094 53.408 599.71 53.5147 599.369 53.728C599.038 53.9413 598.772 54.2293 598.569 54.592C598.377 54.9547 598.281 55.3707 598.281 55.84C598.281 56.288 598.377 56.6987 598.569 57.072C598.772 57.4347 599.049 57.7227 599.401 57.936C599.753 58.1387 600.142 58.24 600.569 58.24C600.942 58.24 601.289 58.1653 601.609 58.016C601.94 57.856 602.254 57.6213 602.553 57.312L603.865 58.688C603.438 59.1467 602.926 59.5093 602.329 59.776C601.732 60.032 601.113 60.16 600.473 60.16ZM608.85 60.16C608.018 60.16 607.261 59.968 606.578 59.584C605.906 59.2 605.373 58.6827 604.978 58.032C604.584 57.3813 604.386 56.6507 604.386 55.84C604.386 55.0293 604.573 54.2987 604.946 53.648C605.33 52.9973 605.848 52.48 606.498 52.096C607.149 51.712 607.874 51.52 608.674 51.52C609.474 51.52 610.184 51.7173 610.802 52.112C611.421 52.5067 611.906 53.04 612.258 53.712C612.621 54.384 612.802 55.1467 612.802 56V56.576H606.626C606.722 56.9067 606.877 57.2053 607.09 57.472C607.314 57.7387 607.586 57.9467 607.906 58.096C608.237 58.2453 608.589 58.32 608.962 58.32C609.336 58.32 609.677 58.2613 609.986 58.144C610.306 58.0267 610.578 57.8613 610.802 57.648L612.242 58.96C611.73 59.376 611.202 59.68 610.658 59.872C610.125 60.064 609.522 60.16 608.85 60.16ZM606.594 55.008H610.642C610.568 54.6773 610.429 54.3893 610.226 54.144C610.034 53.888 609.8 53.6907 609.522 53.552C609.256 53.4027 608.957 53.328 608.626 53.328C608.285 53.328 607.976 53.3973 607.698 53.536C607.421 53.6747 607.186 53.872 606.994 54.128C606.813 54.3733 606.68 54.6667 606.594 55.008ZM614.145 60V51.664H616.337V52.304C616.935 51.7707 617.66 51.504 618.513 51.504C619.057 51.504 619.543 51.616 619.969 51.84C620.396 52.0533 620.748 52.3573 621.025 52.752C621.367 52.3467 621.767 52.0373 622.225 51.824C622.695 51.6107 623.212 51.504 623.777 51.504C624.407 51.504 624.956 51.648 625.425 51.936C625.905 52.2133 626.279 52.6027 626.545 53.104C626.823 53.5947 626.961 54.1707 626.961 54.832V60H624.785V55.152C624.785 54.608 624.641 54.1813 624.353 53.872C624.065 53.552 623.681 53.392 623.201 53.392C622.871 53.392 622.567 53.4613 622.289 53.6C622.023 53.7387 621.793 53.9467 621.601 54.224C621.612 54.32 621.623 54.416 621.633 54.512C621.644 54.608 621.649 54.7147 621.649 54.832V60H619.457V55.152C619.457 54.608 619.313 54.1813 619.025 53.872C618.748 53.552 618.369 53.392 617.889 53.392C617.559 53.392 617.26 53.456 616.993 53.584C616.737 53.712 616.519 53.904 616.337 54.16V60H614.145ZM632.71 60.16C631.878 60.16 631.12 59.968 630.438 59.584C629.766 59.2 629.232 58.6827 628.838 58.032C628.443 57.3813 628.246 56.6507 628.246 55.84C628.246 55.0293 628.432 54.2987 628.806 53.648C629.19 52.9973 629.707 52.48 630.358 52.096C631.008 51.712 631.734 51.52 632.534 51.52C633.334 51.52 634.043 51.7173 634.662 52.112C635.28 52.5067 635.766 53.04 636.118 53.712C636.48 54.384 636.662 55.1467 636.662 56V56.576H630.486C630.582 56.9067 630.736 57.2053 630.95 57.472C631.174 57.7387 631.446 57.9467 631.766 58.096C632.096 58.2453 632.448 58.32 632.822 58.32C633.195 58.32 633.536 58.2613 633.846 58.144C634.166 58.0267 634.438 57.8613 634.662 57.648L636.102 58.96C635.59 59.376 635.062 59.68 634.518 59.872C633.984 60.064 633.382 60.16 632.71 60.16ZM630.454 55.008H634.502C634.427 54.6773 634.288 54.3893 634.086 54.144C633.894 53.888 633.659 53.6907 633.382 53.552C633.115 53.4027 632.816 53.328 632.486 53.328C632.144 53.328 631.835 53.3973 631.558 53.536C631.28 53.6747 631.046 53.872 630.854 54.128C630.672 54.3733 630.539 54.6667 630.454 55.008ZM638.005 60V51.664H640.197V52.352C640.826 51.7867 641.605 51.504 642.533 51.504C643.183 51.504 643.754 51.648 644.245 51.936C644.746 52.2133 645.135 52.6027 645.413 53.104C645.69 53.5947 645.829 54.1707 645.829 54.832V60H643.637V55.152C643.637 54.608 643.482 54.1813 643.173 53.872C642.863 53.552 642.442 53.392 641.909 53.392C641.535 53.392 641.205 53.4667 640.917 53.616C640.629 53.7547 640.389 53.9573 640.197 54.224V60H638.005ZM651.207 60.128C650.279 60.128 649.575 59.92 649.095 59.504C648.625 59.0773 648.391 58.4587 648.391 57.648V53.488H646.679V51.664H648.391V49.536L650.583 49.04V51.664H652.967V53.488H650.583V57.2C650.583 57.584 650.668 57.8613 650.839 58.032C651.009 58.192 651.308 58.272 651.735 58.272C651.948 58.272 652.14 58.2613 652.311 58.24C652.492 58.208 652.689 58.1547 652.903 58.08V59.888C652.679 59.9627 652.396 60.0213 652.055 60.064C651.724 60.1067 651.441 60.128 651.207 60.128Z" fill="white"/>
<path d="M559.512 96.176C558.68 96.176 557.907 96.032 557.192 95.744C556.477 95.4453 555.848 95.0347 555.304 94.512C554.76 93.9787 554.333 93.3653 554.024 92.672C553.725 91.968 553.576 91.2107 553.576 90.4C553.576 89.5893 553.725 88.8373 554.024 88.144C554.333 87.44 554.755 86.8267 555.288 86.304C555.821 85.7707 556.445 85.36 557.16 85.072C557.885 84.7733 558.659 84.624 559.48 84.624C560.408 84.624 561.283 84.8107 562.104 85.184C562.925 85.5467 563.603 86.0587 564.136 86.72L562.52 88.208C562.136 87.728 561.683 87.3653 561.16 87.12C560.637 86.8747 560.077 86.752 559.48 86.752C558.979 86.752 558.515 86.848 558.088 87.04C557.661 87.2213 557.288 87.4773 556.968 87.808C556.648 88.128 556.397 88.512 556.216 88.96C556.045 89.3973 555.96 89.8773 555.96 90.4C555.96 90.9227 556.051 91.408 556.232 91.856C556.413 92.304 556.664 92.6933 556.984 93.024C557.315 93.344 557.693 93.6 558.12 93.792C558.557 93.9733 559.032 94.064 559.544 94.064C560.077 94.064 560.557 93.968 560.984 93.776C561.411 93.5733 561.768 93.296 562.056 92.944C562.355 92.5813 562.552 92.176 562.648 91.728H559.336V89.712H565.128V90.416C565.128 91.248 564.984 92.016 564.696 92.72C564.419 93.4133 564.029 94.0213 563.528 94.544C563.027 95.056 562.435 95.456 561.752 95.744C561.069 96.032 560.323 96.176 559.512 96.176ZM566.567 96V87.664H568.759V88.592C569.026 88.2293 569.346 87.952 569.719 87.76C570.092 87.568 570.514 87.472 570.983 87.472C571.388 87.4827 571.692 87.5467 571.895 87.664V89.584C571.735 89.5093 571.559 89.456 571.367 89.424C571.175 89.3813 570.978 89.36 570.775 89.36C570.348 89.36 569.959 89.4667 569.607 89.68C569.255 89.8933 568.972 90.1973 568.759 90.592V96H566.567ZM575.52 96.144C574.923 96.144 574.395 96.0373 573.936 95.824C573.477 95.6 573.12 95.296 572.864 94.912C572.608 94.528 572.48 94.0853 572.48 93.584C572.48 92.784 572.779 92.1653 573.376 91.728C573.984 91.28 574.816 91.056 575.872 91.056C576.597 91.056 577.28 91.168 577.92 91.392V90.784C577.92 90.304 577.771 89.9413 577.472 89.696C577.173 89.4507 576.736 89.328 576.16 89.328C575.808 89.328 575.429 89.3867 575.024 89.504C574.619 89.6107 574.149 89.7813 573.616 90.016L572.816 88.4C573.477 88.1013 574.107 87.8773 574.704 87.728C575.312 87.5787 575.92 87.504 576.528 87.504C577.648 87.504 578.517 87.776 579.136 88.32C579.765 88.8533 580.08 89.6107 580.08 90.592V96H577.92V95.408C577.579 95.664 577.211 95.8507 576.816 95.968C576.421 96.0853 575.989 96.144 575.52 96.144ZM574.56 93.536C574.56 93.856 574.699 94.112 574.976 94.304C575.253 94.4853 575.621 94.576 576.08 94.576C576.443 94.576 576.779 94.5333 577.088 94.448C577.397 94.352 577.675 94.2133 577.92 94.032V92.816C577.653 92.7093 577.376 92.6293 577.088 92.576C576.8 92.5227 576.491 92.496 576.16 92.496C575.659 92.496 575.264 92.592 574.976 92.784C574.699 92.9653 574.56 93.216 574.56 93.536ZM585.595 96.112C584.806 96.112 584.091 95.92 583.451 95.536C582.811 95.152 582.299 94.64 581.915 94C581.542 93.3493 581.355 92.624 581.355 91.824C581.355 91.024 581.542 90.304 581.915 89.664C582.299 89.0133 582.816 88.5013 583.467 88.128C584.118 87.744 584.848 87.552 585.659 87.552C586.075 87.552 586.475 87.6107 586.859 87.728C587.243 87.8347 587.6 87.9947 587.931 88.208V84.8L590.123 84.432V96H587.963V95.312C587.28 95.8453 586.491 96.112 585.595 96.112ZM585.947 94.24C586.352 94.24 586.72 94.176 587.051 94.048C587.392 93.9093 587.686 93.7067 587.931 93.44V90.192C587.686 89.9467 587.392 89.7547 587.051 89.616C586.71 89.4773 586.342 89.408 585.947 89.408C585.488 89.408 585.072 89.5147 584.699 89.728C584.336 89.9307 584.048 90.2187 583.835 90.592C583.622 90.9547 583.515 91.3653 583.515 91.824C583.515 92.2827 583.622 92.6933 583.835 93.056C584.048 93.4187 584.336 93.7067 584.699 93.92C585.072 94.1333 585.488 94.24 585.947 94.24ZM591.833 96V87.664H594.025V96H591.833ZM592.921 86.672C592.579 86.672 592.286 86.5493 592.041 86.304C591.795 86.0587 591.673 85.7653 591.673 85.424C591.673 85.072 591.795 84.7787 592.041 84.544C592.286 84.2987 592.579 84.176 592.921 84.176C593.273 84.176 593.566 84.2987 593.801 84.544C594.046 84.7787 594.169 85.072 594.169 85.424C594.169 85.7653 594.046 86.0587 593.801 86.304C593.566 86.5493 593.273 86.672 592.921 86.672ZM595.739 96V87.664H597.931V88.352C598.56 87.7867 599.339 87.504 600.267 87.504C600.918 87.504 601.488 87.648 601.979 87.936C602.48 88.2133 602.87 88.6027 603.147 89.104C603.424 89.5947 603.563 90.1707 603.563 90.832V96H601.371V91.152C601.371 90.608 601.216 90.1813 600.907 89.872C600.598 89.552 600.176 89.392 599.643 89.392C599.27 89.392 598.939 89.4667 598.651 89.616C598.363 89.7547 598.123 89.9573 597.931 90.224V96H595.739ZM609.415 99.424C608.775 99.424 608.157 99.3547 607.559 99.216C606.962 99.088 606.423 98.9013 605.943 98.656L606.711 96.96C607.17 97.184 607.618 97.3493 608.055 97.456C608.493 97.5627 608.93 97.616 609.367 97.616C610.018 97.616 610.509 97.4773 610.839 97.2C611.181 96.9227 611.351 96.5067 611.351 95.952V95.296C610.669 95.7973 609.906 96.048 609.063 96.048C608.274 96.048 607.559 95.8613 606.919 95.488C606.29 95.104 605.783 94.5867 605.399 93.936C605.026 93.2853 604.839 92.5653 604.839 91.776C604.839 90.9867 605.026 90.272 605.399 89.632C605.783 88.992 606.301 88.4853 606.951 88.112C607.602 87.728 608.327 87.536 609.127 87.536C609.533 87.536 609.927 87.5947 610.311 87.712C610.695 87.8293 611.053 87.9947 611.383 88.208V87.664H613.543V95.984C613.543 97.0827 613.186 97.9307 612.471 98.528C611.767 99.1253 610.749 99.424 609.415 99.424ZM609.399 94.192C609.805 94.192 610.173 94.128 610.503 94C610.834 93.8613 611.117 93.6693 611.351 93.424V90.16C611.117 89.9253 610.829 89.744 610.487 89.616C610.157 89.4773 609.799 89.408 609.415 89.408C608.957 89.408 608.546 89.5147 608.183 89.728C607.821 89.9307 607.533 90.2133 607.319 90.576C607.106 90.928 606.999 91.328 606.999 91.776C606.999 92.2347 607.101 92.6453 607.303 93.008C607.517 93.3707 607.805 93.6587 608.167 93.872C608.541 94.0853 608.951 94.192 609.399 94.192Z" fill="#B5AEFF"/>
<g clip-path="url(#clip2_1_8508)">
<path fill-rule="evenodd" clip-rule="evenodd" d="M625 87.3333C624.632 87.3333 624.333 87.6318 624.333 88V92C624.333 92.3681 624.632 92.6666 625 92.6666H629C629.368 92.6666 629.667 92.3681 629.667 92V88C629.667 87.6318 629.368 87.3333 629 87.3333H625ZM625.667 91.3333V88.6666H628.333V91.3333H625.667Z" fill="#B5AEFF"/>
<path fill-rule="evenodd" clip-rule="evenodd" d="M625.667 83.3333C625.667 82.9651 625.368 82.6666 625 82.6666C624.632 82.6666 624.333 82.9651 624.333 83.3333V84.6666H623.667C622.562 84.6666 621.667 85.5621 621.667 86.6666V87.3333H620.333C619.965 87.3333 619.667 87.6318 619.667 88C619.667 88.3681 619.965 88.6666 620.333 88.6666H621.667V91.3333H620.333C619.965 91.3333 619.667 91.6318 619.667 92C619.667 92.3681 619.965 92.6666 620.333 92.6666H621.667V93.3333C621.667 94.4379 622.562 95.3333 623.667 95.3333H624.333V96.6666C624.333 97.0348 624.632 97.3333 625 97.3333C625.368 97.3333 625.667 97.0348 625.667 96.6666V95.3333H628.333V96.6666C628.333 97.0348 628.632 97.3333 629 97.3333C629.368 97.3333 629.667 97.0348 629.667 96.6666V95.3333H630.333C631.438 95.3333 632.333 94.4379 632.333 93.3333V92.6666H633.667C634.035 92.6666 634.333 92.3681 634.333 92C634.333 91.6318 634.035 91.3333 633.667 91.3333H632.333V88.6666H633.667C634.035 88.6666 634.333 88.3681 634.333 88C634.333 87.6318 634.035 87.3333 633.667 87.3333H632.333V86.6666C632.333 85.5621 631.438 84.6666 630.333 84.6666H629.667V83.3333C629.667 82.9651 629.368 82.6666 629 82.6666C628.632 82.6666 628.333 82.9651 628.333 83.3333V84.6666H625.667V83.3333ZM623 86.6666C623 86.2984 623.298 86 623.667 86H630.333C630.702 86 631 86.2984 631 86.6666V93.3333C631 93.7015 630.702 94 630.333 94H623.667C623.298 94 623 93.7015 623 93.3333V86.6666Z" fill="#B5AEFF"/>
</g>
<rect x="162" y="0.5" width="359" height="25" rx="12.5" fill="#1A1B35"/>
<path d="M190.742 17.12C190.118 17.12 189.534 17.012 188.99 16.796C188.446 16.572 187.97 16.264 187.562 15.872C187.162 15.48 186.846 15.024 186.614 14.504C186.39 13.976 186.278 13.408 186.278 12.8C186.278 12.184 186.39 11.616 186.614 11.096C186.846 10.568 187.166 10.108 187.574 9.716C187.982 9.324 188.454 9.02 188.99 8.804C189.534 8.58 190.118 8.468 190.742 8.468C191.206 8.468 191.654 8.532 192.086 8.66C192.518 8.788 192.918 8.968 193.286 9.2C193.662 9.432 193.982 9.712 194.246 10.04L193.07 11.204C192.766 10.828 192.414 10.544 192.014 10.352C191.622 10.16 191.198 10.064 190.742 10.064C190.366 10.064 190.014 10.136 189.686 10.28C189.358 10.416 189.074 10.608 188.834 10.856C188.594 11.096 188.406 11.384 188.27 11.72C188.134 12.048 188.066 12.408 188.066 12.8C188.066 13.184 188.134 13.544 188.27 13.88C188.406 14.208 188.598 14.496 188.846 14.744C189.094 14.984 189.382 15.172 189.71 15.308C190.046 15.444 190.41 15.512 190.802 15.512C191.242 15.512 191.654 15.42 192.038 15.236C192.422 15.052 192.762 14.788 193.058 14.444L194.198 15.572C193.934 15.892 193.618 16.168 193.25 16.4C192.882 16.632 192.482 16.812 192.05 16.94C191.626 17.06 191.19 17.12 190.742 17.12ZM201.076 17.132C200.452 17.132 199.872 17.024 199.336 16.808C198.8 16.584 198.328 16.276 197.92 15.884C197.52 15.484 197.204 15.024 196.972 14.504C196.748 13.976 196.636 13.408 196.636 12.8C196.636 12.192 196.748 11.628 196.972 11.108C197.204 10.58 197.52 10.12 197.92 9.728C198.328 9.328 198.8 9.02 199.336 8.804C199.872 8.58 200.452 8.468 201.076 8.468C201.7 8.468 202.28 8.58 202.816 8.804C203.36 9.02 203.832 9.328 204.232 9.728C204.64 10.12 204.956 10.58 205.18 11.108C205.404 11.628 205.516 12.192 205.516 12.8C205.516 13.408 205.404 13.976 205.18 14.504C204.956 15.024 204.64 15.484 204.232 15.884C203.832 16.276 203.36 16.584 202.816 16.808C202.28 17.024 201.7 17.132 201.076 17.132ZM201.076 15.536C201.46 15.536 201.812 15.468 202.132 15.332C202.452 15.188 202.732 14.996 202.972 14.756C203.212 14.508 203.4 14.216 203.536 13.88C203.672 13.544 203.74 13.184 203.74 12.8C203.74 12.408 203.672 12.048 203.536 11.72C203.4 11.384 203.212 11.096 202.972 10.856C202.732 10.608 202.452 10.416 202.132 10.28C201.812 10.136 201.46 10.064 201.076 10.064C200.7 10.064 200.352 10.136 200.032 10.28C199.712 10.416 199.432 10.608 199.192 10.856C198.952 11.096 198.764 11.384 198.628 11.72C198.492 12.048 198.424 12.404 198.424 12.788C198.424 13.18 198.492 13.544 198.628 13.88C198.764 14.216 198.952 14.508 199.192 14.756C199.432 14.996 199.712 15.188 200.032 15.332C200.352 15.468 200.7 15.536 201.076 15.536ZM208.642 17V8.6H210.874L213.178 13.136L215.482 8.6H217.714V17H216.07V10.82L213.154 16.4L210.25 10.796V17H208.642ZM221.144 17V8.6H225.356C225.908 8.6 226.392 8.712 226.808 8.936C227.232 9.16 227.564 9.472 227.804 9.872C228.044 10.264 228.164 10.72 228.164 11.24C228.164 11.736 228.044 12.18 227.804 12.572C227.564 12.964 227.232 13.272 226.808 13.496C226.384 13.72 225.9 13.832 225.356 13.832H222.884V17H221.144ZM222.884 12.392H225.164C225.54 12.392 225.84 12.288 226.064 12.08C226.296 11.872 226.412 11.596 226.412 11.252C226.412 10.9 226.296 10.62 226.064 10.412C225.84 10.204 225.54 10.1 225.164 10.1H222.884V12.392ZM235.348 17.132C234.724 17.132 234.144 17.024 233.608 16.808C233.072 16.584 232.6 16.276 232.192 15.884C231.792 15.484 231.476 15.024 231.244 14.504C231.02 13.976 230.908 13.408 230.908 12.8C230.908 12.192 231.02 11.628 231.244 11.108C231.476 10.58 231.792 10.12 232.192 9.728C232.6 9.328 233.072 9.02 233.608 8.804C234.144 8.58 234.724 8.468 235.348 8.468C235.972 8.468 236.552 8.58 237.088 8.804C237.632 9.02 238.104 9.328 238.504 9.728C238.912 10.12 239.228 10.58 239.452 11.108C239.676 11.628 239.788 12.192 239.788 12.8C239.788 13.408 239.676 13.976 239.452 14.504C239.228 15.024 238.912 15.484 238.504 15.884C238.104 16.276 237.632 16.584 237.088 16.808C236.552 17.024 235.972 17.132 235.348 17.132ZM235.348 15.536C235.732 15.536 236.084 15.468 236.404 15.332C236.724 15.188 237.004 14.996 237.244 14.756C237.484 14.508 237.672 14.216 237.808 13.88C237.944 13.544 238.012 13.184 238.012 12.8C238.012 12.408 237.944 12.048 237.808 11.72C237.672 11.384 237.484 11.096 237.244 10.856C237.004 10.608 236.724 10.416 236.404 10.28C236.084 10.136 235.732 10.064 235.348 10.064C234.972 10.064 234.624 10.136 234.304 10.28C233.984 10.416 233.704 10.608 233.464 10.856C233.224 11.096 233.036 11.384 232.9 11.72C232.764 12.048 232.696 12.404 232.696 12.788C232.696 13.18 232.764 13.544 232.9 13.88C233.036 14.216 233.224 14.508 233.464 14.756C233.704 14.996 233.984 15.188 234.304 15.332C234.624 15.468 234.972 15.536 235.348 15.536ZM242.913 17V8.6H244.569L248.745 14.024V8.6H250.377V17H248.841L244.557 11.384V17H242.913ZM253.822 17V8.6H260.278V10.112H255.562V12.032H258.67V13.496H255.562V15.488H260.326V17H253.822ZM263.476 17V8.6H265.132L269.308 14.024V8.6H270.94V17H269.404L265.12 11.384V17H263.476ZM276.676 17V10.136H273.844V8.6H281.236V10.136H278.416V17H276.676ZM287.25 17.12C286.57 17.12 285.906 16.996 285.258 16.748C284.61 16.492 284.034 16.132 283.53 15.668L284.526 14.42C285.014 14.852 285.482 15.164 285.93 15.356C286.386 15.548 286.866 15.644 287.37 15.644C287.722 15.644 288.026 15.604 288.282 15.524C288.538 15.436 288.734 15.312 288.87 15.152C289.014 14.992 289.086 14.804 289.086 14.588C289.086 14.3 288.982 14.08 288.774 13.928C288.566 13.768 288.21 13.644 287.706 13.556L286.038 13.268C285.326 13.148 284.782 12.896 284.406 12.512C284.038 12.128 283.854 11.632 283.854 11.024C283.854 10.504 283.986 10.052 284.25 9.668C284.522 9.284 284.902 8.992 285.39 8.792C285.886 8.584 286.474 8.48 287.154 8.48C287.77 8.48 288.382 8.584 288.99 8.792C289.606 9 290.15 9.288 290.622 9.656L289.686 10.952C288.806 10.28 287.922 9.944 287.034 9.944C286.722 9.944 286.45 9.984 286.218 10.064C285.986 10.144 285.806 10.256 285.678 10.4C285.558 10.536 285.498 10.7 285.498 10.892C285.498 11.148 285.59 11.348 285.774 11.492C285.958 11.628 286.266 11.732 286.698 11.804L288.282 12.068C289.122 12.204 289.75 12.472 290.166 12.872C290.582 13.264 290.79 13.784 290.79 14.432C290.79 14.976 290.646 15.452 290.358 15.86C290.07 16.26 289.658 16.572 289.122 16.796C288.594 17.012 287.97 17.12 287.25 17.12ZM297.27 17L300.726 8.6H302.73L306.15 17H304.266L303.414 14.792H299.946L299.082 17H297.27ZM300.486 13.4H302.886L301.686 10.304L300.486 13.4ZM308.783 17V8.6H310.439L314.615 14.024V8.6H316.247V17H314.711L310.427 11.384V17H308.783ZM321.431 15.452H322.895C323.271 15.452 323.619 15.388 323.939 15.26C324.267 15.124 324.551 14.936 324.791 14.696C325.039 14.456 325.227 14.176 325.355 13.856C325.491 13.536 325.559 13.188 325.559 12.812C325.559 12.436 325.491 12.088 325.355 11.768C325.219 11.44 325.031 11.156 324.791 10.916C324.551 10.676 324.267 10.488 323.939 10.352C323.619 10.216 323.271 10.148 322.895 10.148H321.431V15.452ZM319.691 17V8.6H322.919C323.551 8.6 324.135 8.708 324.671 8.924C325.207 9.132 325.675 9.428 326.075 9.812C326.475 10.196 326.787 10.644 327.011 11.156C327.243 11.668 327.359 12.22 327.359 12.812C327.359 13.412 327.247 13.964 327.023 14.468C326.799 14.972 326.483 15.416 326.075 15.8C325.675 16.176 325.207 16.472 324.671 16.688C324.135 16.896 323.551 17 322.919 17H319.691ZM336.545 15.452H338.009C338.385 15.452 338.733 15.388 339.053 15.26C339.381 15.124 339.665 14.936 339.905 14.696C340.153 14.456 340.341 14.176 340.469 13.856C340.605 13.536 340.673 13.188 340.673 12.812C340.673 12.436 340.605 12.088 340.469 11.768C340.333 11.44 340.145 11.156 339.905 10.916C339.665 10.676 339.381 10.488 339.053 10.352C338.733 10.216 338.385 10.148 338.009 10.148H336.545V15.452ZM334.805 17V8.6H338.033C338.665 8.6 339.249 8.708 339.785 8.924C340.321 9.132 340.789 9.428 341.189 9.812C341.589 10.196 341.901 10.644 342.125 11.156C342.357 11.668 342.473 12.22 342.473 12.812C342.473 13.412 342.361 13.964 342.137 14.468C341.913 14.972 341.597 15.416 341.189 15.8C340.789 16.176 340.321 16.472 339.785 16.688C339.249 16.896 338.665 17 338.033 17H334.805ZM345.584 17V8.6H347.324V17H345.584ZM353.774 17.12C353.094 17.12 352.43 16.996 351.782 16.748C351.134 16.492 350.558 16.132 350.054 15.668L351.05 14.42C351.538 14.852 352.006 15.164 352.454 15.356C352.91 15.548 353.39 15.644 353.894 15.644C354.246 15.644 354.55 15.604 354.806 15.524C355.062 15.436 355.258 15.312 355.394 15.152C355.538 14.992 355.61 14.804 355.61 14.588C355.61 14.3 355.506 14.08 355.298 13.928C355.09 13.768 354.734 13.644 354.23 13.556L352.562 13.268C351.85 13.148 351.306 12.896 350.93 12.512C350.562 12.128 350.378 11.632 350.378 11.024C350.378 10.504 350.51 10.052 350.774 9.668C351.046 9.284 351.426 8.992 351.914 8.792C352.41 8.584 352.998 8.48 353.678 8.48C354.294 8.48 354.906 8.584 355.514 8.792C356.13 9 356.674 9.288 357.146 9.656L356.21 10.952C355.33 10.28 354.446 9.944 353.558 9.944C353.246 9.944 352.974 9.984 352.742 10.064C352.51 10.144 352.33 10.256 352.202 10.4C352.082 10.536 352.022 10.7 352.022 10.892C352.022 11.148 352.114 11.348 352.298 11.492C352.482 11.628 352.79 11.732 353.222 11.804L354.806 12.068C355.646 12.204 356.274 12.472 356.69 12.872C357.106 13.264 357.314 13.784 357.314 14.432C357.314 14.976 357.17 15.452 356.882 15.86C356.594 16.26 356.182 16.572 355.646 16.796C355.118 17.012 354.494 17.12 353.774 17.12ZM360.264 17V8.6H364.476C365.028 8.6 365.512 8.712 365.928 8.936C366.352 9.16 366.684 9.472 366.924 9.872C367.164 10.264 367.284 10.72 367.284 11.24C367.284 11.736 367.164 12.18 366.924 12.572C366.684 12.964 366.352 13.272 365.928 13.496C365.504 13.72 365.02 13.832 364.476 13.832H362.004V17H360.264ZM362.004 12.392H364.284C364.66 12.392 364.96 12.288 365.184 12.08C365.416 11.872 365.532 11.596 365.532 11.252C365.532 10.9 365.416 10.62 365.184 10.412C364.96 10.204 364.66 10.1 364.284 10.1H362.004V12.392ZM374.468 17.132C373.844 17.132 373.264 17.024 372.728 16.808C372.192 16.584 371.72 16.276 371.312 15.884C370.912 15.484 370.596 15.024 370.364 14.504C370.14 13.976 370.028 13.408 370.028 12.8C370.028 12.192 370.14 11.628 370.364 11.108C370.596 10.58 370.912 10.12 371.312 9.728C371.72 9.328 372.192 9.02 372.728 8.804C373.264 8.58 373.844 8.468 374.468 8.468C375.092 8.468 375.672 8.58 376.208 8.804C376.752 9.02 377.224 9.328 377.624 9.728C378.032 10.12 378.348 10.58 378.572 11.108C378.796 11.628 378.908 12.192 378.908 12.8C378.908 13.408 378.796 13.976 378.572 14.504C378.348 15.024 378.032 15.484 377.624 15.884C377.224 16.276 376.752 16.584 376.208 16.808C375.672 17.024 375.092 17.132 374.468 17.132ZM374.468 15.536C374.852 15.536 375.204 15.468 375.524 15.332C375.844 15.188 376.124 14.996 376.364 14.756C376.604 14.508 376.792 14.216 376.928 13.88C377.064 13.544 377.132 13.184 377.132 12.8C377.132 12.408 377.064 12.048 376.928 11.72C376.792 11.384 376.604 11.096 376.364 10.856C376.124 10.608 375.844 10.416 375.524 10.28C375.204 10.136 374.852 10.064 374.468 10.064C374.092 10.064 373.744 10.136 373.424 10.28C373.104 10.416 372.824 10.608 372.584 10.856C372.344 11.096 372.156 11.384 372.02 11.72C371.884 12.048 371.816 12.404 371.816 12.788C371.816 13.18 371.884 13.544 372.02 13.88C372.156 14.216 372.344 14.508 372.584 14.756C372.824 14.996 373.104 15.188 373.424 15.332C373.744 15.468 374.092 15.536 374.468 15.536ZM385.034 17.12C384.354 17.12 383.69 16.996 383.042 16.748C382.394 16.492 381.818 16.132 381.314 15.668L382.31 14.42C382.798 14.852 383.266 15.164 383.714 15.356C384.17 15.548 384.65 15.644 385.154 15.644C385.506 15.644 385.81 15.604 386.066 15.524C386.322 15.436 386.518 15.312 386.654 15.152C386.798 14.992 386.87 14.804 386.87 14.588C386.87 14.3 386.766 14.08 386.558 13.928C386.35 13.768 385.994 13.644 385.49 13.556L383.822 13.268C383.11 13.148 382.566 12.896 382.19 12.512C381.822 12.128 381.638 11.632 381.638 11.024C381.638 10.504 381.77 10.052 382.034 9.668C382.306 9.284 382.686 8.992 383.174 8.792C383.67 8.584 384.258 8.48 384.938 8.48C385.554 8.48 386.166 8.584 386.774 8.792C387.39 9 387.934 9.288 388.406 9.656L387.47 10.952C386.59 10.28 385.706 9.944 384.818 9.944C384.506 9.944 384.234 9.984 384.002 10.064C383.77 10.144 383.59 10.256 383.462 10.4C383.342 10.536 383.282 10.7 383.282 10.892C383.282 11.148 383.374 11.348 383.558 11.492C383.742 11.628 384.05 11.732 384.482 11.804L386.066 12.068C386.906 12.204 387.534 12.472 387.95 12.872C388.366 13.264 388.574 13.784 388.574 14.432C388.574 14.976 388.43 15.452 388.142 15.86C387.854 16.26 387.442 16.572 386.906 16.796C386.378 17.012 385.754 17.12 385.034 17.12ZM391.524 17V8.6H393.264V17H391.524ZM399.006 17V10.136H396.174V8.6H403.566V10.136H400.746V17H399.006ZM406.462 17V8.6H408.202V17H406.462ZM415.767 17.132C415.143 17.132 414.563 17.024 414.027 16.808C413.491 16.584 413.019 16.276 412.611 15.884C412.211 15.484 411.895 15.024 411.663 14.504C411.439 13.976 411.327 13.408 411.327 12.8C411.327 12.192 411.439 11.628 411.663 11.108C411.895 10.58 412.211 10.12 412.611 9.728C413.019 9.328 413.491 9.02 414.027 8.804C414.563 8.58 415.143 8.468 415.767 8.468C416.391 8.468 416.971 8.58 417.507 8.804C418.051 9.02 418.523 9.328 418.923 9.728C419.331 10.12 419.647 10.58 419.871 11.108C420.095 11.628 420.207 12.192 420.207 12.8C420.207 13.408 420.095 13.976 419.871 14.504C419.647 15.024 419.331 15.484 418.923 15.884C418.523 16.276 418.051 16.584 417.507 16.808C416.971 17.024 416.391 17.132 415.767 17.132ZM415.767 15.536C416.151 15.536 416.503 15.468 416.823 15.332C417.143 15.188 417.423 14.996 417.663 14.756C417.903 14.508 418.091 14.216 418.227 13.88C418.363 13.544 418.431 13.184 418.431 12.8C418.431 12.408 418.363 12.048 418.227 11.72C418.091 11.384 417.903 11.096 417.663 10.856C417.423 10.608 417.143 10.416 416.823 10.28C416.503 10.136 416.151 10.064 415.767 10.064C415.391 10.064 415.043 10.136 414.723 10.28C414.403 10.416 414.123 10.608 413.883 10.856C413.643 11.096 413.455 11.384 413.319 11.72C413.183 12.048 413.115 12.404 413.115 12.788C413.115 13.18 413.183 13.544 413.319 13.88C413.455 14.216 413.643 14.508 413.883 14.756C414.123 14.996 414.403 15.188 414.723 15.332C415.043 15.468 415.391 15.536 415.767 15.536ZM423.333 17V8.6H424.989L429.165 14.024V8.6H430.797V17H429.261L424.977 11.384V17H423.333ZM438.575 17V8.6H442.679C443.247 8.6 443.747 8.712 444.179 8.936C444.619 9.152 444.959 9.456 445.199 9.848C445.447 10.24 445.571 10.692 445.571 11.204C445.571 11.74 445.423 12.212 445.127 12.62C444.831 13.028 444.435 13.332 443.939 13.532L445.799 17H443.855L442.211 13.784H440.315V17H438.575ZM440.315 12.356H442.523C442.915 12.356 443.227 12.252 443.459 12.044C443.699 11.836 443.819 11.564 443.819 11.228C443.819 10.892 443.699 10.62 443.459 10.412C443.227 10.204 442.915 10.1 442.523 10.1H440.315V12.356ZM452.756 17.132C452.132 17.132 451.552 17.024 451.016 16.808C450.48 16.584 450.008 16.276 449.6 15.884C449.2 15.484 448.884 15.024 448.652 14.504C448.428 13.976 448.316 13.408 448.316 12.8C448.316 12.192 448.428 11.628 448.652 11.108C448.884 10.58 449.2 10.12 449.6 9.728C450.008 9.328 450.48 9.02 451.016 8.804C451.552 8.58 452.132 8.468 452.756 8.468C453.38 8.468 453.96 8.58 454.496 8.804C455.04 9.02 455.512 9.328 455.912 9.728C456.32 10.12 456.636 10.58 456.86 11.108C457.084 11.628 457.196 12.192 457.196 12.8C457.196 13.408 457.084 13.976 456.86 14.504C456.636 15.024 456.32 15.484 455.912 15.884C455.512 16.276 455.04 16.584 454.496 16.808C453.96 17.024 453.38 17.132 452.756 17.132ZM452.756 15.536C453.14 15.536 453.492 15.468 453.812 15.332C454.132 15.188 454.412 14.996 454.652 14.756C454.892 14.508 455.08 14.216 455.216 13.88C455.352 13.544 455.42 13.184 455.42 12.8C455.42 12.408 455.352 12.048 455.216 11.72C455.08 11.384 454.892 11.096 454.652 10.856C454.412 10.608 454.132 10.416 453.812 10.28C453.492 10.136 453.14 10.064 452.756 10.064C452.38 10.064 452.032 10.136 451.712 10.28C451.392 10.416 451.112 10.608 450.872 10.856C450.632 11.096 450.444 11.384 450.308 11.72C450.172 12.048 450.104 12.404 450.104 12.788C450.104 13.18 450.172 13.544 450.308 13.88C450.444 14.216 450.632 14.508 450.872 14.756C451.112 14.996 451.392 15.188 451.712 15.332C452.032 15.468 452.38 15.536 452.756 15.536ZM463.909 17.12C463.149 17.12 462.489 16.968 461.929 16.664C461.377 16.36 460.949 15.928 460.645 15.368C460.341 14.8 460.189 14.136 460.189 13.376V8.6H461.929V13.376C461.929 13.808 462.009 14.188 462.169 14.516C462.337 14.836 462.569 15.084 462.865 15.26C463.169 15.428 463.521 15.512 463.921 15.512C464.321 15.512 464.669 15.428 464.965 15.26C465.261 15.084 465.489 14.836 465.649 14.516C465.817 14.188 465.901 13.808 465.901 13.376V8.6H467.629V13.376C467.629 14.128 467.477 14.788 467.173 15.356C466.869 15.916 466.437 16.352 465.877 16.664C465.325 16.968 464.669 17.12 463.909 17.12ZM473.229 17V10.136H470.397V8.6H477.789V10.136H474.969V17H473.229ZM480.685 17V8.6H487.141V10.112H482.425V12.032H485.533V13.496H482.425V15.488H487.189V17H480.685ZM493.339 17.12C492.659 17.12 491.995 16.996 491.347 16.748C490.699 16.492 490.123 16.132 489.619 15.668L490.615 14.42C491.103 14.852 491.571 15.164 492.019 15.356C492.475 15.548 492.955 15.644 493.459 15.644C493.811 15.644 494.115 15.604 494.371 15.524C494.627 15.436 494.823 15.312 494.959 15.152C495.103 14.992 495.175 14.804 495.175 14.588C495.175 14.3 495.071 14.08 494.863 13.928C494.655 13.768 494.299 13.644 493.795 13.556L492.127 13.268C491.415 13.148 490.871 12.896 490.495 12.512C490.127 12.128 489.943 11.632 489.943 11.024C489.943 10.504 490.075 10.052 490.339 9.668C490.611 9.284 490.991 8.992 491.479 8.792C491.975 8.584 492.563 8.48 493.243 8.48C493.859 8.48 494.471 8.584 495.079 8.792C495.695 9 496.239 9.288 496.711 9.656L495.775 10.952C494.895 10.28 494.011 9.944 493.123 9.944C492.811 9.944 492.539 9.984 492.307 10.064C492.075 10.144 491.895 10.256 491.767 10.4C491.647 10.536 491.587 10.7 491.587 10.892C491.587 11.148 491.679 11.348 491.863 11.492C492.047 11.628 492.355 11.732 492.787 11.804L494.371 12.068C495.211 12.204 495.839 12.472 496.255 12.872C496.671 13.264 496.879 13.784 496.879 14.432C496.879 14.976 496.735 15.452 496.447 15.86C496.159 16.26 495.747 16.572 495.211 16.796C494.683 17.012 494.059 17.12 493.339 17.12Z" fill="white"/>
<rect x="162" y="0.5" width="359" height="25" rx="12.5" stroke="#7EB5BE"/>
<defs>
<linearGradient id="paint0_linear_1_8508" x1="341.5" y1="13" x2="341.5" y2="122" gradientUnits="userSpaceOnUse">
<stop stop-color="#E1EEFA"/>
<stop offset="1" stop-color="#E1EEFA" stop-opacity="0"/>
</linearGradient>
<linearGradient id="paint1_linear_1_8508" x1="341.5" y1="13" x2="341.5" y2="122" gradientUnits="userSpaceOnUse">
<stop stop-color="#7EB5BE" stop-opacity="0.69"/>
<stop offset="1" stop-color="#7EB5BE" stop-opacity="0.85"/>
</linearGradient>
<clipPath id="clip0_1_8508">
<rect width="16" height="16" fill="white" transform="translate(361 82)"/>
</clipPath>
<clipPath id="clip1_1_8508">
<rect width="16" height="16" fill="white" transform="translate(473 82)"/>
</clipPath>
<clipPath id="clip2_1_8508">
<rect width="16" height="16" fill="white" transform="translate(619 82)"/>
</clipPath>
</defs>
</svg>
