<svg width="16" height="16" viewBox="0 0 16 16" fill="none" xmlns="http://www.w3.org/2000/svg">
    <path fill-rule="evenodd" clip-rule="evenodd" d="M6.00033 5.33329C5.63214 5.33329 5.33366 5.63177 5.33366 5.99996V9.99996C5.33366 10.3681 5.63214 10.6666 6.00033 10.6666H10.0003C10.3685 10.6666 10.667 10.3681 10.667 9.99996V5.99996C10.667 5.63177 10.3685 5.33329 10.0003 5.33329H6.00033ZM6.66699 9.33329V6.66663H9.33366V9.33329H6.66699Z" fill="#B5AEFF"/>
    <path fill-rule="evenodd" clip-rule="evenodd" d="M6.66699 1.33329C6.66699 0.965103 6.36852 0.666626 6.00033 0.666626C5.63214 0.666626 5.33366 0.965103 5.33366 1.33329V2.66663H4.66699C3.56242 2.66663 2.66699 3.56206 2.66699 4.66663V5.33329H1.33366C0.965469 5.33329 0.666992 5.63177 0.666992 5.99996C0.666992 6.36815 0.965469 6.66663 1.33366 6.66663H2.66699V9.33329H1.33366C0.965469 9.33329 0.666992 9.63177 0.666992 9.99996C0.666992 10.3681 0.965469 10.6666 1.33366 10.6666H2.66699V11.3333C2.66699 12.4379 3.56242 13.3333 4.66699 13.3333H5.33366V14.6666C5.33366 15.0348 5.63214 15.3333 6.00033 15.3333C6.36852 15.3333 6.66699 15.0348 6.66699 14.6666V13.3333H9.33366V14.6666C9.33366 15.0348 9.63214 15.3333 10.0003 15.3333C10.3685 15.3333 10.667 15.0348 10.667 14.6666V13.3333H11.3337C12.4382 13.3333 13.3337 12.4379 13.3337 11.3333V10.6666H14.667C15.0352 10.6666 15.3337 10.3681 15.3337 9.99996C15.3337 9.63177 15.0352 9.33329 14.667 9.33329H13.3337V6.66663H14.667C15.0352 6.66663 15.3337 6.36815 15.3337 5.99996C15.3337 5.63177 15.0352 5.33329 14.667 5.33329H13.3337V4.66663C13.3337 3.56206 12.4382 2.66663 11.3337 2.66663H10.667V1.33329C10.667 0.965103 10.3685 0.666626 10.0003 0.666626C9.63214 0.666626 9.33366 0.965103 9.33366 1.33329V2.66663H6.66699V1.33329ZM4.00033 4.66663C4.00033 4.29844 4.2988 3.99996 4.66699 3.99996H11.3337C11.7018 3.99996 12.0003 4.29844 12.0003 4.66663V11.3333C12.0003 11.7015 11.7018 12 11.3337 12H4.66699C4.2988 12 4.00033 11.7015 4.00033 11.3333V4.66663Z" fill="#B5AEFF"/>
    </svg>
    