<svg height="368" width="368" viewBox="0 0 368 368" fill="none" xmlns="http://www.w3.org/2000/svg">
<circle opacity="0.6" cx="184" cy="184" r="183" fill="url(#paint0_linear_1_8536)" stroke="url(#paint1_linear_1_8536)" stroke-width="2"/>
<circle cx="184" cy="184" r="96" fill="#EAEAF4"/>
<path d="M122.653 193V176.2H131.077C132.181 176.2 133.149 176.424 133.981 176.872C134.829 177.32 135.493 177.944 135.973 178.744C136.453 179.528 136.693 180.44 136.693 181.48C136.693 182.472 136.453 183.36 135.973 184.144C135.493 184.928 134.829 185.544 133.981 185.992C133.133 186.44 132.165 186.664 131.077 186.664H126.133V193H122.653ZM126.133 183.784H130.693C131.445 183.784 132.045 183.576 132.493 183.16C132.957 182.744 133.189 182.192 133.189 181.504C133.189 180.8 132.957 180.24 132.493 179.824C132.045 179.408 131.445 179.2 130.693 179.2H126.133V183.784ZM138.749 193V180.496H142.037V181.888C142.437 181.344 142.917 180.928 143.477 180.64C144.037 180.352 144.669 180.208 145.373 180.208C145.981 180.224 146.437 180.32 146.741 180.496V183.376C146.501 183.264 146.237 183.184 145.949 183.136C145.661 183.072 145.365 183.04 145.061 183.04C144.421 183.04 143.837 183.2 143.309 183.52C142.781 183.84 142.357 184.296 142.037 184.888V193H138.749ZM154.15 193.24C152.902 193.24 151.774 192.952 150.766 192.376C149.758 191.8 148.958 191.024 148.366 190.048C147.774 189.072 147.478 187.976 147.478 186.76C147.478 185.544 147.766 184.448 148.342 183.472C148.934 182.48 149.734 181.696 150.742 181.12C151.766 180.544 152.902 180.256 154.15 180.256C155.398 180.256 156.526 180.544 157.534 181.12C158.558 181.696 159.358 182.48 159.934 183.472C160.526 184.448 160.822 185.544 160.822 186.76C160.822 187.976 160.526 189.072 159.934 190.048C159.358 191.024 158.566 191.8 157.558 192.376C156.55 192.952 155.414 193.24 154.15 193.24ZM154.15 190.384C154.806 190.384 155.39 190.224 155.902 189.904C156.43 189.584 156.846 189.152 157.15 188.608C157.47 188.048 157.63 187.432 157.63 186.76C157.63 186.072 157.47 185.456 157.15 184.912C156.846 184.368 156.43 183.936 155.902 183.616C155.39 183.28 154.806 183.112 154.15 183.112C153.51 183.112 152.926 183.28 152.398 183.616C151.87 183.936 151.454 184.368 151.15 184.912C150.846 185.456 150.694 186.072 150.694 186.76C150.694 187.432 150.846 188.048 151.15 188.608C151.454 189.152 151.87 189.584 152.398 189.904C152.926 190.224 153.51 190.384 154.15 190.384ZM168.819 193.24C167.587 193.24 166.475 192.96 165.483 192.4C164.491 191.824 163.707 191.048 163.131 190.072C162.555 189.08 162.267 187.976 162.267 186.76C162.267 185.528 162.555 184.424 163.131 183.448C163.707 182.472 164.491 181.696 165.483 181.12C166.475 180.544 167.587 180.256 168.819 180.256C169.811 180.256 170.755 180.448 171.651 180.832C172.563 181.216 173.347 181.768 174.003 182.488L171.987 184.624C171.523 184.112 171.035 183.736 170.523 183.496C170.027 183.24 169.483 183.112 168.891 183.112C168.251 183.112 167.675 183.272 167.163 183.592C166.667 183.912 166.267 184.344 165.963 184.888C165.675 185.432 165.531 186.056 165.531 186.76C165.531 187.432 165.675 188.048 165.963 188.608C166.267 189.152 166.683 189.584 167.211 189.904C167.739 190.208 168.323 190.36 168.963 190.36C169.523 190.36 170.043 190.248 170.523 190.024C171.019 189.784 171.491 189.432 171.939 188.968L173.907 191.032C173.267 191.72 172.499 192.264 171.603 192.664C170.707 193.048 169.779 193.24 168.819 193.24ZM181.385 193.24C180.137 193.24 179.001 192.952 177.977 192.376C176.969 191.8 176.169 191.024 175.577 190.048C174.985 189.072 174.689 187.976 174.689 186.76C174.689 185.544 174.969 184.448 175.529 183.472C176.105 182.496 176.881 181.72 177.857 181.144C178.833 180.568 179.921 180.28 181.121 180.28C182.321 180.28 183.385 180.576 184.313 181.168C185.241 181.76 185.969 182.56 186.497 183.568C187.041 184.576 187.313 185.72 187.313 187V187.864H178.049C178.193 188.36 178.425 188.808 178.745 189.208C179.081 189.608 179.489 189.92 179.969 190.144C180.465 190.368 180.993 190.48 181.553 190.48C182.113 190.48 182.625 190.392 183.089 190.216C183.569 190.04 183.977 189.792 184.313 189.472L186.473 191.44C185.705 192.064 184.913 192.52 184.097 192.808C183.297 193.096 182.393 193.24 181.385 193.24ZM178.001 185.512H184.073C183.961 185.016 183.753 184.584 183.449 184.216C183.161 183.832 182.809 183.536 182.393 183.328C181.993 183.104 181.545 182.992 181.049 182.992C180.537 182.992 180.073 183.096 179.657 183.304C179.241 183.512 178.889 183.808 178.601 184.192C178.329 184.56 178.129 185 178.001 185.512ZM194.124 193.24C192.972 193.24 191.908 193.096 190.932 192.808C189.956 192.504 189.108 192.072 188.388 191.512L190.02 189.328C190.74 189.808 191.428 190.168 192.084 190.408C192.756 190.648 193.42 190.768 194.076 190.768C194.812 190.768 195.396 190.648 195.828 190.408C196.276 190.152 196.5 189.824 196.5 189.424C196.5 189.104 196.372 188.848 196.116 188.656C195.876 188.464 195.484 188.328 194.94 188.248L192.54 187.888C191.292 187.696 190.348 187.296 189.708 186.688C189.068 186.064 188.748 185.248 188.748 184.24C188.748 183.424 188.956 182.728 189.372 182.152C189.804 181.56 190.404 181.104 191.172 180.784C191.956 180.448 192.884 180.28 193.956 180.28C194.868 180.28 195.756 180.408 196.62 180.664C197.5 180.92 198.324 181.312 199.092 181.84L197.508 183.976C196.82 183.544 196.164 183.232 195.54 183.04C194.916 182.848 194.284 182.752 193.644 182.752C193.052 182.752 192.572 182.864 192.204 183.088C191.852 183.312 191.676 183.608 191.676 183.976C191.676 184.312 191.804 184.576 192.06 184.768C192.316 184.96 192.756 185.096 193.38 185.176L195.756 185.536C197.004 185.712 197.956 186.112 198.612 186.736C199.268 187.344 199.596 188.136 199.596 189.112C199.596 189.912 199.356 190.624 198.876 191.248C198.396 191.856 197.748 192.344 196.932 192.712C196.116 193.064 195.18 193.24 194.124 193.24ZM205.914 193.24C204.762 193.24 203.698 193.096 202.722 192.808C201.746 192.504 200.898 192.072 200.178 191.512L201.81 189.328C202.53 189.808 203.218 190.168 203.874 190.408C204.546 190.648 205.21 190.768 205.866 190.768C206.602 190.768 207.186 190.648 207.618 190.408C208.066 190.152 208.29 189.824 208.29 189.424C208.29 189.104 208.162 188.848 207.906 188.656C207.666 188.464 207.274 188.328 206.73 188.248L204.33 187.888C203.082 187.696 202.138 187.296 201.498 186.688C200.858 186.064 200.538 185.248 200.538 184.24C200.538 183.424 200.746 182.728 201.162 182.152C201.594 181.56 202.194 181.104 202.962 180.784C203.746 180.448 204.674 180.28 205.746 180.28C206.658 180.28 207.546 180.408 208.41 180.664C209.29 180.92 210.114 181.312 210.882 181.84L209.298 183.976C208.61 183.544 207.954 183.232 207.33 183.04C206.706 182.848 206.074 182.752 205.434 182.752C204.842 182.752 204.362 182.864 203.994 183.088C203.642 183.312 203.465 183.608 203.465 183.976C203.465 184.312 203.594 184.576 203.85 184.768C204.106 184.96 204.546 185.096 205.17 185.176L207.546 185.536C208.794 185.712 209.746 186.112 210.402 186.736C211.058 187.344 211.386 188.136 211.386 189.112C211.386 189.912 211.146 190.624 210.666 191.248C210.186 191.856 209.538 192.344 208.722 192.712C207.906 193.064 206.97 193.24 205.914 193.24ZM213.023 193V180.496H216.311V193H213.023ZM214.655 179.008C214.143 179.008 213.703 178.824 213.335 178.456C212.967 178.088 212.783 177.648 212.783 177.136C212.783 176.608 212.967 176.168 213.335 175.816C213.703 175.448 214.143 175.264 214.655 175.264C215.183 175.264 215.623 175.448 215.975 175.816C216.343 176.168 216.527 176.608 216.527 177.136C216.527 177.648 216.343 178.088 215.975 178.456C215.623 178.824 215.183 179.008 214.655 179.008ZM218.882 193V180.496H222.17V181.528C223.114 180.68 224.282 180.256 225.674 180.256C226.65 180.256 227.506 180.472 228.242 180.904C228.994 181.32 229.578 181.904 229.994 182.656C230.41 183.392 230.618 184.256 230.618 185.248V193H227.33V185.728C227.33 184.912 227.098 184.272 226.634 183.808C226.17 183.328 225.538 183.088 224.738 183.088C224.178 183.088 223.682 183.2 223.25 183.424C222.818 183.632 222.458 183.936 222.17 184.336V193H218.882ZM239.397 198.136C238.437 198.136 237.509 198.032 236.613 197.824C235.717 197.632 234.909 197.352 234.189 196.984L235.34 194.44C236.029 194.776 236.701 195.024 237.357 195.184C238.013 195.344 238.669 195.424 239.325 195.424C240.301 195.424 241.037 195.216 241.533 194.8C242.045 194.384 242.301 193.76 242.301 192.928V191.944C241.277 192.696 240.133 193.072 238.868 193.072C237.685 193.072 236.613 192.792 235.653 192.232C234.709 191.656 233.949 190.88 233.373 189.904C232.813 188.928 232.533 187.848 232.533 186.664C232.533 185.48 232.813 184.408 233.373 183.448C233.949 182.488 234.725 181.728 235.701 181.168C236.677 180.592 237.765 180.304 238.965 180.304C239.573 180.304 240.165 180.392 240.741 180.568C241.317 180.744 241.853 180.992 242.349 181.312V180.496H245.589V192.976C245.589 194.624 245.053 195.896 243.981 196.792C242.925 197.688 241.397 198.136 239.397 198.136ZM239.373 190.288C239.981 190.288 240.533 190.192 241.029 190C241.525 189.792 241.949 189.504 242.301 189.136V184.24C241.949 183.888 241.517 183.616 241.005 183.424C240.509 183.216 239.973 183.112 239.397 183.112C238.709 183.112 238.093 183.272 237.549 183.592C237.005 183.896 236.573 184.32 236.253 184.864C235.933 185.392 235.773 185.992 235.773 186.664C235.773 187.352 235.925 187.968 236.229 188.512C236.549 189.056 236.981 189.488 237.525 189.808C238.085 190.128 238.701 190.288 239.373 190.288Z" fill="#1A1B35"/>
<defs>
<linearGradient id="paint0_linear_1_8536" x1="184" y1="2" x2="184" y2="366" gradientUnits="userSpaceOnUse">
<stop stop-color="#316EC4"/>
<stop offset="1" stop-color="#C4D4FF" stop-opacity="0"/>
</linearGradient>
<linearGradient id="paint1_linear_1_8536" x1="49.775" y1="2" x2="297.295" y2="358.72" gradientUnits="userSpaceOnUse">
<stop stop-color="white" stop-opacity="0.12"/>
<stop offset="1" stop-color="white" stop-opacity="0.4"/>
</linearGradient>
</defs>
</svg>
