<svg viewBox="0 0 1008 123" fill="none" xmlns="http://www.w3.org/2000/svg">
<rect x="1" y="13" width="1006" height="109" rx="16" fill="url(#paint0_linear_1_8570)" fill-opacity="0.1" stroke="url(#paint1_linear_1_8570)"/>
<path d="M804.008 60V48.8H809.272C810.029 48.8 810.691 48.928 811.256 49.184C811.821 49.44 812.264 49.8027 812.584 50.272C812.904 50.7307 813.064 51.264 813.064 51.872C813.064 52.3627 812.936 52.816 812.68 53.232C812.435 53.6373 812.099 53.968 811.672 54.224C812.216 54.48 812.648 54.8267 812.968 55.264C813.288 55.7013 813.448 56.1973 813.448 56.752C813.448 57.392 813.283 57.9573 812.952 58.448C812.632 58.9387 812.173 59.3227 811.576 59.6C810.989 59.8667 810.307 60 809.528 60H804.008ZM806.328 53.376H809.128C809.629 53.376 810.024 53.2587 810.312 53.024C810.611 52.7787 810.76 52.4533 810.76 52.048C810.76 51.6427 810.611 51.3227 810.312 51.088C810.024 50.8427 809.629 50.72 809.128 50.72H806.328V53.376ZM806.328 58.08H809.352C809.885 58.08 810.312 57.952 810.632 57.696C810.952 57.4293 811.112 57.0773 811.112 56.64C811.112 56.192 810.952 55.84 810.632 55.584C810.312 55.3173 809.885 55.184 809.352 55.184H806.328V58.08ZM814.719 56.368V54.512H820.735V56.368H814.719ZM822.399 60V48.8H825.375L828.447 54.848L831.519 48.8H834.495V60H832.303V51.76L828.415 59.2L824.543 51.728V60H822.399ZM838.864 60.144C838.266 60.144 837.738 60.0373 837.28 59.824C836.821 59.6 836.464 59.296 836.208 58.912C835.952 58.528 835.824 58.0853 835.824 57.584C835.824 56.784 836.122 56.1653 836.72 55.728C837.328 55.28 838.16 55.056 839.216 55.056C839.941 55.056 840.624 55.168 841.264 55.392V54.784C841.264 54.304 841.114 53.9413 840.816 53.696C840.517 53.4507 840.08 53.328 839.504 53.328C839.152 53.328 838.773 53.3867 838.368 53.504C837.962 53.6107 837.493 53.7813 836.96 54.016L836.16 52.4C836.821 52.1013 837.45 51.8773 838.048 51.728C838.656 51.5787 839.264 51.504 839.872 51.504C840.992 51.504 841.861 51.776 842.48 52.32C843.109 52.8533 843.424 53.6107 843.424 54.592V60H841.264V59.408C840.922 59.664 840.554 59.8507 840.16 59.968C839.765 60.0853 839.333 60.144 838.864 60.144ZM837.904 57.536C837.904 57.856 838.042 58.112 838.32 58.304C838.597 58.4853 838.965 58.576 839.424 58.576C839.786 58.576 840.122 58.5333 840.432 58.448C840.741 58.352 841.018 58.2133 841.264 58.032V56.816C840.997 56.7093 840.72 56.6293 840.432 56.576C840.144 56.5227 839.834 56.496 839.504 56.496C839.002 56.496 838.608 56.592 838.32 56.784C838.042 56.9653 837.904 57.216 837.904 57.536ZM844.187 60L847.387 55.76L844.267 51.664H846.811L848.651 54.144L850.475 51.664H852.939L849.867 55.728L853.131 60H850.571L848.603 57.344L846.635 60H844.187ZM853.296 60L856.496 55.76L853.376 51.664H855.92L857.76 54.144L859.584 51.664H862.048L858.976 55.728L862.24 60H859.68L857.712 57.344L855.744 60H853.296ZM866.318 63.408V48.8H871.102V50.512H868.398V61.696H871.102V63.408H866.318ZM872.711 60V48.8H877.975C878.732 48.8 879.394 48.928 879.959 49.184C880.524 49.44 880.967 49.8027 881.287 50.272C881.607 50.7307 881.767 51.264 881.767 51.872C881.767 52.3627 881.639 52.816 881.383 53.232C881.138 53.6373 880.802 53.968 880.375 54.224C880.919 54.48 881.351 54.8267 881.671 55.264C881.991 55.7013 882.151 56.1973 882.151 56.752C882.151 57.392 881.986 57.9573 881.655 58.448C881.335 58.9387 880.876 59.3227 880.279 59.6C879.692 59.8667 879.01 60 878.231 60H872.711ZM875.031 53.376H877.831C878.332 53.376 878.727 53.2587 879.015 53.024C879.314 52.7787 879.463 52.4533 879.463 52.048C879.463 51.6427 879.314 51.3227 879.015 51.088C878.727 50.8427 878.332 50.72 877.831 50.72H875.031V53.376ZM875.031 58.08H878.055C878.588 58.08 879.015 57.952 879.335 57.696C879.655 57.4293 879.815 57.0773 879.815 56.64C879.815 56.192 879.655 55.84 879.335 55.584C879.015 55.3173 878.588 55.184 878.055 55.184H875.031V58.08ZM883.55 60V58.496L888.222 53.76C888.446 53.5253 888.622 53.3067 888.75 53.104C888.888 52.9013 888.984 52.704 889.038 52.512C889.102 52.3093 889.134 52.1067 889.134 51.904C889.134 51.488 888.958 51.1413 888.606 50.864C888.264 50.5867 887.827 50.448 887.294 50.448C886.782 50.448 886.307 50.5547 885.87 50.768C885.432 50.9707 884.952 51.3227 884.43 51.824L883.246 50.384C883.875 49.7973 884.531 49.36 885.214 49.072C885.896 48.7733 886.611 48.624 887.358 48.624C888.115 48.624 888.782 48.7573 889.358 49.024C889.934 49.2907 890.382 49.6587 890.702 50.128C891.022 50.5973 891.182 51.1467 891.182 51.776C891.182 52.1387 891.128 52.48 891.022 52.8C890.926 53.12 890.766 53.4453 890.542 53.776C890.318 54.096 890.019 54.4427 889.646 54.816L886.254 58.224L891.358 58.208V60H883.55ZM898.466 60.16C897.634 60.16 896.855 60.016 896.13 59.728C895.404 59.4293 894.77 59.0187 894.226 58.496C893.692 57.9733 893.271 57.3653 892.962 56.672C892.663 55.968 892.514 55.2107 892.514 54.4C892.514 53.5787 892.663 52.8213 892.962 52.128C893.271 51.424 893.698 50.8107 894.242 50.288C894.786 49.7653 895.415 49.36 896.13 49.072C896.855 48.7733 897.634 48.624 898.466 48.624C899.084 48.624 899.682 48.7093 900.258 48.88C900.834 49.0507 901.367 49.2907 901.858 49.6C902.359 49.9093 902.786 50.2827 903.138 50.72L901.57 52.272C901.164 51.7707 900.695 51.392 900.161 51.136C899.639 50.88 899.074 50.752 898.466 50.752C897.964 50.752 897.495 50.848 897.058 51.04C896.62 51.2213 896.242 51.4773 895.922 51.808C895.602 52.128 895.351 52.512 895.17 52.96C894.988 53.3973 894.898 53.8773 894.898 54.4C894.898 54.912 894.988 55.392 895.17 55.84C895.351 56.2773 895.607 56.6613 895.938 56.992C896.268 57.312 896.652 57.5627 897.09 57.744C897.538 57.9253 898.023 58.016 898.546 58.016C899.132 58.016 899.682 57.8933 900.194 57.648C900.706 57.4027 901.159 57.0507 901.554 56.592L903.074 58.096C902.722 58.5227 902.3 58.8907 901.81 59.2C901.319 59.5093 900.786 59.7493 900.21 59.92C899.644 60.08 899.063 60.16 898.466 60.16ZM908.814 48.8V63.408H904.03V61.696H906.734V50.512H904.03V48.8H908.814ZM913.93 60V48.8H919.194C919.951 48.8 920.613 48.928 921.178 49.184C921.743 49.44 922.186 49.8027 922.506 50.272C922.826 50.7307 922.986 51.264 922.986 51.872C922.986 52.3627 922.858 52.816 922.602 53.232C922.357 53.6373 922.021 53.968 921.594 54.224C922.138 54.48 922.57 54.8267 922.89 55.264C923.21 55.7013 923.37 56.1973 923.37 56.752C923.37 57.392 923.205 57.9573 922.874 58.448C922.554 58.9387 922.095 59.3227 921.498 59.6C920.911 59.8667 920.229 60 919.45 60H913.93ZM916.25 53.376H919.05C919.551 53.376 919.946 53.2587 920.234 53.024C920.533 52.7787 920.682 52.4533 920.682 52.048C920.682 51.6427 920.533 51.3227 920.234 51.088C919.946 50.8427 919.551 50.72 919.05 50.72H916.25V53.376ZM916.25 58.08H919.274C919.807 58.08 920.234 57.952 920.554 57.696C920.874 57.4293 921.034 57.0773 921.034 56.64C921.034 56.192 920.874 55.84 920.554 55.584C920.234 55.3173 919.807 55.184 919.274 55.184H916.25V58.08ZM924.848 60V51.664H927.04V52.592C927.307 52.2293 927.627 51.952 928 51.76C928.374 51.568 928.795 51.472 929.264 51.472C929.67 51.4827 929.974 51.5467 930.176 51.664V53.584C930.016 53.5093 929.84 53.456 929.648 53.424C929.456 53.3813 929.259 53.36 929.056 53.36C928.63 53.36 928.24 53.4667 927.888 53.68C927.536 53.8933 927.254 54.1973 927.04 54.592V60H924.848ZM933.801 60.144C933.204 60.144 932.676 60.0373 932.217 59.824C931.759 59.6 931.401 59.296 931.145 58.912C930.889 58.528 930.761 58.0853 930.761 57.584C930.761 56.784 931.06 56.1653 931.657 55.728C932.265 55.28 933.097 55.056 934.153 55.056C934.879 55.056 935.561 55.168 936.201 55.392V54.784C936.201 54.304 936.052 53.9413 935.753 53.696C935.455 53.4507 935.017 53.328 934.441 53.328C934.089 53.328 933.711 53.3867 933.305 53.504C932.9 53.6107 932.431 53.7813 931.897 54.016L931.097 52.4C931.759 52.1013 932.388 51.8773 932.985 51.728C933.593 51.5787 934.201 51.504 934.809 51.504C935.929 51.504 936.799 51.776 937.417 52.32C938.047 52.8533 938.361 53.6107 938.361 54.592V60H936.201V59.408C935.86 59.664 935.492 59.8507 935.097 59.968C934.703 60.0853 934.271 60.144 933.801 60.144ZM932.841 57.536C932.841 57.856 932.98 58.112 933.257 58.304C933.535 58.4853 933.903 58.576 934.361 58.576C934.724 58.576 935.06 58.5333 935.369 58.448C935.679 58.352 935.956 58.2133 936.201 58.032V56.816C935.935 56.7093 935.657 56.6293 935.369 56.576C935.081 56.5227 934.772 56.496 934.441 56.496C933.94 56.496 933.545 56.592 933.257 56.784C932.98 56.9653 932.841 57.216 932.841 57.536ZM940.02 60V51.664H942.212V52.352C942.842 51.7867 943.62 51.504 944.548 51.504C945.199 51.504 945.77 51.648 946.26 51.936C946.762 52.2133 947.151 52.6027 947.428 53.104C947.706 53.5947 947.844 54.1707 947.844 54.832V60H945.652V55.152C945.652 54.608 945.498 54.1813 945.188 53.872C944.879 53.552 944.458 53.392 943.924 53.392C943.551 53.392 943.22 53.4667 942.932 53.616C942.644 53.7547 942.404 53.9573 942.212 54.224V60H940.02ZM953.361 60.112C952.571 60.112 951.857 59.92 951.217 59.536C950.577 59.152 950.065 58.64 949.681 58C949.307 57.3493 949.121 56.624 949.121 55.824C949.121 55.024 949.307 54.304 949.681 53.664C950.065 53.0133 950.582 52.5013 951.233 52.128C951.883 51.744 952.614 51.552 953.425 51.552C953.841 51.552 954.241 51.6107 954.625 51.728C955.009 51.8347 955.366 51.9947 955.697 52.208V48.8L957.889 48.432V60H955.729V59.312C955.046 59.8453 954.257 60.112 953.361 60.112ZM953.713 58.24C954.118 58.24 954.486 58.176 954.817 58.048C955.158 57.9093 955.451 57.7067 955.697 57.44V54.192C955.451 53.9467 955.158 53.7547 954.817 53.616C954.475 53.4773 954.107 53.408 953.713 53.408C953.254 53.408 952.838 53.5147 952.465 53.728C952.102 53.9307 951.814 54.2187 951.601 54.592C951.387 54.9547 951.281 55.3653 951.281 55.824C951.281 56.2827 951.387 56.6933 951.601 57.056C951.814 57.4187 952.102 57.7067 952.465 57.92C952.838 58.1333 953.254 58.24 953.713 58.24ZM963.678 60.16C962.846 60.16 962.089 59.968 961.406 59.584C960.734 59.2 960.201 58.6827 959.806 58.032C959.412 57.3813 959.214 56.6507 959.214 55.84C959.214 55.0293 959.401 54.2987 959.774 53.648C960.158 52.9973 960.676 52.48 961.326 52.096C961.977 51.712 962.702 51.52 963.502 51.52C964.302 51.52 965.012 51.7173 965.63 52.112C966.249 52.5067 966.734 53.04 967.086 53.712C967.449 54.384 967.63 55.1467 967.63 56V56.576H961.454C961.55 56.9067 961.705 57.2053 961.918 57.472C962.142 57.7387 962.414 57.9467 962.734 58.096C963.065 58.2453 963.417 58.32 963.79 58.32C964.164 58.32 964.505 58.2613 964.814 58.144C965.134 58.0267 965.406 57.8613 965.63 57.648L967.07 58.96C966.558 59.376 966.03 59.68 965.486 59.872C964.953 60.064 964.35 60.16 963.678 60.16ZM961.422 55.008H965.47C965.396 54.6773 965.257 54.3893 965.054 54.144C964.862 53.888 964.628 53.6907 964.35 53.552C964.084 53.4027 963.785 53.328 963.454 53.328C963.113 53.328 962.804 53.3973 962.526 53.536C962.249 53.6747 962.014 53.872 961.822 54.128C961.641 54.3733 961.508 54.6667 961.422 55.008ZM972.892 60.112C972.103 60.112 971.388 59.92 970.748 59.536C970.108 59.152 969.596 58.64 969.212 58C968.839 57.3493 968.652 56.624 968.652 55.824C968.652 55.024 968.839 54.304 969.212 53.664C969.596 53.0133 970.113 52.5013 970.764 52.128C971.415 51.744 972.145 51.552 972.956 51.552C973.372 51.552 973.772 51.6107 974.156 51.728C974.54 51.8347 974.897 51.9947 975.228 52.208V48.8L977.42 48.432V60H975.26V59.312C974.577 59.8453 973.788 60.112 972.892 60.112ZM973.244 58.24C973.649 58.24 974.017 58.176 974.348 58.048C974.689 57.9093 974.983 57.7067 975.228 57.44V54.192C974.983 53.9467 974.689 53.7547 974.348 53.616C974.007 53.4773 973.639 53.408 973.244 53.408C972.785 53.408 972.369 53.5147 971.996 53.728C971.633 53.9307 971.345 54.2187 971.132 54.592C970.919 54.9547 970.812 55.3653 970.812 55.824C970.812 56.2827 970.919 56.6933 971.132 57.056C971.345 57.4187 971.633 57.7067 971.996 57.92C972.369 58.1333 972.785 58.24 973.244 58.24Z" fill="white"/>
<path d="M30.008 60V48.8H35.272C36.0293 48.8 36.6907 48.928 37.256 49.184C37.8213 49.44 38.264 49.8027 38.584 50.272C38.904 50.7307 39.064 51.264 39.064 51.872C39.064 52.3627 38.936 52.816 38.68 53.232C38.4347 53.6373 38.0987 53.968 37.672 54.224C38.216 54.48 38.648 54.8267 38.968 55.264C39.288 55.7013 39.448 56.1973 39.448 56.752C39.448 57.392 39.2827 57.9573 38.952 58.448C38.632 58.9387 38.1733 59.3227 37.576 59.6C36.9893 59.8667 36.3067 60 35.528 60H30.008ZM32.328 53.376H35.128C35.6293 53.376 36.024 53.2587 36.312 53.024C36.6107 52.7787 36.76 52.4533 36.76 52.048C36.76 51.6427 36.6107 51.3227 36.312 51.088C36.024 50.8427 35.6293 50.72 35.128 50.72H32.328V53.376ZM32.328 58.08H35.352C35.8853 58.08 36.312 57.952 36.632 57.696C36.952 57.4293 37.112 57.0773 37.112 56.64C37.112 56.192 36.952 55.84 36.632 55.584C36.312 55.3173 35.8853 55.184 35.352 55.184H32.328V58.08ZM40.8465 60V58.496L45.5185 53.76C45.7425 53.5253 45.9185 53.3067 46.0465 53.104C46.1852 52.9013 46.2812 52.704 46.3345 52.512C46.3985 52.3093 46.4305 52.1067 46.4305 51.904C46.4305 51.488 46.2545 51.1413 45.9025 50.864C45.5612 50.5867 45.1238 50.448 44.5905 50.448C44.0785 50.448 43.6038 50.5547 43.1665 50.768C42.7292 50.9707 42.2492 51.3227 41.7265 51.824L40.5425 50.384C41.1718 49.7973 41.8278 49.36 42.5105 49.072C43.1932 48.7733 43.9078 48.624 44.6545 48.624C45.4118 48.624 46.0785 48.7573 46.6545 49.024C47.2305 49.2907 47.6785 49.6587 47.9985 50.128C48.3185 50.5973 48.4785 51.1467 48.4785 51.776C48.4785 52.1387 48.4252 52.48 48.3185 52.8C48.2225 53.12 48.0625 53.4453 47.8385 53.776C47.6145 54.096 47.3158 54.4427 46.9425 54.816L43.5505 58.224L48.6545 58.208V60H40.8465ZM50.2424 60V48.8H55.5064C56.2637 48.8 56.925 48.928 57.4904 49.184C58.0557 49.44 58.4984 49.8027 58.8184 50.272C59.1384 50.7307 59.2984 51.264 59.2984 51.872C59.2984 52.3627 59.1704 52.816 58.9144 53.232C58.669 53.6373 58.333 53.968 57.9064 54.224C58.4504 54.48 58.8824 54.8267 59.2024 55.264C59.5224 55.7013 59.6824 56.1973 59.6824 56.752C59.6824 57.392 59.517 57.9573 59.1864 58.448C58.8664 58.9387 58.4077 59.3227 57.8104 59.6C57.2237 59.8667 56.541 60 55.7624 60H50.2424ZM52.5624 53.376H55.3624C55.8637 53.376 56.2584 53.2587 56.5464 53.024C56.845 52.7787 56.9944 52.4533 56.9944 52.048C56.9944 51.6427 56.845 51.3227 56.5464 51.088C56.2584 50.8427 55.8637 50.72 55.3624 50.72H52.5624V53.376ZM52.5624 58.08H55.5864C56.1197 58.08 56.5464 57.952 56.8664 57.696C57.1864 57.4293 57.3464 57.0773 57.3464 56.64C57.3464 56.192 57.1864 55.84 56.8664 55.584C56.5464 55.3173 56.1197 55.184 55.5864 55.184H52.5624V58.08ZM64.5236 60V48.8H66.8436V57.952H72.9716V60H64.5236ZM74.4265 60V51.664H76.6185V60H74.4265ZM75.5145 50.672C75.1732 50.672 74.8798 50.5493 74.6345 50.304C74.3892 50.0587 74.2665 49.7653 74.2665 49.424C74.2665 49.072 74.3892 48.7787 74.6345 48.544C74.8798 48.2987 75.1732 48.176 75.5145 48.176C75.8665 48.176 76.1598 48.2987 76.3945 48.544C76.6398 48.7787 76.7625 49.072 76.7625 49.424C76.7625 49.7653 76.6398 50.0587 76.3945 50.304C76.1598 50.5493 75.8665 50.672 75.5145 50.672ZM84.5248 63.264V59.344C83.8528 59.856 83.0741 60.112 82.1888 60.112C81.3994 60.112 80.6848 59.92 80.0448 59.536C79.4048 59.152 78.8928 58.64 78.5088 58C78.1354 57.3493 77.9488 56.624 77.9488 55.824C77.9488 55.024 78.1354 54.304 78.5088 53.664C78.8928 53.0133 79.4101 52.5013 80.0608 52.128C80.7114 51.744 81.4421 51.552 82.2528 51.552C82.6794 51.552 83.0848 51.6107 83.4688 51.728C83.8634 51.8453 84.2261 52.0107 84.5568 52.224V51.664H86.7168V63.264H84.5248ZM82.5408 58.24C82.9461 58.24 83.3141 58.176 83.6448 58.048C83.9861 57.9093 84.2794 57.7067 84.5248 57.44V54.192C84.2794 53.9467 83.9861 53.7547 83.6448 53.616C83.3034 53.4773 82.9354 53.408 82.5408 53.408C82.0821 53.408 81.6661 53.5147 81.2928 53.728C80.9301 53.9307 80.6421 54.2187 80.4288 54.592C80.2154 54.9547 80.1088 55.3653 80.1088 55.824C80.1088 56.2827 80.2154 56.6933 80.4288 57.056C80.6421 57.4187 80.9301 57.7067 81.2928 57.92C81.6661 58.1333 82.0821 58.24 82.5408 58.24ZM91.6585 60.16C91.0185 60.16 90.4478 60.0213 89.9465 59.744C89.4558 59.456 89.0665 59.0613 88.7785 58.56C88.5012 58.0587 88.3625 57.4827 88.3625 56.832V51.664H90.5545V56.512C90.5545 57.0453 90.7092 57.472 91.0185 57.792C91.3385 58.112 91.7652 58.272 92.2985 58.272C92.6612 58.272 92.9865 58.2027 93.2745 58.064C93.5732 57.9147 93.8185 57.7067 94.0105 57.44V51.664H96.2025V60H94.0105V59.328C93.3705 59.8827 92.5865 60.16 91.6585 60.16ZM97.9109 60V51.664H100.103V60H97.9109ZM98.9989 50.672C98.6575 50.672 98.3642 50.5493 98.1189 50.304C97.8735 50.0587 97.7509 49.7653 97.7509 49.424C97.7509 49.072 97.8735 48.7787 98.1189 48.544C98.3642 48.2987 98.6575 48.176 98.9989 48.176C99.3509 48.176 99.6442 48.2987 99.8789 48.544C100.124 48.7787 100.247 49.072 100.247 49.424C100.247 49.7653 100.124 50.0587 99.8789 50.304C99.6442 50.5493 99.3509 50.672 98.9989 50.672ZM105.673 60.112C104.884 60.112 104.169 59.92 103.529 59.536C102.889 59.152 102.377 58.64 101.993 58C101.62 57.3493 101.433 56.624 101.433 55.824C101.433 55.024 101.62 54.304 101.993 53.664C102.377 53.0133 102.894 52.5013 103.545 52.128C104.196 51.744 104.926 51.552 105.737 51.552C106.153 51.552 106.553 51.6107 106.937 51.728C107.321 51.8347 107.678 51.9947 108.009 52.208V48.8L110.201 48.432V60H108.041V59.312C107.358 59.8453 106.569 60.112 105.673 60.112ZM106.025 58.24C106.43 58.24 106.798 58.176 107.129 58.048C107.47 57.9093 107.764 57.7067 108.009 57.44V54.192C107.764 53.9467 107.47 53.7547 107.129 53.616C106.788 53.4773 106.42 53.408 106.025 53.408C105.566 53.408 105.15 53.5147 104.777 53.728C104.414 53.9307 104.126 54.2187 103.913 54.592C103.7 54.9547 103.593 55.3653 103.593 55.824C103.593 56.2827 103.7 56.6933 103.913 57.056C104.126 57.4187 104.414 57.7067 104.777 57.92C105.15 58.1333 105.566 58.24 106.025 58.24ZM114.567 60.144C113.97 60.144 113.442 60.0373 112.983 59.824C112.524 59.6 112.167 59.296 111.911 58.912C111.655 58.528 111.527 58.0853 111.527 57.584C111.527 56.784 111.826 56.1653 112.423 55.728C113.031 55.28 113.863 55.056 114.919 55.056C115.644 55.056 116.327 55.168 116.967 55.392V54.784C116.967 54.304 116.818 53.9413 116.519 53.696C116.22 53.4507 115.783 53.328 115.207 53.328C114.855 53.328 114.476 53.3867 114.071 53.504C113.666 53.6107 113.196 53.7813 112.663 54.016L111.863 52.4C112.524 52.1013 113.154 51.8773 113.751 51.728C114.359 51.5787 114.967 51.504 115.575 51.504C116.695 51.504 117.564 51.776 118.183 52.32C118.812 52.8533 119.127 53.6107 119.127 54.592V60H116.967V59.408C116.626 59.664 116.258 59.8507 115.863 59.968C115.468 60.0853 115.036 60.144 114.567 60.144ZM113.607 57.536C113.607 57.856 113.746 58.112 114.023 58.304C114.3 58.4853 114.668 58.576 115.127 58.576C115.49 58.576 115.826 58.5333 116.135 58.448C116.444 58.352 116.722 58.2133 116.967 58.032V56.816C116.7 56.7093 116.423 56.6293 116.135 56.576C115.847 56.5227 115.538 56.496 115.207 56.496C114.706 56.496 114.311 56.592 114.023 56.784C113.746 56.9653 113.607 57.216 113.607 57.536ZM124.504 60.128C123.576 60.128 122.872 59.92 122.392 59.504C121.922 59.0773 121.688 58.4587 121.688 57.648V53.488H119.976V51.664H121.688V49.536L123.88 49.04V51.664H126.264V53.488H123.88V57.2C123.88 57.584 123.965 57.8613 124.136 58.032C124.306 58.192 124.605 58.272 125.032 58.272C125.245 58.272 125.437 58.2613 125.608 58.24C125.789 58.208 125.986 58.1547 126.2 58.08V59.888C125.976 59.9627 125.693 60.0213 125.352 60.064C125.021 60.1067 124.738 60.128 124.504 60.128ZM127.333 60V51.664H129.525V60H127.333ZM128.421 50.672C128.079 50.672 127.786 50.5493 127.541 50.304C127.295 50.0587 127.173 49.7653 127.173 49.424C127.173 49.072 127.295 48.7787 127.541 48.544C127.786 48.2987 128.079 48.176 128.421 48.176C128.773 48.176 129.066 48.2987 129.301 48.544C129.546 48.7787 129.669 49.072 129.669 49.424C129.669 49.7653 129.546 50.0587 129.301 50.304C129.066 50.5493 128.773 50.672 128.421 50.672ZM135.303 60.16C134.471 60.16 133.719 59.968 133.047 59.584C132.375 59.2 131.842 58.6827 131.447 58.032C131.052 57.3813 130.855 56.6507 130.855 55.84C130.855 55.0293 131.047 54.2987 131.431 53.648C131.826 52.9867 132.359 52.464 133.031 52.08C133.714 51.696 134.471 51.504 135.303 51.504C136.135 51.504 136.887 51.696 137.559 52.08C138.242 52.464 138.775 52.9867 139.159 53.648C139.554 54.2987 139.751 55.0293 139.751 55.84C139.751 56.6507 139.554 57.3813 139.159 58.032C138.775 58.6827 138.247 59.2 137.575 59.584C136.903 59.968 136.146 60.16 135.303 60.16ZM135.303 58.256C135.74 58.256 136.13 58.1493 136.471 57.936C136.823 57.7227 137.1 57.4347 137.303 57.072C137.516 56.6987 137.623 56.288 137.623 55.84C137.623 55.3813 137.516 54.9707 137.303 54.608C137.1 54.2453 136.823 53.9573 136.471 53.744C136.13 53.52 135.74 53.408 135.303 53.408C134.876 53.408 134.487 53.52 134.135 53.744C133.783 53.9573 133.506 54.2453 133.303 54.608C133.1 54.9707 132.999 55.3813 132.999 55.84C132.999 56.288 133.1 56.6987 133.303 57.072C133.506 57.4347 133.783 57.7227 134.135 57.936C134.487 58.1493 134.876 58.256 135.303 58.256ZM141.098 60V51.664H143.29V52.352C143.92 51.7867 144.698 51.504 145.626 51.504C146.277 51.504 146.848 51.648 147.338 51.936C147.84 52.2133 148.229 52.6027 148.506 53.104C148.784 53.5947 148.922 54.1707 148.922 54.832V60H146.73V55.152C146.73 54.608 146.576 54.1813 146.266 53.872C145.957 53.552 145.536 53.392 145.002 53.392C144.629 53.392 144.298 53.4667 144.01 53.616C143.722 53.7547 143.482 53.9573 143.29 54.224V60H141.098ZM153.834 63.408V48.8H158.618V50.512H155.914V61.696H158.618V63.408H153.834ZM160.227 60V48.8H165.491C166.248 48.8 166.909 48.928 167.475 49.184C168.04 49.44 168.483 49.8027 168.803 50.272C169.123 50.7307 169.283 51.264 169.283 51.872C169.283 52.3627 169.155 52.816 168.899 53.232C168.653 53.6373 168.317 53.968 167.891 54.224C168.435 54.48 168.867 54.8267 169.187 55.264C169.507 55.7013 169.667 56.1973 169.667 56.752C169.667 57.392 169.501 57.9573 169.171 58.448C168.851 58.9387 168.392 59.3227 167.795 59.6C167.208 59.8667 166.525 60 165.747 60H160.227ZM162.547 53.376H165.347C165.848 53.376 166.243 53.2587 166.531 53.024C166.829 52.7787 166.979 52.4533 166.979 52.048C166.979 51.6427 166.829 51.3227 166.531 51.088C166.243 50.8427 165.848 50.72 165.347 50.72H162.547V53.376ZM162.547 58.08H165.571C166.104 58.08 166.531 57.952 166.851 57.696C167.171 57.4293 167.331 57.0773 167.331 56.64C167.331 56.192 167.171 55.84 166.851 55.584C166.531 55.3173 166.104 55.184 165.571 55.184H162.547V58.08ZM177.033 60V57.376H170.713V55.616L176.697 48.8H179.225V55.536H180.601V57.376H179.225V60H177.033ZM173.241 55.536H177.033V51.232L173.241 55.536ZM188.33 60V50.848H184.554V48.8H194.41V50.848H190.65V60H188.33ZM194.88 60V51.664H197.072V52.592C197.338 52.2293 197.658 51.952 198.032 51.76C198.405 51.568 198.826 51.472 199.296 51.472C199.701 51.4827 200.005 51.5467 200.208 51.664V53.584C200.048 53.5093 199.872 53.456 199.68 53.424C199.488 53.3813 199.29 53.36 199.088 53.36C198.661 53.36 198.272 53.4667 197.92 53.68C197.568 53.8933 197.285 54.1973 197.072 54.592V60H194.88ZM203.833 60.144C203.235 60.144 202.707 60.0373 202.249 59.824C201.79 59.6 201.433 59.296 201.177 58.912C200.921 58.528 200.793 58.0853 200.793 57.584C200.793 56.784 201.091 56.1653 201.689 55.728C202.297 55.28 203.129 55.056 204.185 55.056C204.91 55.056 205.593 55.168 206.233 55.392V54.784C206.233 54.304 206.083 53.9413 205.785 53.696C205.486 53.4507 205.049 53.328 204.473 53.328C204.121 53.328 203.742 53.3867 203.337 53.504C202.931 53.6107 202.462 53.7813 201.929 54.016L201.129 52.4C201.79 52.1013 202.419 51.8773 203.017 51.728C203.625 51.5787 204.233 51.504 204.841 51.504C205.961 51.504 206.83 51.776 207.449 52.32C208.078 52.8533 208.392 53.6107 208.392 54.592V60H206.233V59.408C205.891 59.664 205.523 59.8507 205.129 59.968C204.734 60.0853 204.302 60.144 203.833 60.144ZM202.873 57.536C202.873 57.856 203.011 58.112 203.289 58.304C203.566 58.4853 203.934 58.576 204.393 58.576C204.755 58.576 205.091 58.5333 205.401 58.448C205.71 58.352 205.987 58.2133 206.233 58.032V56.816C205.966 56.7093 205.689 56.6293 205.401 56.576C205.113 56.5227 204.803 56.496 204.473 56.496C203.971 56.496 203.577 56.592 203.289 56.784C203.011 56.9653 202.873 57.216 202.873 57.536ZM213.908 60.112C213.118 60.112 212.404 59.92 211.764 59.536C211.124 59.152 210.612 58.64 210.228 58C209.854 57.3493 209.668 56.624 209.668 55.824C209.668 55.024 209.854 54.304 210.228 53.664C210.612 53.0133 211.129 52.5013 211.78 52.128C212.43 51.744 213.161 51.552 213.972 51.552C214.388 51.552 214.788 51.6107 215.172 51.728C215.556 51.8347 215.913 51.9947 216.244 52.208V48.8L218.436 48.432V60H216.276V59.312C215.593 59.8453 214.804 60.112 213.908 60.112ZM214.26 58.24C214.665 58.24 215.033 58.176 215.364 58.048C215.705 57.9093 215.998 57.7067 216.244 57.44V54.192C215.998 53.9467 215.705 53.7547 215.364 53.616C215.022 53.4773 214.654 53.408 214.26 53.408C213.801 53.408 213.385 53.5147 213.012 53.728C212.649 53.9307 212.361 54.2187 212.148 54.592C211.934 54.9547 211.828 55.3653 211.828 55.824C211.828 56.2827 211.934 56.6933 212.148 57.056C212.361 57.4187 212.649 57.7067 213.012 57.92C213.385 58.1333 213.801 58.24 214.26 58.24ZM224.225 60.16C223.393 60.16 222.636 59.968 221.953 59.584C221.281 59.2 220.748 58.6827 220.353 58.032C219.959 57.3813 219.761 56.6507 219.761 55.84C219.761 55.0293 219.948 54.2987 220.321 53.648C220.705 52.9973 221.223 52.48 221.873 52.096C222.524 51.712 223.249 51.52 224.049 51.52C224.849 51.52 225.559 51.7173 226.177 52.112C226.796 52.5067 227.281 53.04 227.633 53.712C227.996 54.384 228.177 55.1467 228.177 56V56.576H222.001C222.097 56.9067 222.252 57.2053 222.465 57.472C222.689 57.7387 222.961 57.9467 223.281 58.096C223.612 58.2453 223.964 58.32 224.337 58.32C224.711 58.32 225.052 58.2613 225.361 58.144C225.681 58.0267 225.953 57.8613 226.177 57.648L227.617 58.96C227.105 59.376 226.577 59.68 226.033 59.872C225.5 60.064 224.897 60.16 224.225 60.16ZM221.969 55.008H226.017C225.943 54.6773 225.804 54.3893 225.601 54.144C225.409 53.888 225.175 53.6907 224.897 53.552C224.631 53.4027 224.332 53.328 224.001 53.328C223.66 53.328 223.351 53.3973 223.073 53.536C222.796 53.6747 222.561 53.872 222.369 54.128C222.188 54.3733 222.055 54.6667 221.969 55.008ZM229.52 60V51.664H231.712V52.592C231.979 52.2293 232.299 51.952 232.672 51.76C233.046 51.568 233.467 51.472 233.936 51.472C234.342 51.4827 234.646 51.5467 234.848 51.664V53.584C234.688 53.5093 234.512 53.456 234.32 53.424C234.128 53.3813 233.931 53.36 233.728 53.36C233.302 53.36 232.912 53.4667 232.56 53.68C232.208 53.8933 231.926 54.1973 231.712 54.592V60H229.52ZM239.265 60.16C238.497 60.16 237.788 60.064 237.137 59.872C236.487 59.6693 235.921 59.3813 235.441 59.008L236.529 57.552C237.009 57.872 237.468 58.112 237.905 58.272C238.353 58.432 238.796 58.512 239.233 58.512C239.724 58.512 240.113 58.432 240.401 58.272C240.7 58.1013 240.849 57.8827 240.849 57.616C240.849 57.4027 240.764 57.232 240.593 57.104C240.433 56.976 240.172 56.8853 239.809 56.832L238.209 56.592C237.377 56.464 236.748 56.1973 236.321 55.792C235.895 55.376 235.681 54.832 235.681 54.16C235.681 53.616 235.82 53.152 236.097 52.768C236.385 52.3733 236.785 52.0693 237.297 51.856C237.82 51.632 238.439 51.52 239.153 51.52C239.761 51.52 240.353 51.6053 240.929 51.776C241.516 51.9467 242.065 52.208 242.577 52.56L241.521 53.984C241.063 53.696 240.625 53.488 240.209 53.36C239.793 53.232 239.372 53.168 238.945 53.168C238.551 53.168 238.231 53.2427 237.985 53.392C237.751 53.5413 237.633 53.7387 237.633 53.984C237.633 54.208 237.719 54.384 237.889 54.512C238.06 54.64 238.353 54.7307 238.769 54.784L240.353 55.024C241.185 55.1413 241.82 55.408 242.257 55.824C242.695 56.2293 242.913 56.7573 242.913 57.408C242.913 57.9413 242.753 58.416 242.433 58.832C242.113 59.2373 241.681 59.5627 241.137 59.808C240.593 60.0427 239.969 60.16 239.265 60.16ZM248.533 48.8V63.408H243.749V61.696H246.453V50.512H243.749V48.8H248.533Z" fill="white"/>
<path d="M35.512 96.176C34.68 96.176 33.9067 96.032 33.192 95.744C32.4773 95.4453 31.848 95.0347 31.304 94.512C30.76 93.9787 30.3333 93.3653 30.024 92.672C29.7253 91.968 29.576 91.2107 29.576 90.4C29.576 89.5893 29.7253 88.8373 30.024 88.144C30.3333 87.44 30.7547 86.8267 31.288 86.304C31.8213 85.7707 32.4453 85.36 33.16 85.072C33.8853 84.7733 34.6587 84.624 35.48 84.624C36.408 84.624 37.2827 84.8107 38.104 85.184C38.9253 85.5467 39.6027 86.0587 40.136 86.72L38.52 88.208C38.136 87.728 37.6827 87.3653 37.16 87.12C36.6373 86.8747 36.0773 86.752 35.48 86.752C34.9787 86.752 34.5147 86.848 34.088 87.04C33.6613 87.2213 33.288 87.4773 32.968 87.808C32.648 88.128 32.3973 88.512 32.216 88.96C32.0453 89.3973 31.96 89.8773 31.96 90.4C31.96 90.9227 32.0507 91.408 32.232 91.856C32.4133 92.304 32.664 92.6933 32.984 93.024C33.3147 93.344 33.6933 93.6 34.12 93.792C34.5573 93.9733 35.032 94.064 35.544 94.064C36.0773 94.064 36.5573 93.968 36.984 93.776C37.4107 93.5733 37.768 93.296 38.056 92.944C38.3547 92.5813 38.552 92.176 38.648 91.728H35.336V89.712H41.128V90.416C41.128 91.248 40.984 92.016 40.696 92.72C40.4187 93.4133 40.0293 94.0213 39.528 94.544C39.0267 95.056 38.4347 95.456 37.752 95.744C37.0693 96.032 36.3227 96.176 35.512 96.176ZM42.5671 96V87.664H44.7591V88.592C45.0258 88.2293 45.3458 87.952 45.7191 87.76C46.0925 87.568 46.5138 87.472 46.9831 87.472C47.3885 87.4827 47.6925 87.5467 47.8951 87.664V89.584C47.7351 89.5093 47.5591 89.456 47.3671 89.424C47.1751 89.3813 46.9778 89.36 46.7751 89.36C46.3485 89.36 45.9591 89.4667 45.6071 89.68C45.2551 89.8933 44.9725 90.1973 44.7591 90.592V96H42.5671ZM51.52 96.144C50.9227 96.144 50.3947 96.0373 49.936 95.824C49.4773 95.6 49.12 95.296 48.864 94.912C48.608 94.528 48.48 94.0853 48.48 93.584C48.48 92.784 48.7787 92.1653 49.376 91.728C49.984 91.28 50.816 91.056 51.872 91.056C52.5973 91.056 53.28 91.168 53.92 91.392V90.784C53.92 90.304 53.7707 89.9413 53.472 89.696C53.1733 89.4507 52.736 89.328 52.16 89.328C51.808 89.328 51.4293 89.3867 51.024 89.504C50.6187 89.6107 50.1493 89.7813 49.616 90.016L48.816 88.4C49.4773 88.1013 50.1067 87.8773 50.704 87.728C51.312 87.5787 51.92 87.504 52.528 87.504C53.648 87.504 54.5173 87.776 55.136 88.32C55.7653 88.8533 56.08 89.6107 56.08 90.592V96H53.92V95.408C53.5787 95.664 53.2107 95.8507 52.816 95.968C52.4213 96.0853 51.9893 96.144 51.52 96.144ZM50.56 93.536C50.56 93.856 50.6987 94.112 50.976 94.304C51.2533 94.4853 51.6213 94.576 52.08 94.576C52.4427 94.576 52.7787 94.5333 53.088 94.448C53.3973 94.352 53.6747 94.2133 53.92 94.032V92.816C53.6533 92.7093 53.376 92.6293 53.088 92.576C52.8 92.5227 52.4907 92.496 52.16 92.496C51.6587 92.496 51.264 92.592 50.976 92.784C50.6987 92.9653 50.56 93.216 50.56 93.536ZM61.595 96.112C60.8057 96.112 60.091 95.92 59.451 95.536C58.811 95.152 58.299 94.64 57.915 94C57.5417 93.3493 57.355 92.624 57.355 91.824C57.355 91.024 57.5417 90.304 57.915 89.664C58.299 89.0133 58.8163 88.5013 59.467 88.128C60.1177 87.744 60.8483 87.552 61.659 87.552C62.075 87.552 62.475 87.6107 62.859 87.728C63.243 87.8347 63.6003 87.9947 63.931 88.208V84.8L66.123 84.432V96H63.963V95.312C63.2803 95.8453 62.491 96.112 61.595 96.112ZM61.947 94.24C62.3523 94.24 62.7203 94.176 63.051 94.048C63.3923 93.9093 63.6857 93.7067 63.931 93.44V90.192C63.6857 89.9467 63.3923 89.7547 63.051 89.616C62.7097 89.4773 62.3417 89.408 61.947 89.408C61.4883 89.408 61.0723 89.5147 60.699 89.728C60.3363 89.9307 60.0483 90.2187 59.835 90.592C59.6217 90.9547 59.515 91.3653 59.515 91.824C59.515 92.2827 59.6217 92.6933 59.835 93.056C60.0483 93.4187 60.3363 93.7067 60.699 93.92C61.0723 94.1333 61.4883 94.24 61.947 94.24ZM67.8328 96V87.664H70.0248V96H67.8328ZM68.9208 86.672C68.5794 86.672 68.2861 86.5493 68.0408 86.304C67.7954 86.0587 67.6728 85.7653 67.6728 85.424C67.6728 85.072 67.7954 84.7787 68.0408 84.544C68.2861 84.2987 68.5794 84.176 68.9208 84.176C69.2728 84.176 69.5661 84.2987 69.8008 84.544C70.0461 84.7787 70.1688 85.072 70.1688 85.424C70.1688 85.7653 70.0461 86.0587 69.8008 86.304C69.5661 86.5493 69.2728 86.672 68.9208 86.672ZM71.739 96V87.664H73.931V88.352C74.5603 87.7867 75.339 87.504 76.267 87.504C76.9177 87.504 77.4883 87.648 77.979 87.936C78.4803 88.2133 78.8697 88.6027 79.147 89.104C79.4243 89.5947 79.563 90.1707 79.563 90.832V96H77.371V91.152C77.371 90.608 77.2163 90.1813 76.907 89.872C76.5977 89.552 76.1763 89.392 75.643 89.392C75.2697 89.392 74.939 89.4667 74.651 89.616C74.363 89.7547 74.123 89.9573 73.931 90.224V96H71.739ZM85.4154 99.424C84.7754 99.424 84.1567 99.3547 83.5594 99.216C82.962 99.088 82.4234 98.9013 81.9434 98.656L82.7114 96.96C83.17 97.184 83.618 97.3493 84.0554 97.456C84.4927 97.5627 84.93 97.616 85.3674 97.616C86.018 97.616 86.5087 97.4773 86.8394 97.2C87.1807 96.9227 87.3514 96.5067 87.3514 95.952V95.296C86.6687 95.7973 85.906 96.048 85.0634 96.048C84.274 96.048 83.5594 95.8613 82.9194 95.488C82.29 95.104 81.7834 94.5867 81.3994 93.936C81.026 93.2853 80.8394 92.5653 80.8394 91.776C80.8394 90.9867 81.026 90.272 81.3994 89.632C81.7834 88.992 82.3007 88.4853 82.9514 88.112C83.602 87.728 84.3274 87.536 85.1274 87.536C85.5327 87.536 85.9274 87.5947 86.3114 87.712C86.6954 87.8293 87.0527 87.9947 87.3834 88.208V87.664H89.5434V95.984C89.5434 97.0827 89.186 97.9307 88.4714 98.528C87.7674 99.1253 86.7487 99.424 85.4154 99.424ZM85.3994 94.192C85.8047 94.192 86.1727 94.128 86.5034 94C86.834 93.8613 87.1167 93.6693 87.3514 93.424V90.16C87.1167 89.9253 86.8287 89.744 86.4874 89.616C86.1567 89.4773 85.7994 89.408 85.4154 89.408C84.9567 89.408 84.546 89.5147 84.1834 89.728C83.8207 89.9307 83.5327 90.2133 83.3194 90.576C83.106 90.928 82.9994 91.328 82.9994 91.776C82.9994 92.2347 83.1007 92.6453 83.3034 93.008C83.5167 93.3707 83.8047 93.6587 84.1674 93.872C84.5407 94.0853 84.9514 94.192 85.3994 94.192Z" fill="#B5AEFF"/>
<g clip-path="url(#clip0_1_8570)">
<path fill-rule="evenodd" clip-rule="evenodd" d="M101 87.3333C100.632 87.3333 100.333 87.6318 100.333 88V92C100.333 92.3681 100.632 92.6666 101 92.6666H105C105.368 92.6666 105.667 92.3681 105.667 92V88C105.667 87.6318 105.368 87.3333 105 87.3333H101ZM101.667 91.3333V88.6666H104.333V91.3333H101.667Z" fill="#B5AEFF"/>
<path fill-rule="evenodd" clip-rule="evenodd" d="M101.667 83.3333C101.667 82.9651 101.368 82.6666 101 82.6666C100.632 82.6666 100.333 82.9651 100.333 83.3333V84.6666H99.6666C98.5621 84.6666 97.6666 85.5621 97.6666 86.6666V87.3333H96.3333C95.9651 87.3333 95.6666 87.6318 95.6666 88C95.6666 88.3681 95.9651 88.6666 96.3333 88.6666H97.6666V91.3333H96.3333C95.9651 91.3333 95.6666 91.6318 95.6666 92C95.6666 92.3681 95.9651 92.6666 96.3333 92.6666H97.6666V93.3333C97.6666 94.4379 98.5621 95.3333 99.6666 95.3333H100.333V96.6666C100.333 97.0348 100.632 97.3333 101 97.3333C101.368 97.3333 101.667 97.0348 101.667 96.6666V95.3333H104.333V96.6666C104.333 97.0348 104.632 97.3333 105 97.3333C105.368 97.3333 105.667 97.0348 105.667 96.6666V95.3333H106.333C107.438 95.3333 108.333 94.4379 108.333 93.3333V92.6666H109.667C110.035 92.6666 110.333 92.3681 110.333 92C110.333 91.6318 110.035 91.3333 109.667 91.3333H108.333V88.6666H109.667C110.035 88.6666 110.333 88.3681 110.333 88C110.333 87.6318 110.035 87.3333 109.667 87.3333H108.333V86.6666C108.333 85.5621 107.438 84.6666 106.333 84.6666H105.667V83.3333C105.667 82.9651 105.368 82.6666 105 82.6666C104.632 82.6666 104.333 82.9651 104.333 83.3333V84.6666H101.667V83.3333ZM99 86.6666C99 86.2984 99.2984 86 99.6666 86H106.333C106.701 86 107 86.2984 107 86.6666V93.3333C107 93.7015 106.701 94 106.333 94H99.6666C99.2984 94 99 93.7015 99 93.3333V86.6666Z" fill="#B5AEFF"/>
</g>
<path d="M303.008 60V48.8H308.272C309.029 48.8 309.691 48.928 310.256 49.184C310.821 49.44 311.264 49.8027 311.584 50.272C311.904 50.7307 312.064 51.264 312.064 51.872C312.064 52.3627 311.936 52.816 311.68 53.232C311.435 53.6373 311.099 53.968 310.672 54.224C311.216 54.48 311.648 54.8267 311.968 55.264C312.288 55.7013 312.448 56.1973 312.448 56.752C312.448 57.392 312.283 57.9573 311.952 58.448C311.632 58.9387 311.173 59.3227 310.576 59.6C309.989 59.8667 309.307 60 308.528 60H303.008ZM305.328 53.376H308.128C308.629 53.376 309.024 53.2587 309.312 53.024C309.611 52.7787 309.76 52.4533 309.76 52.048C309.76 51.6427 309.611 51.3227 309.312 51.088C309.024 50.8427 308.629 50.72 308.128 50.72H305.328V53.376ZM305.328 58.08H308.352C308.885 58.08 309.312 57.952 309.632 57.696C309.952 57.4293 310.112 57.0773 310.112 56.64C310.112 56.192 309.952 55.84 309.632 55.584C309.312 55.3173 308.885 55.184 308.352 55.184H305.328V58.08ZM313.847 60V58.496L318.519 53.76C318.743 53.5253 318.919 53.3067 319.047 53.104C319.185 52.9013 319.281 52.704 319.335 52.512C319.399 52.3093 319.431 52.1067 319.431 51.904C319.431 51.488 319.255 51.1413 318.903 50.864C318.561 50.5867 318.124 50.448 317.591 50.448C317.079 50.448 316.604 50.5547 316.167 50.768C315.729 50.9707 315.249 51.3227 314.727 51.824L313.543 50.384C314.172 49.7973 314.828 49.36 315.511 49.072C316.193 48.7733 316.908 48.624 317.655 48.624C318.412 48.624 319.079 48.7573 319.655 49.024C320.231 49.2907 320.679 49.6587 320.999 50.128C321.319 50.5973 321.479 51.1467 321.479 51.776C321.479 52.1387 321.425 52.48 321.319 52.8C321.223 53.12 321.063 53.4453 320.839 53.776C320.615 54.096 320.316 54.4427 319.943 54.816L316.551 58.224L321.655 58.208V60H313.847ZM328.762 60.16C327.93 60.16 327.152 60.016 326.426 59.728C325.701 59.4293 325.066 59.0187 324.522 58.496C323.989 57.9733 323.568 57.3653 323.258 56.672C322.96 55.968 322.81 55.2107 322.81 54.4C322.81 53.5787 322.96 52.8213 323.258 52.128C323.568 51.424 323.994 50.8107 324.538 50.288C325.082 49.7653 325.712 49.36 326.426 49.072C327.152 48.7733 327.93 48.624 328.762 48.624C329.381 48.624 329.978 48.7093 330.554 48.88C331.13 49.0507 331.664 49.2907 332.154 49.6C332.656 49.9093 333.082 50.2827 333.434 50.72L331.866 52.272C331.461 51.7707 330.992 51.392 330.458 51.136C329.936 50.88 329.37 50.752 328.762 50.752C328.261 50.752 327.792 50.848 327.354 51.04C326.917 51.2213 326.538 51.4773 326.218 51.808C325.898 52.128 325.648 52.512 325.466 52.96C325.285 53.3973 325.194 53.8773 325.194 54.4C325.194 54.912 325.285 55.392 325.466 55.84C325.648 56.2773 325.904 56.6613 326.234 56.992C326.565 57.312 326.949 57.5627 327.386 57.744C327.834 57.9253 328.32 58.016 328.842 58.016C329.429 58.016 329.978 57.8933 330.49 57.648C331.002 57.4027 331.456 57.0507 331.85 56.592L333.37 58.096C333.018 58.5227 332.597 58.8907 332.106 59.2C331.616 59.5093 331.082 59.7493 330.506 59.92C329.941 60.08 329.36 60.16 328.762 60.16ZM337.946 60V48.8H340.266V57.952H346.394V60H337.946ZM347.848 60V51.664H350.04V60H347.848ZM348.936 50.672C348.595 50.672 348.302 50.5493 348.056 50.304C347.811 50.0587 347.688 49.7653 347.688 49.424C347.688 49.072 347.811 48.7787 348.056 48.544C348.302 48.2987 348.595 48.176 348.936 48.176C349.288 48.176 349.582 48.2987 349.816 48.544C350.062 48.7787 350.184 49.072 350.184 49.424C350.184 49.7653 350.062 50.0587 349.816 50.304C349.582 50.5493 349.288 50.672 348.936 50.672ZM357.947 63.264V59.344C357.275 59.856 356.496 60.112 355.611 60.112C354.821 60.112 354.107 59.92 353.467 59.536C352.827 59.152 352.315 58.64 351.931 58C351.557 57.3493 351.371 56.624 351.371 55.824C351.371 55.024 351.557 54.304 351.931 53.664C352.315 53.0133 352.832 52.5013 353.483 52.128C354.133 51.744 354.864 51.552 355.675 51.552C356.101 51.552 356.507 51.6107 356.891 51.728C357.285 51.8453 357.648 52.0107 357.979 52.224V51.664H360.139V63.264H357.947ZM355.963 58.24C356.368 58.24 356.736 58.176 357.067 58.048C357.408 57.9093 357.701 57.7067 357.947 57.44V54.192C357.701 53.9467 357.408 53.7547 357.067 53.616C356.725 53.4773 356.357 53.408 355.963 53.408C355.504 53.408 355.088 53.5147 354.715 53.728C354.352 53.9307 354.064 54.2187 353.851 54.592C353.637 54.9547 353.531 55.3653 353.531 55.824C353.531 56.2827 353.637 56.6933 353.851 57.056C354.064 57.4187 354.352 57.7067 354.715 57.92C355.088 58.1333 355.504 58.24 355.963 58.24ZM365.08 60.16C364.44 60.16 363.87 60.0213 363.368 59.744C362.878 59.456 362.488 59.0613 362.2 58.56C361.923 58.0587 361.784 57.4827 361.784 56.832V51.664H363.976V56.512C363.976 57.0453 364.131 57.472 364.44 57.792C364.76 58.112 365.187 58.272 365.72 58.272C366.083 58.272 366.408 58.2027 366.696 58.064C366.995 57.9147 367.24 57.7067 367.432 57.44V51.664H369.624V60H367.432V59.328C366.792 59.8827 366.008 60.16 365.08 60.16ZM371.333 60V51.664H373.525V60H371.333ZM372.421 50.672C372.079 50.672 371.786 50.5493 371.541 50.304C371.295 50.0587 371.173 49.7653 371.173 49.424C371.173 49.072 371.295 48.7787 371.541 48.544C371.786 48.2987 372.079 48.176 372.421 48.176C372.773 48.176 373.066 48.2987 373.301 48.544C373.546 48.7787 373.669 49.072 373.669 49.424C373.669 49.7653 373.546 50.0587 373.301 50.304C373.066 50.5493 372.773 50.672 372.421 50.672ZM379.095 60.112C378.306 60.112 377.591 59.92 376.951 59.536C376.311 59.152 375.799 58.64 375.415 58C375.042 57.3493 374.855 56.624 374.855 55.824C374.855 55.024 375.042 54.304 375.415 53.664C375.799 53.0133 376.316 52.5013 376.967 52.128C377.618 51.744 378.348 51.552 379.159 51.552C379.575 51.552 379.975 51.6107 380.359 51.728C380.743 51.8347 381.1 51.9947 381.431 52.208V48.8L383.623 48.432V60H381.463V59.312C380.78 59.8453 379.991 60.112 379.095 60.112ZM379.447 58.24C379.852 58.24 380.22 58.176 380.551 58.048C380.892 57.9093 381.186 57.7067 381.431 57.44V54.192C381.186 53.9467 380.892 53.7547 380.551 53.616C380.21 53.4773 379.842 53.408 379.447 53.408C378.988 53.408 378.572 53.5147 378.199 53.728C377.836 53.9307 377.548 54.2187 377.335 54.592C377.122 54.9547 377.015 55.3653 377.015 55.824C377.015 56.2827 377.122 56.6933 377.335 57.056C377.548 57.4187 377.836 57.7067 378.199 57.92C378.572 58.1333 378.988 58.24 379.447 58.24ZM387.989 60.144C387.391 60.144 386.863 60.0373 386.405 59.824C385.946 59.6 385.589 59.296 385.333 58.912C385.077 58.528 384.949 58.0853 384.949 57.584C384.949 56.784 385.247 56.1653 385.845 55.728C386.453 55.28 387.285 55.056 388.341 55.056C389.066 55.056 389.749 55.168 390.389 55.392V54.784C390.389 54.304 390.239 53.9413 389.941 53.696C389.642 53.4507 389.205 53.328 388.629 53.328C388.277 53.328 387.898 53.3867 387.493 53.504C387.087 53.6107 386.618 53.7813 386.085 54.016L385.285 52.4C385.946 52.1013 386.575 51.8773 387.173 51.728C387.781 51.5787 388.389 51.504 388.997 51.504C390.117 51.504 390.986 51.776 391.605 52.32C392.234 52.8533 392.549 53.6107 392.549 54.592V60H390.389V59.408C390.047 59.664 389.679 59.8507 389.285 59.968C388.89 60.0853 388.458 60.144 387.989 60.144ZM387.029 57.536C387.029 57.856 387.167 58.112 387.445 58.304C387.722 58.4853 388.09 58.576 388.549 58.576C388.911 58.576 389.247 58.5333 389.557 58.448C389.866 58.352 390.143 58.2133 390.389 58.032V56.816C390.122 56.7093 389.845 56.6293 389.557 56.576C389.269 56.5227 388.959 56.496 388.629 56.496C388.127 56.496 387.733 56.592 387.445 56.784C387.167 56.9653 387.029 57.216 387.029 57.536ZM397.925 60.128C396.997 60.128 396.293 59.92 395.813 59.504C395.344 59.0773 395.109 58.4587 395.109 57.648V53.488H393.397V51.664H395.109V49.536L397.301 49.04V51.664H399.685V53.488H397.301V57.2C397.301 57.584 397.387 57.8613 397.557 58.032C397.728 58.192 398.027 58.272 398.453 58.272C398.667 58.272 398.859 58.2613 399.029 58.24C399.211 58.208 399.408 58.1547 399.621 58.08V59.888C399.397 59.9627 399.115 60.0213 398.773 60.064C398.443 60.1067 398.16 60.128 397.925 60.128ZM400.755 60V51.664H402.947V60H400.755ZM401.843 50.672C401.501 50.672 401.208 50.5493 400.963 50.304C400.717 50.0587 400.595 49.7653 400.595 49.424C400.595 49.072 400.717 48.7787 400.963 48.544C401.208 48.2987 401.501 48.176 401.843 48.176C402.195 48.176 402.488 48.2987 402.723 48.544C402.968 48.7787 403.091 49.072 403.091 49.424C403.091 49.7653 402.968 50.0587 402.723 50.304C402.488 50.5493 402.195 50.672 401.843 50.672ZM408.725 60.16C407.893 60.16 407.141 59.968 406.469 59.584C405.797 59.2 405.264 58.6827 404.869 58.032C404.474 57.3813 404.277 56.6507 404.277 55.84C404.277 55.0293 404.469 54.2987 404.853 53.648C405.248 52.9867 405.781 52.464 406.453 52.08C407.136 51.696 407.893 51.504 408.725 51.504C409.557 51.504 410.309 51.696 410.981 52.08C411.664 52.464 412.197 52.9867 412.581 53.648C412.976 54.2987 413.173 55.0293 413.173 55.84C413.173 56.6507 412.976 57.3813 412.581 58.032C412.197 58.6827 411.669 59.2 410.997 59.584C410.325 59.968 409.568 60.16 408.725 60.16ZM408.725 58.256C409.162 58.256 409.552 58.1493 409.893 57.936C410.245 57.7227 410.522 57.4347 410.725 57.072C410.938 56.6987 411.045 56.288 411.045 55.84C411.045 55.3813 410.938 54.9707 410.725 54.608C410.522 54.2453 410.245 53.9573 409.893 53.744C409.552 53.52 409.162 53.408 408.725 53.408C408.298 53.408 407.909 53.52 407.557 53.744C407.205 53.9573 406.928 54.2453 406.725 54.608C406.522 54.9707 406.421 55.3813 406.421 55.84C406.421 56.288 406.522 56.6987 406.725 57.072C406.928 57.4347 407.205 57.7227 407.557 57.936C407.909 58.1493 408.298 58.256 408.725 58.256ZM414.52 60V51.664H416.712V52.352C417.342 51.7867 418.12 51.504 419.048 51.504C419.699 51.504 420.27 51.648 420.76 51.936C421.262 52.2133 421.651 52.6027 421.928 53.104C422.206 53.5947 422.344 54.1707 422.344 54.832V60H420.152V55.152C420.152 54.608 419.998 54.1813 419.688 53.872C419.379 53.552 418.958 53.392 418.424 53.392C418.051 53.392 417.72 53.4667 417.432 53.616C417.144 53.7547 416.904 53.9573 416.712 54.224V60H414.52ZM427.255 63.408V48.8H432.039V50.512H429.335V61.696H432.039V63.408H427.255ZM433.649 60V48.8H438.913C439.67 48.8 440.331 48.928 440.897 49.184C441.462 49.44 441.905 49.8027 442.225 50.272C442.545 50.7307 442.705 51.264 442.705 51.872C442.705 52.3627 442.577 52.816 442.321 53.232C442.075 53.6373 441.739 53.968 441.313 54.224C441.857 54.48 442.289 54.8267 442.609 55.264C442.929 55.7013 443.089 56.1973 443.089 56.752C443.089 57.392 442.923 57.9573 442.593 58.448C442.273 58.9387 441.814 59.3227 441.217 59.6C440.63 59.8667 439.947 60 439.169 60H433.649ZM435.969 53.376H438.769C439.27 53.376 439.665 53.2587 439.953 53.024C440.251 52.7787 440.401 52.4533 440.401 52.048C440.401 51.6427 440.251 51.3227 439.953 51.088C439.665 50.8427 439.27 50.72 438.769 50.72H435.969V53.376ZM435.969 58.08H438.993C439.526 58.08 439.953 57.952 440.273 57.696C440.593 57.4293 440.753 57.0773 440.753 56.64C440.753 56.192 440.593 55.84 440.273 55.584C439.953 55.3173 439.526 55.184 438.993 55.184H435.969V58.08ZM444.359 56.368V54.512H450.375V56.368H444.359ZM452.039 60V48.8H455.015L458.087 54.848L461.159 48.8H464.135V60H461.943V51.76L458.055 59.2L454.183 51.728V60H452.039ZM468.504 60.144C467.907 60.144 467.379 60.0373 466.92 59.824C466.462 59.6 466.104 59.296 465.848 58.912C465.592 58.528 465.464 58.0853 465.464 57.584C465.464 56.784 465.763 56.1653 466.36 55.728C466.968 55.28 467.8 55.056 468.856 55.056C469.582 55.056 470.264 55.168 470.904 55.392V54.784C470.904 54.304 470.755 53.9413 470.456 53.696C470.158 53.4507 469.72 53.328 469.144 53.328C468.792 53.328 468.414 53.3867 468.008 53.504C467.603 53.6107 467.134 53.7813 466.6 54.016L465.8 52.4C466.462 52.1013 467.091 51.8773 467.688 51.728C468.296 51.5787 468.904 51.504 469.512 51.504C470.632 51.504 471.502 51.776 472.12 52.32C472.75 52.8533 473.064 53.6107 473.064 54.592V60H470.904V59.408C470.563 59.664 470.195 59.8507 469.8 59.968C469.406 60.0853 468.974 60.144 468.504 60.144ZM467.544 57.536C467.544 57.856 467.683 58.112 467.96 58.304C468.238 58.4853 468.606 58.576 469.064 58.576C469.427 58.576 469.763 58.5333 470.072 58.448C470.382 58.352 470.659 58.2133 470.904 58.032V56.816C470.638 56.7093 470.36 56.6293 470.072 56.576C469.784 56.5227 469.475 56.496 469.144 56.496C468.643 56.496 468.248 56.592 467.96 56.784C467.683 56.9653 467.544 57.216 467.544 57.536ZM473.827 60L477.027 55.76L473.907 51.664H476.451L478.291 54.144L480.115 51.664H482.579L479.507 55.728L482.771 60H480.211L478.243 57.344L476.275 60H473.827ZM482.937 60L486.137 55.76L483.017 51.664H485.561L487.401 54.144L489.225 51.664H491.689L488.617 55.728L491.881 60H489.321L487.353 57.344L485.385 60H482.937ZM497.048 48.8V63.408H492.264V61.696H494.968V50.512H492.264V48.8H497.048Z" fill="white"/>
<path d="M301.936 96L306.544 84.8H309.216L313.776 96H311.264L310.128 93.056H305.504L304.352 96H301.936ZM306.224 91.2H309.424L307.824 87.072L306.224 91.2ZM317.58 96.16C316.94 96.16 316.37 96.0213 315.868 95.744C315.378 95.456 314.988 95.0613 314.7 94.56C314.423 94.0587 314.284 93.4827 314.284 92.832V87.664H316.476V92.512C316.476 93.0453 316.631 93.472 316.94 93.792C317.26 94.112 317.687 94.272 318.22 94.272C318.583 94.272 318.908 94.2027 319.196 94.064C319.495 93.9147 319.74 93.7067 319.932 93.44V87.664H322.124V96H319.932V95.328C319.292 95.8827 318.508 96.16 317.58 96.16ZM327.785 96.128C326.857 96.128 326.153 95.92 325.673 95.504C325.203 95.0773 324.969 94.4587 324.969 93.648V89.488H323.257V87.664H324.969V85.536L327.161 85.04V87.664H329.545V89.488H327.161V93.2C327.161 93.584 327.246 93.8613 327.417 94.032C327.587 94.192 327.886 94.272 328.313 94.272C328.526 94.272 328.718 94.2613 328.889 94.24C329.07 94.208 329.267 94.1547 329.481 94.08V95.888C329.257 95.9627 328.974 96.0213 328.633 96.064C328.302 96.1067 328.019 96.128 327.785 96.128ZM334.584 96.16C333.752 96.16 333 95.968 332.328 95.584C331.656 95.2 331.123 94.6827 330.728 94.032C330.334 93.3813 330.136 92.6507 330.136 91.84C330.136 91.0293 330.328 90.2987 330.712 89.648C331.107 88.9867 331.64 88.464 332.312 88.08C332.995 87.696 333.752 87.504 334.584 87.504C335.416 87.504 336.168 87.696 336.84 88.08C337.523 88.464 338.056 88.9867 338.44 89.648C338.835 90.2987 339.032 91.0293 339.032 91.84C339.032 92.6507 338.835 93.3813 338.44 94.032C338.056 94.6827 337.528 95.2 336.856 95.584C336.184 95.968 335.427 96.16 334.584 96.16ZM334.584 94.256C335.022 94.256 335.411 94.1493 335.752 93.936C336.104 93.7227 336.382 93.4347 336.584 93.072C336.798 92.6987 336.904 92.288 336.904 91.84C336.904 91.3813 336.798 90.9707 336.584 90.608C336.382 90.2453 336.104 89.9573 335.752 89.744C335.411 89.52 335.022 89.408 334.584 89.408C334.158 89.408 333.768 89.52 333.416 89.744C333.064 89.9573 332.787 90.2453 332.584 90.608C332.382 90.9707 332.28 91.3813 332.28 91.84C332.28 92.288 332.382 92.6987 332.584 93.072C332.787 93.4347 333.064 93.7227 333.416 93.936C333.768 94.1493 334.158 94.256 334.584 94.256ZM343.742 96V84.8H346.062V93.952H352.19V96H343.742ZM357.397 96.16C356.565 96.16 355.813 95.968 355.141 95.584C354.469 95.2 353.935 94.6827 353.541 94.032C353.146 93.3813 352.949 92.6507 352.949 91.84C352.949 91.0293 353.141 90.2987 353.525 89.648C353.919 88.9867 354.453 88.464 355.125 88.08C355.807 87.696 356.565 87.504 357.397 87.504C358.229 87.504 358.981 87.696 359.653 88.08C360.335 88.464 360.869 88.9867 361.253 89.648C361.647 90.2987 361.845 91.0293 361.845 91.84C361.845 92.6507 361.647 93.3813 361.253 94.032C360.869 94.6827 360.341 95.2 359.669 95.584C358.997 95.968 358.239 96.16 357.397 96.16ZM357.397 94.256C357.834 94.256 358.223 94.1493 358.565 93.936C358.917 93.7227 359.194 93.4347 359.397 93.072C359.61 92.6987 359.717 92.288 359.717 91.84C359.717 91.3813 359.61 90.9707 359.397 90.608C359.194 90.2453 358.917 89.9573 358.565 89.744C358.223 89.52 357.834 89.408 357.397 89.408C356.97 89.408 356.581 89.52 356.229 89.744C355.877 89.9573 355.599 90.2453 355.397 90.608C355.194 90.9707 355.093 91.3813 355.093 91.84C355.093 92.288 355.194 92.6987 355.397 93.072C355.599 93.4347 355.877 93.7227 356.229 93.936C356.581 94.1493 356.97 94.256 357.397 94.256ZM366.816 96.128C365.888 96.128 365.184 95.92 364.704 95.504C364.235 95.0773 364 94.4587 364 93.648V89.488H362.288V87.664H364V85.536L366.192 85.04V87.664H368.576V89.488H366.192V93.2C366.192 93.584 366.277 93.8613 366.448 94.032C366.619 94.192 366.917 94.272 367.344 94.272C367.557 94.272 367.749 94.2613 367.92 94.24C368.101 94.208 368.299 94.1547 368.512 94.08V95.888C368.288 95.9627 368.005 96.0213 367.664 96.064C367.333 96.1067 367.051 96.128 366.816 96.128ZM373.008 96V84.8H381.616V86.816H375.328V89.376H379.472V91.328H375.328V93.984H381.68V96H373.008ZM383.177 96V87.664H385.369V88.352C385.998 87.7867 386.777 87.504 387.705 87.504C388.355 87.504 388.926 87.648 389.417 87.936C389.918 88.2133 390.307 88.6027 390.585 89.104C390.862 89.5947 391.001 90.1707 391.001 90.832V96H388.809V91.152C388.809 90.608 388.654 90.1813 388.345 89.872C388.035 89.552 387.614 89.392 387.081 89.392C386.707 89.392 386.377 89.4667 386.089 89.616C385.801 89.7547 385.561 89.9573 385.369 90.224V96H383.177ZM396.853 99.424C396.213 99.424 395.594 99.3547 394.997 99.216C394.4 99.088 393.861 98.9013 393.381 98.656L394.149 96.96C394.608 97.184 395.056 97.3493 395.493 97.456C395.93 97.5627 396.368 97.616 396.805 97.616C397.456 97.616 397.946 97.4773 398.277 97.2C398.618 96.9227 398.789 96.5067 398.789 95.952V95.296C398.106 95.7973 397.344 96.048 396.501 96.048C395.712 96.048 394.997 95.8613 394.357 95.488C393.728 95.104 393.221 94.5867 392.837 93.936C392.464 93.2853 392.277 92.5653 392.277 91.776C392.277 90.9867 392.464 90.272 392.837 89.632C393.221 88.992 393.738 88.4853 394.389 88.112C395.04 87.728 395.765 87.536 396.565 87.536C396.97 87.536 397.365 87.5947 397.749 87.712C398.133 87.8293 398.49 87.9947 398.821 88.208V87.664H400.981V95.984C400.981 97.0827 400.624 97.9307 399.909 98.528C399.205 99.1253 398.186 99.424 396.853 99.424ZM396.837 94.192C397.242 94.192 397.61 94.128 397.941 94C398.272 93.8613 398.554 93.6693 398.789 93.424V90.16C398.554 89.9253 398.266 89.744 397.925 89.616C397.594 89.4773 397.237 89.408 396.853 89.408C396.394 89.408 395.984 89.5147 395.621 89.728C395.258 89.9307 394.97 90.2133 394.757 90.576C394.544 90.928 394.437 91.328 394.437 91.776C394.437 92.2347 394.538 92.6453 394.741 93.008C394.954 93.3707 395.242 93.6587 395.605 93.872C395.978 94.0853 396.389 94.192 396.837 94.192ZM402.692 96V87.664H404.884V96H402.692ZM403.78 86.672C403.439 86.672 403.145 86.5493 402.9 86.304C402.655 86.0587 402.532 85.7653 402.532 85.424C402.532 85.072 402.655 84.7787 402.9 84.544C403.145 84.2987 403.439 84.176 403.78 84.176C404.132 84.176 404.425 84.2987 404.66 84.544C404.905 84.7787 405.028 85.072 405.028 85.424C405.028 85.7653 404.905 86.0587 404.66 86.304C404.425 86.5493 404.132 86.672 403.78 86.672ZM406.598 96V87.664H408.79V88.352C409.42 87.7867 410.198 87.504 411.126 87.504C411.777 87.504 412.348 87.648 412.838 87.936C413.34 88.2133 413.729 88.6027 414.006 89.104C414.284 89.5947 414.422 90.1707 414.422 90.832V96H412.23V91.152C412.23 90.608 412.076 90.1813 411.766 89.872C411.457 89.552 411.036 89.392 410.502 89.392C410.129 89.392 409.798 89.4667 409.51 89.616C409.222 89.7547 408.982 89.9573 408.79 90.224V96H406.598ZM420.163 96.16C419.331 96.16 418.573 95.968 417.891 95.584C417.219 95.2 416.685 94.6827 416.291 94.032C415.896 93.3813 415.699 92.6507 415.699 91.84C415.699 91.0293 415.885 90.2987 416.259 89.648C416.643 88.9973 417.16 88.48 417.811 88.096C418.461 87.712 419.187 87.52 419.987 87.52C420.787 87.52 421.496 87.7173 422.115 88.112C422.733 88.5067 423.219 89.04 423.571 89.712C423.933 90.384 424.115 91.1467 424.115 92V92.576H417.939C418.035 92.9067 418.189 93.2053 418.403 93.472C418.627 93.7387 418.899 93.9467 419.219 94.096C419.549 94.2453 419.901 94.32 420.275 94.32C420.648 94.32 420.989 94.2613 421.299 94.144C421.619 94.0267 421.891 93.8613 422.115 93.648L423.555 94.96C423.043 95.376 422.515 95.68 421.971 95.872C421.437 96.064 420.835 96.16 420.163 96.16ZM417.907 91.008H421.955C421.88 90.6773 421.741 90.3893 421.539 90.144C421.347 89.888 421.112 89.6907 420.835 89.552C420.568 89.4027 420.269 89.328 419.939 89.328C419.597 89.328 419.288 89.3973 419.011 89.536C418.733 89.6747 418.499 89.872 418.307 90.128C418.125 90.3733 417.992 90.6667 417.907 91.008Z" fill="#B5AEFF"/>
<g clip-path="url(#clip1_1_8570)">
<path fill-rule="evenodd" clip-rule="evenodd" d="M436 87.3333C435.632 87.3333 435.333 87.6318 435.333 88V92C435.333 92.3681 435.632 92.6666 436 92.6666H440C440.368 92.6666 440.667 92.3681 440.667 92V88C440.667 87.6318 440.368 87.3333 440 87.3333H436ZM436.667 91.3333V88.6666H439.333V91.3333H436.667Z" fill="#B5AEFF"/>
<path fill-rule="evenodd" clip-rule="evenodd" d="M436.667 83.3333C436.667 82.9651 436.368 82.6666 436 82.6666C435.632 82.6666 435.333 82.9651 435.333 83.3333V84.6666H434.667C433.562 84.6666 432.667 85.5621 432.667 86.6666V87.3333H431.333C430.965 87.3333 430.667 87.6318 430.667 88C430.667 88.3681 430.965 88.6666 431.333 88.6666H432.667V91.3333H431.333C430.965 91.3333 430.667 91.6318 430.667 92C430.667 92.3681 430.965 92.6666 431.333 92.6666H432.667V93.3333C432.667 94.4379 433.562 95.3333 434.667 95.3333H435.333V96.6666C435.333 97.0348 435.632 97.3333 436 97.3333C436.368 97.3333 436.667 97.0348 436.667 96.6666V95.3333H439.333V96.6666C439.333 97.0348 439.632 97.3333 440 97.3333C440.368 97.3333 440.667 97.0348 440.667 96.6666V95.3333H441.333C442.438 95.3333 443.333 94.4379 443.333 93.3333V92.6666H444.667C445.035 92.6666 445.333 92.3681 445.333 92C445.333 91.6318 445.035 91.3333 444.667 91.3333H443.333V88.6666H444.667C445.035 88.6666 445.333 88.3681 445.333 88C445.333 87.6318 445.035 87.3333 444.667 87.3333H443.333V86.6666C443.333 85.5621 442.438 84.6666 441.333 84.6666H440.667V83.3333C440.667 82.9651 440.368 82.6666 440 82.6666C439.632 82.6666 439.333 82.9651 439.333 83.3333V84.6666H436.667V83.3333ZM434 86.6666C434 86.2984 434.298 86 434.667 86H441.333C441.701 86 442 86.2984 442 86.6666V93.3333C442 93.7015 441.701 94 441.333 94H434.667C434.298 94 434 93.7015 434 93.3333V86.6666Z" fill="#B5AEFF"/>
</g>
<path d="M554.784 60.176C553.92 60.176 553.115 60.0267 552.368 59.728C551.632 59.4187 551.013 58.9867 550.512 58.432L551.92 57.12C552.347 57.5787 552.768 57.8987 553.184 58.08C553.611 58.2507 554.133 58.336 554.752 58.336C555.2 58.336 555.589 58.272 555.92 58.144C556.261 58.0053 556.523 57.8133 556.704 57.568C556.896 57.3227 556.992 57.04 556.992 56.72C556.992 56.4213 556.917 56.1653 556.768 55.952C556.619 55.7387 556.416 55.5733 556.16 55.456C555.904 55.328 555.6 55.264 555.248 55.264H553.84V53.536H555.056C555.557 53.536 555.952 53.408 556.24 53.152C556.528 52.8853 556.672 52.5227 556.672 52.064C556.672 51.7653 556.587 51.4987 556.416 51.264C556.245 51.0187 556.011 50.8267 555.712 50.688C555.424 50.5493 555.093 50.48 554.72 50.48C554.165 50.48 553.685 50.576 553.28 50.768C552.885 50.96 552.469 51.3013 552.032 51.792L550.608 50.48C551.131 49.8933 551.755 49.44 552.48 49.12C553.216 48.7893 553.989 48.624 554.8 48.624C555.579 48.624 556.267 48.7627 556.864 49.04C557.461 49.3067 557.931 49.68 558.272 50.16C558.613 50.64 558.784 51.1893 558.784 51.808C558.784 52.4053 558.587 52.9387 558.192 53.408C557.797 53.8667 557.285 54.1867 556.656 54.368C557.403 54.5173 557.995 54.816 558.432 55.264C558.88 55.712 559.104 56.2507 559.104 56.88C559.104 57.5093 558.917 58.0747 558.544 58.576C558.171 59.0773 557.659 59.472 557.008 59.76C556.368 60.0373 555.627 60.176 554.784 60.176ZM560.867 60V48.8H566.483C567.219 48.8 567.865 48.9493 568.419 49.248C568.985 49.5467 569.427 49.9627 569.747 50.496C570.067 51.0187 570.227 51.6267 570.227 52.32C570.227 52.9813 570.067 53.5733 569.747 54.096C569.427 54.6187 568.985 55.0293 568.419 55.328C567.854 55.6267 567.209 55.776 566.483 55.776H563.187V60H560.867ZM563.187 53.856H566.227C566.729 53.856 567.129 53.7173 567.427 53.44C567.737 53.1627 567.891 52.7947 567.891 52.336C567.891 51.8667 567.737 51.4933 567.427 51.216C567.129 50.9387 566.729 50.8 566.227 50.8H563.187V53.856ZM574.977 60V48.8H580.593C581.329 48.8 581.974 48.9493 582.529 49.248C583.094 49.5467 583.537 49.9627 583.857 50.496C584.177 51.0187 584.337 51.6267 584.337 52.32C584.337 52.9813 584.177 53.5733 583.857 54.096C583.537 54.6187 583.094 55.0293 582.529 55.328C581.963 55.6267 581.318 55.776 580.593 55.776H577.297V60H574.977ZM577.297 53.856H580.337C580.838 53.856 581.238 53.7173 581.537 53.44C581.846 53.1627 582.001 52.7947 582.001 52.336C582.001 51.8667 581.846 51.4933 581.537 51.216C581.238 50.9387 580.838 50.8 580.337 50.8H577.297V53.856ZM585.723 60V48.8L587.915 48.432V60H585.723ZM592.286 60.144C591.688 60.144 591.16 60.0373 590.702 59.824C590.243 59.6 589.886 59.296 589.63 58.912C589.374 58.528 589.246 58.0853 589.246 57.584C589.246 56.784 589.544 56.1653 590.142 55.728C590.75 55.28 591.582 55.056 592.638 55.056C593.363 55.056 594.046 55.168 594.686 55.392V54.784C594.686 54.304 594.536 53.9413 594.238 53.696C593.939 53.4507 593.502 53.328 592.926 53.328C592.574 53.328 592.195 53.3867 591.79 53.504C591.384 53.6107 590.915 53.7813 590.382 54.016L589.582 52.4C590.243 52.1013 590.872 51.8773 591.47 51.728C592.078 51.5787 592.686 51.504 593.294 51.504C594.414 51.504 595.283 51.776 595.902 52.32C596.531 52.8533 596.846 53.6107 596.846 54.592V60H594.686V59.408C594.344 59.664 593.976 59.8507 593.582 59.968C593.187 60.0853 592.755 60.144 592.286 60.144ZM591.326 57.536C591.326 57.856 591.464 58.112 591.742 58.304C592.019 58.4853 592.387 58.576 592.846 58.576C593.208 58.576 593.544 58.5333 593.854 58.448C594.163 58.352 594.44 58.2133 594.686 58.032V56.816C594.419 56.7093 594.142 56.6293 593.854 56.576C593.566 56.5227 593.256 56.496 592.926 56.496C592.424 56.496 592.03 56.592 591.742 56.784C591.464 56.9653 591.326 57.216 591.326 57.536ZM602.222 60.128C601.294 60.128 600.59 59.92 600.11 59.504C599.641 59.0773 599.406 58.4587 599.406 57.648V53.488H597.694V51.664H599.406V49.536L601.598 49.04V51.664H603.982V53.488H601.598V57.2C601.598 57.584 601.684 57.8613 601.854 58.032C602.025 58.192 602.324 58.272 602.75 58.272C602.964 58.272 603.156 58.2613 603.326 58.24C603.508 58.208 603.705 58.1547 603.918 58.08V59.888C603.694 59.9627 603.412 60.0213 603.07 60.064C602.74 60.1067 602.457 60.128 602.222 60.128ZM606.488 60V53.488H604.632V51.664H606.488V50.864C606.488 49.9253 606.76 49.2107 607.304 48.72C607.848 48.2187 608.632 47.968 609.656 47.968C609.88 47.968 610.109 47.9787 610.344 48C610.578 48.0213 610.781 48.0587 610.952 48.112V49.952C610.749 49.9093 610.573 49.8773 610.424 49.856C610.274 49.8347 610.109 49.824 609.928 49.824C609.512 49.824 609.197 49.9147 608.984 50.096C608.781 50.2667 608.68 50.5387 608.68 50.912V51.664H610.952V53.488H608.68V60H606.488ZM615.819 60.16C614.987 60.16 614.235 59.968 613.563 59.584C612.891 59.2 612.357 58.6827 611.963 58.032C611.568 57.3813 611.371 56.6507 611.371 55.84C611.371 55.0293 611.563 54.2987 611.947 53.648C612.341 52.9867 612.875 52.464 613.547 52.08C614.229 51.696 614.987 51.504 615.819 51.504C616.651 51.504 617.403 51.696 618.075 52.08C618.757 52.464 619.291 52.9867 619.675 53.648C620.069 54.2987 620.267 55.0293 620.267 55.84C620.267 56.6507 620.069 57.3813 619.675 58.032C619.291 58.6827 618.763 59.2 618.091 59.584C617.419 59.968 616.661 60.16 615.819 60.16ZM615.819 58.256C616.256 58.256 616.645 58.1493 616.987 57.936C617.339 57.7227 617.616 57.4347 617.819 57.072C618.032 56.6987 618.139 56.288 618.139 55.84C618.139 55.3813 618.032 54.9707 617.819 54.608C617.616 54.2453 617.339 53.9573 616.987 53.744C616.645 53.52 616.256 53.408 615.819 53.408C615.392 53.408 615.003 53.52 614.651 53.744C614.299 53.9573 614.021 54.2453 613.819 54.608C613.616 54.9707 613.515 55.3813 613.515 55.84C613.515 56.288 613.616 56.6987 613.819 57.072C614.021 57.4347 614.299 57.7227 614.651 57.936C615.003 58.1493 615.392 58.256 615.819 58.256ZM621.614 60V51.664H623.806V52.592C624.073 52.2293 624.393 51.952 624.766 51.76C625.139 51.568 625.561 51.472 626.03 51.472C626.435 51.4827 626.739 51.5467 626.942 51.664V53.584C626.782 53.5093 626.606 53.456 626.414 53.424C626.222 53.3813 626.025 53.36 625.822 53.36C625.395 53.36 625.006 53.4667 624.654 53.68C624.302 53.8933 624.019 54.1973 623.806 54.592V60H621.614ZM628.145 60V51.664H630.337V52.304C630.935 51.7707 631.66 51.504 632.513 51.504C633.057 51.504 633.543 51.616 633.969 51.84C634.396 52.0533 634.748 52.3573 635.025 52.752C635.367 52.3467 635.767 52.0373 636.225 51.824C636.695 51.6107 637.212 51.504 637.777 51.504C638.407 51.504 638.956 51.648 639.425 51.936C639.905 52.2133 640.279 52.6027 640.545 53.104C640.823 53.5947 640.961 54.1707 640.961 54.832V60H638.785V55.152C638.785 54.608 638.641 54.1813 638.353 53.872C638.065 53.552 637.681 53.392 637.201 53.392C636.871 53.392 636.567 53.4613 636.289 53.6C636.023 53.7387 635.793 53.9467 635.601 54.224C635.612 54.32 635.623 54.416 635.633 54.512C635.644 54.608 635.649 54.7147 635.649 54.832V60H633.457V55.152C633.457 54.608 633.313 54.1813 633.025 53.872C632.748 53.552 632.369 53.392 631.889 53.392C631.559 53.392 631.26 53.456 630.993 53.584C630.737 53.712 630.519 53.904 630.337 54.16V60H628.145ZM645.75 60.16C644.982 60.16 644.272 60.064 643.622 59.872C642.971 59.6693 642.406 59.3813 641.926 59.008L643.014 57.552C643.494 57.872 643.952 58.112 644.39 58.272C644.838 58.432 645.28 58.512 645.718 58.512C646.208 58.512 646.598 58.432 646.886 58.272C647.184 58.1013 647.334 57.8827 647.334 57.616C647.334 57.4027 647.248 57.232 647.078 57.104C646.918 56.976 646.656 56.8853 646.294 56.832L644.694 56.592C643.862 56.464 643.232 56.1973 642.806 55.792C642.379 55.376 642.166 54.832 642.166 54.16C642.166 53.616 642.304 53.152 642.582 52.768C642.87 52.3733 643.27 52.0693 643.782 51.856C644.304 51.632 644.923 51.52 645.638 51.52C646.246 51.52 646.838 51.6053 647.414 51.776C648 51.9467 648.55 52.208 649.062 52.56L648.006 53.984C647.547 53.696 647.11 53.488 646.694 53.36C646.278 53.232 645.856 53.168 645.43 53.168C645.035 53.168 644.715 53.2427 644.47 53.392C644.235 53.5413 644.118 53.7387 644.118 53.984C644.118 54.208 644.203 54.384 644.374 54.512C644.544 54.64 644.838 54.7307 645.254 54.784L646.838 55.024C647.67 55.1413 648.304 55.408 648.742 55.824C649.179 56.2293 649.398 56.7573 649.398 57.408C649.398 57.9413 649.238 58.416 648.918 58.832C648.598 59.2373 648.166 59.5627 647.622 59.808C647.078 60.0427 646.454 60.16 645.75 60.16ZM653.74 63.408V48.8H658.524V50.512H655.82V61.696H658.524V63.408H653.74ZM660.133 60V48.8H662.453V60H660.133ZM664.348 60V51.664H666.54V52.352C667.17 51.7867 667.948 51.504 668.876 51.504C669.527 51.504 670.098 51.648 670.588 51.936C671.09 52.2133 671.479 52.6027 671.756 53.104C672.034 53.5947 672.172 54.1707 672.172 54.832V60H669.98V55.152C669.98 54.608 669.826 54.1813 669.516 53.872C669.207 53.552 668.786 53.392 668.252 53.392C667.879 53.392 667.548 53.4667 667.26 53.616C666.972 53.7547 666.732 53.9573 666.54 54.224V60H664.348ZM677.55 60.128C676.622 60.128 675.918 59.92 675.438 59.504C674.969 59.0773 674.734 58.4587 674.734 57.648V53.488H673.022V51.664H674.734V49.536L676.926 49.04V51.664H679.31V53.488H676.926V57.2C676.926 57.584 677.012 57.8613 677.182 58.032C677.353 58.192 677.652 58.272 678.078 58.272C678.292 58.272 678.484 58.2613 678.654 58.24C678.836 58.208 679.033 58.1547 679.246 58.08V59.888C679.022 59.9627 678.74 60.0213 678.398 60.064C678.068 60.1067 677.785 60.128 677.55 60.128ZM684.366 60.16C683.534 60.16 682.777 59.968 682.094 59.584C681.422 59.2 680.889 58.6827 680.494 58.032C680.099 57.3813 679.902 56.6507 679.902 55.84C679.902 55.0293 680.089 54.2987 680.462 53.648C680.846 52.9973 681.363 52.48 682.014 52.096C682.665 51.712 683.39 51.52 684.19 51.52C684.99 51.52 685.699 51.7173 686.318 52.112C686.937 52.5067 687.422 53.04 687.774 53.712C688.137 54.384 688.318 55.1467 688.318 56V56.576H682.142C682.238 56.9067 682.393 57.2053 682.606 57.472C682.83 57.7387 683.102 57.9467 683.422 58.096C683.753 58.2453 684.105 58.32 684.478 58.32C684.851 58.32 685.193 58.2613 685.502 58.144C685.822 58.0267 686.094 57.8613 686.318 57.648L687.758 58.96C687.246 59.376 686.718 59.68 686.174 59.872C685.641 60.064 685.038 60.16 684.366 60.16ZM682.11 55.008H686.158C686.083 54.6773 685.945 54.3893 685.742 54.144C685.55 53.888 685.315 53.6907 685.038 53.552C684.771 53.4027 684.473 53.328 684.142 53.328C683.801 53.328 683.491 53.3973 683.214 53.536C682.937 53.6747 682.702 53.872 682.51 54.128C682.329 54.3733 682.195 54.6667 682.11 55.008ZM693.915 63.424C693.275 63.424 692.657 63.3547 692.059 63.216C691.462 63.088 690.923 62.9013 690.443 62.656L691.211 60.96C691.67 61.184 692.118 61.3493 692.555 61.456C692.993 61.5627 693.43 61.616 693.867 61.616C694.518 61.616 695.009 61.4773 695.339 61.2C695.681 60.9227 695.851 60.5067 695.851 59.952V59.296C695.169 59.7973 694.406 60.048 693.563 60.048C692.774 60.048 692.059 59.8613 691.419 59.488C690.79 59.104 690.283 58.5867 689.899 57.936C689.526 57.2853 689.339 56.5653 689.339 55.776C689.339 54.9867 689.526 54.272 689.899 53.632C690.283 52.992 690.801 52.4853 691.451 52.112C692.102 51.728 692.827 51.536 693.627 51.536C694.033 51.536 694.427 51.5947 694.811 51.712C695.195 51.8293 695.553 51.9947 695.883 52.208V51.664H698.043V59.984C698.043 61.0827 697.686 61.9307 696.971 62.528C696.267 63.1253 695.249 63.424 693.915 63.424ZM693.899 58.192C694.305 58.192 694.673 58.128 695.003 58C695.334 57.8613 695.617 57.6693 695.851 57.424V54.16C695.617 53.9253 695.329 53.744 694.987 53.616C694.657 53.4773 694.299 53.408 693.915 53.408C693.457 53.408 693.046 53.5147 692.683 53.728C692.321 53.9307 692.033 54.2133 691.819 54.576C691.606 54.928 691.499 55.328 691.499 55.776C691.499 56.2347 691.601 56.6453 691.803 57.008C692.017 57.3707 692.305 57.6587 692.667 57.872C693.041 58.0853 693.451 58.192 693.899 58.192ZM699.755 60V51.664H701.947V52.592C702.213 52.2293 702.533 51.952 702.907 51.76C703.28 51.568 703.701 51.472 704.171 51.472C704.576 51.4827 704.88 51.5467 705.083 51.664V53.584C704.923 53.5093 704.747 53.456 704.555 53.424C704.363 53.3813 704.165 53.36 703.963 53.36C703.536 53.36 703.147 53.4667 702.795 53.68C702.443 53.8933 702.16 54.1973 701.947 54.592V60H699.755ZM708.708 60.144C708.11 60.144 707.582 60.0373 707.124 59.824C706.665 59.6 706.308 59.296 706.052 58.912C705.796 58.528 705.668 58.0853 705.668 57.584C705.668 56.784 705.966 56.1653 706.564 55.728C707.172 55.28 708.004 55.056 709.06 55.056C709.785 55.056 710.468 55.168 711.108 55.392V54.784C711.108 54.304 710.958 53.9413 710.66 53.696C710.361 53.4507 709.924 53.328 709.348 53.328C708.996 53.328 708.617 53.3867 708.212 53.504C707.806 53.6107 707.337 53.7813 706.804 54.016L706.004 52.4C706.665 52.1013 707.294 51.8773 707.892 51.728C708.5 51.5787 709.108 51.504 709.716 51.504C710.836 51.504 711.705 51.776 712.324 52.32C712.953 52.8533 713.267 53.6107 713.267 54.592V60H711.108V59.408C710.766 59.664 710.398 59.8507 710.004 59.968C709.609 60.0853 709.177 60.144 708.708 60.144ZM707.748 57.536C707.748 57.856 707.886 58.112 708.164 58.304C708.441 58.4853 708.809 58.576 709.268 58.576C709.63 58.576 709.966 58.5333 710.276 58.448C710.585 58.352 710.862 58.2133 711.108 58.032V56.816C710.841 56.7093 710.564 56.6293 710.276 56.576C709.988 56.5227 709.678 56.496 709.348 56.496C708.846 56.496 708.452 56.592 708.164 56.784C707.886 56.9653 707.748 57.216 707.748 57.536ZM718.644 60.128C717.716 60.128 717.012 59.92 716.532 59.504C716.063 59.0773 715.828 58.4587 715.828 57.648V53.488H714.116V51.664H715.828V49.536L718.02 49.04V51.664H720.404V53.488H718.02V57.2C718.02 57.584 718.105 57.8613 718.276 58.032C718.447 58.192 718.745 58.272 719.172 58.272C719.385 58.272 719.577 58.2613 719.748 58.24C719.929 58.208 720.127 58.1547 720.34 58.08V59.888C720.116 59.9627 719.833 60.0213 719.492 60.064C719.161 60.1067 718.879 60.128 718.644 60.128ZM721.473 60V51.664H723.665V60H721.473ZM722.561 50.672C722.22 50.672 721.927 50.5493 721.681 50.304C721.436 50.0587 721.313 49.7653 721.313 49.424C721.313 49.072 721.436 48.7787 721.681 48.544C721.927 48.2987 722.22 48.176 722.561 48.176C722.913 48.176 723.207 48.2987 723.441 48.544C723.687 48.7787 723.809 49.072 723.809 49.424C723.809 49.7653 723.687 50.0587 723.441 50.304C723.207 50.5493 722.913 50.672 722.561 50.672ZM729.444 60.16C728.612 60.16 727.86 59.968 727.188 59.584C726.516 59.2 725.982 58.6827 725.588 58.032C725.193 57.3813 724.996 56.6507 724.996 55.84C724.996 55.0293 725.188 54.2987 725.572 53.648C725.966 52.9867 726.5 52.464 727.172 52.08C727.854 51.696 728.612 51.504 729.444 51.504C730.276 51.504 731.028 51.696 731.7 52.08C732.382 52.464 732.916 52.9867 733.3 53.648C733.694 54.2987 733.892 55.0293 733.892 55.84C733.892 56.6507 733.694 57.3813 733.3 58.032C732.916 58.6827 732.388 59.2 731.716 59.584C731.044 59.968 730.286 60.16 729.444 60.16ZM729.444 58.256C729.881 58.256 730.27 58.1493 730.612 57.936C730.964 57.7227 731.241 57.4347 731.444 57.072C731.657 56.6987 731.764 56.288 731.764 55.84C731.764 55.3813 731.657 54.9707 731.444 54.608C731.241 54.2453 730.964 53.9573 730.612 53.744C730.27 53.52 729.881 53.408 729.444 53.408C729.017 53.408 728.628 53.52 728.276 53.744C727.924 53.9573 727.646 54.2453 727.444 54.608C727.241 54.9707 727.14 55.3813 727.14 55.84C727.14 56.288 727.241 56.6987 727.444 57.072C727.646 57.4347 727.924 57.7227 728.276 57.936C728.628 58.1493 729.017 58.256 729.444 58.256ZM735.239 60V51.664H737.431V52.352C738.06 51.7867 738.839 51.504 739.767 51.504C740.418 51.504 740.988 51.648 741.479 51.936C741.98 52.2133 742.37 52.6027 742.647 53.104C742.924 53.5947 743.063 54.1707 743.063 54.832V60H740.871V55.152C740.871 54.608 740.716 54.1813 740.407 53.872C740.098 53.552 739.676 53.392 739.143 53.392C738.77 53.392 738.439 53.4667 738.151 53.616C737.863 53.7547 737.623 53.9573 737.431 54.224V60H735.239ZM749.251 48.8V63.408H744.467V61.696H747.171V50.512H744.467V48.8H749.251Z" fill="white"/>
<path d="M551.008 96V84.8H556.624C557.36 84.8 558.005 84.9493 558.56 85.248C559.125 85.5467 559.568 85.9627 559.888 86.496C560.208 87.0187 560.368 87.6267 560.368 88.32C560.368 88.9813 560.208 89.5733 559.888 90.096C559.568 90.6187 559.125 91.0293 558.56 91.328C557.995 91.6267 557.349 91.776 556.624 91.776H553.328V96H551.008ZM553.328 89.856H556.368C556.869 89.856 557.269 89.7173 557.568 89.44C557.877 89.1627 558.032 88.7947 558.032 88.336C558.032 87.8667 557.877 87.4933 557.568 87.216C557.269 86.9387 556.869 86.8 556.368 86.8H553.328V89.856ZM561.739 96V87.664H563.931V88.592C564.198 88.2293 564.518 87.952 564.891 87.76C565.264 87.568 565.686 87.472 566.155 87.472C566.56 87.4827 566.864 87.5467 567.067 87.664V89.584C566.907 89.5093 566.731 89.456 566.539 89.424C566.347 89.3813 566.15 89.36 565.947 89.36C565.52 89.36 565.131 89.4667 564.779 89.68C564.427 89.8933 564.144 90.1973 563.931 90.592V96H561.739ZM568.27 96V87.664H570.462V96H568.27ZM569.358 86.672C569.017 86.672 568.724 86.5493 568.478 86.304C568.233 86.0587 568.11 85.7653 568.11 85.424C568.11 85.072 568.233 84.7787 568.478 84.544C568.724 84.2987 569.017 84.176 569.358 84.176C569.71 84.176 570.004 84.2987 570.238 84.544C570.484 84.7787 570.606 85.072 570.606 85.424C570.606 85.7653 570.484 86.0587 570.238 86.304C570.004 86.5493 569.71 86.672 569.358 86.672ZM576.161 96.16C575.339 96.16 574.598 95.9733 573.937 95.6C573.275 95.216 572.753 94.6987 572.368 94.048C571.985 93.3867 571.793 92.6507 571.793 91.84C571.793 91.0187 571.985 90.2827 572.368 89.632C572.753 88.9813 573.275 88.464 573.937 88.08C574.598 87.696 575.339 87.504 576.161 87.504C576.822 87.504 577.451 87.632 578.049 87.888C578.657 88.144 579.179 88.512 579.617 88.992L578.273 90.416C577.963 90.0747 577.638 89.824 577.297 89.664C576.966 89.4933 576.603 89.408 576.209 89.408C575.782 89.408 575.398 89.5147 575.057 89.728C574.726 89.9413 574.459 90.2293 574.257 90.592C574.065 90.9547 573.969 91.3707 573.969 91.84C573.969 92.288 574.065 92.6987 574.257 93.072C574.459 93.4347 574.737 93.7227 575.089 93.936C575.441 94.1387 575.83 94.24 576.257 94.24C576.63 94.24 576.977 94.1653 577.297 94.016C577.627 93.856 577.942 93.6213 578.241 93.312L579.553 94.688C579.126 95.1467 578.614 95.5093 578.017 95.776C577.419 96.032 576.801 96.16 576.161 96.16ZM580.692 96V87.664H582.884V96H580.692ZM581.78 86.672C581.439 86.672 581.145 86.5493 580.9 86.304C580.655 86.0587 580.532 85.7653 580.532 85.424C580.532 85.072 580.655 84.7787 580.9 84.544C581.145 84.2987 581.439 84.176 581.78 84.176C582.132 84.176 582.425 84.2987 582.66 84.544C582.905 84.7787 583.028 85.072 583.028 85.424C583.028 85.7653 582.905 86.0587 582.66 86.304C582.425 86.5493 582.132 86.672 581.78 86.672ZM584.598 96V87.664H586.79V88.352C587.42 87.7867 588.198 87.504 589.126 87.504C589.777 87.504 590.348 87.648 590.838 87.936C591.34 88.2133 591.729 88.6027 592.006 89.104C592.284 89.5947 592.422 90.1707 592.422 90.832V96H590.23V91.152C590.23 90.608 590.076 90.1813 589.766 89.872C589.457 89.552 589.036 89.392 588.502 89.392C588.129 89.392 587.798 89.4667 587.51 89.616C587.222 89.7547 586.982 89.9573 586.79 90.224V96H584.598ZM598.275 99.424C597.635 99.424 597.016 99.3547 596.419 99.216C595.821 99.088 595.283 98.9013 594.803 98.656L595.571 96.96C596.029 97.184 596.477 97.3493 596.915 97.456C597.352 97.5627 597.789 97.616 598.227 97.616C598.877 97.616 599.368 97.4773 599.699 97.2C600.04 96.9227 600.211 96.5067 600.211 95.952V95.296C599.528 95.7973 598.765 96.048 597.923 96.048C597.133 96.048 596.419 95.8613 595.779 95.488C595.149 95.104 594.643 94.5867 594.259 93.936C593.885 93.2853 593.699 92.5653 593.699 91.776C593.699 90.9867 593.885 90.272 594.259 89.632C594.643 88.992 595.16 88.4853 595.811 88.112C596.461 87.728 597.187 87.536 597.987 87.536C598.392 87.536 598.787 87.5947 599.171 87.712C599.555 87.8293 599.912 87.9947 600.243 88.208V87.664H602.403V95.984C602.403 97.0827 602.045 97.9307 601.331 98.528C600.627 99.1253 599.608 99.424 598.275 99.424ZM598.259 94.192C598.664 94.192 599.032 94.128 599.363 94C599.693 93.8613 599.976 93.6693 600.211 93.424V90.16C599.976 89.9253 599.688 89.744 599.347 89.616C599.016 89.4773 598.659 89.408 598.275 89.408C597.816 89.408 597.405 89.5147 597.043 89.728C596.68 89.9307 596.392 90.2133 596.179 90.576C595.965 90.928 595.859 91.328 595.859 91.776C595.859 92.2347 595.96 92.6453 596.163 93.008C596.376 93.3707 596.664 93.6587 597.027 93.872C597.4 94.0853 597.811 94.192 598.259 94.192ZM607.477 96V84.8H616.085V86.816H609.797V89.376H613.941V91.328H609.797V93.984H616.149V96H607.477ZM617.645 96V87.664H619.837V88.352C620.467 87.7867 621.245 87.504 622.173 87.504C622.824 87.504 623.395 87.648 623.885 87.936C624.387 88.2133 624.776 88.6027 625.053 89.104C625.331 89.5947 625.469 90.1707 625.469 90.832V96H623.277V91.152C623.277 90.608 623.123 90.1813 622.813 89.872C622.504 89.552 622.083 89.392 621.549 89.392C621.176 89.392 620.845 89.4667 620.557 89.616C620.269 89.7547 620.029 89.9573 619.837 90.224V96H617.645ZM631.322 99.424C630.682 99.424 630.063 99.3547 629.466 99.216C628.868 99.088 628.33 98.9013 627.85 98.656L628.618 96.96C629.076 97.184 629.524 97.3493 629.962 97.456C630.399 97.5627 630.836 97.616 631.274 97.616C631.924 97.616 632.415 97.4773 632.746 97.2C633.087 96.9227 633.258 96.5067 633.258 95.952V95.296C632.575 95.7973 631.812 96.048 630.97 96.048C630.18 96.048 629.466 95.8613 628.826 95.488C628.196 95.104 627.69 94.5867 627.306 93.936C626.932 93.2853 626.746 92.5653 626.746 91.776C626.746 90.9867 626.932 90.272 627.306 89.632C627.69 88.992 628.207 88.4853 628.858 88.112C629.508 87.728 630.234 87.536 631.034 87.536C631.439 87.536 631.834 87.5947 632.218 87.712C632.602 87.8293 632.959 87.9947 633.29 88.208V87.664H635.45V95.984C635.45 97.0827 635.092 97.9307 634.378 98.528C633.674 99.1253 632.655 99.424 631.322 99.424ZM631.306 94.192C631.711 94.192 632.079 94.128 632.41 94C632.74 93.8613 633.023 93.6693 633.258 93.424V90.16C633.023 89.9253 632.735 89.744 632.394 89.616C632.063 89.4773 631.706 89.408 631.322 89.408C630.863 89.408 630.452 89.5147 630.09 89.728C629.727 89.9307 629.439 90.2133 629.226 90.576C629.012 90.928 628.906 91.328 628.906 91.776C628.906 92.2347 629.007 92.6453 629.21 93.008C629.423 93.3707 629.711 93.6587 630.074 93.872C630.447 94.0853 630.858 94.192 631.306 94.192ZM637.161 96V87.664H639.353V96H637.161ZM638.249 86.672C637.908 86.672 637.614 86.5493 637.369 86.304C637.124 86.0587 637.001 85.7653 637.001 85.424C637.001 85.072 637.124 84.7787 637.369 84.544C637.614 84.2987 637.908 84.176 638.249 84.176C638.601 84.176 638.894 84.2987 639.129 84.544C639.374 84.7787 639.497 85.072 639.497 85.424C639.497 85.7653 639.374 86.0587 639.129 86.304C638.894 86.5493 638.601 86.672 638.249 86.672ZM641.067 96V87.664H643.259V88.352C643.888 87.7867 644.667 87.504 645.595 87.504C646.246 87.504 646.816 87.648 647.307 87.936C647.808 88.2133 648.198 88.6027 648.475 89.104C648.752 89.5947 648.891 90.1707 648.891 90.832V96H646.699V91.152C646.699 90.608 646.544 90.1813 646.235 89.872C645.926 89.552 645.504 89.392 644.971 89.392C644.598 89.392 644.267 89.4667 643.979 89.616C643.691 89.7547 643.451 89.9573 643.259 90.224V96H641.067ZM654.632 96.16C653.8 96.16 653.042 95.968 652.36 95.584C651.688 95.2 651.154 94.6827 650.76 94.032C650.365 93.3813 650.168 92.6507 650.168 91.84C650.168 91.0293 650.354 90.2987 650.728 89.648C651.112 88.9973 651.629 88.48 652.28 88.096C652.93 87.712 653.656 87.52 654.456 87.52C655.256 87.52 655.965 87.7173 656.584 88.112C657.202 88.5067 657.688 89.04 658.04 89.712C658.402 90.384 658.584 91.1467 658.584 92V92.576H652.408C652.504 92.9067 652.658 93.2053 652.872 93.472C653.096 93.7387 653.368 93.9467 653.688 94.096C654.018 94.2453 654.37 94.32 654.744 94.32C655.117 94.32 655.458 94.2613 655.768 94.144C656.088 94.0267 656.36 93.8613 656.584 93.648L658.024 94.96C657.512 95.376 656.984 95.68 656.44 95.872C655.906 96.064 655.304 96.16 654.632 96.16ZM652.376 91.008H656.424C656.349 90.6773 656.21 90.3893 656.008 90.144C655.816 89.888 655.581 89.6907 655.304 89.552C655.037 89.4027 654.738 89.328 654.408 89.328C654.066 89.328 653.757 89.3973 653.48 89.536C653.202 89.6747 652.968 89.872 652.776 90.128C652.594 90.3733 652.461 90.6667 652.376 91.008Z" fill="#B5AEFF"/>
<g clip-path="url(#clip2_1_8570)">
<path fill-rule="evenodd" clip-rule="evenodd" d="M670 87.3333C669.632 87.3333 669.333 87.6318 669.333 88V92C669.333 92.3681 669.632 92.6666 670 92.6666H674C674.368 92.6666 674.667 92.3681 674.667 92V88C674.667 87.6318 674.368 87.3333 674 87.3333H670ZM670.667 91.3333V88.6666H673.333V91.3333H670.667Z" fill="#B5AEFF"/>
<path fill-rule="evenodd" clip-rule="evenodd" d="M670.667 83.3333C670.667 82.9651 670.368 82.6666 670 82.6666C669.632 82.6666 669.333 82.9651 669.333 83.3333V84.6666H668.667C667.562 84.6666 666.667 85.5621 666.667 86.6666V87.3333H665.333C664.965 87.3333 664.667 87.6318 664.667 88C664.667 88.3681 664.965 88.6666 665.333 88.6666H666.667V91.3333H665.333C664.965 91.3333 664.667 91.6318 664.667 92C664.667 92.3681 664.965 92.6666 665.333 92.6666H666.667V93.3333C666.667 94.4379 667.562 95.3333 668.667 95.3333H669.333V96.6666C669.333 97.0348 669.632 97.3333 670 97.3333C670.368 97.3333 670.667 97.0348 670.667 96.6666V95.3333H673.333V96.6666C673.333 97.0348 673.632 97.3333 674 97.3333C674.368 97.3333 674.667 97.0348 674.667 96.6666V95.3333H675.333C676.438 95.3333 677.333 94.4379 677.333 93.3333V92.6666H678.667C679.035 92.6666 679.333 92.3681 679.333 92C679.333 91.6318 679.035 91.3333 678.667 91.3333H677.333V88.6666H678.667C679.035 88.6666 679.333 88.3681 679.333 88C679.333 87.6318 679.035 87.3333 678.667 87.3333H677.333V86.6666C677.333 85.5621 676.438 84.6666 675.333 84.6666H674.667V83.3333C674.667 82.9651 674.368 82.6666 674 82.6666C673.632 82.6666 673.333 82.9651 673.333 83.3333V84.6666H670.667V83.3333ZM668 86.6666C668 86.2984 668.298 86 668.667 86H675.333C675.701 86 676 86.2984 676 86.6666V93.3333C676 93.7015 675.701 94 675.333 94H668.667C668.298 94 668 93.7015 668 93.3333V86.6666Z" fill="#B5AEFF"/>
</g>
<rect x="374" y="0.5" width="259" height="25" rx="12.5" fill="#1A1B35"/>
<path d="M398.326 17V8.6H402.538C403.09 8.6 403.574 8.712 403.99 8.936C404.414 9.16 404.746 9.472 404.986 9.872C405.226 10.264 405.346 10.72 405.346 11.24C405.346 11.736 405.226 12.18 404.986 12.572C404.746 12.964 404.414 13.272 403.99 13.496C403.566 13.72 403.082 13.832 402.538 13.832H400.066V17H398.326ZM400.066 12.392H402.346C402.722 12.392 403.022 12.288 403.246 12.08C403.478 11.872 403.594 11.596 403.594 11.252C403.594 10.9 403.478 10.62 403.246 10.412C403.022 10.204 402.722 10.1 402.346 10.1H400.066V12.392ZM408.414 17V8.6H412.518C413.086 8.6 413.586 8.712 414.018 8.936C414.458 9.152 414.798 9.456 415.038 9.848C415.286 10.24 415.41 10.692 415.41 11.204C415.41 11.74 415.262 12.212 414.966 12.62C414.67 13.028 414.274 13.332 413.778 13.532L415.638 17H413.694L412.05 13.784H410.154V17H408.414ZM410.154 12.356H412.362C412.754 12.356 413.066 12.252 413.298 12.044C413.538 11.836 413.658 11.564 413.658 11.228C413.658 10.892 413.538 10.62 413.298 10.412C413.066 10.204 412.754 10.1 412.362 10.1H410.154V12.356ZM422.595 17.132C421.971 17.132 421.391 17.024 420.855 16.808C420.319 16.584 419.847 16.276 419.439 15.884C419.039 15.484 418.723 15.024 418.491 14.504C418.267 13.976 418.155 13.408 418.155 12.8C418.155 12.192 418.267 11.628 418.491 11.108C418.723 10.58 419.039 10.12 419.439 9.728C419.847 9.328 420.319 9.02 420.855 8.804C421.391 8.58 421.971 8.468 422.595 8.468C423.219 8.468 423.799 8.58 424.335 8.804C424.879 9.02 425.351 9.328 425.751 9.728C426.159 10.12 426.475 10.58 426.699 11.108C426.923 11.628 427.035 12.192 427.035 12.8C427.035 13.408 426.923 13.976 426.699 14.504C426.475 15.024 426.159 15.484 425.751 15.884C425.351 16.276 424.879 16.584 424.335 16.808C423.799 17.024 423.219 17.132 422.595 17.132ZM422.595 15.536C422.979 15.536 423.331 15.468 423.651 15.332C423.971 15.188 424.251 14.996 424.491 14.756C424.731 14.508 424.919 14.216 425.055 13.88C425.191 13.544 425.259 13.184 425.259 12.8C425.259 12.408 425.191 12.048 425.055 11.72C424.919 11.384 424.731 11.096 424.491 10.856C424.251 10.608 423.971 10.416 423.651 10.28C423.331 10.136 422.979 10.064 422.595 10.064C422.219 10.064 421.871 10.136 421.551 10.28C421.231 10.416 420.951 10.608 420.711 10.856C420.471 11.096 420.283 11.384 420.147 11.72C420.011 12.048 419.943 12.404 419.943 12.788C419.943 13.18 420.011 13.544 420.147 13.88C420.283 14.216 420.471 14.508 420.711 14.756C420.951 14.996 421.231 15.188 421.551 15.332C421.871 15.468 422.219 15.536 422.595 15.536ZM434.301 17.12C433.677 17.12 433.093 17.012 432.549 16.796C432.005 16.572 431.529 16.264 431.121 15.872C430.721 15.48 430.405 15.024 430.173 14.504C429.949 13.976 429.837 13.408 429.837 12.8C429.837 12.184 429.949 11.616 430.173 11.096C430.405 10.568 430.725 10.108 431.133 9.716C431.541 9.324 432.013 9.02 432.549 8.804C433.093 8.58 433.677 8.468 434.301 8.468C434.765 8.468 435.213 8.532 435.645 8.66C436.077 8.788 436.477 8.968 436.845 9.2C437.221 9.432 437.541 9.712 437.805 10.04L436.629 11.204C436.325 10.828 435.973 10.544 435.573 10.352C435.181 10.16 434.757 10.064 434.301 10.064C433.925 10.064 433.573 10.136 433.245 10.28C432.917 10.416 432.633 10.608 432.393 10.856C432.153 11.096 431.965 11.384 431.829 11.72C431.693 12.048 431.625 12.408 431.625 12.8C431.625 13.184 431.693 13.544 431.829 13.88C431.965 14.208 432.157 14.496 432.405 14.744C432.653 14.984 432.941 15.172 433.269 15.308C433.605 15.444 433.969 15.512 434.361 15.512C434.801 15.512 435.213 15.42 435.597 15.236C435.981 15.052 436.321 14.788 436.617 14.444L437.757 15.572C437.493 15.892 437.177 16.168 436.809 16.4C436.441 16.632 436.041 16.812 435.609 16.94C435.185 17.06 434.749 17.12 434.301 17.12ZM440.694 17V8.6H447.15V10.112H442.434V12.032H445.542V13.496H442.434V15.488H447.198V17H440.694ZM453.348 17.12C452.668 17.12 452.004 16.996 451.356 16.748C450.708 16.492 450.132 16.132 449.628 15.668L450.624 14.42C451.112 14.852 451.58 15.164 452.028 15.356C452.484 15.548 452.964 15.644 453.468 15.644C453.82 15.644 454.124 15.604 454.38 15.524C454.636 15.436 454.832 15.312 454.968 15.152C455.112 14.992 455.184 14.804 455.184 14.588C455.184 14.3 455.08 14.08 454.872 13.928C454.664 13.768 454.308 13.644 453.804 13.556L452.136 13.268C451.424 13.148 450.88 12.896 450.504 12.512C450.136 12.128 449.952 11.632 449.952 11.024C449.952 10.504 450.084 10.052 450.348 9.668C450.62 9.284 451 8.992 451.488 8.792C451.984 8.584 452.572 8.48 453.252 8.48C453.868 8.48 454.48 8.584 455.088 8.792C455.704 9 456.248 9.288 456.72 9.656L455.784 10.952C454.904 10.28 454.02 9.944 453.132 9.944C452.82 9.944 452.548 9.984 452.316 10.064C452.084 10.144 451.904 10.256 451.776 10.4C451.656 10.536 451.596 10.7 451.596 10.892C451.596 11.148 451.688 11.348 451.872 11.492C452.056 11.628 452.364 11.732 452.796 11.804L454.38 12.068C455.22 12.204 455.848 12.472 456.264 12.872C456.68 13.264 456.888 13.784 456.888 14.432C456.888 14.976 456.744 15.452 456.456 15.86C456.168 16.26 455.756 16.572 455.22 16.796C454.692 17.012 454.068 17.12 453.348 17.12ZM462.956 17.12C462.276 17.12 461.612 16.996 460.964 16.748C460.316 16.492 459.74 16.132 459.236 15.668L460.232 14.42C460.72 14.852 461.188 15.164 461.636 15.356C462.092 15.548 462.572 15.644 463.076 15.644C463.428 15.644 463.732 15.604 463.988 15.524C464.244 15.436 464.44 15.312 464.576 15.152C464.72 14.992 464.792 14.804 464.792 14.588C464.792 14.3 464.688 14.08 464.48 13.928C464.272 13.768 463.916 13.644 463.412 13.556L461.744 13.268C461.032 13.148 460.488 12.896 460.112 12.512C459.744 12.128 459.56 11.632 459.56 11.024C459.56 10.504 459.692 10.052 459.956 9.668C460.228 9.284 460.608 8.992 461.096 8.792C461.592 8.584 462.18 8.48 462.86 8.48C463.476 8.48 464.088 8.584 464.696 8.792C465.312 9 465.856 9.288 466.328 9.656L465.392 10.952C464.512 10.28 463.628 9.944 462.74 9.944C462.428 9.944 462.156 9.984 461.924 10.064C461.692 10.144 461.512 10.256 461.384 10.4C461.264 10.536 461.204 10.7 461.204 10.892C461.204 11.148 461.296 11.348 461.48 11.492C461.664 11.628 461.972 11.732 462.404 11.804L463.988 12.068C464.828 12.204 465.456 12.472 465.872 12.872C466.288 13.264 466.496 13.784 466.496 14.432C466.496 14.976 466.352 15.452 466.064 15.86C465.776 16.26 465.364 16.572 464.828 16.796C464.3 17.012 463.676 17.12 462.956 17.12ZM469.446 17V8.6H475.902V10.112H471.186V12.032H474.294V13.496H471.186V15.488H475.95V17H469.446ZM482.101 17.12C481.421 17.12 480.757 16.996 480.109 16.748C479.461 16.492 478.885 16.132 478.381 15.668L479.377 14.42C479.865 14.852 480.333 15.164 480.781 15.356C481.237 15.548 481.717 15.644 482.221 15.644C482.573 15.644 482.877 15.604 483.133 15.524C483.389 15.436 483.585 15.312 483.721 15.152C483.865 14.992 483.937 14.804 483.937 14.588C483.937 14.3 483.833 14.08 483.625 13.928C483.417 13.768 483.061 13.644 482.557 13.556L480.889 13.268C480.177 13.148 479.633 12.896 479.257 12.512C478.889 12.128 478.705 11.632 478.705 11.024C478.705 10.504 478.837 10.052 479.101 9.668C479.373 9.284 479.753 8.992 480.241 8.792C480.737 8.584 481.325 8.48 482.005 8.48C482.621 8.48 483.233 8.584 483.841 8.792C484.457 9 485.001 9.288 485.473 9.656L484.537 10.952C483.657 10.28 482.773 9.944 481.885 9.944C481.573 9.944 481.301 9.984 481.069 10.064C480.837 10.144 480.657 10.256 480.529 10.4C480.409 10.536 480.349 10.7 480.349 10.892C480.349 11.148 480.441 11.348 480.625 11.492C480.809 11.628 481.117 11.732 481.549 11.804L483.133 12.068C483.973 12.204 484.601 12.472 485.017 12.872C485.433 13.264 485.641 13.784 485.641 14.432C485.641 14.976 485.497 15.452 485.209 15.86C484.921 16.26 484.509 16.572 483.973 16.796C483.445 17.012 482.821 17.12 482.101 17.12ZM492.121 17L495.577 8.6H497.581L501.001 17H499.117L498.265 14.792H494.797L493.933 17H492.121ZM495.337 13.4H497.737L496.537 10.304L495.337 13.4ZM503.634 17V8.6H505.29L509.466 14.024V8.6H511.098V17H509.562L505.278 11.384V17H503.634ZM516.282 15.452H517.746C518.122 15.452 518.47 15.388 518.79 15.26C519.118 15.124 519.402 14.936 519.642 14.696C519.89 14.456 520.078 14.176 520.206 13.856C520.342 13.536 520.41 13.188 520.41 12.812C520.41 12.436 520.342 12.088 520.206 11.768C520.07 11.44 519.882 11.156 519.642 10.916C519.402 10.676 519.118 10.488 518.79 10.352C518.47 10.216 518.122 10.148 517.746 10.148H516.282V15.452ZM514.542 17V8.6H517.77C518.402 8.6 518.986 8.708 519.522 8.924C520.058 9.132 520.526 9.428 520.926 9.812C521.326 10.196 521.638 10.644 521.862 11.156C522.094 11.668 522.21 12.22 522.21 12.812C522.21 13.412 522.098 13.964 521.874 14.468C521.65 14.972 521.334 15.416 520.926 15.8C520.526 16.176 520.058 16.472 519.522 16.688C518.986 16.896 518.402 17 517.77 17H514.542ZM533.796 17.12C533.172 17.12 532.588 17.012 532.044 16.796C531.5 16.572 531.024 16.264 530.616 15.872C530.216 15.48 529.9 15.024 529.668 14.504C529.444 13.976 529.332 13.408 529.332 12.8C529.332 12.184 529.444 11.616 529.668 11.096C529.9 10.568 530.22 10.108 530.628 9.716C531.036 9.324 531.508 9.02 532.044 8.804C532.588 8.58 533.172 8.468 533.796 8.468C534.26 8.468 534.708 8.532 535.14 8.66C535.572 8.788 535.972 8.968 536.34 9.2C536.716 9.432 537.036 9.712 537.3 10.04L536.124 11.204C535.82 10.828 535.468 10.544 535.068 10.352C534.676 10.16 534.252 10.064 533.796 10.064C533.42 10.064 533.068 10.136 532.74 10.28C532.412 10.416 532.128 10.608 531.888 10.856C531.648 11.096 531.46 11.384 531.324 11.72C531.188 12.048 531.12 12.408 531.12 12.8C531.12 13.184 531.188 13.544 531.324 13.88C531.46 14.208 531.652 14.496 531.9 14.744C532.148 14.984 532.436 15.172 532.764 15.308C533.1 15.444 533.464 15.512 533.856 15.512C534.296 15.512 534.708 15.42 535.092 15.236C535.476 15.052 535.816 14.788 536.112 14.444L537.252 15.572C536.988 15.892 536.672 16.168 536.304 16.4C535.936 16.632 535.536 16.812 535.104 16.94C534.68 17.06 534.244 17.12 533.796 17.12ZM540.189 17V8.6H541.929V11.984H545.793V8.6H547.533V17H545.793V13.556H541.929V17H540.189ZM550.176 17L553.632 8.6H555.636L559.056 17H557.172L556.32 14.792H552.852L551.988 17H550.176ZM553.392 13.4H555.792L554.592 10.304L553.392 13.4ZM561.689 17V8.6H563.345L567.521 14.024V8.6H569.153V17H567.617L563.333 11.384V17H561.689ZM572.597 17V8.6H574.253L578.429 14.024V8.6H580.061V17H578.525L574.241 11.384V17H572.597ZM583.506 17V8.6H589.962V10.112H585.246V12.032H588.354V13.496H585.246V15.488H590.01V17H583.506ZM593.16 17V8.6H594.9V15.464H599.496V17H593.16ZM605.615 17.12C604.935 17.12 604.271 16.996 603.623 16.748C602.975 16.492 602.399 16.132 601.895 15.668L602.891 14.42C603.379 14.852 603.847 15.164 604.295 15.356C604.751 15.548 605.231 15.644 605.735 15.644C606.087 15.644 606.391 15.604 606.647 15.524C606.903 15.436 607.099 15.312 607.235 15.152C607.379 14.992 607.451 14.804 607.451 14.588C607.451 14.3 607.347 14.08 607.139 13.928C606.931 13.768 606.575 13.644 606.071 13.556L604.403 13.268C603.691 13.148 603.147 12.896 602.771 12.512C602.403 12.128 602.219 11.632 602.219 11.024C602.219 10.504 602.351 10.052 602.615 9.668C602.887 9.284 603.267 8.992 603.755 8.792C604.251 8.584 604.839 8.48 605.519 8.48C606.135 8.48 606.747 8.584 607.355 8.792C607.971 9 608.515 9.288 608.987 9.656L608.051 10.952C607.171 10.28 606.287 9.944 605.399 9.944C605.087 9.944 604.815 9.984 604.583 10.064C604.351 10.144 604.171 10.256 604.043 10.4C603.923 10.536 603.863 10.7 603.863 10.892C603.863 11.148 603.955 11.348 604.139 11.492C604.323 11.628 604.631 11.732 605.063 11.804L606.647 12.068C607.487 12.204 608.115 12.472 608.531 12.872C608.947 13.264 609.155 13.784 609.155 14.432C609.155 14.976 609.011 15.452 608.723 15.86C608.435 16.26 608.023 16.572 607.487 16.796C606.959 17.012 606.335 17.12 605.615 17.12Z" fill="white"/>
<rect x="374" y="0.5" width="259" height="25" rx="12.5" stroke="#7EB5BE"/>
<defs>
<linearGradient id="paint0_linear_1_8570" x1="504" y1="13" x2="504" y2="122" gradientUnits="userSpaceOnUse">
<stop stop-color="#E1EEFA"/>
<stop offset="1" stop-color="#E1EEFA" stop-opacity="0"/>
</linearGradient>
<linearGradient id="paint1_linear_1_8570" x1="504" y1="13" x2="504" y2="122" gradientUnits="userSpaceOnUse">
<stop stop-color="#7EB5BE" stop-opacity="0.69"/>
<stop offset="1" stop-color="#7EB5BE" stop-opacity="0.85"/>
</linearGradient>
<clipPath id="clip0_1_8570">
<rect width="16" height="16" fill="white" transform="translate(95 82)"/>
</clipPath>
<clipPath id="clip1_1_8570">
<rect width="16" height="16" fill="white" transform="translate(430 82)"/>
</clipPath>
<clipPath id="clip2_1_8570">
<rect width="16" height="16" fill="white" transform="translate(664 82)"/>
</clipPath>
</defs>
</svg>
