<svg height="368" width="368" viewBox="0 0 368 368" fill="none" xmlns="http://www.w3.org/2000/svg">
<circle opacity="0.6" cx="184" cy="184" r="183" fill="url(#paint0_linear_1_8593)" stroke="url(#paint1_linear_1_8593)" stroke-width="2"/>
<circle cx="184" cy="184" r="96" fill="#EAEAF4"/>
<path d="M112.992 193V176.2H121.2C122.336 176.2 123.336 176.424 124.2 176.872C125.08 177.304 125.76 177.912 126.24 178.696C126.736 179.48 126.984 180.384 126.984 181.408C126.984 182.48 126.688 183.424 126.096 184.24C125.504 185.056 124.712 185.664 123.72 186.064L127.44 193H123.552L120.264 186.568H116.472V193H112.992ZM116.472 183.712H120.888C121.672 183.712 122.296 183.504 122.76 183.088C123.24 182.672 123.48 182.128 123.48 181.456C123.48 180.784 123.24 180.24 122.76 179.824C122.296 179.408 121.672 179.2 120.888 179.2H116.472V183.712ZM134.459 193.24C133.211 193.24 132.075 192.952 131.051 192.376C130.043 191.8 129.243 191.024 128.651 190.048C128.059 189.072 127.763 187.976 127.763 186.76C127.763 185.544 128.043 184.448 128.603 183.472C129.179 182.496 129.955 181.72 130.931 181.144C131.907 180.568 132.995 180.28 134.195 180.28C135.395 180.28 136.459 180.576 137.387 181.168C138.315 181.76 139.043 182.56 139.571 183.568C140.115 184.576 140.387 185.72 140.387 187V187.864H131.123C131.267 188.36 131.499 188.808 131.819 189.208C132.155 189.608 132.563 189.92 133.043 190.144C133.539 190.368 134.067 190.48 134.627 190.48C135.187 190.48 135.699 190.392 136.163 190.216C136.643 190.04 137.051 189.792 137.387 189.472L139.547 191.44C138.779 192.064 137.987 192.52 137.171 192.808C136.371 193.096 135.467 193.24 134.459 193.24ZM131.075 185.512H137.147C137.035 185.016 136.827 184.584 136.523 184.216C136.235 183.832 135.883 183.536 135.467 183.328C135.067 183.104 134.619 182.992 134.123 182.992C133.611 182.992 133.147 183.096 132.731 183.304C132.315 183.512 131.963 183.808 131.675 184.192C131.403 184.56 131.203 185 131.075 185.512ZM142.401 193V180.496H145.689V181.456C146.585 180.656 147.673 180.256 148.953 180.256C149.769 180.256 150.497 180.424 151.137 180.76C151.777 181.08 152.305 181.536 152.721 182.128C153.233 181.52 153.833 181.056 154.521 180.736C155.225 180.416 156.001 180.256 156.849 180.256C157.793 180.256 158.617 180.472 159.321 180.904C160.041 181.32 160.601 181.904 161.001 182.656C161.417 183.392 161.625 184.256 161.625 185.248V193H158.361V185.728C158.361 184.912 158.145 184.272 157.713 183.808C157.281 183.328 156.705 183.088 155.985 183.088C155.489 183.088 155.033 183.192 154.617 183.4C154.217 183.608 153.873 183.92 153.585 184.336C153.601 184.48 153.617 184.624 153.633 184.768C153.649 184.912 153.657 185.072 153.657 185.248V193H150.369V185.728C150.369 184.912 150.153 184.272 149.721 183.808C149.305 183.328 148.737 183.088 148.017 183.088C147.521 183.088 147.073 183.184 146.673 183.376C146.289 183.568 145.961 183.856 145.689 184.24V193H142.401ZM168.112 193.216C167.216 193.216 166.424 193.056 165.736 192.736C165.048 192.4 164.512 191.944 164.128 191.368C163.744 190.792 163.552 190.128 163.552 189.376C163.552 188.176 164 187.248 164.896 186.592C165.808 185.92 167.056 185.584 168.64 185.584C169.728 185.584 170.752 185.752 171.712 186.088V185.176C171.712 184.456 171.488 183.912 171.04 183.544C170.592 183.176 169.936 182.992 169.072 182.992C168.544 182.992 167.976 183.08 167.368 183.256C166.76 183.416 166.056 183.672 165.256 184.024L164.056 181.6C165.048 181.152 165.992 180.816 166.888 180.592C167.8 180.368 168.712 180.256 169.624 180.256C171.304 180.256 172.608 180.664 173.536 181.48C174.48 182.28 174.952 183.416 174.952 184.888V193H171.712V192.112C171.2 192.496 170.648 192.776 170.056 192.952C169.464 193.128 168.816 193.216 168.112 193.216ZM166.672 189.304C166.672 189.784 166.88 190.168 167.296 190.456C167.712 190.728 168.264 190.864 168.952 190.864C169.496 190.864 170 190.8 170.464 190.672C170.928 190.528 171.344 190.32 171.712 190.048V188.224C171.312 188.064 170.896 187.944 170.464 187.864C170.032 187.784 169.568 187.744 169.072 187.744C168.32 187.744 167.728 187.888 167.296 188.176C166.88 188.448 166.672 188.824 166.672 189.304ZM177.441 193V180.496H180.729V181.888C181.129 181.344 181.609 180.928 182.169 180.64C182.729 180.352 183.361 180.208 184.065 180.208C184.673 180.224 185.129 180.32 185.433 180.496V183.376C185.193 183.264 184.929 183.184 184.641 183.136C184.353 183.072 184.057 183.04 183.753 183.04C183.113 183.04 182.529 183.2 182.001 183.52C181.473 183.84 181.049 184.296 180.729 184.888V193H177.441ZM187.237 193V176.2L190.525 175.648V185.752L195.925 180.496H199.645L193.741 186.232L200.005 193H195.805L190.525 187.288V193H187.237ZM205.92 193.24C204.672 193.24 203.536 192.952 202.512 192.376C201.504 191.8 200.704 191.024 200.112 190.048C199.52 189.072 199.224 187.976 199.224 186.76C199.224 185.544 199.504 184.448 200.064 183.472C200.64 182.496 201.416 181.72 202.392 181.144C203.368 180.568 204.456 180.28 205.656 180.28C206.856 180.28 207.92 180.576 208.848 181.168C209.776 181.76 210.504 182.56 211.032 183.568C211.576 184.576 211.848 185.72 211.848 187V187.864H202.584C202.728 188.36 202.96 188.808 203.28 189.208C203.616 189.608 204.024 189.92 204.504 190.144C205 190.368 205.528 190.48 206.088 190.48C206.648 190.48 207.16 190.392 207.624 190.216C208.104 190.04 208.512 189.792 208.848 189.472L211.008 191.44C210.24 192.064 209.448 192.52 208.632 192.808C207.832 193.096 206.928 193.24 205.92 193.24ZM202.536 185.512H208.608C208.496 185.016 208.288 184.584 207.984 184.216C207.696 183.832 207.344 183.536 206.928 183.328C206.528 183.104 206.08 182.992 205.584 182.992C205.072 182.992 204.608 183.096 204.192 183.304C203.776 183.512 203.424 183.808 203.136 184.192C202.864 184.56 202.664 185 202.536 185.512ZM219.439 193.192C218.047 193.192 216.991 192.88 216.271 192.256C215.567 191.616 215.215 190.688 215.215 189.472V183.232H212.647V180.496H215.215V177.304L218.503 176.56V180.496H222.079V183.232H218.503V188.8C218.503 189.376 218.631 189.792 218.887 190.048C219.143 190.288 219.591 190.408 220.231 190.408C220.551 190.408 220.839 190.392 221.095 190.36C221.367 190.312 221.663 190.232 221.983 190.12V192.832C221.647 192.944 221.223 193.032 220.711 193.096C220.215 193.16 219.791 193.192 219.439 193.192ZM223.683 193V180.496H226.971V193H223.683ZM225.315 179.008C224.803 179.008 224.363 178.824 223.995 178.456C223.627 178.088 223.443 177.648 223.443 177.136C223.443 176.608 223.627 176.168 223.995 175.816C224.363 175.448 224.803 175.264 225.315 175.264C225.843 175.264 226.283 175.448 226.635 175.816C227.003 176.168 227.187 176.608 227.187 177.136C227.187 177.648 227.003 178.088 226.635 178.456C226.283 178.824 225.843 179.008 225.315 179.008ZM229.542 193V180.496H232.83V181.528C233.774 180.68 234.942 180.256 236.334 180.256C237.31 180.256 238.166 180.472 238.902 180.904C239.654 181.32 240.238 181.904 240.654 182.656C241.07 183.392 241.278 184.256 241.278 185.248V193H237.99V185.728C237.99 184.912 237.758 184.272 237.294 183.808C236.83 183.328 236.198 183.088 235.398 183.088C234.838 183.088 234.342 183.2 233.91 183.424C233.478 183.632 233.118 183.936 232.83 184.336V193H229.542ZM250.057 198.136C249.097 198.136 248.169 198.032 247.273 197.824C246.377 197.632 245.569 197.352 244.849 196.984L246.001 194.44C246.689 194.776 247.361 195.024 248.017 195.184C248.673 195.344 249.329 195.424 249.985 195.424C250.961 195.424 251.697 195.216 252.193 194.8C252.705 194.384 252.961 193.76 252.961 192.928V191.944C251.937 192.696 250.793 193.072 249.529 193.072C248.345 193.072 247.273 192.792 246.313 192.232C245.369 191.656 244.609 190.88 244.033 189.904C243.473 188.928 243.193 187.848 243.193 186.664C243.193 185.48 243.473 184.408 244.033 183.448C244.609 182.488 245.385 181.728 246.361 181.168C247.337 180.592 248.425 180.304 249.625 180.304C250.233 180.304 250.825 180.392 251.401 180.568C251.977 180.744 252.513 180.992 253.009 181.312V180.496H256.249V192.976C256.249 194.624 255.713 195.896 254.641 196.792C253.585 197.688 252.057 198.136 250.057 198.136ZM250.033 190.288C250.641 190.288 251.193 190.192 251.689 190C252.185 189.792 252.609 189.504 252.961 189.136V184.24C252.609 183.888 252.177 183.616 251.665 183.424C251.169 183.216 250.633 183.112 250.057 183.112C249.369 183.112 248.753 183.272 248.209 183.592C247.665 183.896 247.233 184.32 246.913 184.864C246.593 185.392 246.433 185.992 246.433 186.664C246.433 187.352 246.585 187.968 246.889 188.512C247.209 189.056 247.641 189.488 248.185 189.808C248.745 190.128 249.361 190.288 250.033 190.288Z" fill="#1A1B35"/>
<defs>
<linearGradient id="paint0_linear_1_8593" x1="184" y1="2" x2="184" y2="366" gradientUnits="userSpaceOnUse">
<stop stop-color="#316EC4"/>
<stop offset="1" stop-color="#C4D4FF" stop-opacity="0"/>
</linearGradient>
<linearGradient id="paint1_linear_1_8593" x1="49.775" y1="2" x2="297.295" y2="358.72" gradientUnits="userSpaceOnUse">
<stop stop-color="white" stop-opacity="0.12"/>
<stop offset="1" stop-color="white" stop-opacity="0.4"/>
</linearGradient>
</defs>
</svg>
