<svg viewBox="0 0 1002 86" fill="none" xmlns="http://www.w3.org/2000/svg">
					<rect x="1" y="13" width="1000" height="72" rx="16" fill="url(#paint0_linear_1_8437)"
						fill-opacity="0.1" stroke="url(#paint1_linear_1_8437)" />
					<path
						d="M31.903 55.16C31.071 55.16 30.2923 55.016 29.567 54.728C28.8417 54.4293 28.207 54.0187 27.663 53.496C27.1297 52.9733 26.7083 52.3653 26.399 51.672C26.1003 50.968 25.951 50.2107 25.951 49.4C25.951 48.5787 26.1003 47.8213 26.399 47.128C26.7083 46.424 27.135 45.8107 27.679 45.288C28.223 44.7653 28.8523 44.36 29.567 44.072C30.2923 43.7733 31.071 43.624 31.903 43.624C32.5217 43.624 33.119 43.7093 33.695 43.88C34.271 44.0507 34.8043 44.2907 35.295 44.6C35.7963 44.9093 36.223 45.2827 36.575 45.72L35.007 47.272C34.6017 46.7707 34.1323 46.392 33.599 46.136C33.0763 45.88 32.511 45.752 31.903 45.752C31.4017 45.752 30.9323 45.848 30.495 46.04C30.0577 46.2213 29.679 46.4773 29.359 46.808C29.039 47.128 28.7883 47.512 28.607 47.96C28.4257 48.3973 28.335 48.8773 28.335 49.4C28.335 49.912 28.4257 50.392 28.607 50.84C28.7883 51.2773 29.0443 51.6613 29.375 51.992C29.7057 52.312 30.0897 52.5627 30.527 52.744C30.975 52.9253 31.4603 53.016 31.983 53.016C32.5697 53.016 33.119 52.8933 33.631 52.648C34.143 52.4027 34.5963 52.0507 34.991 51.592L36.511 53.096C36.159 53.5227 35.7377 53.8907 35.247 54.2C34.7563 54.5093 34.223 54.7493 33.647 54.92C33.0817 55.08 32.5003 55.16 31.903 55.16ZM40.721 55.16C40.081 55.16 39.5103 55.0213 39.009 54.744C38.5183 54.456 38.129 54.0613 37.841 53.56C37.5637 53.0587 37.425 52.4827 37.425 51.832V46.664H39.617V51.512C39.617 52.0453 39.7717 52.472 40.081 52.792C40.401 53.112 40.8277 53.272 41.361 53.272C41.7237 53.272 42.049 53.2027 42.337 53.064C42.6357 52.9147 42.881 52.7067 43.073 52.44V46.664H45.265V55H43.073V54.328C42.433 54.8827 41.649 55.16 40.721 55.16ZM50.0934 55.16C49.3254 55.16 48.616 55.064 47.9654 54.872C47.3147 54.6693 46.7494 54.3813 46.2694 54.008L47.3574 52.552C47.8374 52.872 48.296 53.112 48.7334 53.272C49.1814 53.432 49.624 53.512 50.0614 53.512C50.552 53.512 50.9414 53.432 51.2294 53.272C51.528 53.1013 51.6774 52.8827 51.6774 52.616C51.6774 52.4027 51.592 52.232 51.4214 52.104C51.2614 51.976 51 51.8853 50.6374 51.832L49.0374 51.592C48.2054 51.464 47.576 51.1973 47.1494 50.792C46.7227 50.376 46.5094 49.832 46.5094 49.16C46.5094 48.616 46.648 48.152 46.9254 47.768C47.2134 47.3733 47.6134 47.0693 48.1254 46.856C48.648 46.632 49.2667 46.52 49.9814 46.52C50.5894 46.52 51.1814 46.6053 51.7574 46.776C52.344 46.9467 52.8934 47.208 53.4054 47.56L52.3494 48.984C51.8907 48.696 51.4534 48.488 51.0374 48.36C50.6214 48.232 50.2 48.168 49.7734 48.168C49.3787 48.168 49.0587 48.2427 48.8134 48.392C48.5787 48.5413 48.4614 48.7387 48.4614 48.984C48.4614 49.208 48.5467 49.384 48.7174 49.512C48.888 49.64 49.1814 49.7307 49.5974 49.784L51.1814 50.024C52.0134 50.1413 52.648 50.408 53.0854 50.824C53.5227 51.2293 53.7414 51.7573 53.7414 52.408C53.7414 52.9413 53.5814 53.416 53.2614 53.832C52.9414 54.2373 52.5094 54.5627 51.9654 54.808C51.4214 55.0427 50.7974 55.16 50.0934 55.16ZM58.6285 55.128C57.7005 55.128 56.9965 54.92 56.5165 54.504C56.0472 54.0773 55.8125 53.4587 55.8125 52.648V48.488H54.1005V46.664H55.8125V44.536L58.0045 44.04V46.664H60.3885V48.488H58.0045V52.2C58.0045 52.584 58.0898 52.8613 58.2605 53.032C58.4312 53.192 58.7298 53.272 59.1565 53.272C59.3698 53.272 59.5618 53.2613 59.7325 53.24C59.9138 53.208 60.1112 53.1547 60.3245 53.08V54.888C60.1005 54.9627 59.8178 55.0213 59.4765 55.064C59.1458 55.1067 58.8632 55.128 58.6285 55.128ZM65.428 55.16C64.596 55.16 63.844 54.968 63.172 54.584C62.5 54.2 61.9667 53.6827 61.572 53.032C61.1773 52.3813 60.98 51.6507 60.98 50.84C60.98 50.0293 61.172 49.2987 61.556 48.648C61.9507 47.9867 62.484 47.464 63.156 47.08C63.8387 46.696 64.596 46.504 65.428 46.504C66.26 46.504 67.012 46.696 67.684 47.08C68.3667 47.464 68.9 47.9867 69.284 48.648C69.6787 49.2987 69.876 50.0293 69.876 50.84C69.876 51.6507 69.6787 52.3813 69.284 53.032C68.9 53.6827 68.372 54.2 67.7 54.584C67.028 54.968 66.2707 55.16 65.428 55.16ZM65.428 53.256C65.8653 53.256 66.2547 53.1493 66.596 52.936C66.948 52.7227 67.2253 52.4347 67.428 52.072C67.6413 51.6987 67.748 51.288 67.748 50.84C67.748 50.3813 67.6413 49.9707 67.428 49.608C67.2253 49.2453 66.948 48.9573 66.596 48.744C66.2547 48.52 65.8653 48.408 65.428 48.408C65.0013 48.408 64.612 48.52 64.26 48.744C63.908 48.9573 63.6307 49.2453 63.428 49.608C63.2253 49.9707 63.124 50.3813 63.124 50.84C63.124 51.288 63.2253 51.6987 63.428 52.072C63.6307 52.4347 63.908 52.7227 64.26 52.936C64.612 53.1493 65.0013 53.256 65.428 53.256ZM71.2234 55V46.664H73.4154V47.304C74.0127 46.7707 74.738 46.504 75.5914 46.504C76.1354 46.504 76.6207 46.616 77.0474 46.84C77.474 47.0533 77.826 47.3573 78.1034 47.752C78.4447 47.3467 78.8447 47.0373 79.3034 46.824C79.7727 46.6107 80.29 46.504 80.8554 46.504C81.4847 46.504 82.034 46.648 82.5034 46.936C82.9834 47.2133 83.3567 47.6027 83.6234 48.104C83.9007 48.5947 84.0394 49.1707 84.0394 49.832V55H81.8634V50.152C81.8634 49.608 81.7194 49.1813 81.4314 48.872C81.1434 48.552 80.7594 48.392 80.2794 48.392C79.9487 48.392 79.6447 48.4613 79.3674 48.6C79.1007 48.7387 78.8714 48.9467 78.6794 49.224C78.69 49.32 78.7007 49.416 78.7114 49.512C78.722 49.608 78.7274 49.7147 78.7274 49.832V55H76.5354V50.152C76.5354 49.608 76.3914 49.1813 76.1034 48.872C75.826 48.552 75.4474 48.392 74.9674 48.392C74.6367 48.392 74.338 48.456 74.0714 48.584C73.8154 48.712 73.5967 48.904 73.4154 49.16V55H71.2234ZM89.7878 55.16C88.9558 55.16 88.1984 54.968 87.5158 54.584C86.8438 54.2 86.3104 53.6827 85.9158 53.032C85.5211 52.3813 85.3238 51.6507 85.3238 50.84C85.3238 50.0293 85.5104 49.2987 85.8838 48.648C86.2678 47.9973 86.7851 47.48 87.4358 47.096C88.0864 46.712 88.8118 46.52 89.6118 46.52C90.4118 46.52 91.1211 46.7173 91.7398 47.112C92.3584 47.5067 92.8438 48.04 93.1958 48.712C93.5584 49.384 93.7398 50.1467 93.7398 51V51.576H87.5638C87.6598 51.9067 87.8144 52.2053 88.0278 52.472C88.2518 52.7387 88.5238 52.9467 88.8438 53.096C89.1744 53.2453 89.5264 53.32 89.8998 53.32C90.2731 53.32 90.6144 53.2613 90.9238 53.144C91.2438 53.0267 91.5158 52.8613 91.7398 52.648L93.1798 53.96C92.6678 54.376 92.1398 54.68 91.5958 54.872C91.0624 55.064 90.4598 55.16 89.7878 55.16ZM87.5318 50.008H91.5798C91.5051 49.6773 91.3664 49.3893 91.1638 49.144C90.9718 48.888 90.7371 48.6907 90.4598 48.552C90.1931 48.4027 89.8944 48.328 89.5638 48.328C89.2224 48.328 88.9131 48.3973 88.6358 48.536C88.3584 48.6747 88.1238 48.872 87.9318 49.128C87.7504 49.3733 87.6171 49.6667 87.5318 50.008ZM95.0828 55V46.664H97.2748V47.592C97.5414 47.2293 97.8614 46.952 98.2348 46.76C98.6081 46.568 99.0294 46.472 99.4988 46.472C99.9041 46.4827 100.208 46.5467 100.411 46.664V48.584C100.251 48.5093 100.075 48.456 99.8828 48.424C99.6908 48.3813 99.4934 48.36 99.2908 48.36C98.8641 48.36 98.4748 48.4667 98.1228 48.68C97.7708 48.8933 97.4881 49.1973 97.2748 49.592V55H95.0828ZM104.977 55V43.8H110.449C111.206 43.8 111.873 43.9493 112.449 44.248C113.035 44.536 113.489 44.9413 113.809 45.464C114.139 45.9867 114.305 46.5893 114.305 47.272C114.305 47.9867 114.107 48.616 113.713 49.16C113.318 49.704 112.79 50.1093 112.129 50.376L114.609 55H112.017L109.825 50.712H107.297V55H104.977ZM107.297 48.808H110.241C110.763 48.808 111.179 48.6693 111.489 48.392C111.809 48.1147 111.969 47.752 111.969 47.304C111.969 46.856 111.809 46.4933 111.489 46.216C111.179 45.9387 110.763 45.8 110.241 45.8H107.297V48.808ZM119.288 55.16C118.456 55.16 117.698 54.968 117.016 54.584C116.344 54.2 115.81 53.6827 115.416 53.032C115.021 52.3813 114.824 51.6507 114.824 50.84C114.824 50.0293 115.01 49.2987 115.384 48.648C115.768 47.9973 116.285 47.48 116.936 47.096C117.586 46.712 118.312 46.52 119.112 46.52C119.912 46.52 120.621 46.7173 121.24 47.112C121.858 47.5067 122.344 48.04 122.696 48.712C123.058 49.384 123.24 50.1467 123.24 51V51.576H117.064C117.16 51.9067 117.314 52.2053 117.528 52.472C117.752 52.7387 118.024 52.9467 118.344 53.096C118.674 53.2453 119.026 53.32 119.4 53.32C119.773 53.32 120.114 53.2613 120.424 53.144C120.744 53.0267 121.016 52.8613 121.24 52.648L122.68 53.96C122.168 54.376 121.64 54.68 121.096 54.872C120.562 55.064 119.96 55.16 119.288 55.16ZM117.032 50.008H121.08C121.005 49.6773 120.866 49.3893 120.664 49.144C120.472 48.888 120.237 48.6907 119.96 48.552C119.693 48.4027 119.394 48.328 119.064 48.328C118.722 48.328 118.413 48.3973 118.136 48.536C117.858 48.6747 117.624 48.872 117.432 49.128C117.25 49.3733 117.117 49.6667 117.032 50.008ZM128.3 55.128C127.372 55.128 126.668 54.92 126.188 54.504C125.719 54.0773 125.484 53.4587 125.484 52.648V48.488H123.772V46.664H125.484V44.536L127.676 44.04V46.664H130.06V48.488H127.676V52.2C127.676 52.584 127.762 52.8613 127.932 53.032C128.103 53.192 128.402 53.272 128.828 53.272C129.042 53.272 129.234 53.2613 129.404 53.24C129.586 53.208 129.783 53.1547 129.996 53.08V54.888C129.772 54.9627 129.49 55.0213 129.148 55.064C128.818 55.1067 128.535 55.128 128.3 55.128ZM134.362 55.16C133.722 55.16 133.151 55.0213 132.65 54.744C132.159 54.456 131.77 54.0613 131.482 53.56C131.204 53.0587 131.066 52.4827 131.066 51.832V46.664H133.258V51.512C133.258 52.0453 133.412 52.472 133.722 52.792C134.042 53.112 134.468 53.272 135.002 53.272C135.364 53.272 135.69 53.2027 135.978 53.064C136.276 52.9147 136.522 52.7067 136.714 52.44V46.664H138.906V55H136.714V54.328C136.074 54.8827 135.29 55.16 134.362 55.16ZM140.614 55V46.664H142.806V47.592C143.073 47.2293 143.393 46.952 143.766 46.76C144.139 46.568 144.561 46.472 145.03 46.472C145.435 46.4827 145.739 46.5467 145.942 46.664V48.584C145.782 48.5093 145.606 48.456 145.414 48.424C145.222 48.3813 145.025 48.36 144.822 48.36C144.395 48.36 144.006 48.4667 143.654 48.68C143.302 48.8933 143.019 49.1973 142.806 49.592V55H140.614ZM147.145 55V46.664H149.337V47.352C149.967 46.7867 150.745 46.504 151.673 46.504C152.324 46.504 152.895 46.648 153.385 46.936C153.887 47.2133 154.276 47.6027 154.553 48.104C154.831 48.5947 154.969 49.1707 154.969 49.832V55H152.777V50.152C152.777 49.608 152.623 49.1813 152.313 48.872C152.004 48.552 151.583 48.392 151.049 48.392C150.676 48.392 150.345 48.4667 150.057 48.616C149.769 48.7547 149.529 48.9573 149.337 49.224V55H147.145ZM159.75 55.16C158.982 55.16 158.272 55.064 157.622 54.872C156.971 54.6693 156.406 54.3813 155.926 54.008L157.014 52.552C157.494 52.872 157.952 53.112 158.39 53.272C158.838 53.432 159.28 53.512 159.718 53.512C160.208 53.512 160.598 53.432 160.886 53.272C161.184 53.1013 161.334 52.8827 161.334 52.616C161.334 52.4027 161.248 52.232 161.078 52.104C160.918 51.976 160.656 51.8853 160.294 51.832L158.694 51.592C157.862 51.464 157.232 51.1973 156.806 50.792C156.379 50.376 156.166 49.832 156.166 49.16C156.166 48.616 156.304 48.152 156.582 47.768C156.87 47.3733 157.27 47.0693 157.782 46.856C158.304 46.632 158.923 46.52 159.638 46.52C160.246 46.52 160.838 46.6053 161.414 46.776C162 46.9467 162.55 47.208 163.062 47.56L162.006 48.984C161.547 48.696 161.11 48.488 160.694 48.36C160.278 48.232 159.856 48.168 159.43 48.168C159.035 48.168 158.715 48.2427 158.47 48.392C158.235 48.5413 158.118 48.7387 158.118 48.984C158.118 49.208 158.203 49.384 158.374 49.512C158.544 49.64 158.838 49.7307 159.254 49.784L160.838 50.024C161.67 50.1413 162.304 50.408 162.742 50.824C163.179 51.2293 163.398 51.7573 163.398 52.408C163.398 52.9413 163.238 53.416 162.918 53.832C162.598 54.2373 162.166 54.5627 161.622 54.808C161.078 55.0427 160.454 55.16 159.75 55.16Z"
						fill="white" />
					<path
						d="M247.263 55L244.783 43.8H247.167L248.687 51.384L250.863 43.8H253.055L255.231 51.368L256.751 43.8H259.055L256.591 55H254.143L251.935 47.192L249.695 55H247.263ZM262.278 55.144C261.68 55.144 261.152 55.0373 260.694 54.824C260.235 54.6 259.878 54.296 259.622 53.912C259.366 53.528 259.238 53.0853 259.238 52.584C259.238 51.784 259.536 51.1653 260.134 50.728C260.742 50.28 261.574 50.056 262.63 50.056C263.355 50.056 264.038 50.168 264.678 50.392V49.784C264.678 49.304 264.528 48.9413 264.23 48.696C263.931 48.4507 263.494 48.328 262.918 48.328C262.566 48.328 262.187 48.3867 261.782 48.504C261.376 48.6107 260.907 48.7813 260.374 49.016L259.574 47.4C260.235 47.1013 260.864 46.8773 261.462 46.728C262.07 46.5787 262.678 46.504 263.286 46.504C264.406 46.504 265.275 46.776 265.894 47.32C266.523 47.8533 266.838 48.6107 266.838 49.592V55H264.678V54.408C264.336 54.664 263.968 54.8507 263.574 54.968C263.179 55.0853 262.747 55.144 262.278 55.144ZM261.318 52.536C261.318 52.856 261.456 53.112 261.734 53.304C262.011 53.4853 262.379 53.576 262.838 53.576C263.2 53.576 263.536 53.5333 263.846 53.448C264.155 53.352 264.432 53.2133 264.678 53.032V51.816C264.411 51.7093 264.134 51.6293 263.846 51.576C263.558 51.5227 263.248 51.496 262.918 51.496C262.416 51.496 262.022 51.592 261.734 51.784C261.456 51.9653 261.318 52.216 261.318 52.536ZM268.497 55V46.664H270.689V47.592C270.955 47.2293 271.275 46.952 271.649 46.76C272.022 46.568 272.443 46.472 272.913 46.472C273.318 46.4827 273.622 46.5467 273.825 46.664V48.584C273.665 48.5093 273.489 48.456 273.297 48.424C273.105 48.3813 272.907 48.36 272.705 48.36C272.278 48.36 271.889 48.4667 271.537 48.68C271.185 48.8933 270.902 49.1973 270.689 49.592V55H268.497ZM275.028 55V46.664H277.22V47.592C277.487 47.2293 277.807 46.952 278.18 46.76C278.553 46.568 278.975 46.472 279.444 46.472C279.849 46.4827 280.153 46.5467 280.356 46.664V48.584C280.196 48.5093 280.02 48.456 279.828 48.424C279.636 48.3813 279.439 48.36 279.236 48.36C278.809 48.36 278.42 48.4667 278.068 48.68C277.716 48.8933 277.433 49.1973 277.22 49.592V55H275.028ZM283.981 55.144C283.384 55.144 282.856 55.0373 282.397 54.824C281.938 54.6 281.581 54.296 281.325 53.912C281.069 53.528 280.941 53.0853 280.941 52.584C280.941 51.784 281.24 51.1653 281.837 50.728C282.445 50.28 283.277 50.056 284.333 50.056C285.058 50.056 285.741 50.168 286.381 50.392V49.784C286.381 49.304 286.232 48.9413 285.933 48.696C285.634 48.4507 285.197 48.328 284.621 48.328C284.269 48.328 283.89 48.3867 283.485 48.504C283.08 48.6107 282.61 48.7813 282.077 49.016L281.277 47.4C281.938 47.1013 282.568 46.8773 283.165 46.728C283.773 46.5787 284.381 46.504 284.989 46.504C286.109 46.504 286.978 46.776 287.597 47.32C288.226 47.8533 288.541 48.6107 288.541 49.592V55H286.381V54.408C286.04 54.664 285.672 54.8507 285.277 54.968C284.882 55.0853 284.45 55.144 283.981 55.144ZM283.021 52.536C283.021 52.856 283.16 53.112 283.437 53.304C283.714 53.4853 284.082 53.576 284.541 53.576C284.904 53.576 285.24 53.5333 285.549 53.448C285.858 53.352 286.136 53.2133 286.381 53.032V51.816C286.114 51.7093 285.837 51.6293 285.549 51.576C285.261 51.5227 284.952 51.496 284.621 51.496C284.12 51.496 283.725 51.592 283.437 51.784C283.16 51.9653 283.021 52.216 283.021 52.536ZM290.2 55V46.664H292.392V47.352C293.021 46.7867 293.8 46.504 294.728 46.504C295.379 46.504 295.949 46.648 296.44 46.936C296.941 47.2133 297.331 47.6027 297.608 48.104C297.885 48.5947 298.024 49.1707 298.024 49.832V55H295.832V50.152C295.832 49.608 295.677 49.1813 295.368 48.872C295.059 48.552 294.637 48.392 294.104 48.392C293.731 48.392 293.4 48.4667 293.112 48.616C292.824 48.7547 292.584 48.9573 292.392 49.224V55H290.2ZM303.402 55.128C302.474 55.128 301.77 54.92 301.29 54.504C300.821 54.0773 300.586 53.4587 300.586 52.648V48.488H298.874V46.664H300.586V44.536L302.778 44.04V46.664H305.162V48.488H302.778V52.2C302.778 52.584 302.863 52.8613 303.034 53.032C303.205 53.192 303.503 53.272 303.93 53.272C304.143 53.272 304.335 53.2613 304.506 53.24C304.687 53.208 304.885 53.1547 305.098 53.08V54.888C304.874 54.9627 304.591 55.0213 304.25 55.064C303.919 55.1067 303.637 55.128 303.402 55.128ZM307.203 58.44C307.011 58.44 306.825 58.4293 306.643 58.408C306.473 58.3973 306.329 58.3813 306.211 58.36V56.472C306.425 56.5147 306.681 56.536 306.979 56.536C307.779 56.536 308.334 56.1573 308.643 55.4L308.771 55.08L305.523 46.664H307.939L310.019 52.344L312.371 46.664H314.739L310.899 55.672C310.611 56.344 310.297 56.8827 309.955 57.288C309.614 57.6933 309.219 57.9867 308.771 58.168C308.334 58.3493 307.811 58.44 307.203 58.44ZM318.985 55V43.8H324.457C325.214 43.8 325.881 43.9493 326.457 44.248C327.043 44.536 327.497 44.9413 327.817 45.464C328.147 45.9867 328.313 46.5893 328.313 47.272C328.313 47.9867 328.115 48.616 327.721 49.16C327.326 49.704 326.798 50.1093 326.137 50.376L328.617 55H326.025L323.833 50.712H321.305V55H318.985ZM321.305 48.808H324.249C324.771 48.808 325.187 48.6693 325.497 48.392C325.817 48.1147 325.977 47.752 325.977 47.304C325.977 46.856 325.817 46.4933 325.497 46.216C325.187 45.9387 324.771 45.8 324.249 45.8H321.305V48.808ZM333.296 55.16C332.464 55.16 331.706 54.968 331.024 54.584C330.352 54.2 329.818 53.6827 329.424 53.032C329.029 52.3813 328.832 51.6507 328.832 50.84C328.832 50.0293 329.018 49.2987 329.392 48.648C329.776 47.9973 330.293 47.48 330.944 47.096C331.594 46.712 332.32 46.52 333.12 46.52C333.92 46.52 334.629 46.7173 335.248 47.112C335.866 47.5067 336.352 48.04 336.704 48.712C337.066 49.384 337.248 50.1467 337.248 51V51.576H331.072C331.168 51.9067 331.322 52.2053 331.536 52.472C331.76 52.7387 332.032 52.9467 332.352 53.096C332.682 53.2453 333.034 53.32 333.408 53.32C333.781 53.32 334.122 53.2613 334.432 53.144C334.752 53.0267 335.024 52.8613 335.248 52.648L336.688 53.96C336.176 54.376 335.648 54.68 335.104 54.872C334.57 55.064 333.968 55.16 333.296 55.16ZM331.04 50.008H335.088C335.013 49.6773 334.874 49.3893 334.672 49.144C334.48 48.888 334.245 48.6907 333.968 48.552C333.701 48.4027 333.402 48.328 333.072 48.328C332.73 48.328 332.421 48.3973 332.144 48.536C331.866 48.6747 331.632 48.872 331.44 49.128C331.258 49.3733 331.125 49.6667 331.04 50.008ZM342.308 55.128C341.38 55.128 340.676 54.92 340.196 54.504C339.727 54.0773 339.492 53.4587 339.492 52.648V48.488H337.78V46.664H339.492V44.536L341.684 44.04V46.664H344.068V48.488H341.684V52.2C341.684 52.584 341.77 52.8613 341.94 53.032C342.111 53.192 342.41 53.272 342.836 53.272C343.05 53.272 343.242 53.2613 343.412 53.24C343.594 53.208 343.791 53.1547 344.004 53.08V54.888C343.78 54.9627 343.498 55.0213 343.156 55.064C342.826 55.1067 342.543 55.128 342.308 55.128ZM348.369 55.16C347.729 55.16 347.159 55.0213 346.657 54.744C346.167 54.456 345.777 54.0613 345.489 53.56C345.212 53.0587 345.073 52.4827 345.073 51.832V46.664H347.265V51.512C347.265 52.0453 347.42 52.472 347.729 52.792C348.049 53.112 348.476 53.272 349.009 53.272C349.372 53.272 349.697 53.2027 349.985 53.064C350.284 52.9147 350.529 52.7067 350.721 52.44V46.664H352.913V55H350.721V54.328C350.081 54.8827 349.297 55.16 348.369 55.16ZM354.622 55V46.664H356.814V47.592C357.08 47.2293 357.4 46.952 357.774 46.76C358.147 46.568 358.568 46.472 359.038 46.472C359.443 46.4827 359.747 46.5467 359.95 46.664V48.584C359.79 48.5093 359.614 48.456 359.422 48.424C359.23 48.3813 359.032 48.36 358.83 48.36C358.403 48.36 358.014 48.4667 357.662 48.68C357.31 48.8933 357.027 49.1973 356.814 49.592V55H354.622ZM361.153 55V46.664H363.345V47.352C363.974 46.7867 364.753 46.504 365.681 46.504C366.332 46.504 366.902 46.648 367.393 46.936C367.894 47.2133 368.284 47.6027 368.561 48.104C368.838 48.5947 368.977 49.1707 368.977 49.832V55H366.785V50.152C366.785 49.608 366.63 49.1813 366.321 48.872C366.012 48.552 365.59 48.392 365.057 48.392C364.684 48.392 364.353 48.4667 364.065 48.616C363.777 48.7547 363.537 48.9573 363.345 49.224V55H361.153ZM373.757 55.16C372.989 55.16 372.28 55.064 371.629 54.872C370.979 54.6693 370.413 54.3813 369.933 54.008L371.021 52.552C371.501 52.872 371.96 53.112 372.397 53.272C372.845 53.432 373.288 53.512 373.725 53.512C374.216 53.512 374.605 53.432 374.893 53.272C375.192 53.1013 375.341 52.8827 375.341 52.616C375.341 52.4027 375.256 52.232 375.085 52.104C374.925 51.976 374.664 51.8853 374.301 51.832L372.701 51.592C371.869 51.464 371.24 51.1973 370.813 50.792C370.387 50.376 370.173 49.832 370.173 49.16C370.173 48.616 370.312 48.152 370.589 47.768C370.877 47.3733 371.277 47.0693 371.789 46.856C372.312 46.632 372.931 46.52 373.645 46.52C374.253 46.52 374.845 46.6053 375.421 46.776C376.008 46.9467 376.557 47.208 377.069 47.56L376.013 48.984C375.555 48.696 375.117 48.488 374.701 48.36C374.285 48.232 373.864 48.168 373.437 48.168C373.043 48.168 372.723 48.2427 372.477 48.392C372.243 48.5413 372.125 48.7387 372.125 48.984C372.125 49.208 372.211 49.384 372.381 49.512C372.552 49.64 372.845 49.7307 373.261 49.784L374.845 50.024C375.677 50.1413 376.312 50.408 376.749 50.824C377.187 51.2293 377.405 51.7573 377.405 52.408C377.405 52.9413 377.245 53.416 376.925 53.832C376.605 54.2373 376.173 54.5627 375.629 54.808C375.085 55.0427 374.461 55.16 373.757 55.16Z"
						fill="white" />
					<path
						d="M463.98 55.16C462.966 55.16 462.086 54.9573 461.34 54.552C460.604 54.1467 460.033 53.5707 459.628 52.824C459.222 52.0667 459.02 51.1813 459.02 50.168V43.8H461.34V50.168C461.34 50.744 461.446 51.2507 461.66 51.688C461.884 52.1147 462.193 52.4453 462.588 52.68C462.993 52.904 463.462 53.016 463.996 53.016C464.529 53.016 464.993 52.904 465.388 52.68C465.782 52.4453 466.086 52.1147 466.3 51.688C466.524 51.2507 466.635 50.744 466.635 50.168V43.8H468.94V50.168C468.94 51.1707 468.737 52.0507 468.332 52.808C467.926 53.5547 467.35 54.136 466.604 54.552C465.868 54.9573 464.993 55.16 463.98 55.16ZM470.645 55V46.664H472.837V47.352C473.467 46.7867 474.245 46.504 475.173 46.504C475.824 46.504 476.395 46.648 476.885 46.936C477.387 47.2133 477.776 47.6027 478.053 48.104C478.331 48.5947 478.469 49.1707 478.469 49.832V55H476.277V50.152C476.277 49.608 476.123 49.1813 475.813 48.872C475.504 48.552 475.083 48.392 474.549 48.392C474.176 48.392 473.845 48.4667 473.557 48.616C473.269 48.7547 473.029 48.9573 472.837 49.224V55H470.645ZM483.25 55.16C482.482 55.16 481.772 55.064 481.122 54.872C480.471 54.6693 479.906 54.3813 479.426 54.008L480.514 52.552C480.994 52.872 481.452 53.112 481.89 53.272C482.338 53.432 482.78 53.512 483.218 53.512C483.708 53.512 484.098 53.432 484.386 53.272C484.684 53.1013 484.834 52.8827 484.834 52.616C484.834 52.4027 484.748 52.232 484.578 52.104C484.418 51.976 484.156 51.8853 483.794 51.832L482.194 51.592C481.362 51.464 480.732 51.1973 480.306 50.792C479.879 50.376 479.666 49.832 479.666 49.16C479.666 48.616 479.804 48.152 480.082 47.768C480.37 47.3733 480.77 47.0693 481.282 46.856C481.804 46.632 482.423 46.52 483.138 46.52C483.746 46.52 484.338 46.6053 484.914 46.776C485.5 46.9467 486.05 47.208 486.562 47.56L485.506 48.984C485.047 48.696 484.61 48.488 484.194 48.36C483.778 48.232 483.356 48.168 482.93 48.168C482.535 48.168 482.215 48.2427 481.97 48.392C481.735 48.5413 481.618 48.7387 481.618 48.984C481.618 49.208 481.703 49.384 481.874 49.512C482.044 49.64 482.338 49.7307 482.754 49.784L484.338 50.024C485.17 50.1413 485.804 50.408 486.242 50.824C486.679 51.2293 486.898 51.7573 486.898 52.408C486.898 52.9413 486.738 53.416 486.418 53.832C486.098 54.2373 485.666 54.5627 485.122 54.808C484.578 55.0427 483.954 55.16 483.25 55.16ZM492.131 55.16C491.299 55.16 490.547 54.968 489.875 54.584C489.203 54.2 488.67 53.6827 488.275 53.032C487.88 52.3813 487.683 51.6507 487.683 50.84C487.683 50.0293 487.875 49.2987 488.259 48.648C488.654 47.9867 489.187 47.464 489.859 47.08C490.542 46.696 491.299 46.504 492.131 46.504C492.963 46.504 493.715 46.696 494.387 47.08C495.07 47.464 495.603 47.9867 495.987 48.648C496.382 49.2987 496.579 50.0293 496.579 50.84C496.579 51.6507 496.382 52.3813 495.987 53.032C495.603 53.6827 495.075 54.2 494.403 54.584C493.731 54.968 492.974 55.16 492.131 55.16ZM492.131 53.256C492.568 53.256 492.958 53.1493 493.299 52.936C493.651 52.7227 493.928 52.4347 494.131 52.072C494.344 51.6987 494.451 51.288 494.451 50.84C494.451 50.3813 494.344 49.9707 494.131 49.608C493.928 49.2453 493.651 48.9573 493.299 48.744C492.958 48.52 492.568 48.408 492.131 48.408C491.704 48.408 491.315 48.52 490.963 48.744C490.611 48.9573 490.334 49.2453 490.131 49.608C489.928 49.9707 489.827 50.3813 489.827 50.84C489.827 51.288 489.928 51.6987 490.131 52.072C490.334 52.4347 490.611 52.7227 490.963 52.936C491.315 53.1493 491.704 53.256 492.131 53.256ZM497.927 55V43.8L500.119 43.432V55H497.927ZM505.689 55.112C504.899 55.112 504.185 54.92 503.545 54.536C502.905 54.152 502.393 53.64 502.009 53C501.635 52.3493 501.449 51.624 501.449 50.824C501.449 50.024 501.635 49.304 502.009 48.664C502.393 48.0133 502.91 47.5013 503.561 47.128C504.211 46.744 504.942 46.552 505.753 46.552C506.169 46.552 506.569 46.6107 506.953 46.728C507.337 46.8347 507.694 46.9947 508.025 47.208V43.8L510.217 43.432V55H508.057V54.312C507.374 54.8453 506.585 55.112 505.689 55.112ZM506.041 53.24C506.446 53.24 506.814 53.176 507.145 53.048C507.486 52.9093 507.779 52.7067 508.025 52.44V49.192C507.779 48.9467 507.486 48.7547 507.145 48.616C506.803 48.4773 506.435 48.408 506.041 48.408C505.582 48.408 505.166 48.5147 504.793 48.728C504.43 48.9307 504.142 49.2187 503.929 49.592C503.715 49.9547 503.609 50.3653 503.609 50.824C503.609 51.2827 503.715 51.6933 503.929 52.056C504.142 52.4187 504.43 52.7067 504.793 52.92C505.166 53.1333 505.582 53.24 506.041 53.24ZM515.289 55V43.8H517.609V55H515.289ZM519.505 55V46.664H521.697V47.352C522.326 46.7867 523.105 46.504 524.033 46.504C524.683 46.504 525.254 46.648 525.745 46.936C526.246 47.2133 526.635 47.6027 526.913 48.104C527.19 48.5947 527.329 49.1707 527.329 49.832V55H525.137V50.152C525.137 49.608 524.982 49.1813 524.673 48.872C524.363 48.552 523.942 48.392 523.409 48.392C523.035 48.392 522.705 48.4667 522.417 48.616C522.129 48.7547 521.889 48.9573 521.697 49.224V55H519.505ZM531.24 55L527.672 46.664H530.056L532.344 52.216L534.616 46.664H536.952L533.368 55H531.24ZM541.663 55.16C540.831 55.16 540.073 54.968 539.391 54.584C538.719 54.2 538.185 53.6827 537.791 53.032C537.396 52.3813 537.199 51.6507 537.199 50.84C537.199 50.0293 537.385 49.2987 537.759 48.648C538.143 47.9973 538.66 47.48 539.311 47.096C539.961 46.712 540.687 46.52 541.487 46.52C542.287 46.52 542.996 46.7173 543.615 47.112C544.233 47.5067 544.719 48.04 545.071 48.712C545.433 49.384 545.615 50.1467 545.615 51V51.576H539.439C539.535 51.9067 539.689 52.2053 539.903 52.472C540.127 52.7387 540.399 52.9467 540.719 53.096C541.049 53.2453 541.401 53.32 541.775 53.32C542.148 53.32 542.489 53.2613 542.799 53.144C543.119 53.0267 543.391 52.8613 543.615 52.648L545.055 53.96C544.543 54.376 544.015 54.68 543.471 54.872C542.937 55.064 542.335 55.16 541.663 55.16ZM539.407 50.008H543.455C543.38 49.6773 543.241 49.3893 543.039 49.144C542.847 48.888 542.612 48.6907 542.335 48.552C542.068 48.4027 541.769 48.328 541.439 48.328C541.097 48.328 540.788 48.3973 540.511 48.536C540.233 48.6747 539.999 48.872 539.807 49.128C539.625 49.3733 539.492 49.6667 539.407 50.008ZM546.958 55V46.664H549.15V47.352C549.779 46.7867 550.558 46.504 551.486 46.504C552.136 46.504 552.707 46.648 553.198 46.936C553.699 47.2133 554.088 47.6027 554.366 48.104C554.643 48.5947 554.782 49.1707 554.782 49.832V55H552.59V50.152C552.59 49.608 552.435 49.1813 552.126 48.872C551.816 48.552 551.395 48.392 550.862 48.392C550.488 48.392 550.158 48.4667 549.87 48.616C549.582 48.7547 549.342 48.9573 549.15 49.224V55H546.958ZM560.16 55.128C559.232 55.128 558.528 54.92 558.048 54.504C557.578 54.0773 557.344 53.4587 557.344 52.648V48.488H555.632V46.664H557.344V44.536L559.536 44.04V46.664H561.92V48.488H559.536V52.2C559.536 52.584 559.621 52.8613 559.792 53.032C559.962 53.192 560.261 53.272 560.688 53.272C560.901 53.272 561.093 53.2613 561.264 53.24C561.445 53.208 561.642 53.1547 561.856 53.08V54.888C561.632 54.9627 561.349 55.0213 561.008 55.064C560.677 55.1067 560.394 55.128 560.16 55.128ZM566.959 55.16C566.127 55.16 565.375 54.968 564.703 54.584C564.031 54.2 563.498 53.6827 563.103 53.032C562.709 52.3813 562.511 51.6507 562.511 50.84C562.511 50.0293 562.703 49.2987 563.087 48.648C563.482 47.9867 564.015 47.464 564.687 47.08C565.37 46.696 566.127 46.504 566.959 46.504C567.791 46.504 568.543 46.696 569.215 47.08C569.898 47.464 570.431 47.9867 570.815 48.648C571.21 49.2987 571.407 50.0293 571.407 50.84C571.407 51.6507 571.21 52.3813 570.815 53.032C570.431 53.6827 569.903 54.2 569.231 54.584C568.559 54.968 567.802 55.16 566.959 55.16ZM566.959 53.256C567.397 53.256 567.786 53.1493 568.127 52.936C568.479 52.7227 568.757 52.4347 568.959 52.072C569.173 51.6987 569.279 51.288 569.279 50.84C569.279 50.3813 569.173 49.9707 568.959 49.608C568.757 49.2453 568.479 48.9573 568.127 48.744C567.786 48.52 567.397 48.408 566.959 48.408C566.533 48.408 566.143 48.52 565.791 48.744C565.439 48.9573 565.162 49.2453 564.959 49.608C564.757 49.9707 564.655 50.3813 564.655 50.84C564.655 51.288 564.757 51.6987 564.959 52.072C565.162 52.4347 565.439 52.7227 565.791 52.936C566.143 53.1493 566.533 53.256 566.959 53.256ZM572.755 55V46.664H574.947V47.592C575.213 47.2293 575.533 46.952 575.907 46.76C576.28 46.568 576.701 46.472 577.171 46.472C577.576 46.4827 577.88 46.5467 578.083 46.664V48.584C577.923 48.5093 577.747 48.456 577.555 48.424C577.363 48.3813 577.165 48.36 576.963 48.36C576.536 48.36 576.147 48.4667 575.795 48.68C575.443 48.8933 575.16 49.1973 574.947 49.592V55H572.755ZM580.258 58.44C580.066 58.44 579.879 58.4293 579.698 58.408C579.527 58.3973 579.383 58.3813 579.266 58.36V56.472C579.479 56.5147 579.735 56.536 580.034 56.536C580.834 56.536 581.389 56.1573 581.698 55.4L581.826 55.08L578.578 46.664H580.994L583.074 52.344L585.426 46.664H587.794L583.954 55.672C583.666 56.344 583.351 56.8827 583.01 57.288C582.669 57.6933 582.274 57.9867 581.826 58.168C581.389 58.3493 580.866 58.44 580.258 58.44Z"
						fill="white" />
					<path
						d="M669.211 55V43.8H677.819V45.816H671.531V48.376H675.675V50.328H671.531V52.984H677.883V55H669.211ZM684.355 55.176C683.523 55.176 682.75 55.032 682.035 54.744C681.321 54.4453 680.691 54.0347 680.147 53.512C679.614 52.9787 679.193 52.3653 678.883 51.672C678.585 50.968 678.435 50.2107 678.435 49.4C678.435 48.5893 678.585 47.8373 678.883 47.144C679.193 46.44 679.614 45.8267 680.147 45.304C680.691 44.7707 681.321 44.36 682.035 44.072C682.75 43.7733 683.523 43.624 684.355 43.624C685.187 43.624 685.961 43.7733 686.675 44.072C687.401 44.36 688.03 44.7707 688.563 45.304C689.107 45.8267 689.529 46.44 689.827 47.144C690.126 47.8373 690.275 48.5893 690.275 49.4C690.275 50.2107 690.126 50.968 689.827 51.672C689.529 52.3653 689.107 52.9787 688.563 53.512C688.03 54.0347 687.401 54.4453 686.675 54.744C685.961 55.032 685.187 55.176 684.355 55.176ZM684.355 53.048C684.867 53.048 685.337 52.9573 685.763 52.776C686.19 52.584 686.563 52.328 686.883 52.008C687.203 51.6773 687.454 51.288 687.635 50.84C687.817 50.392 687.907 49.912 687.907 49.4C687.907 48.8773 687.817 48.3973 687.635 47.96C687.454 47.512 687.203 47.128 686.883 46.808C686.563 46.4773 686.19 46.2213 685.763 46.04C685.337 45.848 684.867 45.752 684.355 45.752C683.854 45.752 683.39 45.848 682.963 46.04C682.537 46.2213 682.163 46.4773 681.843 46.808C681.523 47.128 681.273 47.512 681.091 47.96C680.91 48.3973 680.819 48.872 680.819 49.384C680.819 49.9067 680.91 50.392 681.091 50.84C681.273 51.288 681.523 51.6773 681.843 52.008C682.163 52.328 682.537 52.584 682.963 52.776C683.39 52.9573 683.854 53.048 684.355 53.048ZM691.883 55V43.8H694.203V52.952H700.331V55H691.883ZM705.149 55V43.8H710.621C711.378 43.8 712.045 43.9493 712.621 44.248C713.207 44.536 713.661 44.9413 713.981 45.464C714.311 45.9867 714.477 46.5893 714.477 47.272C714.477 47.9867 714.279 48.616 713.885 49.16C713.49 49.704 712.962 50.1093 712.301 50.376L714.781 55H712.189L709.997 50.712H707.469V55H705.149ZM707.469 48.808H710.413C710.935 48.808 711.351 48.6693 711.661 48.392C711.981 48.1147 712.141 47.752 712.141 47.304C712.141 46.856 711.981 46.4933 711.661 46.216C711.351 45.9387 710.935 45.8 710.413 45.8H707.469V48.808ZM719.46 55.16C718.628 55.16 717.87 54.968 717.188 54.584C716.516 54.2 715.982 53.6827 715.588 53.032C715.193 52.3813 714.996 51.6507 714.996 50.84C714.996 50.0293 715.182 49.2987 715.556 48.648C715.94 47.9973 716.457 47.48 717.108 47.096C717.758 46.712 718.484 46.52 719.284 46.52C720.084 46.52 720.793 46.7173 721.412 47.112C722.03 47.5067 722.516 48.04 722.868 48.712C723.23 49.384 723.412 50.1467 723.412 51V51.576H717.236C717.332 51.9067 717.486 52.2053 717.7 52.472C717.924 52.7387 718.196 52.9467 718.516 53.096C718.846 53.2453 719.198 53.32 719.572 53.32C719.945 53.32 720.286 53.2613 720.596 53.144C720.916 53.0267 721.188 52.8613 721.412 52.648L722.852 53.96C722.34 54.376 721.812 54.68 721.268 54.872C720.734 55.064 720.132 55.16 719.46 55.16ZM717.204 50.008H721.252C721.177 49.6773 721.038 49.3893 720.836 49.144C720.644 48.888 720.409 48.6907 720.132 48.552C719.865 48.4027 719.566 48.328 719.236 48.328C718.894 48.328 718.585 48.3973 718.308 48.536C718.03 48.6747 717.796 48.872 717.604 49.128C717.422 49.3733 717.289 49.6667 717.204 50.008ZM728.472 55.128C727.544 55.128 726.84 54.92 726.36 54.504C725.891 54.0773 725.656 53.4587 725.656 52.648V48.488H723.944V46.664H725.656V44.536L727.848 44.04V46.664H730.232V48.488H727.848V52.2C727.848 52.584 727.934 52.8613 728.104 53.032C728.275 53.192 728.574 53.272 729 53.272C729.214 53.272 729.406 53.2613 729.576 53.24C729.758 53.208 729.955 53.1547 730.168 53.08V54.888C729.944 54.9627 729.662 55.0213 729.32 55.064C728.99 55.1067 728.707 55.128 728.472 55.128ZM734.534 55.16C733.894 55.16 733.323 55.0213 732.822 54.744C732.331 54.456 731.942 54.0613 731.654 53.56C731.376 53.0587 731.238 52.4827 731.238 51.832V46.664H733.43V51.512C733.43 52.0453 733.584 52.472 733.894 52.792C734.214 53.112 734.64 53.272 735.174 53.272C735.536 53.272 735.862 53.2027 736.15 53.064C736.448 52.9147 736.694 52.7067 736.886 52.44V46.664H739.078V55H736.886V54.328C736.246 54.8827 735.462 55.16 734.534 55.16ZM740.786 55V46.664H742.978V47.592C743.245 47.2293 743.565 46.952 743.938 46.76C744.311 46.568 744.733 46.472 745.202 46.472C745.607 46.4827 745.911 46.5467 746.114 46.664V48.584C745.954 48.5093 745.778 48.456 745.586 48.424C745.394 48.3813 745.197 48.36 744.994 48.36C744.567 48.36 744.178 48.4667 743.826 48.68C743.474 48.8933 743.191 49.1973 742.978 49.592V55H740.786ZM747.317 55V46.664H749.509V47.352C750.138 46.7867 750.917 46.504 751.845 46.504C752.496 46.504 753.066 46.648 753.557 46.936C754.058 47.2133 754.448 47.6027 754.725 48.104C755.002 48.5947 755.141 49.1707 755.141 49.832V55H752.949V50.152C752.949 49.608 752.794 49.1813 752.485 48.872C752.176 48.552 751.754 48.392 751.221 48.392C750.848 48.392 750.517 48.4667 750.229 48.616C749.941 48.7547 749.701 48.9573 749.509 49.224V55H747.317ZM759.922 55.16C759.154 55.16 758.444 55.064 757.794 54.872C757.143 54.6693 756.578 54.3813 756.098 54.008L757.186 52.552C757.666 52.872 758.124 53.112 758.562 53.272C759.01 53.432 759.452 53.512 759.89 53.512C760.38 53.512 760.77 53.432 761.058 53.272C761.356 53.1013 761.506 52.8827 761.506 52.616C761.506 52.4027 761.42 52.232 761.25 52.104C761.09 51.976 760.828 51.8853 760.466 51.832L758.866 51.592C758.034 51.464 757.404 51.1973 756.978 50.792C756.551 50.376 756.338 49.832 756.338 49.16C756.338 48.616 756.476 48.152 756.754 47.768C757.042 47.3733 757.442 47.0693 757.954 46.856C758.476 46.632 759.095 46.52 759.81 46.52C760.418 46.52 761.01 46.6053 761.586 46.776C762.172 46.9467 762.722 47.208 763.234 47.56L762.178 48.984C761.719 48.696 761.282 48.488 760.866 48.36C760.45 48.232 760.028 48.168 759.602 48.168C759.207 48.168 758.887 48.2427 758.642 48.392C758.407 48.5413 758.289 48.7387 758.289 48.984C758.289 49.208 758.375 49.384 758.546 49.512C758.716 49.64 759.01 49.7307 759.426 49.784L761.01 50.024C761.842 50.1413 762.476 50.408 762.914 50.824C763.351 51.2293 763.57 51.7573 763.57 52.408C763.57 52.9413 763.41 53.416 763.09 53.832C762.77 54.2373 762.338 54.5627 761.794 54.808C761.25 55.0427 760.626 55.16 759.922 55.16Z"
						fill="white" />
					<path
						d="M848.291 55V45.848H844.515V43.8H854.371V45.848H850.611V55H848.291ZM854.841 55V46.664H857.033V47.592C857.299 47.2293 857.619 46.952 857.993 46.76C858.366 46.568 858.787 46.472 859.257 46.472C859.662 46.4827 859.966 46.5467 860.169 46.664V48.584C860.009 48.5093 859.833 48.456 859.641 48.424C859.449 48.3813 859.251 48.36 859.049 48.36C858.622 48.36 858.233 48.4667 857.881 48.68C857.529 48.8933 857.246 49.1973 857.033 49.592V55H854.841ZM863.793 55.144C863.196 55.144 862.668 55.0373 862.209 54.824C861.751 54.6 861.393 54.296 861.137 53.912C860.881 53.528 860.753 53.0853 860.753 52.584C860.753 51.784 861.052 51.1653 861.649 50.728C862.257 50.28 863.089 50.056 864.145 50.056C864.871 50.056 865.553 50.168 866.193 50.392V49.784C866.193 49.304 866.044 48.9413 865.745 48.696C865.447 48.4507 865.009 48.328 864.433 48.328C864.081 48.328 863.703 48.3867 863.297 48.504C862.892 48.6107 862.423 48.7813 861.889 49.016L861.089 47.4C861.751 47.1013 862.38 46.8773 862.977 46.728C863.585 46.5787 864.193 46.504 864.801 46.504C865.921 46.504 866.791 46.776 867.409 47.32C868.039 47.8533 868.353 48.6107 868.353 49.592V55H866.193V54.408C865.852 54.664 865.484 54.8507 865.089 54.968C864.695 55.0853 864.263 55.144 863.793 55.144ZM862.833 52.536C862.833 52.856 862.972 53.112 863.249 53.304C863.527 53.4853 863.895 53.576 864.353 53.576C864.716 53.576 865.052 53.5333 865.361 53.448C865.671 53.352 865.948 53.2133 866.193 53.032V51.816C865.927 51.7093 865.649 51.6293 865.361 51.576C865.073 51.5227 864.764 51.496 864.433 51.496C863.932 51.496 863.537 51.592 863.249 51.784C862.972 51.9653 862.833 52.216 862.833 52.536ZM873.868 55.112C873.079 55.112 872.364 54.92 871.724 54.536C871.084 54.152 870.572 53.64 870.188 53C869.815 52.3493 869.628 51.624 869.628 50.824C869.628 50.024 869.815 49.304 870.188 48.664C870.572 48.0133 871.09 47.5013 871.74 47.128C872.391 46.744 873.122 46.552 873.932 46.552C874.348 46.552 874.748 46.6107 875.132 46.728C875.516 46.8347 875.874 46.9947 876.204 47.208V43.8L878.396 43.432V55H876.236V54.312C875.554 54.8453 874.764 55.112 873.868 55.112ZM874.22 53.24C874.626 53.24 874.994 53.176 875.324 53.048C875.666 52.9093 875.959 52.7067 876.204 52.44V49.192C875.959 48.9467 875.666 48.7547 875.324 48.616C874.983 48.4773 874.615 48.408 874.22 48.408C873.762 48.408 873.346 48.5147 872.972 48.728C872.61 48.9307 872.322 49.2187 872.108 49.592C871.895 49.9547 871.788 50.3653 871.788 50.824C871.788 51.2827 871.895 51.6933 872.108 52.056C872.322 52.4187 872.61 52.7067 872.972 52.92C873.346 53.1333 873.762 53.24 874.22 53.24ZM884.186 55.16C883.354 55.16 882.597 54.968 881.914 54.584C881.242 54.2 880.709 53.6827 880.314 53.032C879.92 52.3813 879.722 51.6507 879.722 50.84C879.722 50.0293 879.909 49.2987 880.282 48.648C880.666 47.9973 881.184 47.48 881.834 47.096C882.485 46.712 883.21 46.52 884.01 46.52C884.81 46.52 885.52 46.7173 886.138 47.112C886.757 47.5067 887.242 48.04 887.594 48.712C887.957 49.384 888.138 50.1467 888.138 51V51.576H881.962C882.058 51.9067 882.213 52.2053 882.426 52.472C882.65 52.7387 882.922 52.9467 883.242 53.096C883.573 53.2453 883.925 53.32 884.298 53.32C884.672 53.32 885.013 53.2613 885.322 53.144C885.642 53.0267 885.914 52.8613 886.138 52.648L887.578 53.96C887.066 54.376 886.538 54.68 885.994 54.872C885.461 55.064 884.858 55.16 884.186 55.16ZM881.93 50.008H885.978C885.904 49.6773 885.765 49.3893 885.562 49.144C885.37 48.888 885.136 48.6907 884.858 48.552C884.592 48.4027 884.293 48.328 883.962 48.328C883.621 48.328 883.312 48.3973 883.034 48.536C882.757 48.6747 882.522 48.872 882.33 49.128C882.149 49.3733 882.016 49.6667 881.93 50.008ZM889.383 51.368V49.512H895.399V51.368H889.383ZM897.063 55V43.8H899.383V55H897.063ZM901.278 55V46.664H903.47V47.352C904.099 46.7867 904.878 46.504 905.806 46.504C906.457 46.504 907.027 46.648 907.518 46.936C908.019 47.2133 908.409 47.6027 908.686 48.104C908.963 48.5947 909.102 49.1707 909.102 49.832V55H906.91V50.152C906.91 49.608 906.755 49.1813 906.446 48.872C906.137 48.552 905.715 48.392 905.182 48.392C904.809 48.392 904.478 48.4667 904.19 48.616C903.902 48.7547 903.662 48.9573 903.47 49.224V55H901.278ZM914.125 55V43.8H919.597C920.355 43.8 921.021 43.9493 921.597 44.248C922.184 44.536 922.637 44.9413 922.957 45.464C923.288 45.9867 923.453 46.5893 923.453 47.272C923.453 47.9867 923.256 48.616 922.861 49.16C922.467 49.704 921.939 50.1093 921.277 50.376L923.757 55H921.165L918.973 50.712H916.445V55H914.125ZM916.445 48.808H919.389C919.912 48.808 920.328 48.6693 920.637 48.392C920.957 48.1147 921.117 47.752 921.117 47.304C921.117 46.856 920.957 46.4933 920.637 46.216C920.328 45.9387 919.912 45.8 919.389 45.8H916.445V48.808ZM928.436 55.16C927.604 55.16 926.847 54.968 926.164 54.584C925.492 54.2 924.959 53.6827 924.564 53.032C924.17 52.3813 923.972 51.6507 923.972 50.84C923.972 50.0293 924.159 49.2987 924.532 48.648C924.916 47.9973 925.434 47.48 926.084 47.096C926.735 46.712 927.46 46.52 928.26 46.52C929.06 46.52 929.77 46.7173 930.388 47.112C931.007 47.5067 931.492 48.04 931.844 48.712C932.207 49.384 932.388 50.1467 932.388 51V51.576H926.212C926.308 51.9067 926.463 52.2053 926.676 52.472C926.9 52.7387 927.172 52.9467 927.492 53.096C927.823 53.2453 928.175 53.32 928.548 53.32C928.922 53.32 929.263 53.2613 929.572 53.144C929.892 53.0267 930.164 52.8613 930.388 52.648L931.828 53.96C931.316 54.376 930.788 54.68 930.244 54.872C929.711 55.064 929.108 55.16 928.436 55.16ZM926.18 50.008H930.228C930.154 49.6773 930.015 49.3893 929.812 49.144C929.62 48.888 929.386 48.6907 929.108 48.552C928.842 48.4027 928.543 48.328 928.212 48.328C927.871 48.328 927.562 48.3973 927.284 48.536C927.007 48.6747 926.772 48.872 926.58 49.128C926.399 49.3733 926.266 49.6667 926.18 50.008ZM937.449 55.128C936.521 55.128 935.817 54.92 935.337 54.504C934.867 54.0773 934.633 53.4587 934.633 52.648V48.488H932.921V46.664H934.633V44.536L936.825 44.04V46.664H939.209V48.488H936.825V52.2C936.825 52.584 936.91 52.8613 937.081 53.032C937.251 53.192 937.55 53.272 937.977 53.272C938.19 53.272 938.382 53.2613 938.553 53.24C938.734 53.208 938.931 53.1547 939.145 53.08V54.888C938.921 54.9627 938.638 55.0213 938.297 55.064C937.966 55.1067 937.683 55.128 937.449 55.128ZM943.51 55.16C942.87 55.16 942.299 55.0213 941.798 54.744C941.307 54.456 940.918 54.0613 940.63 53.56C940.353 53.0587 940.214 52.4827 940.214 51.832V46.664H942.406V51.512C942.406 52.0453 942.561 52.472 942.87 52.792C943.19 53.112 943.617 53.272 944.15 53.272C944.513 53.272 944.838 53.2027 945.126 53.064C945.425 52.9147 945.67 52.7067 945.862 52.44V46.664H948.054V55H945.862V54.328C945.222 54.8827 944.438 55.16 943.51 55.16ZM949.762 55V46.664H951.954V47.592C952.221 47.2293 952.541 46.952 952.914 46.76C953.288 46.568 953.709 46.472 954.178 46.472C954.584 46.4827 954.888 46.5467 955.09 46.664V48.584C954.93 48.5093 954.754 48.456 954.562 48.424C954.37 48.3813 954.173 48.36 953.97 48.36C953.544 48.36 953.154 48.4667 952.802 48.68C952.45 48.8933 952.168 49.1973 951.954 49.592V55H949.762ZM956.294 55V46.664H958.486V47.352C959.115 46.7867 959.894 46.504 960.822 46.504C961.472 46.504 962.043 46.648 962.534 46.936C963.035 47.2133 963.424 47.6027 963.702 48.104C963.979 48.5947 964.118 49.1707 964.118 49.832V55H961.926V50.152C961.926 49.608 961.771 49.1813 961.462 48.872C961.152 48.552 960.731 48.392 960.198 48.392C959.824 48.392 959.494 48.4667 959.206 48.616C958.918 48.7547 958.678 48.9573 958.486 49.224V55H956.294ZM968.898 55.16C968.13 55.16 967.421 55.064 966.77 54.872C966.119 54.6693 965.554 54.3813 965.074 54.008L966.162 52.552C966.642 52.872 967.101 53.112 967.538 53.272C967.986 53.432 968.429 53.512 968.866 53.512C969.357 53.512 969.746 53.432 970.034 53.272C970.333 53.1013 970.482 52.8827 970.482 52.616C970.482 52.4027 970.397 52.232 970.226 52.104C970.066 51.976 969.805 51.8853 969.442 51.832L967.842 51.592C967.01 51.464 966.381 51.1973 965.954 50.792C965.527 50.376 965.314 49.832 965.314 49.16C965.314 48.616 965.453 48.152 965.73 47.768C966.018 47.3733 966.418 47.0693 966.93 46.856C967.453 46.632 968.071 46.52 968.786 46.52C969.394 46.52 969.986 46.6053 970.562 46.776C971.149 46.9467 971.698 47.208 972.21 47.56L971.154 48.984C970.695 48.696 970.258 48.488 969.842 48.36C969.426 48.232 969.005 48.168 968.578 48.168C968.183 48.168 967.863 48.2427 967.618 48.392C967.383 48.5413 967.266 48.7387 967.266 48.984C967.266 49.208 967.351 49.384 967.522 49.512C967.693 49.64 967.986 49.7307 968.402 49.784L969.986 50.024C970.818 50.1413 971.453 50.408 971.89 50.824C972.327 51.2293 972.546 51.7573 972.546 52.408C972.546 52.9413 972.386 53.416 972.066 53.832C971.746 54.2373 971.314 54.5627 970.77 54.808C970.226 55.0427 969.602 55.16 968.898 55.16Z"
						fill="white" />
					<rect x="354.5" y="0.5" width="272" height="25" rx="12.5" fill="#1A1B35" />
					<path
						d="M382.164 17.12C381.484 17.12 380.82 16.996 380.172 16.748C379.524 16.492 378.948 16.132 378.444 15.668L379.44 14.42C379.928 14.852 380.396 15.164 380.844 15.356C381.3 15.548 381.78 15.644 382.284 15.644C382.636 15.644 382.94 15.604 383.196 15.524C383.452 15.436 383.648 15.312 383.784 15.152C383.928 14.992 384 14.804 384 14.588C384 14.3 383.896 14.08 383.688 13.928C383.48 13.768 383.124 13.644 382.62 13.556L380.952 13.268C380.24 13.148 379.696 12.896 379.32 12.512C378.952 12.128 378.768 11.632 378.768 11.024C378.768 10.504 378.9 10.052 379.164 9.668C379.436 9.284 379.816 8.992 380.304 8.792C380.8 8.584 381.388 8.48 382.068 8.48C382.684 8.48 383.296 8.584 383.904 8.792C384.52 9 385.064 9.288 385.536 9.656L384.6 10.952C383.72 10.28 382.836 9.944 381.948 9.944C381.636 9.944 381.364 9.984 381.132 10.064C380.9 10.144 380.72 10.256 380.592 10.4C380.472 10.536 380.412 10.7 380.412 10.892C380.412 11.148 380.504 11.348 380.688 11.492C380.872 11.628 381.18 11.732 381.612 11.804L383.196 12.068C384.036 12.204 384.664 12.472 385.08 12.872C385.496 13.264 385.704 13.784 385.704 14.432C385.704 14.976 385.56 15.452 385.272 15.86C384.984 16.26 384.572 16.572 384.036 16.796C383.508 17.012 382.884 17.12 382.164 17.12ZM392.771 17.132C392.147 17.132 391.567 17.024 391.031 16.808C390.495 16.584 390.023 16.276 389.615 15.884C389.215 15.484 388.899 15.024 388.667 14.504C388.443 13.976 388.331 13.408 388.331 12.8C388.331 12.192 388.443 11.628 388.667 11.108C388.899 10.58 389.215 10.12 389.615 9.728C390.023 9.328 390.495 9.02 391.031 8.804C391.567 8.58 392.147 8.468 392.771 8.468C393.395 8.468 393.975 8.58 394.511 8.804C395.055 9.02 395.527 9.328 395.927 9.728C396.335 10.12 396.651 10.58 396.875 11.108C397.099 11.628 397.211 12.192 397.211 12.8C397.211 13.408 397.099 13.976 396.875 14.504C396.651 15.024 396.335 15.484 395.927 15.884C395.527 16.276 395.055 16.584 394.511 16.808C393.975 17.024 393.395 17.132 392.771 17.132ZM392.771 15.536C393.155 15.536 393.507 15.468 393.827 15.332C394.147 15.188 394.427 14.996 394.667 14.756C394.907 14.508 395.095 14.216 395.231 13.88C395.367 13.544 395.435 13.184 395.435 12.8C395.435 12.408 395.367 12.048 395.231 11.72C395.095 11.384 394.907 11.096 394.667 10.856C394.427 10.608 394.147 10.416 393.827 10.28C393.507 10.136 393.155 10.064 392.771 10.064C392.395 10.064 392.047 10.136 391.727 10.28C391.407 10.416 391.127 10.608 390.887 10.856C390.647 11.096 390.459 11.384 390.323 11.72C390.187 12.048 390.119 12.404 390.119 12.788C390.119 13.18 390.187 13.544 390.323 13.88C390.459 14.216 390.647 14.508 390.887 14.756C391.127 14.996 391.407 15.188 391.727 15.332C392.047 15.468 392.395 15.536 392.771 15.536ZM403.924 17.12C403.164 17.12 402.504 16.968 401.944 16.664C401.392 16.36 400.964 15.928 400.66 15.368C400.356 14.8 400.204 14.136 400.204 13.376V8.6H401.944V13.376C401.944 13.808 402.024 14.188 402.184 14.516C402.352 14.836 402.584 15.084 402.88 15.26C403.184 15.428 403.536 15.512 403.936 15.512C404.336 15.512 404.684 15.428 404.98 15.26C405.276 15.084 405.504 14.836 405.664 14.516C405.832 14.188 405.916 13.808 405.916 13.376V8.6H407.644V13.376C407.644 14.128 407.492 14.788 407.188 15.356C406.884 15.916 406.452 16.352 405.892 16.664C405.34 16.968 404.684 17.12 403.924 17.12ZM410.952 17V8.6H415.056C415.624 8.6 416.124 8.712 416.556 8.936C416.996 9.152 417.336 9.456 417.576 9.848C417.824 10.24 417.948 10.692 417.948 11.204C417.948 11.74 417.8 12.212 417.504 12.62C417.208 13.028 416.812 13.332 416.316 13.532L418.176 17H416.232L414.588 13.784H412.692V17H410.952ZM412.692 12.356H414.9C415.292 12.356 415.604 12.252 415.836 12.044C416.076 11.836 416.196 11.564 416.196 11.228C416.196 10.892 416.076 10.62 415.836 10.412C415.604 10.204 415.292 10.1 414.9 10.1H412.692V12.356ZM425.156 17.12C424.532 17.12 423.948 17.012 423.404 16.796C422.86 16.572 422.384 16.264 421.976 15.872C421.576 15.48 421.26 15.024 421.028 14.504C420.804 13.976 420.692 13.408 420.692 12.8C420.692 12.184 420.804 11.616 421.028 11.096C421.26 10.568 421.58 10.108 421.988 9.716C422.396 9.324 422.868 9.02 423.404 8.804C423.948 8.58 424.532 8.468 425.156 8.468C425.62 8.468 426.068 8.532 426.5 8.66C426.932 8.788 427.332 8.968 427.7 9.2C428.076 9.432 428.396 9.712 428.66 10.04L427.484 11.204C427.18 10.828 426.828 10.544 426.428 10.352C426.036 10.16 425.612 10.064 425.156 10.064C424.78 10.064 424.428 10.136 424.1 10.28C423.772 10.416 423.488 10.608 423.248 10.856C423.008 11.096 422.82 11.384 422.684 11.72C422.548 12.048 422.48 12.408 422.48 12.8C422.48 13.184 422.548 13.544 422.684 13.88C422.82 14.208 423.012 14.496 423.26 14.744C423.508 14.984 423.796 15.172 424.124 15.308C424.46 15.444 424.824 15.512 425.216 15.512C425.656 15.512 426.068 15.42 426.452 15.236C426.836 15.052 427.176 14.788 427.472 14.444L428.612 15.572C428.348 15.892 428.032 16.168 427.664 16.4C427.296 16.632 426.896 16.812 426.464 16.94C426.04 17.06 425.604 17.12 425.156 17.12ZM431.549 17V8.6H438.005V10.112H433.289V12.032H436.397V13.496H433.289V15.488H438.053V17H431.549ZM444.204 17.12C443.524 17.12 442.86 16.996 442.212 16.748C441.564 16.492 440.988 16.132 440.484 15.668L441.48 14.42C441.968 14.852 442.436 15.164 442.884 15.356C443.34 15.548 443.82 15.644 444.324 15.644C444.676 15.644 444.98 15.604 445.236 15.524C445.492 15.436 445.688 15.312 445.824 15.152C445.968 14.992 446.04 14.804 446.04 14.588C446.04 14.3 445.936 14.08 445.728 13.928C445.52 13.768 445.164 13.644 444.66 13.556L442.992 13.268C442.28 13.148 441.736 12.896 441.36 12.512C440.992 12.128 440.808 11.632 440.808 11.024C440.808 10.504 440.94 10.052 441.204 9.668C441.476 9.284 441.856 8.992 442.344 8.792C442.84 8.584 443.428 8.48 444.108 8.48C444.724 8.48 445.336 8.584 445.944 8.792C446.56 9 447.104 9.288 447.576 9.656L446.64 10.952C445.76 10.28 444.876 9.944 443.988 9.944C443.676 9.944 443.404 9.984 443.172 10.064C442.94 10.144 442.76 10.256 442.632 10.4C442.512 10.536 442.452 10.7 442.452 10.892C442.452 11.148 442.544 11.348 442.728 11.492C442.912 11.628 443.22 11.732 443.652 11.804L445.236 12.068C446.076 12.204 446.704 12.472 447.12 12.872C447.536 13.264 447.744 13.784 447.744 14.432C447.744 14.976 447.6 15.452 447.312 15.86C447.024 16.26 446.612 16.572 446.076 16.796C445.548 17.012 444.924 17.12 444.204 17.12ZM454.944 19.556V8.6H458.532V9.884H456.504V18.272H458.532V19.556H454.944ZM461.659 17V8.6H463.315L467.491 14.024V8.6H469.123V17H467.587L463.303 11.384V17H461.659ZM476.683 17.132C476.059 17.132 475.479 17.024 474.943 16.808C474.407 16.584 473.935 16.276 473.527 15.884C473.127 15.484 472.811 15.024 472.579 14.504C472.355 13.976 472.243 13.408 472.243 12.8C472.243 12.192 472.355 11.628 472.579 11.108C472.811 10.58 473.127 10.12 473.527 9.728C473.935 9.328 474.407 9.02 474.943 8.804C475.479 8.58 476.059 8.468 476.683 8.468C477.307 8.468 477.887 8.58 478.423 8.804C478.967 9.02 479.439 9.328 479.839 9.728C480.247 10.12 480.563 10.58 480.787 11.108C481.011 11.628 481.123 12.192 481.123 12.8C481.123 13.408 481.011 13.976 480.787 14.504C480.563 15.024 480.247 15.484 479.839 15.884C479.439 16.276 478.967 16.584 478.423 16.808C477.887 17.024 477.307 17.132 476.683 17.132ZM476.683 15.536C477.067 15.536 477.419 15.468 477.739 15.332C478.059 15.188 478.339 14.996 478.579 14.756C478.819 14.508 479.007 14.216 479.143 13.88C479.279 13.544 479.347 13.184 479.347 12.8C479.347 12.408 479.279 12.048 479.143 11.72C479.007 11.384 478.819 11.096 478.579 10.856C478.339 10.608 478.059 10.416 477.739 10.28C477.419 10.136 477.067 10.064 476.683 10.064C476.307 10.064 475.959 10.136 475.639 10.28C475.319 10.416 475.039 10.608 474.799 10.856C474.559 11.096 474.371 11.384 474.235 11.72C474.099 12.048 474.031 12.404 474.031 12.788C474.031 13.18 474.099 13.544 474.235 13.88C474.371 14.216 474.559 14.508 474.799 14.756C475.039 14.996 475.319 15.188 475.639 15.332C475.959 15.468 476.307 15.536 476.683 15.536ZM484.249 17V8.6H485.905L490.081 14.024V8.6H491.713V17H490.177L485.893 11.384V17H484.249ZM494.893 14.276V12.884H499.405V14.276H494.893ZM502.573 17V8.6H509.029V10.112H504.313V12.032H507.421V13.496H504.313V15.488H509.077V17H502.573ZM511.436 17L514.64 12.656L511.604 8.6H513.68L515.672 11.36L517.652 8.6H519.656L516.668 12.656L519.908 17H517.832L515.636 13.952L513.44 17H511.436ZM522.257 17V8.6H523.997V11.984H527.861V8.6H529.601V17H527.861V13.556H523.997V17H522.257ZM532.244 17L535.7 8.6H537.704L541.124 17H539.24L538.388 14.792H534.92L534.056 17H532.244ZM535.46 13.4H537.86L536.66 10.304L535.46 13.4ZM546.994 17.12C546.234 17.12 545.574 16.968 545.014 16.664C544.462 16.36 544.034 15.928 543.73 15.368C543.426 14.8 543.274 14.136 543.274 13.376V8.6H545.014V13.376C545.014 13.808 545.094 14.188 545.254 14.516C545.422 14.836 545.654 15.084 545.95 15.26C546.254 15.428 546.606 15.512 547.006 15.512C547.406 15.512 547.754 15.428 548.05 15.26C548.346 15.084 548.574 14.836 548.734 14.516C548.902 14.188 548.986 13.808 548.986 13.376V8.6H550.714V13.376C550.714 14.128 550.562 14.788 550.258 15.356C549.954 15.916 549.522 16.352 548.962 16.664C548.41 16.968 547.754 17.12 546.994 17.12ZM557.021 17.12C556.341 17.12 555.677 16.996 555.029 16.748C554.381 16.492 553.805 16.132 553.301 15.668L554.297 14.42C554.785 14.852 555.253 15.164 555.701 15.356C556.157 15.548 556.637 15.644 557.141 15.644C557.493 15.644 557.797 15.604 558.053 15.524C558.309 15.436 558.505 15.312 558.641 15.152C558.785 14.992 558.857 14.804 558.857 14.588C558.857 14.3 558.753 14.08 558.545 13.928C558.337 13.768 557.981 13.644 557.477 13.556L555.809 13.268C555.097 13.148 554.553 12.896 554.177 12.512C553.809 12.128 553.625 11.632 553.625 11.024C553.625 10.504 553.757 10.052 554.021 9.668C554.293 9.284 554.673 8.992 555.161 8.792C555.657 8.584 556.245 8.48 556.925 8.48C557.541 8.48 558.153 8.584 558.761 8.792C559.377 9 559.921 9.288 560.393 9.656L559.457 10.952C558.577 10.28 557.693 9.944 556.805 9.944C556.493 9.944 556.221 9.984 555.989 10.064C555.757 10.144 555.577 10.256 555.449 10.4C555.329 10.536 555.269 10.7 555.269 10.892C555.269 11.148 555.361 11.348 555.545 11.492C555.729 11.628 556.037 11.732 556.469 11.804L558.053 12.068C558.893 12.204 559.521 12.472 559.937 12.872C560.353 13.264 560.561 13.784 560.561 14.432C560.561 14.976 560.417 15.452 560.129 15.86C559.841 16.26 559.429 16.572 558.893 16.796C558.365 17.012 557.741 17.12 557.021 17.12ZM565.628 17V10.136H562.796V8.6H570.188V10.136H567.368V17H565.628ZM573.084 17V8.6H574.824V17H573.084ZM580.877 17L577.469 8.6H579.353L581.921 15.212L584.549 8.6H586.349L582.893 17H580.877ZM588.982 17V8.6H595.438V10.112H590.722V12.032H593.83V13.496H590.722V15.488H595.486V17H588.982ZM601.925 8.6V19.556H598.337V18.272H600.365V9.884H598.337V8.6H601.925Z"
						fill="white" />
					<rect x="354.5" y="0.5" width="272" height="25" rx="12.5" stroke="#7EB5BE" />
					<defs>
						<linearGradient id="paint0_linear_1_8437" x1="501" y1="13" x2="501" y2="85"
							gradientUnits="userSpaceOnUse">
							<stop stop-color="#E1EEFA" />
							<stop offset="1" stop-color="#E1EEFA" stop-opacity="0" />
						</linearGradient>
						<linearGradient id="paint1_linear_1_8437" x1="501" y1="13" x2="501" y2="85"
							gradientUnits="userSpaceOnUse">
							<stop stop-color="#7EB5BE" stop-opacity="0.69" />
							<stop offset="1" stop-color="#7EB5BE" stop-opacity="0.85" />
						</linearGradient>
					</defs>
				</svg>