<svg viewBox="0 0 16 71" fill="none" xmlns="http://www.w3.org/2000/svg">
						<g clip-path="url(#clip0_1_8447)">
							<path opacity="0.2" fill-rule="evenodd" clip-rule="evenodd" d="M16 0V70.5H0V0H16Z"
								fill="#5A98E1" />
							<path d="M8 68.5V1" stroke="#5A98E1" stroke-width="2" stroke-linecap="square" />
							<!-- <path
								d="M4.64988 46.1877L7.60957 42.488C7.80973 42.2378 8.19027 42.2378 8.39043 42.488L11.3501 46.1877C11.612 46.515 11.3789 47 10.9597 47H5.04031C4.62106 47 4.38797 46.515 4.64988 46.1877Z"
								fill="#9BEFF8" />
							<path
								d="M4.64988 67.1877L7.60957 63.488C7.80973 63.2378 8.19027 63.2378 8.39043 63.488L11.3501 67.1877C11.612 67.515 11.3789 68 10.9597 68H5.04031C4.62106 68 4.38797 67.515 4.64988 67.1877Z"
								fill="#9BEFF8" />
							<path
								d="M4.64988 25.1877L7.60957 21.488C7.80973 21.2378 8.19027 21.2378 8.39043 21.488L11.3501 25.1877C11.612 25.515 11.3789 26 10.9597 26H5.04031C4.62106 26 4.38797 25.515 4.64988 25.1877Z"
								fill="#9BEFF8" />
							<path
								d="M4.64988 4.18765L7.60957 0.488043C7.80973 0.23784 8.19027 0.23784 8.39043 0.488043L11.3501 4.18765C11.612 4.51503 11.3789 5 10.9597 5H5.04031C4.62106 5 4.38797 4.51503 4.64988 4.18765Z"
								fill="#9BEFF8" /> -->
						</g>
						<defs>
							<clipPath id="clip0_1_8447">
								<rect width="16" height="70.5" fill="white" />
							</clipPath>
						</defs>
					</svg>