<svg width="30" height="30" viewBox="0 0 30 30" fill="none" xmlns="http://www.w3.org/2000/svg">
<g clip-path="url(#clip0_3687_57990)">
<path d="M15.6479 7.94312C15.6479 7.94312 15.641 7.94508 15.6332 7.94704C15.6244 7.94998 15.6107 7.95194 15.5871 7.94998C14.3151 7.86276 12.5934 8.59773 13.8016 10.2754C13.5949 9.97164 13.4273 9.62572 13.4743 9.26411C13.4832 9.18865 13.5086 9.11418 13.5459 9.04754C13.5714 9.0005 13.6086 8.9564 13.6478 8.91818C14.0094 8.57226 14.4523 8.88781 14.7924 9.04264C15.1981 9.22883 15.5636 9.46108 15.9262 9.72273C16.4025 10.0657 16.9287 10.4126 16.966 11.08C17.0061 11.8159 16.3388 12.5058 15.6058 12.3843C16.0536 13.0438 17.2021 13.9023 17.6029 14.2169C17.6059 14.2169 17.5255 14.0846 17.5657 14.0277C17.9175 13.6573 18.2066 13.1752 18.3438 12.6567C18.5506 11.8747 18.5457 11.0672 18.2438 10.3088C17.7999 9.19257 16.768 8.43114 15.7028 7.94606C15.6959 7.94312 15.6812 7.94214 15.6685 7.94214C15.6577 7.94214 15.6489 7.94214 15.6489 7.94214" fill="url(#paint0_linear_3687_57990)"/>
<path d="M12.1339 9.83617V9.84205L12.1358 9.84401L12.3445 10.7671C12.8081 12.8074 12.9688 14.9114 12.7414 16.986C12.7365 17.036 12.6317 17.8876 12.6238 17.9375L12.3641 19.2507C12.3641 19.2507 12.4014 19.3928 12.4024 19.3928C12.4151 19.4124 13.837 21.3517 15.9057 21.1273C15.9792 21.1195 16.0527 21.1077 16.1243 21.093C16.0557 21.1009 15.9851 21.1097 15.9136 21.1077C14.8562 21.0734 14.2329 20.2943 14.1134 19.4839C14.1104 19.4673 14.0683 18.9489 14.1908 18.7186C14.4975 17.8346 15.3246 17.3848 16.2997 17.3643C16.8573 17.3525 17.3737 17.5122 17.7843 17.7905L17.4178 17.231C17.3032 17.0565 17.1768 16.888 17.0435 16.7243C16.9014 16.5479 16.7514 16.3774 16.5986 16.2079C16.4349 16.0276 16.2664 15.8502 16.0978 15.6738C15.9185 15.4857 15.7382 15.2985 15.5588 15.1103C15.3687 14.9104 15.1806 14.7105 14.9954 14.5067C14.8013 14.293 14.6102 14.0755 14.426 13.854C14.232 13.6218 14.0438 13.3846 13.8645 13.1416C13.6763 12.8858 13.497 12.6251 13.3284 12.3586C13.1501 12.0773 12.9845 11.7892 12.8326 11.4952C12.6709 11.1836 12.5239 10.8651 12.3945 10.5417C12.2887 10.2791 12.1809 9.99296 12.1054 9.69897L12.1368 9.83519L12.1339 9.83617Z" fill="url(#paint1_linear_3687_57990)"/>
<path d="M12.8895 7.49712C12.669 7.58923 12.4828 7.73231 12.3436 7.90968C12.0359 8.30265 11.9663 8.75637 12.0134 9.21401C12.0232 9.30907 12.0379 9.40413 12.0565 9.50114C12.0565 9.50114 12.0568 9.50212 12.0575 9.50408L12.0986 9.68636C12.0986 9.68636 12.1006 9.69616 12.1025 9.70008C12.178 9.99407 12.2848 10.2812 12.3906 10.5428C12.521 10.8662 12.667 11.1847 12.8297 11.4964C12.9816 11.7903 13.1472 12.0784 13.3265 12.3607C13.4951 12.6262 13.6734 12.8879 13.8626 13.1437C14.0409 13.3857 14.2291 13.6219 14.4231 13.8551C14.6083 14.0766 14.7984 14.2941 14.9934 14.5078C15.1777 14.7116 15.3658 14.9125 15.5569 15.1114C15.7353 15.2996 15.9166 15.4868 16.0969 15.6749C16.2654 15.8523 16.433 16.0287 16.5967 16.209C16.7495 16.3785 16.9004 16.549 17.0425 16.7254C17.1758 16.8901 17.3013 17.0586 17.4169 17.2331C17.5237 17.3957 17.6207 17.5633 17.7011 17.7387C18.242 18.9049 17.854 19.781 17.4375 20.3082C17.1219 20.707 16.6515 20.9883 16.1233 21.0951C16.0518 21.1088 15.9773 21.1216 15.9048 21.1294C13.8253 21.3538 12.3671 19.2312 12.3671 19.2312C12.0976 20.3013 12.3779 21.6429 13.1864 22.4171C13.6832 22.8933 14.3486 23.1707 15.0277 23.2775C16.0449 23.4372 17.1699 23.3186 18.0627 22.7826C19.7188 21.7879 20.5626 20.1622 20.2588 18.2013C20.0746 17.0155 19.3572 15.3897 16.9798 13.5523C14.6779 11.7747 13.8528 10.3665 13.8038 10.2812C13.8028 10.2773 13.8018 10.2763 13.8018 10.2763C12.5935 8.5986 14.3143 7.86362 15.5873 7.95084C15.6118 7.9528 15.6422 7.95084 15.6657 7.94888C15.6853 7.9479 15.699 7.94594 15.7029 7.94692C15.7019 7.94594 15.6628 7.92732 15.6628 7.92732C14.674 7.4687 14.0311 7.34326 13.6058 7.34326C13.2187 7.34326 13.0129 7.44714 12.8904 7.49712" fill="url(#paint2_linear_3687_57990)"/>
</g>
<rect x="1" y="1.34326" width="28" height="28" rx="6" stroke="#003C9E"/>
<defs>
<linearGradient id="paint0_linear_3687_57990" x1="15.4931" y1="8.79863" x2="16.9562" y2="13.5132" gradientUnits="userSpaceOnUse">
<stop stop-color="#009FFD"/>
<stop offset="1" stop-color="#2A2A72"/>
</linearGradient>
<linearGradient id="paint1_linear_3687_57990" x1="16.2468" y1="22.8158" x2="13.9674" y2="14.4773" gradientUnits="userSpaceOnUse">
<stop stop-color="#009FFD"/>
<stop offset="1" stop-color="#2A2A72"/>
</linearGradient>
<linearGradient id="paint2_linear_3687_57990" x1="13.2383" y1="7.21587" x2="17.2572" y2="23.2922" gradientUnits="userSpaceOnUse">
<stop stop-color="#009FFD"/>
<stop offset="1" stop-color="#2A2A72"/>
</linearGradient>
<clipPath id="clip0_3687_57990">
<rect width="16" height="16" fill="white" transform="translate(7 7.34326)"/>
</clipPath>
</defs>
</svg>
