<svg width="30" height="30" viewBox="0 0 30 30" fill="none" xmlns="http://www.w3.org/2000/svg">
<path fill-rule="evenodd" clip-rule="evenodd" d="M13.6667 10.0098C13.2985 10.0098 13 10.3083 13 10.6765V11.3432H17V10.6765C17 10.3083 16.7015 10.0098 16.3333 10.0098H13.6667ZM18.3333 11.3432V10.6765C18.3333 9.57194 17.4379 8.67651 16.3333 8.67651H13.6667C12.5621 8.67651 11.6667 9.57194 11.6667 10.6765V11.3432H9.66667C8.5621 11.3432 7.66667 12.2386 7.66667 13.3432V20.0098C7.66667 21.1144 8.5621 22.0098 9.66667 22.0098H20.3333C21.4379 22.0098 22.3333 21.1144 22.3333 20.0098V13.3432C22.3333 12.2386 21.4379 11.3432 20.3333 11.3432H18.3333ZM9.66667 12.6765C9.29848 12.6765 9.00001 12.975 9.00001 13.3432V20.0098C9.00001 20.378 9.29848 20.6765 9.66667 20.6765H20.3333C20.7015 20.6765 21 20.378 21 20.0098V13.3432C21 12.975 20.7015 12.6765 20.3333 12.6765H9.66667Z" fill="#528120"/>
<rect x="1" y="1.34326" width="28" height="28" rx="6" stroke="#68972D"/>
</svg>
