<svg width="30" height="30" viewBox="0 0 30 30" fill="none" xmlns="http://www.w3.org/2000/svg">
<path fill-rule="evenodd" clip-rule="evenodd" d="M13 12.6767C12.6318 12.6767 12.3333 12.9752 12.3333 13.3433V17.3433C12.3333 17.7115 12.6318 18.01 13 18.01H17C17.3682 18.01 17.6667 17.7115 17.6667 17.3433V13.3433C17.6667 12.9752 17.3682 12.6767 17 12.6767H13ZM13.6667 16.6767V14.01H16.3333V16.6767H13.6667Z" fill="#736BDB"/>
<path fill-rule="evenodd" clip-rule="evenodd" d="M13.6667 8.67668C13.6667 8.30849 13.3682 8.01001 13 8.01001C12.6318 8.01001 12.3333 8.30849 12.3333 8.67668V10.01H11.6667C10.5621 10.01 9.66667 10.9054 9.66667 12.01V12.6767H8.33334C7.96515 12.6767 7.66667 12.9752 7.66667 13.3433C7.66667 13.7115 7.96515 14.01 8.33334 14.01H9.66667V16.6767H8.33334C7.96515 16.6767 7.66667 16.9752 7.66667 17.3433C7.66667 17.7115 7.96515 18.01 8.33334 18.01H9.66667V18.6767C9.66667 19.7812 10.5621 20.6767 11.6667 20.6767H12.3333V22.01C12.3333 22.3782 12.6318 22.6767 13 22.6767C13.3682 22.6767 13.6667 22.3782 13.6667 22.01V20.6767H16.3333V22.01C16.3333 22.3782 16.6318 22.6767 17 22.6767C17.3682 22.6767 17.6667 22.3782 17.6667 22.01V20.6767H18.3333C19.4379 20.6767 20.3333 19.7812 20.3333 18.6767V18.01H21.6667C22.0349 18.01 22.3333 17.7115 22.3333 17.3433C22.3333 16.9752 22.0349 16.6767 21.6667 16.6767H20.3333V14.01H21.6667C22.0349 14.01 22.3333 13.7115 22.3333 13.3433C22.3333 12.9752 22.0349 12.6767 21.6667 12.6767H20.3333V12.01C20.3333 10.9054 19.4379 10.01 18.3333 10.01H17.6667V8.67668C17.6667 8.30849 17.3682 8.01001 17 8.01001C16.6318 8.01001 16.3333 8.30849 16.3333 8.67668V10.01H13.6667V8.67668ZM11 12.01C11 11.6418 11.2985 11.3433 11.6667 11.3433H18.3333C18.7015 11.3433 19 11.6418 19 12.01V18.6767C19 19.0449 18.7015 19.3433 18.3333 19.3433H11.6667C11.2985 19.3433 11 19.0449 11 18.6767V12.01Z" fill="#736BDB"/>
<rect x="1" y="1.34326" width="28" height="28" rx="6" stroke="#9C93FF"/>
</svg>
