<svg width="30" height="30" viewBox="0 0 30 30" fill="none" xmlns="http://www.w3.org/2000/svg">
<path fill-rule="evenodd" clip-rule="evenodd" d="M15.2108 9.44958C15.074 9.40396 14.926 9.40396 14.7892 9.44958L10.1225 11.0051C9.85028 11.0959 9.66666 11.3506 9.66666 11.6376V16.6766C9.66666 18.0833 10.575 19.1412 11.7766 19.9302C12.9701 20.714 14.3204 21.1388 14.8905 21.2943C14.9639 21.3143 15.0361 21.3143 15.1095 21.2943C15.6796 21.1388 17.0299 20.714 18.2234 19.9302C19.425 19.1412 20.3333 18.0833 20.3333 16.6766V11.6376C20.3333 11.3506 20.1497 11.0959 19.8775 11.0051L15.2108 9.44958ZM14.3675 8.18466C14.7781 8.04782 15.2219 8.04782 15.6325 8.18466L20.2991 9.74022C21.1158 10.0124 21.6667 10.7767 21.6667 11.6376V16.6766C21.6667 18.7429 20.3133 20.1529 18.9553 21.0447C17.5892 21.9419 16.082 22.411 15.4604 22.5806C15.1572 22.6633 14.8428 22.6633 14.5396 22.5806C13.918 22.411 12.4108 21.9419 11.0447 21.0447C9.68665 20.1529 8.33333 18.7429 8.33333 16.6766V11.6376C8.33333 10.7767 8.88419 10.0124 9.70087 9.74022L14.3675 8.18466Z" fill="#409EC8"/>
<rect x="1" y="1.34326" width="28" height="28" rx="6" stroke="#58C7E9"/>
</svg>
