<svg width="30" height="30" viewBox="0 0 30 30" fill="none" xmlns="http://www.w3.org/2000/svg">
<path fill-rule="evenodd" clip-rule="evenodd" d="M12.3334 10.6767C11.9652 10.6767 11.6667 10.9752 11.6667 11.3433V14.01C11.6667 14.3782 11.9652 14.6767 12.3334 14.6767H15.6667C16.0349 14.6767 16.3334 14.3782 16.3334 14.01V11.3433C16.3334 10.9752 16.0349 10.6767 15.6667 10.6767H12.3334ZM13 13.3433V12.01H15V13.3433H13Z" fill="#D49E44"/>
<path d="M11.6667 16.6767C11.6667 16.3085 11.9652 16.01 12.3334 16.01H17.6667C18.0349 16.01 18.3334 16.3085 18.3334 16.6767C18.3334 17.0449 18.0349 17.3433 17.6667 17.3433H12.3334C11.9652 17.3433 11.6667 17.0449 11.6667 16.6767Z" fill="#D49E44"/>
<path d="M12.3334 18.6767C11.9652 18.6767 11.6667 18.9752 11.6667 19.3433C11.6667 19.7115 11.9652 20.01 12.3334 20.01H17.6667C18.0349 20.01 18.3334 19.7115 18.3334 19.3433C18.3334 18.9752 18.0349 18.6767 17.6667 18.6767H12.3334Z" fill="#D49E44"/>
<path fill-rule="evenodd" clip-rule="evenodd" d="M10.3334 8.01001C9.2288 8.01001 8.33337 8.90544 8.33337 10.01V20.6767C8.33337 21.7812 9.2288 22.6767 10.3334 22.6767H19.6667C20.7713 22.6767 21.6667 21.7812 21.6667 20.6767V10.01C21.6667 8.90544 20.7713 8.01001 19.6667 8.01001H10.3334ZM9.66671 10.01C9.66671 9.64182 9.96518 9.34334 10.3334 9.34334H19.6667C20.0349 9.34334 20.3334 9.64182 20.3334 10.01V20.6767C20.3334 21.0449 20.0349 21.3433 19.6667 21.3433H10.3334C9.96518 21.3433 9.66671 21.0449 9.66671 20.6767V10.01Z" fill="#D49E44"/>
<rect x="1" y="1.34326" width="28" height="28" rx="6" stroke="#F7C35E"/>
</svg>
