<svg width="30" height="30" viewBox="0 0 30 30" fill="none" xmlns="http://www.w3.org/2000/svg">
<path d="M19.8283 12.6568C20.1855 12.5675 20.4027 12.2056 20.3134 11.8484C20.2241 11.4912 19.8621 11.274 19.5049 11.3633L16.8383 12.03C16.4811 12.1193 16.2639 12.4812 16.3532 12.8384C16.4425 13.1956 16.8044 13.4128 17.1616 13.3235L19.8283 12.6568Z" fill="#736BDB"/>
<path d="M19.8283 15.3235C20.1855 15.2342 20.4027 14.8723 20.3134 14.5151C20.2241 14.1579 19.8621 13.9407 19.5049 14.03L16.8383 14.6967C16.4811 14.786 16.2639 15.1479 16.3532 15.5051C16.4425 15.8623 16.8044 16.0795 17.1616 15.9902L19.8283 15.3235Z" fill="#736BDB"/>
<path d="M9.68653 14.5151C9.77583 14.1579 10.1378 13.9407 10.495 14.03L13.1616 14.6967C13.5188 14.786 13.736 15.1479 13.6467 15.5051C13.5574 15.8623 13.1955 16.0795 12.8383 15.9902L10.1716 15.3235C9.8144 15.2342 9.59723 14.8723 9.68653 14.5151Z" fill="#736BDB"/>
<path d="M9.68653 11.8484C9.77583 11.4912 10.1378 11.274 10.495 11.3633L13.1616 12.03C13.5188 12.1193 13.736 12.4812 13.6467 12.8384C13.5574 13.1956 13.1955 13.4128 12.8383 13.3235L10.1716 12.6568C9.8144 12.5675 9.59723 12.2056 9.68653 11.8484Z" fill="#736BDB"/>
<path fill-rule="evenodd" clip-rule="evenodd" d="M7.66663 10.4686C7.66663 9.12887 8.9581 8.16798 10.2413 8.55294L15 9.98054L19.7586 8.55294C21.0418 8.16798 22.3333 9.12887 22.3333 10.4686V19.5835C22.3333 20.5369 21.6604 21.3577 20.7255 21.5447L15.1307 22.6636C15.0236 22.6851 14.913 22.6799 14.8084 22.6485L9.09193 20.9335C8.24596 20.6797 7.66663 19.9011 7.66663 19.0179V10.4686ZM20.1417 9.83005C20.5695 9.70172 21 10.022 21 10.4686V16.9168C21 17.2346 20.7757 17.5082 20.464 17.5705L15.6666 18.53V11.1726L20.1417 9.83005ZM20.7255 18.878C20.8198 18.8591 20.9114 18.8338 21 18.8026V19.5835C21 19.9013 20.7757 20.1749 20.464 20.2372L15.6666 21.1967V19.8898L20.7255 18.878ZM9.09193 18.2668L14.3333 19.8392V21.1139L9.47506 19.6564C9.19307 19.5718 8.99996 19.3123 8.99996 19.0179V18.2368C9.03025 18.2475 9.06091 18.2575 9.09193 18.2668ZM9.47506 16.9897C9.19307 16.9051 8.99996 16.6456 8.99996 16.3512V10.4686C8.99996 10.022 9.43045 9.70172 9.85819 9.83005L14.3333 11.1726V18.4472L9.47506 16.9897Z" fill="#736BDB"/>
<rect x="1" y="1.34326" width="28" height="28" rx="6" stroke="#9C93FF"/>
</svg>
