<svg width="30" height="30" viewBox="0 0 30 30" fill="none" xmlns="http://www.w3.org/2000/svg">
<path fill-rule="evenodd" clip-rule="evenodd" d="M15.6667 12.0098C15.2985 12.0098 15 12.3083 15 12.6765V18.0098C15 18.378 15.2985 18.6765 15.6667 18.6765H19.6667C20.0349 18.6765 20.3333 18.378 20.3333 18.0098V12.6765C20.3333 12.3083 20.0349 12.0098 19.6667 12.0098H15.6667ZM19 17.3432H16.3333V13.3432H19V17.3432Z" fill="#528120"/>
<path d="M9.66667 12.6765C9.66667 12.3083 9.96514 12.0098 10.3333 12.0098H13C13.3682 12.0098 13.6667 12.3083 13.6667 12.6765C13.6667 13.0447 13.3682 13.3432 13 13.3432H10.3333C9.96514 13.3432 9.66667 13.0447 9.66667 12.6765Z" fill="#528120"/>
<path d="M10.3333 14.6765C9.96514 14.6765 9.66667 14.975 9.66667 15.3432C9.66667 15.7114 9.96514 16.0098 10.3333 16.0098H13C13.3682 16.0098 13.6667 15.7114 13.6667 15.3432C13.6667 14.975 13.3682 14.6765 13 14.6765H10.3333Z" fill="#528120"/>
<path fill-rule="evenodd" clip-rule="evenodd" d="M9 8.67651C7.89543 8.67651 7 9.57194 7 10.6765V20.0098C7 21.1144 7.89543 22.0098 9 22.0098H21C22.1046 22.0098 23 21.1144 23 20.0098V10.6765C23 9.57194 22.1046 8.67651 21 8.67651H9ZM8.33333 10.6765C8.33333 10.3083 8.63181 10.0098 9 10.0098H21C21.3682 10.0098 21.6667 10.3083 21.6667 10.6765V20.0098C21.6667 20.378 21.3682 20.6765 21 20.6765H9C8.63181 20.6765 8.33333 20.378 8.33333 20.0098V10.6765Z" fill="#528120"/>
<rect x="1" y="1.34326" width="28" height="28" rx="6" stroke="#68972D"/>
</svg>
