<svg width="30" height="30" viewBox="0 0 30 30" fill="none" xmlns="http://www.w3.org/2000/svg">
<path d="M11.6667 14.01C11.6667 13.6418 11.9651 13.3433 12.3333 13.3433H17.6667C18.0349 13.3433 18.3333 13.6418 18.3333 14.01C18.3333 14.3782 18.0349 14.6767 17.6667 14.6767H12.3333C11.9651 14.6767 11.6667 14.3782 11.6667 14.01Z" fill="#409EC8"/>
<path d="M12.3333 16.01C11.9651 16.01 11.6667 16.3085 11.6667 16.6767C11.6667 17.0449 11.9651 17.3433 12.3333 17.3433H17.6667C18.0349 17.3433 18.3333 17.0449 18.3333 16.6767C18.3333 16.3085 18.0349 16.01 17.6667 16.01H12.3333Z" fill="#409EC8"/>
<path fill-rule="evenodd" clip-rule="evenodd" d="M12.3333 8.01001C11.9651 8.01001 11.6667 8.30849 11.6667 8.67668V9.34334H11C9.89543 9.34334 9 10.2388 9 11.3433V20.6767C9 21.7812 9.89543 22.6767 11 22.6767H19C20.1046 22.6767 21 21.7812 21 20.6767V11.3433C21 10.2388 20.1046 9.34334 19 9.34334H18.3333V8.67668C18.3333 8.30849 18.0349 8.01001 17.6667 8.01001H12.3333ZM18.3333 10.6767V11.3433C18.3333 11.7115 18.0349 12.01 17.6667 12.01H12.3333C11.9651 12.01 11.6667 11.7115 11.6667 11.3433V10.6767H11C10.6318 10.6767 10.3333 10.9752 10.3333 11.3433V20.6767C10.3333 21.0449 10.6318 21.3433 11 21.3433H19C19.3682 21.3433 19.6667 21.0449 19.6667 20.6767V11.3433C19.6667 10.9752 19.3682 10.6767 19 10.6767H18.3333ZM13 10.6767V9.34334H17V10.6767H13Z" fill="#409EC8"/>
<rect x="1" y="1.34326" width="28" height="28" rx="6" stroke="#58C7E9"/>
</svg>
