<svg width="30" height="30" viewBox="0 0 30 30" fill="none" xmlns="http://www.w3.org/2000/svg">
<path d="M11.8563 14.2322C12.3142 12.9366 13.5498 12.01 15.0001 12.01C16.4504 12.01 17.686 12.9366 18.1439 14.2322C18.2666 14.5793 18.6475 14.7613 18.9946 14.6386C19.3418 14.5159 19.5237 14.135 19.401 13.7878C18.7607 11.9762 17.033 10.6767 15.0001 10.6767C12.9671 10.6767 11.2394 11.9762 10.5991 13.7878C10.4764 14.135 10.6584 14.5159 11.0055 14.6386C11.3527 14.7613 11.7336 14.5793 11.8563 14.2322Z" fill="#736BDB"/>
<path fill-rule="evenodd" clip-rule="evenodd" d="M9.66675 8.01001C8.56218 8.01001 7.66675 8.90544 7.66675 10.01V20.6767C7.66675 21.7812 8.56218 22.6767 9.66675 22.6767H20.3334C21.438 22.6767 22.3334 21.7812 22.3334 20.6767V10.01C22.3334 8.90544 21.438 8.01001 20.3334 8.01001H9.66675ZM9.00008 10.01C9.00008 9.64182 9.29856 9.34334 9.66675 9.34334H20.3334C20.7016 9.34334 21.0001 9.64182 21.0001 10.01V18.01H16.8863C16.6843 17.4387 16.2302 16.9865 15.6576 16.7873C15.6636 16.7513 15.6667 16.7144 15.6667 16.6767V14.6767C15.6667 14.3085 15.3683 14.01 15.0001 14.01C14.6319 14.01 14.3334 14.3085 14.3334 14.6767V16.6767C14.3334 16.7144 14.3365 16.7513 14.3425 16.7873C13.77 16.9865 13.3158 17.4387 13.1139 18.01H9.00008V10.01ZM16.8863 19.3433H21.0001V20.6767C21.0001 21.0449 20.7016 21.3433 20.3334 21.3433H9.66675C9.29856 21.3433 9.00008 21.0449 9.00008 20.6767V19.3433H13.1139C13.3884 20.1201 14.1293 20.6767 15.0001 20.6767C15.8709 20.6767 16.6117 20.1201 16.8863 19.3433ZM15.0001 19.3433C15.3683 19.3433 15.6667 19.0449 15.6667 18.6767C15.6667 18.3085 15.3683 18.01 15.0001 18.01C14.6319 18.01 14.3334 18.3085 14.3334 18.6767C14.3334 19.0449 14.6319 19.3433 15.0001 19.3433Z" fill="#736BDB"/>
<rect x="1" y="1.34326" width="28" height="28" rx="6" stroke="#9C93FF"/>
</svg>
