<svg width="604" height="604" viewBox="0 0 604 604" fill="none" xmlns="http://www.w3.org/2000/svg">
<g clip-path="url(#clip0_10825_17280)">
<rect width="604" height="604" rx="16" fill="url(#paint0_linear_10825_17280)"/>
<g filter="url(#filter0_d_10825_17280)">
<path d="M82.8602 56.18L81.5002 61.44H78.6602L80.8002 56.18H82.8602ZM86.7002 56.18L85.3402 61.44H82.5002L84.6402 56.18H86.7002ZM88.2678 71V57H99.0278V59.52H91.1678V62.72H96.3478V65.16H91.1678V68.48H99.1078V71H88.2678ZM104.298 71.18C103.552 71.18 102.892 71.0467 102.318 70.78C101.745 70.5 101.298 70.12 100.978 69.64C100.658 69.16 100.498 68.6067 100.498 67.98C100.498 66.98 100.872 66.2067 101.618 65.66C102.378 65.1 103.418 64.82 104.738 64.82C105.645 64.82 106.498 64.96 107.298 65.24V64.48C107.298 63.88 107.112 63.4267 106.738 63.12C106.365 62.8133 105.818 62.66 105.098 62.66C104.658 62.66 104.185 62.7333 103.678 62.88C103.172 63.0133 102.585 63.2267 101.918 63.52L100.918 61.5C101.745 61.1267 102.532 60.8467 103.278 60.66C104.038 60.4733 104.798 60.38 105.558 60.38C106.958 60.38 108.045 60.72 108.818 61.4C109.605 62.0667 109.998 63.0133 109.998 64.24V71H107.298V70.26C106.872 70.58 106.412 70.8133 105.918 70.96C105.425 71.1067 104.885 71.18 104.298 71.18ZM103.098 67.92C103.098 68.32 103.272 68.64 103.618 68.88C103.965 69.1067 104.425 69.22 104.998 69.22C105.452 69.22 105.872 69.1667 106.258 69.06C106.645 68.94 106.992 68.7667 107.298 68.54V67.02C106.965 66.8867 106.618 66.7867 106.258 66.72C105.898 66.6533 105.512 66.62 105.098 66.62C104.472 66.62 103.978 66.74 103.618 66.98C103.272 67.2067 103.098 67.52 103.098 67.92ZM117.052 71.2C116.026 71.2 115.099 70.9667 114.272 70.5C113.446 70.02 112.792 69.3733 112.312 68.56C111.832 67.7333 111.592 66.8133 111.592 65.8C111.592 64.7733 111.832 63.8533 112.312 63.04C112.792 62.2267 113.446 61.58 114.272 61.1C115.099 60.62 116.026 60.38 117.052 60.38C117.879 60.38 118.666 60.54 119.412 60.86C120.172 61.18 120.826 61.64 121.372 62.24L119.692 64.02C119.306 63.5933 118.899 63.28 118.472 63.08C118.059 62.8667 117.606 62.76 117.112 62.76C116.579 62.76 116.099 62.8933 115.672 63.16C115.259 63.4267 114.926 63.7867 114.672 64.24C114.432 64.6933 114.312 65.2133 114.312 65.8C114.312 66.36 114.432 66.8733 114.672 67.34C114.926 67.7933 115.272 68.1533 115.712 68.42C116.152 68.6733 116.639 68.8 117.172 68.8C117.639 68.8 118.072 68.7067 118.472 68.52C118.886 68.32 119.279 68.0267 119.652 67.64L121.292 69.36C120.759 69.9333 120.119 70.3867 119.372 70.72C118.626 71.04 117.852 71.2 117.052 71.2ZM122.717 71V57L125.457 56.4V61.44C126.243 60.7333 127.217 60.38 128.377 60.38C129.19 60.38 129.903 60.56 130.517 60.92C131.143 61.2667 131.63 61.7533 131.977 62.38C132.323 62.9933 132.497 63.7133 132.497 64.54V71H129.757V64.94C129.757 64.26 129.563 63.7267 129.177 63.34C128.79 62.94 128.263 62.74 127.597 62.74C127.13 62.74 126.717 62.8333 126.357 63.02C125.997 63.1933 125.697 63.4467 125.457 63.78V71H122.717ZM138.596 71V60.58H141.336V61.74C141.669 61.2867 142.069 60.94 142.536 60.7C143.002 60.46 143.529 60.34 144.116 60.34C144.622 60.3533 145.002 60.4333 145.256 60.58V62.98C145.056 62.8867 144.836 62.82 144.596 62.78C144.356 62.7267 144.109 62.7 143.856 62.7C143.322 62.7 142.836 62.8333 142.396 63.1C141.956 63.3667 141.602 63.7467 141.336 64.24V71H138.596ZM151.45 71.2C150.41 71.2 149.463 70.96 148.61 70.48C147.77 70 147.103 69.3533 146.61 68.54C146.116 67.7267 145.87 66.8133 145.87 65.8C145.87 64.7867 146.103 63.8733 146.57 63.06C147.05 62.2467 147.696 61.6 148.51 61.12C149.323 60.64 150.23 60.4 151.23 60.4C152.23 60.4 153.116 60.6467 153.89 61.14C154.663 61.6333 155.27 62.3 155.71 63.14C156.163 63.98 156.39 64.9333 156.39 66V66.72H148.67C148.79 67.1333 148.983 67.5067 149.25 67.84C149.53 68.1733 149.87 68.4333 150.27 68.62C150.683 68.8067 151.123 68.9 151.59 68.9C152.056 68.9 152.483 68.8267 152.87 68.68C153.27 68.5333 153.61 68.3267 153.89 68.06L155.69 69.7C155.05 70.22 154.39 70.6 153.71 70.84C153.043 71.08 152.29 71.2 151.45 71.2ZM148.63 64.76H153.69C153.596 64.3467 153.423 63.9867 153.17 63.68C152.93 63.36 152.636 63.1133 152.29 62.94C151.956 62.7533 151.583 62.66 151.17 62.66C150.743 62.66 150.356 62.7467 150.01 62.92C149.663 63.0933 149.37 63.34 149.13 63.66C148.903 63.9667 148.736 64.3333 148.63 64.76ZM162.715 71.16C161.555 71.16 160.675 70.9 160.075 70.38C159.489 69.8467 159.195 69.0733 159.195 68.06V62.86H157.055V60.58H159.195V57.92L161.935 57.3V60.58H164.915V62.86H161.935V67.5C161.935 67.98 162.042 68.3267 162.255 68.54C162.469 68.74 162.842 68.84 163.375 68.84C163.642 68.84 163.882 68.8267 164.095 68.8C164.322 68.76 164.569 68.6933 164.835 68.6V70.86C164.555 70.9533 164.202 71.0267 163.775 71.08C163.362 71.1333 163.009 71.16 162.715 71.16ZM170.292 71.2C169.492 71.2 168.779 71.0267 168.152 70.68C167.539 70.32 167.052 69.8267 166.692 69.2C166.345 68.5733 166.172 67.8533 166.172 67.04V60.58H168.912V66.64C168.912 67.3067 169.105 67.84 169.492 68.24C169.892 68.64 170.425 68.84 171.092 68.84C171.545 68.84 171.952 68.7533 172.312 68.58C172.685 68.3933 172.992 68.1333 173.232 67.8V60.58H175.972V71H173.232V70.16C172.432 70.8533 171.452 71.2 170.292 71.2ZM178.107 71V60.58H180.847V61.74C181.181 61.2867 181.581 60.94 182.047 60.7C182.514 60.46 183.041 60.34 183.627 60.34C184.134 60.3533 184.514 60.4333 184.767 60.58V62.98C184.567 62.8867 184.347 62.82 184.107 62.78C183.867 62.7267 183.621 62.7 183.367 62.7C182.834 62.7 182.347 62.8333 181.907 63.1C181.467 63.3667 181.114 63.7467 180.847 64.24V71H178.107ZM186.271 71V60.58H189.011V61.44C189.798 60.7333 190.771 60.38 191.931 60.38C192.745 60.38 193.458 60.56 194.071 60.92C194.698 61.2667 195.185 61.7533 195.531 62.38C195.878 62.9933 196.051 63.7133 196.051 64.54V71H193.311V64.94C193.311 64.26 193.118 63.7267 192.731 63.34C192.345 62.94 191.818 62.74 191.151 62.74C190.685 62.74 190.271 62.8333 189.911 63.02C189.551 63.1933 189.251 63.4467 189.011 63.78V71H186.271ZM203.227 71.2C202.187 71.2 201.24 70.96 200.387 70.48C199.547 70 198.88 69.3533 198.387 68.54C197.894 67.7267 197.647 66.8133 197.647 65.8C197.647 64.7867 197.88 63.8733 198.347 63.06C198.827 62.2467 199.474 61.6 200.287 61.12C201.1 60.64 202.007 60.4 203.007 60.4C204.007 60.4 204.894 60.6467 205.667 61.14C206.44 61.6333 207.047 62.3 207.487 63.14C207.94 63.98 208.167 64.9333 208.167 66V66.72H200.447C200.567 67.1333 200.76 67.5067 201.027 67.84C201.307 68.1733 201.647 68.4333 202.047 68.62C202.46 68.8067 202.9 68.9 203.367 68.9C203.834 68.9 204.26 68.8267 204.647 68.68C205.047 68.5333 205.387 68.3267 205.667 68.06L207.467 69.7C206.827 70.22 206.167 70.6 205.487 70.84C204.82 71.08 204.067 71.2 203.227 71.2ZM200.407 64.76H205.467C205.374 64.3467 205.2 63.9867 204.947 63.68C204.707 63.36 204.414 63.1133 204.067 62.94C203.734 62.7533 203.36 62.66 202.947 62.66C202.52 62.66 202.134 62.7467 201.787 62.92C201.44 63.0933 201.147 63.34 200.907 63.66C200.68 63.9667 200.514 64.3333 200.407 64.76ZM214.744 71.14C213.757 71.14 212.864 70.9 212.064 70.42C211.264 69.94 210.624 69.3 210.144 68.5C209.677 67.6867 209.444 66.78 209.444 65.78C209.444 64.78 209.677 63.88 210.144 63.08C210.624 62.2667 211.27 61.6267 212.084 61.16C212.897 60.68 213.81 60.44 214.824 60.44C215.344 60.44 215.844 60.5133 216.324 60.66C216.804 60.7933 217.25 60.9933 217.664 61.26V57L220.404 56.54V71H217.704V70.14C216.85 70.8067 215.864 71.14 214.744 71.14ZM215.184 68.8C215.69 68.8 216.15 68.72 216.564 68.56C216.99 68.3867 217.357 68.1333 217.664 67.8V63.74C217.357 63.4333 216.99 63.1933 216.564 63.02C216.137 62.8467 215.677 62.76 215.184 62.76C214.61 62.76 214.09 62.8933 213.624 63.16C213.17 63.4133 212.81 63.7733 212.544 64.24C212.277 64.6933 212.144 65.2067 212.144 65.78C212.144 66.3533 212.277 66.8667 212.544 67.32C212.81 67.7733 213.17 68.1333 213.624 68.4C214.09 68.6667 214.61 68.8 215.184 68.8ZM230.604 71.2C229.804 71.2 229.091 71.0267 228.464 70.68C227.851 70.32 227.364 69.8267 227.004 69.2C226.658 68.5733 226.484 67.8533 226.484 67.04V60.58H229.224V66.64C229.224 67.3067 229.418 67.84 229.804 68.24C230.204 68.64 230.738 68.84 231.404 68.84C231.858 68.84 232.264 68.7533 232.624 68.58C232.998 68.3933 233.304 68.1333 233.544 67.8V60.58H236.284V71H233.544V70.16C232.744 70.8533 231.764 71.2 230.604 71.2ZM238.42 71V60.58H241.16V61.44C241.947 60.7333 242.92 60.38 244.08 60.38C244.893 60.38 245.607 60.56 246.22 60.92C246.847 61.2667 247.333 61.7533 247.68 62.38C248.027 62.9933 248.2 63.7133 248.2 64.54V71H245.46V64.94C245.46 64.26 245.267 63.7267 244.88 63.34C244.493 62.94 243.967 62.74 243.3 62.74C242.833 62.74 242.42 62.8333 242.06 63.02C241.7 63.1933 241.4 63.4467 241.16 63.78V71H238.42ZM250.275 71V60.58H253.015V71H250.275ZM251.635 59.34C251.209 59.34 250.842 59.1867 250.535 58.88C250.229 58.5733 250.075 58.2067 250.075 57.78C250.075 57.34 250.229 56.9733 250.535 56.68C250.842 56.3733 251.209 56.22 251.635 56.22C252.075 56.22 252.442 56.3733 252.735 56.68C253.042 56.9733 253.195 57.34 253.195 57.78C253.195 58.2067 253.042 58.5733 252.735 58.88C252.442 59.1867 252.075 59.34 251.635 59.34ZM260.098 71.16C258.938 71.16 258.058 70.9 257.458 70.38C256.871 69.8467 256.578 69.0733 256.578 68.06V62.86H254.438V60.58H256.578V57.92L259.318 57.3V60.58H262.298V62.86H259.318V67.5C259.318 67.98 259.425 68.3267 259.638 68.54C259.851 68.74 260.225 68.84 260.758 68.84C261.025 68.84 261.265 68.8267 261.478 68.8C261.705 68.76 261.951 68.6933 262.218 68.6V70.86C261.938 70.9533 261.585 71.0267 261.158 71.08C260.745 71.1333 260.391 71.16 260.098 71.16ZM267.658 71V57L270.398 56.4V61.44C271.185 60.7333 272.158 60.38 273.318 60.38C274.131 60.38 274.845 60.56 275.458 60.92C276.085 61.2667 276.571 61.7533 276.918 62.38C277.265 62.9933 277.438 63.7133 277.438 64.54V71H274.698V64.94C274.698 64.26 274.505 63.7267 274.118 63.34C273.731 62.94 273.205 62.74 272.538 62.74C272.071 62.74 271.658 62.8333 271.298 63.02C270.938 63.1933 270.638 63.4467 270.398 63.78V71H267.658ZM282.834 71.18C282.087 71.18 281.427 71.0467 280.854 70.78C280.28 70.5 279.834 70.12 279.514 69.64C279.194 69.16 279.034 68.6067 279.034 67.98C279.034 66.98 279.407 66.2067 280.154 65.66C280.914 65.1 281.954 64.82 283.274 64.82C284.18 64.82 285.034 64.96 285.834 65.24V64.48C285.834 63.88 285.647 63.4267 285.274 63.12C284.9 62.8133 284.354 62.66 283.634 62.66C283.194 62.66 282.72 62.7333 282.214 62.88C281.707 63.0133 281.12 63.2267 280.454 63.52L279.454 61.5C280.28 61.1267 281.067 60.8467 281.814 60.66C282.574 60.4733 283.334 60.38 284.094 60.38C285.494 60.38 286.58 60.72 287.354 61.4C288.14 62.0667 288.534 63.0133 288.534 64.24V71H285.834V70.26C285.407 70.58 284.947 70.8133 284.454 70.96C283.96 71.1067 283.42 71.18 282.834 71.18ZM281.634 67.92C281.634 68.32 281.807 68.64 282.154 68.88C282.5 69.1067 282.96 69.22 283.534 69.22C283.987 69.22 284.407 69.1667 284.794 69.06C285.18 68.94 285.527 68.7667 285.834 68.54V67.02C285.5 66.8867 285.154 66.7867 284.794 66.72C284.434 66.6533 284.047 66.62 283.634 66.62C283.007 66.62 282.514 66.74 282.154 66.98C281.807 67.2067 281.634 67.52 281.634 67.92ZM294.507 71.2C293.547 71.2 292.661 71.08 291.847 70.84C291.034 70.5867 290.327 70.2267 289.727 69.76L291.087 67.94C291.687 68.34 292.261 68.64 292.807 68.84C293.367 69.04 293.921 69.14 294.467 69.14C295.081 69.14 295.567 69.04 295.927 68.84C296.301 68.6267 296.487 68.3533 296.487 68.02C296.487 67.7533 296.381 67.54 296.167 67.38C295.967 67.22 295.641 67.1067 295.187 67.04L293.187 66.74C292.147 66.58 291.361 66.2467 290.827 65.74C290.294 65.22 290.027 64.54 290.027 63.7C290.027 63.02 290.201 62.44 290.547 61.96C290.907 61.4667 291.407 61.0867 292.047 60.82C292.701 60.54 293.474 60.4 294.367 60.4C295.127 60.4 295.867 60.5067 296.587 60.72C297.321 60.9333 298.007 61.26 298.647 61.7L297.327 63.48C296.754 63.12 296.207 62.86 295.687 62.7C295.167 62.54 294.641 62.46 294.107 62.46C293.614 62.46 293.214 62.5533 292.907 62.74C292.614 62.9267 292.467 63.1733 292.467 63.48C292.467 63.76 292.574 63.98 292.787 64.14C293.001 64.3 293.367 64.4133 293.887 64.48L295.867 64.78C296.907 64.9267 297.701 65.26 298.247 65.78C298.794 66.2867 299.067 66.9467 299.067 67.76C299.067 68.4267 298.867 69.02 298.467 69.54C298.067 70.0467 297.527 70.4533 296.847 70.76C296.167 71.0533 295.387 71.2 294.507 71.2ZM307.775 71.18C307.028 71.18 306.368 71.0467 305.795 70.78C305.222 70.5 304.775 70.12 304.455 69.64C304.135 69.16 303.975 68.6067 303.975 67.98C303.975 66.98 304.348 66.2067 305.095 65.66C305.855 65.1 306.895 64.82 308.215 64.82C309.122 64.82 309.975 64.96 310.775 65.24V64.48C310.775 63.88 310.588 63.4267 310.215 63.12C309.842 62.8133 309.295 62.66 308.575 62.66C308.135 62.66 307.662 62.7333 307.155 62.88C306.648 63.0133 306.062 63.2267 305.395 63.52L304.395 61.5C305.222 61.1267 306.008 60.8467 306.755 60.66C307.515 60.4733 308.275 60.38 309.035 60.38C310.435 60.38 311.522 60.72 312.295 61.4C313.082 62.0667 313.475 63.0133 313.475 64.24V71H310.775V70.26C310.348 70.58 309.888 70.8133 309.395 70.96C308.902 71.1067 308.362 71.18 307.775 71.18ZM306.575 67.92C306.575 68.32 306.748 68.64 307.095 68.88C307.442 69.1067 307.902 69.22 308.475 69.22C308.928 69.22 309.348 69.1667 309.735 69.06C310.122 68.94 310.468 68.7667 310.775 68.54V67.02C310.442 66.8867 310.095 66.7867 309.735 66.72C309.375 66.6533 308.988 66.62 308.575 66.62C307.948 66.62 307.455 66.74 307.095 66.98C306.748 67.2067 306.575 67.52 306.575 67.92ZM324.392 71.14C323.406 71.14 322.512 70.9 321.712 70.42C320.912 69.94 320.272 69.3 319.792 68.5C319.326 67.6867 319.092 66.78 319.092 65.78C319.092 64.78 319.326 63.88 319.792 63.08C320.272 62.2667 320.919 61.6267 321.732 61.16C322.546 60.68 323.459 60.44 324.472 60.44C324.992 60.44 325.492 60.5133 325.972 60.66C326.452 60.7933 326.899 60.9933 327.312 61.26V57L330.052 56.54V71H327.352V70.14C326.499 70.8067 325.512 71.14 324.392 71.14ZM324.832 68.8C325.339 68.8 325.799 68.72 326.212 68.56C326.639 68.3867 327.006 68.1333 327.312 67.8V63.74C327.006 63.4333 326.639 63.1933 326.212 63.02C325.786 62.8467 325.326 62.76 324.832 62.76C324.259 62.76 323.739 62.8933 323.272 63.16C322.819 63.4133 322.459 63.7733 322.192 64.24C321.926 64.6933 321.792 65.2067 321.792 65.78C321.792 66.3533 321.926 66.8667 322.192 67.32C322.459 67.7733 322.819 68.1333 323.272 68.4C323.739 68.6667 324.259 68.8 324.832 68.8ZM332.189 71V60.58H334.929V71H332.189ZM333.549 59.34C333.123 59.34 332.756 59.1867 332.449 58.88C332.143 58.5733 331.989 58.2067 331.989 57.78C331.989 57.34 332.143 56.9733 332.449 56.68C332.756 56.3733 333.123 56.22 333.549 56.22C333.989 56.22 334.356 56.3733 334.649 56.68C334.956 56.9733 335.109 57.34 335.109 57.78C335.109 58.2067 334.956 58.5733 334.649 58.88C334.356 59.1867 333.989 59.34 333.549 59.34ZM337.072 71V60.58H339.812V61.74C340.146 61.2867 340.546 60.94 341.012 60.7C341.479 60.46 342.006 60.34 342.592 60.34C343.099 60.3533 343.479 60.4333 343.732 60.58V62.98C343.532 62.8867 343.312 62.82 343.072 62.78C342.832 62.7267 342.586 62.7 342.332 62.7C341.799 62.7 341.312 62.8333 340.872 63.1C340.432 63.3667 340.079 63.7467 339.812 64.24V71H337.072ZM349.926 71.2C348.886 71.2 347.939 70.96 347.086 70.48C346.246 70 345.579 69.3533 345.086 68.54C344.593 67.7267 344.346 66.8133 344.346 65.8C344.346 64.7867 344.579 63.8733 345.046 63.06C345.526 62.2467 346.173 61.6 346.986 61.12C347.799 60.64 348.706 60.4 349.706 60.4C350.706 60.4 351.593 60.6467 352.366 61.14C353.139 61.6333 353.746 62.3 354.186 63.14C354.639 63.98 354.866 64.9333 354.866 66V66.72H347.146C347.266 67.1333 347.459 67.5067 347.726 67.84C348.006 68.1733 348.346 68.4333 348.746 68.62C349.159 68.8067 349.599 68.9 350.066 68.9C350.533 68.9 350.959 68.8267 351.346 68.68C351.746 68.5333 352.086 68.3267 352.366 68.06L354.166 69.7C353.526 70.22 352.866 70.6 352.186 70.84C351.519 71.08 350.766 71.2 349.926 71.2ZM347.106 64.76H352.166C352.073 64.3467 351.899 63.9867 351.646 63.68C351.406 63.36 351.113 63.1133 350.766 62.94C350.433 62.7533 350.059 62.66 349.646 62.66C349.219 62.66 348.833 62.7467 348.486 62.92C348.139 63.0933 347.846 63.34 347.606 63.66C347.379 63.9667 347.213 64.3333 347.106 64.76ZM361.603 71.2C360.576 71.2 359.65 70.9667 358.823 70.5C357.996 70.02 357.343 69.3733 356.863 68.56C356.383 67.7333 356.143 66.8133 356.143 65.8C356.143 64.7733 356.383 63.8533 356.863 63.04C357.343 62.2267 357.996 61.58 358.823 61.1C359.65 60.62 360.576 60.38 361.603 60.38C362.43 60.38 363.216 60.54 363.963 60.86C364.723 61.18 365.376 61.64 365.923 62.24L364.243 64.02C363.856 63.5933 363.45 63.28 363.023 63.08C362.61 62.8667 362.156 62.76 361.663 62.76C361.13 62.76 360.65 62.8933 360.223 63.16C359.81 63.4267 359.476 63.7867 359.223 64.24C358.983 64.6933 358.863 65.2133 358.863 65.8C358.863 66.36 358.983 66.8733 359.223 67.34C359.476 67.7933 359.823 68.1533 360.263 68.42C360.703 68.6733 361.19 68.8 361.723 68.8C362.19 68.8 362.623 68.7067 363.023 68.52C363.436 68.32 363.83 68.0267 364.203 67.64L365.843 69.36C365.31 69.9333 364.67 70.3867 363.923 70.72C363.176 71.04 362.403 71.2 361.603 71.2ZM372.403 71.16C371.243 71.16 370.363 70.9 369.763 70.38C369.176 69.8467 368.883 69.0733 368.883 68.06V62.86H366.743V60.58H368.883V57.92L371.623 57.3V60.58H374.603V62.86H371.623V67.5C371.623 67.98 371.729 68.3267 371.943 68.54C372.156 68.74 372.529 68.84 373.063 68.84C373.329 68.84 373.569 68.8267 373.783 68.8C374.009 68.76 374.256 68.6933 374.523 68.6V70.86C374.243 70.9533 373.889 71.0267 373.463 71.08C373.049 71.1333 372.696 71.16 372.403 71.16ZM379.963 71V60.58H382.703V71H379.963ZM381.323 59.34C380.896 59.34 380.529 59.1867 380.223 58.88C379.916 58.5733 379.763 58.2067 379.763 57.78C379.763 57.34 379.916 56.9733 380.223 56.68C380.529 56.3733 380.896 56.22 381.323 56.22C381.763 56.22 382.129 56.3733 382.423 56.68C382.729 56.9733 382.883 57.34 382.883 57.78C382.883 58.2067 382.729 58.5733 382.423 58.88C382.129 59.1867 381.763 59.34 381.323 59.34ZM384.846 71V60.58H387.586V61.38C388.332 60.7133 389.239 60.38 390.306 60.38C390.986 60.38 391.592 60.52 392.126 60.8C392.659 61.0667 393.099 61.4467 393.446 61.94C393.872 61.4333 394.372 61.0467 394.946 60.78C395.532 60.5133 396.179 60.38 396.886 60.38C397.672 60.38 398.359 60.56 398.946 60.92C399.546 61.2667 400.012 61.7533 400.346 62.38C400.692 62.9933 400.866 63.7133 400.866 64.54V71H398.146V64.94C398.146 64.26 397.966 63.7267 397.606 63.34C397.246 62.94 396.766 62.74 396.166 62.74C395.752 62.74 395.372 62.8267 395.026 63C394.692 63.1733 394.406 63.4333 394.166 63.78C394.179 63.9 394.192 64.02 394.206 64.14C394.219 64.26 394.226 64.3933 394.226 64.54V71H391.486V64.94C391.486 64.26 391.306 63.7267 390.946 63.34C390.599 62.94 390.126 62.74 389.526 62.74C389.112 62.74 388.739 62.82 388.406 62.98C388.086 63.14 387.812 63.38 387.586 63.7V71H384.846ZM402.951 75.08V60.58H405.651V61.44C406.504 60.7733 407.491 60.44 408.611 60.44C409.598 60.44 410.491 60.68 411.291 61.16C412.091 61.64 412.724 62.2867 413.191 63.1C413.671 63.9 413.911 64.8 413.911 65.8C413.911 66.8 413.671 67.7067 413.191 68.52C412.711 69.32 412.064 69.96 411.251 70.44C410.438 70.9067 409.531 71.14 408.531 71.14C408.011 71.14 407.511 71.0733 407.031 70.94C406.551 70.7933 406.104 70.5867 405.691 70.32V75.08H402.951ZM408.171 68.82C408.744 68.82 409.258 68.6867 409.711 68.42C410.178 68.1533 410.544 67.7933 410.811 67.34C411.078 66.8867 411.211 66.3733 411.211 65.8C411.211 65.2267 411.078 64.7133 410.811 64.26C410.544 63.7933 410.178 63.4333 409.711 63.18C409.258 62.9133 408.744 62.78 408.171 62.78C407.664 62.78 407.198 62.8667 406.771 63.04C406.358 63.2 405.998 63.4467 405.691 63.78V67.84C405.984 68.1467 406.344 68.3867 406.771 68.56C407.211 68.7333 407.678 68.82 408.171 68.82ZM418.986 71.18C418.239 71.18 417.579 71.0467 417.006 70.78C416.433 70.5 415.986 70.12 415.666 69.64C415.346 69.16 415.186 68.6067 415.186 67.98C415.186 66.98 415.559 66.2067 416.306 65.66C417.066 65.1 418.106 64.82 419.426 64.82C420.333 64.82 421.186 64.96 421.986 65.24V64.48C421.986 63.88 421.799 63.4267 421.426 63.12C421.053 62.8133 420.506 62.66 419.786 62.66C419.346 62.66 418.873 62.7333 418.366 62.88C417.859 63.0133 417.273 63.2267 416.606 63.52L415.606 61.5C416.433 61.1267 417.219 60.8467 417.966 60.66C418.726 60.4733 419.486 60.38 420.246 60.38C421.646 60.38 422.733 60.72 423.506 61.4C424.293 62.0667 424.686 63.0133 424.686 64.24V71H421.986V70.26C421.559 70.58 421.099 70.8133 420.606 70.96C420.113 71.1067 419.573 71.18 418.986 71.18ZM417.786 67.92C417.786 68.32 417.959 68.64 418.306 68.88C418.653 69.1067 419.113 69.22 419.686 69.22C420.139 69.22 420.559 69.1667 420.946 69.06C421.333 68.94 421.679 68.7667 421.986 68.54V67.02C421.653 66.8867 421.306 66.7867 420.946 66.72C420.586 66.6533 420.199 66.62 419.786 66.62C419.159 66.62 418.666 66.74 418.306 66.98C417.959 67.2067 417.786 67.52 417.786 67.92ZM431.74 71.2C430.713 71.2 429.786 70.9667 428.96 70.5C428.133 70.02 427.48 69.3733 427 68.56C426.52 67.7333 426.28 66.8133 426.28 65.8C426.28 64.7733 426.52 63.8533 427 63.04C427.48 62.2267 428.133 61.58 428.96 61.1C429.786 60.62 430.713 60.38 431.74 60.38C432.566 60.38 433.353 60.54 434.1 60.86C434.86 61.18 435.513 61.64 436.06 62.24L434.38 64.02C433.993 63.5933 433.586 63.28 433.16 63.08C432.746 62.8667 432.293 62.76 431.8 62.76C431.266 62.76 430.786 62.8933 430.36 63.16C429.946 63.4267 429.613 63.7867 429.36 64.24C429.12 64.6933 429 65.2133 429 65.8C429 66.36 429.12 66.8733 429.36 67.34C429.613 67.7933 429.96 68.1533 430.4 68.42C430.84 68.6733 431.326 68.8 431.86 68.8C432.326 68.8 432.76 68.7067 433.16 68.52C433.573 68.32 433.966 68.0267 434.34 67.64L435.98 69.36C435.446 69.9333 434.806 70.3867 434.06 70.72C433.313 71.04 432.54 71.2 431.74 71.2ZM442.54 71.16C441.38 71.16 440.5 70.9 439.9 70.38C439.313 69.8467 439.02 69.0733 439.02 68.06V62.86H436.88V60.58H439.02V57.92L441.76 57.3V60.58H444.74V62.86H441.76V67.5C441.76 67.98 441.866 68.3267 442.08 68.54C442.293 68.74 442.666 68.84 443.2 68.84C443.466 68.84 443.706 68.8267 443.92 68.8C444.146 68.76 444.393 68.6933 444.66 68.6V70.86C444.38 70.9533 444.026 71.0267 443.6 71.08C443.186 71.1333 442.833 71.16 442.54 71.16ZM455.18 71.2C454.14 71.2 453.2 70.96 452.36 70.48C451.52 70 450.853 69.3533 450.36 68.54C449.866 67.7267 449.62 66.8133 449.62 65.8C449.62 64.7867 449.86 63.8733 450.34 63.06C450.833 62.2333 451.5 61.58 452.34 61.1C453.193 60.62 454.14 60.38 455.18 60.38C456.22 60.38 457.16 60.62 458 61.1C458.853 61.58 459.52 62.2333 460 63.06C460.493 63.8733 460.74 64.7867 460.74 65.8C460.74 66.8133 460.493 67.7267 460 68.54C459.52 69.3533 458.86 70 458.02 70.48C457.18 70.96 456.233 71.2 455.18 71.2ZM455.18 68.82C455.726 68.82 456.213 68.6867 456.64 68.42C457.08 68.1533 457.426 67.7933 457.68 67.34C457.946 66.8733 458.08 66.36 458.08 65.8C458.08 65.2267 457.946 64.7133 457.68 64.26C457.426 63.8067 457.08 63.4467 456.64 63.18C456.213 62.9 455.726 62.76 455.18 62.76C454.646 62.76 454.16 62.9 453.72 63.18C453.28 63.4467 452.933 63.8067 452.68 64.26C452.426 64.7133 452.3 65.2267 452.3 65.8C452.3 66.36 452.426 66.8733 452.68 67.34C452.933 67.7933 453.28 68.1533 453.72 68.42C454.16 68.6867 454.646 68.82 455.18 68.82ZM462.424 71V60.58H465.164V61.44C465.95 60.7333 466.924 60.38 468.084 60.38C468.897 60.38 469.61 60.56 470.224 60.92C470.85 61.2667 471.337 61.7533 471.684 62.38C472.03 62.9933 472.204 63.7133 472.204 64.54V71H469.464V64.94C469.464 64.26 469.27 63.7267 468.884 63.34C468.497 62.94 467.97 62.74 467.304 62.74C466.837 62.74 466.424 62.8333 466.064 63.02C465.704 63.1933 465.404 63.4467 465.164 63.78V71H462.424ZM479.323 75.3C479.083 75.3 478.849 75.2867 478.623 75.26C478.409 75.2467 478.229 75.2267 478.083 75.2V72.84C478.349 72.8933 478.669 72.92 479.043 72.92C480.043 72.92 480.736 72.4467 481.123 71.5L481.283 71.1L477.223 60.58H480.243L482.843 67.68L485.783 60.58H488.743L483.943 71.84C483.583 72.68 483.189 73.3533 482.763 73.86C482.336 74.3667 481.843 74.7333 481.283 74.96C480.736 75.1867 480.083 75.3 479.323 75.3ZM494.633 71.2C493.593 71.2 492.653 70.96 491.813 70.48C490.973 70 490.306 69.3533 489.813 68.54C489.319 67.7267 489.073 66.8133 489.073 65.8C489.073 64.7867 489.313 63.8733 489.793 63.06C490.286 62.2333 490.953 61.58 491.793 61.1C492.646 60.62 493.593 60.38 494.633 60.38C495.673 60.38 496.613 60.62 497.453 61.1C498.306 61.58 498.973 62.2333 499.453 63.06C499.946 63.8733 500.193 64.7867 500.193 65.8C500.193 66.8133 499.946 67.7267 499.453 68.54C498.973 69.3533 498.313 70 497.473 70.48C496.633 70.96 495.686 71.2 494.633 71.2ZM494.633 68.82C495.179 68.82 495.666 68.6867 496.093 68.42C496.533 68.1533 496.879 67.7933 497.133 67.34C497.399 66.8733 497.533 66.36 497.533 65.8C497.533 65.2267 497.399 64.7133 497.133 64.26C496.879 63.8067 496.533 63.4467 496.093 63.18C495.666 62.9 495.179 62.76 494.633 62.76C494.099 62.76 493.613 62.9 493.173 63.18C492.733 63.4467 492.386 63.8067 492.133 64.26C491.879 64.7133 491.753 65.2267 491.753 65.8C491.753 66.36 491.879 66.8733 492.133 67.34C492.386 67.7933 492.733 68.1533 493.173 68.42C493.613 68.6867 494.099 68.82 494.633 68.82ZM505.917 71.2C505.117 71.2 504.404 71.0267 503.777 70.68C503.164 70.32 502.677 69.8267 502.317 69.2C501.97 68.5733 501.797 67.8533 501.797 67.04V60.58H504.537V66.64C504.537 67.3067 504.73 67.84 505.117 68.24C505.517 68.64 506.05 68.84 506.717 68.84C507.17 68.84 507.577 68.7533 507.937 68.58C508.31 68.3933 508.617 68.1333 508.857 67.8V60.58H511.597V71H508.857V70.16C508.057 70.8533 507.077 71.2 505.917 71.2ZM513.732 71V60.58H516.472V61.74C516.806 61.2867 517.206 60.94 517.672 60.7C518.139 60.46 518.666 60.34 519.252 60.34C519.759 60.3533 520.139 60.4333 520.392 60.58V62.98C520.192 62.8867 519.972 62.82 519.732 62.78C519.492 62.7267 519.246 62.7 518.992 62.7C518.459 62.7 517.972 62.8333 517.532 63.1C517.092 63.3667 516.739 63.7467 516.472 64.24V71H513.732ZM51.3984 99V85L54.1384 84.54V89.42C54.965 88.7667 55.9384 88.44 57.0584 88.44C58.045 88.44 58.9384 88.68 59.7384 89.16C60.5384 89.64 61.1717 90.2867 61.6384 91.1C62.1184 91.9 62.3584 92.8 62.3584 93.8C62.3584 94.8 62.1184 95.7067 61.6384 96.52C61.1584 97.32 60.5117 97.96 59.6984 98.44C58.885 98.9067 57.9784 99.14 56.9784 99.14C56.4584 99.14 55.9517 99.0667 55.4584 98.92C54.965 98.7733 54.5117 98.56 54.0984 98.28V99H51.3984ZM56.6184 96.82C57.1917 96.82 57.705 96.6867 58.1584 96.42C58.625 96.1533 58.9917 95.7933 59.2584 95.34C59.525 94.8867 59.6584 94.3733 59.6584 93.8C59.6584 93.2267 59.525 92.7133 59.2584 92.26C58.9917 91.7933 58.625 91.4333 58.1584 91.18C57.705 90.9133 57.1917 90.78 56.6184 90.78C56.1117 90.78 55.645 90.8667 55.2184 91.04C54.805 91.2 54.445 91.4467 54.1384 91.78V95.84C54.4317 96.1467 54.7917 96.3867 55.2184 96.56C55.6584 96.7333 56.125 96.82 56.6184 96.82ZM69.0955 99.2C68.0555 99.2 67.1155 98.96 66.2755 98.48C65.4355 98 64.7689 97.3533 64.2755 96.54C63.7822 95.7267 63.5355 94.8133 63.5355 93.8C63.5355 92.7867 63.7755 91.8733 64.2555 91.06C64.7489 90.2333 65.4155 89.58 66.2555 89.1C67.1089 88.62 68.0555 88.38 69.0955 88.38C70.1355 88.38 71.0755 88.62 71.9155 89.1C72.7689 89.58 73.4355 90.2333 73.9155 91.06C74.4089 91.8733 74.6555 92.7867 74.6555 93.8C74.6555 94.8133 74.4089 95.7267 73.9155 96.54C73.4355 97.3533 72.7755 98 71.9355 98.48C71.0955 98.96 70.1489 99.2 69.0955 99.2ZM69.0955 96.82C69.6422 96.82 70.1289 96.6867 70.5555 96.42C70.9955 96.1533 71.3422 95.7933 71.5955 95.34C71.8622 94.8733 71.9955 94.36 71.9955 93.8C71.9955 93.2267 71.8622 92.7133 71.5955 92.26C71.3422 91.8067 70.9955 91.4467 70.5555 91.18C70.1289 90.9 69.6422 90.76 69.0955 90.76C68.5622 90.76 68.0755 90.9 67.6355 91.18C67.1955 91.4467 66.8489 91.8067 66.5955 92.26C66.3422 92.7133 66.2155 93.2267 66.2155 93.8C66.2155 94.36 66.3422 94.8733 66.5955 95.34C66.8489 95.7933 67.1955 96.1533 67.6355 96.42C68.0755 96.6867 68.5622 96.82 69.0955 96.82ZM80.8696 99.16C79.7096 99.16 78.8296 98.9 78.2296 98.38C77.6429 97.8467 77.3496 97.0733 77.3496 96.06V90.86H75.2096V88.58H77.3496V85.92L80.0896 85.3V88.58H83.0696V90.86H80.0896V95.5C80.0896 95.98 80.1963 96.3267 80.4096 96.54C80.6229 96.74 80.9963 96.84 81.5296 96.84C81.7963 96.84 82.0363 96.8267 82.2496 96.8C82.4763 96.76 82.7229 96.6933 82.9896 96.6V98.86C82.7096 98.9533 82.3563 99.0267 81.9296 99.08C81.5163 99.1333 81.1629 99.16 80.8696 99.16ZM89.5415 99.16C88.3815 99.16 87.5015 98.9 86.9015 98.38C86.3148 97.8467 86.0215 97.0733 86.0215 96.06V90.86H83.8815V88.58H86.0215V85.92L88.7615 85.3V88.58H91.7415V90.86H88.7615V95.5C88.7615 95.98 88.8682 96.3267 89.0815 96.54C89.2948 96.74 89.6682 96.84 90.2015 96.84C90.4682 96.84 90.7082 96.8267 90.9215 96.8C91.1482 96.76 91.3948 96.6933 91.6615 96.6V98.86C91.3815 98.9533 91.0282 99.0267 90.6015 99.08C90.1882 99.1333 89.8348 99.16 89.5415 99.16ZM98.0409 99.2C97.0009 99.2 96.0609 98.96 95.2209 98.48C94.3809 98 93.7142 97.3533 93.2209 96.54C92.7275 95.7267 92.4809 94.8133 92.4809 93.8C92.4809 92.7867 92.7209 91.8733 93.2009 91.06C93.6942 90.2333 94.3609 89.58 95.2009 89.1C96.0542 88.62 97.0009 88.38 98.0409 88.38C99.0809 88.38 100.021 88.62 100.861 89.1C101.714 89.58 102.381 90.2333 102.861 91.06C103.354 91.8733 103.601 92.7867 103.601 93.8C103.601 94.8133 103.354 95.7267 102.861 96.54C102.381 97.3533 101.721 98 100.881 98.48C100.041 98.96 99.0942 99.2 98.0409 99.2ZM98.0409 96.82C98.5875 96.82 99.0742 96.6867 99.5009 96.42C99.9409 96.1533 100.288 95.7933 100.541 95.34C100.808 94.8733 100.941 94.36 100.941 93.8C100.941 93.2267 100.808 92.7133 100.541 92.26C100.288 91.8067 99.9409 91.4467 99.5009 91.18C99.0742 90.9 98.5875 90.76 98.0409 90.76C97.5075 90.76 97.0209 90.9 96.5809 91.18C96.1409 91.4467 95.7942 91.8067 95.5409 92.26C95.2875 92.7133 95.1609 93.2267 95.1609 93.8C95.1609 94.36 95.2875 94.8733 95.5409 95.34C95.7942 95.7933 96.1409 96.1533 96.5809 96.42C97.0209 96.6867 97.5075 96.82 98.0409 96.82ZM105.285 99V88.58H108.025V89.38C108.772 88.7133 109.678 88.38 110.745 88.38C111.425 88.38 112.032 88.52 112.565 88.8C113.098 89.0667 113.538 89.4467 113.885 89.94C114.312 89.4333 114.812 89.0467 115.385 88.78C115.972 88.5133 116.618 88.38 117.325 88.38C118.112 88.38 118.798 88.56 119.385 88.92C119.985 89.2667 120.452 89.7533 120.785 90.38C121.132 90.9933 121.305 91.7133 121.305 92.54V99H118.585V92.94C118.585 92.26 118.405 91.7267 118.045 91.34C117.685 90.94 117.205 90.74 116.605 90.74C116.192 90.74 115.812 90.8267 115.465 91C115.132 91.1733 114.845 91.4333 114.605 91.78C114.618 91.9 114.632 92.02 114.645 92.14C114.658 92.26 114.665 92.3933 114.665 92.54V99H111.925V92.94C111.925 92.26 111.745 91.7267 111.385 91.34C111.038 90.94 110.565 90.74 109.965 90.74C109.552 90.74 109.178 90.82 108.845 90.98C108.525 91.14 108.252 91.38 108.025 91.7V99H105.285ZM127.414 99V85L130.154 84.54V99H127.414ZM132.297 99V88.58H135.037V99H132.297ZM133.657 87.34C133.23 87.34 132.863 87.1867 132.557 86.88C132.25 86.5733 132.097 86.2067 132.097 85.78C132.097 85.34 132.25 84.9733 132.557 84.68C132.863 84.3733 133.23 84.22 133.657 84.22C134.097 84.22 134.463 84.3733 134.757 84.68C135.063 84.9733 135.217 85.34 135.217 85.78C135.217 86.2067 135.063 86.5733 134.757 86.88C134.463 87.1867 134.097 87.34 133.657 87.34ZM137.18 99V88.58H139.92V89.44C140.706 88.7333 141.68 88.38 142.84 88.38C143.653 88.38 144.366 88.56 144.98 88.92C145.606 89.2667 146.093 89.7533 146.44 90.38C146.786 90.9933 146.96 91.7133 146.96 92.54V99H144.22V92.94C144.22 92.26 144.026 91.7267 143.64 91.34C143.253 90.94 142.726 90.74 142.06 90.74C141.593 90.74 141.18 90.8333 140.82 91.02C140.46 91.1933 140.16 91.4467 139.92 91.78V99H137.18ZM154.135 99.2C153.095 99.2 152.148 98.96 151.295 98.48C150.455 98 149.788 97.3533 149.295 96.54C148.802 95.7267 148.555 94.8133 148.555 93.8C148.555 92.7867 148.788 91.8733 149.255 91.06C149.735 90.2467 150.382 89.6 151.195 89.12C152.008 88.64 152.915 88.4 153.915 88.4C154.915 88.4 155.802 88.6467 156.575 89.14C157.348 89.6333 157.955 90.3 158.395 91.14C158.848 91.98 159.075 92.9333 159.075 94V94.72H151.355C151.475 95.1333 151.668 95.5067 151.935 95.84C152.215 96.1733 152.555 96.4333 152.955 96.62C153.368 96.8067 153.808 96.9 154.275 96.9C154.742 96.9 155.168 96.8267 155.555 96.68C155.955 96.5333 156.295 96.3267 156.575 96.06L158.375 97.7C157.735 98.22 157.075 98.6 156.395 98.84C155.728 99.08 154.975 99.2 154.135 99.2ZM151.315 92.76H156.375C156.282 92.3467 156.108 91.9867 155.855 91.68C155.615 91.36 155.322 91.1133 154.975 90.94C154.642 90.7533 154.268 90.66 153.855 90.66C153.428 90.66 153.042 90.7467 152.695 90.92C152.348 91.0933 152.055 91.34 151.815 91.66C151.588 91.9667 151.422 92.3333 151.315 92.76ZM159.128 102.02L160.488 96.76H163.328L161.188 102.02H159.128ZM172.492 99.18C171.745 99.18 171.085 99.0467 170.512 98.78C169.938 98.5 169.492 98.12 169.172 97.64C168.852 97.16 168.692 96.6067 168.692 95.98C168.692 94.98 169.065 94.2067 169.812 93.66C170.572 93.1 171.612 92.82 172.932 92.82C173.838 92.82 174.692 92.96 175.492 93.24V92.48C175.492 91.88 175.305 91.4267 174.932 91.12C174.558 90.8133 174.012 90.66 173.292 90.66C172.852 90.66 172.378 90.7333 171.872 90.88C171.365 91.0133 170.778 91.2267 170.112 91.52L169.112 89.5C169.938 89.1267 170.725 88.8467 171.472 88.66C172.232 88.4733 172.992 88.38 173.752 88.38C175.152 88.38 176.238 88.72 177.012 89.4C177.798 90.0667 178.192 91.0133 178.192 92.24V99H175.492V98.26C175.065 98.58 174.605 98.8133 174.112 98.96C173.618 99.1067 173.078 99.18 172.492 99.18ZM171.292 95.92C171.292 96.32 171.465 96.64 171.812 96.88C172.158 97.1067 172.618 97.22 173.192 97.22C173.645 97.22 174.065 97.1667 174.452 97.06C174.838 96.94 175.185 96.7667 175.492 96.54V95.02C175.158 94.8867 174.812 94.7867 174.452 94.72C174.092 94.6533 173.705 94.62 173.292 94.62C172.665 94.62 172.172 94.74 171.812 94.98C171.465 95.2067 171.292 95.52 171.292 95.92ZM181.573 99V90.86H179.253V88.58H181.573V87.58C181.573 86.4067 181.913 85.5133 182.593 84.9C183.273 84.2733 184.253 83.96 185.533 83.96C185.813 83.96 186.099 83.9733 186.393 84C186.686 84.0267 186.939 84.0733 187.153 84.14V86.44C186.899 86.3867 186.679 86.3467 186.493 86.32C186.306 86.2933 186.099 86.28 185.873 86.28C185.353 86.28 184.959 86.3933 184.693 86.62C184.439 86.8333 184.313 87.1733 184.313 87.64V88.58H187.153V90.86H184.313V99H181.573ZM190.244 99V90.86H187.924V88.58H190.244V87.58C190.244 86.4067 190.584 85.5133 191.264 84.9C191.944 84.2733 192.924 83.96 194.204 83.96C194.484 83.96 194.771 83.9733 195.064 84C195.358 84.0267 195.611 84.0733 195.824 84.14V86.44C195.571 86.3867 195.351 86.3467 195.164 86.32C194.978 86.2933 194.771 86.28 194.544 86.28C194.024 86.28 193.631 86.3933 193.364 86.62C193.111 86.8333 192.984 87.1733 192.984 87.64V88.58H195.824V90.86H192.984V99H190.244ZM201.928 99.2C200.888 99.2 199.941 98.96 199.088 98.48C198.248 98 197.581 97.3533 197.088 96.54C196.595 95.7267 196.348 94.8133 196.348 93.8C196.348 92.7867 196.581 91.8733 197.048 91.06C197.528 90.2467 198.175 89.6 198.988 89.12C199.801 88.64 200.708 88.4 201.708 88.4C202.708 88.4 203.595 88.6467 204.368 89.14C205.141 89.6333 205.748 90.3 206.188 91.14C206.641 91.98 206.868 92.9333 206.868 94V94.72H199.148C199.268 95.1333 199.461 95.5067 199.728 95.84C200.008 96.1733 200.348 96.4333 200.748 96.62C201.161 96.8067 201.601 96.9 202.068 96.9C202.535 96.9 202.961 96.8267 203.348 96.68C203.748 96.5333 204.088 96.3267 204.368 96.06L206.168 97.7C205.528 98.22 204.868 98.6 204.188 98.84C203.521 99.08 202.768 99.2 201.928 99.2ZM199.108 92.76H204.168C204.075 92.3467 203.901 91.9867 203.648 91.68C203.408 91.36 203.115 91.1133 202.768 90.94C202.435 90.7533 202.061 90.66 201.648 90.66C201.221 90.66 200.835 90.7467 200.488 90.92C200.141 91.0933 199.848 91.34 199.608 91.66C199.381 91.9667 199.215 92.3333 199.108 92.76ZM213.605 99.2C212.578 99.2 211.652 98.9667 210.825 98.5C209.998 98.02 209.345 97.3733 208.865 96.56C208.385 95.7333 208.145 94.8133 208.145 93.8C208.145 92.7733 208.385 91.8533 208.865 91.04C209.345 90.2267 209.998 89.58 210.825 89.1C211.652 88.62 212.578 88.38 213.605 88.38C214.432 88.38 215.218 88.54 215.965 88.86C216.725 89.18 217.378 89.64 217.925 90.24L216.245 92.02C215.858 91.5933 215.452 91.28 215.025 91.08C214.612 90.8667 214.158 90.76 213.665 90.76C213.132 90.76 212.652 90.8933 212.225 91.16C211.812 91.4267 211.478 91.7867 211.225 92.24C210.985 92.6933 210.865 93.2133 210.865 93.8C210.865 94.36 210.985 94.8733 211.225 95.34C211.478 95.7933 211.825 96.1533 212.265 96.42C212.705 96.6733 213.192 96.8 213.725 96.8C214.192 96.8 214.625 96.7067 215.025 96.52C215.438 96.32 215.832 96.0267 216.205 95.64L217.845 97.36C217.312 97.9333 216.672 98.3867 215.925 98.72C215.178 99.04 214.405 99.2 213.605 99.2ZM224.405 99.16C223.245 99.16 222.365 98.9 221.765 98.38C221.178 97.8467 220.885 97.0733 220.885 96.06V90.86H218.745V88.58H220.885V85.92L223.625 85.3V88.58H226.605V90.86H223.625V95.5C223.625 95.98 223.731 96.3267 223.945 96.54C224.158 96.74 224.531 96.84 225.065 96.84C225.331 96.84 225.571 96.8267 225.785 96.8C226.011 96.76 226.258 96.6933 226.525 96.6V98.86C226.245 98.9533 225.891 99.0267 225.465 99.08C225.051 99.1333 224.698 99.16 224.405 99.16ZM227.941 99V88.58H230.681V99H227.941ZM229.301 87.34C228.875 87.34 228.508 87.1867 228.201 86.88C227.895 86.5733 227.741 86.2067 227.741 85.78C227.741 85.34 227.895 84.9733 228.201 84.68C228.508 84.3733 228.875 84.22 229.301 84.22C229.741 84.22 230.108 84.3733 230.401 84.68C230.708 84.9733 230.861 85.34 230.861 85.78C230.861 86.2067 230.708 86.5733 230.401 86.88C230.108 87.1867 229.741 87.34 229.301 87.34ZM232.824 99V88.58H235.564V89.44C236.351 88.7333 237.324 88.38 238.484 88.38C239.297 88.38 240.011 88.56 240.624 88.92C241.251 89.2667 241.737 89.7533 242.084 90.38C242.431 90.9933 242.604 91.7133 242.604 92.54V99H239.864V92.94C239.864 92.26 239.671 91.7267 239.284 91.34C238.897 90.94 238.371 90.74 237.704 90.74C237.237 90.74 236.824 90.8333 236.464 91.02C236.104 91.1933 235.804 91.4467 235.564 91.78V99H232.824ZM249.92 103.28C249.12 103.28 248.346 103.193 247.6 103.02C246.853 102.86 246.18 102.627 245.58 102.32L246.54 100.2C247.113 100.48 247.673 100.687 248.22 100.82C248.766 100.953 249.313 101.02 249.86 101.02C250.673 101.02 251.286 100.847 251.7 100.5C252.126 100.153 252.34 99.6333 252.34 98.94V98.12C251.486 98.7467 250.533 99.06 249.48 99.06C248.493 99.06 247.6 98.8267 246.8 98.36C246.013 97.88 245.38 97.2333 244.9 96.42C244.433 95.6067 244.2 94.7067 244.2 93.72C244.2 92.7333 244.433 91.84 244.9 91.04C245.38 90.24 246.026 89.6067 246.84 89.14C247.653 88.66 248.56 88.42 249.56 88.42C250.066 88.42 250.56 88.4933 251.04 88.64C251.52 88.7867 251.966 88.9933 252.38 89.26V88.58H255.08V98.98C255.08 100.353 254.633 101.413 253.74 102.16C252.86 102.907 251.586 103.28 249.92 103.28ZM249.9 96.74C250.406 96.74 250.866 96.66 251.28 96.5C251.693 96.3267 252.046 96.0867 252.34 95.78V91.7C252.046 91.4067 251.686 91.18 251.26 91.02C250.846 90.8467 250.4 90.76 249.92 90.76C249.346 90.76 248.833 90.8933 248.38 91.16C247.926 91.4133 247.566 91.7667 247.3 92.22C247.033 92.66 246.9 93.16 246.9 93.72C246.9 94.2933 247.026 94.8067 247.28 95.26C247.546 95.7133 247.906 96.0733 248.36 96.34C248.826 96.6067 249.34 96.74 249.9 96.74ZM261.242 99V85L263.982 84.54V89.42C264.809 88.7667 265.782 88.44 266.902 88.44C267.889 88.44 268.782 88.68 269.582 89.16C270.382 89.64 271.015 90.2867 271.482 91.1C271.962 91.9 272.202 92.8 272.202 93.8C272.202 94.8 271.962 95.7067 271.482 96.52C271.002 97.32 270.355 97.96 269.542 98.44C268.729 98.9067 267.822 99.14 266.822 99.14C266.302 99.14 265.795 99.0667 265.302 98.92C264.809 98.7733 264.355 98.56 263.942 98.28V99H261.242ZM266.462 96.82C267.035 96.82 267.549 96.6867 268.002 96.42C268.469 96.1533 268.835 95.7933 269.102 95.34C269.369 94.8867 269.502 94.3733 269.502 93.8C269.502 93.2267 269.369 92.7133 269.102 92.26C268.835 91.7933 268.469 91.4333 268.002 91.18C267.549 90.9133 267.035 90.78 266.462 90.78C265.955 90.78 265.489 90.8667 265.062 91.04C264.649 91.2 264.289 91.4467 263.982 91.78V95.84C264.275 96.1467 264.635 96.3867 265.062 96.56C265.502 96.7333 265.969 96.82 266.462 96.82ZM278.939 99.2C277.899 99.2 276.959 98.96 276.119 98.48C275.279 98 274.613 97.3533 274.119 96.54C273.626 95.7267 273.379 94.8133 273.379 93.8C273.379 92.7867 273.619 91.8733 274.099 91.06C274.593 90.2333 275.259 89.58 276.099 89.1C276.953 88.62 277.899 88.38 278.939 88.38C279.979 88.38 280.919 88.62 281.759 89.1C282.613 89.58 283.279 90.2333 283.759 91.06C284.253 91.8733 284.499 92.7867 284.499 93.8C284.499 94.8133 284.253 95.7267 283.759 96.54C283.279 97.3533 282.619 98 281.779 98.48C280.939 98.96 279.993 99.2 278.939 99.2ZM278.939 96.82C279.486 96.82 279.973 96.6867 280.399 96.42C280.839 96.1533 281.186 95.7933 281.439 95.34C281.706 94.8733 281.839 94.36 281.839 93.8C281.839 93.2267 281.706 92.7133 281.439 92.26C281.186 91.8067 280.839 91.4467 280.399 91.18C279.973 90.9 279.486 90.76 278.939 90.76C278.406 90.76 277.919 90.9 277.479 91.18C277.039 91.4467 276.693 91.8067 276.439 92.26C276.186 92.7133 276.059 93.2267 276.059 93.8C276.059 94.36 276.186 94.8733 276.439 95.34C276.693 95.7933 277.039 96.1533 277.479 96.42C277.919 96.6867 278.406 96.82 278.939 96.82ZM290.713 99.16C289.553 99.16 288.673 98.9 288.073 98.38C287.487 97.8467 287.193 97.0733 287.193 96.06V90.86H285.053V88.58H287.193V85.92L289.933 85.3V88.58H292.913V90.86H289.933V95.5C289.933 95.98 290.04 96.3267 290.253 96.54C290.467 96.74 290.84 96.84 291.373 96.84C291.64 96.84 291.88 96.8267 292.093 96.8C292.32 96.76 292.567 96.6933 292.833 96.6V98.86C292.553 98.9533 292.2 99.0267 291.773 99.08C291.36 99.1333 291.007 99.16 290.713 99.16ZM294.25 99V85L296.99 84.4V89.44C297.777 88.7333 298.75 88.38 299.91 88.38C300.723 88.38 301.437 88.56 302.05 88.92C302.677 89.2667 303.163 89.7533 303.51 90.38C303.857 90.9933 304.03 91.7133 304.03 92.54V99H301.29V92.94C301.29 92.26 301.097 91.7267 300.71 91.34C300.323 90.94 299.797 90.74 299.13 90.74C298.663 90.74 298.25 90.8333 297.89 91.02C297.53 91.1933 297.23 91.4467 296.99 91.78V99H294.25ZM310.129 99V88.58H312.869V89.74C313.202 89.2867 313.602 88.94 314.069 88.7C314.535 88.46 315.062 88.34 315.649 88.34C316.155 88.3533 316.535 88.4333 316.789 88.58V90.98C316.589 90.8867 316.369 90.82 316.129 90.78C315.889 90.7267 315.642 90.7 315.389 90.7C314.855 90.7 314.369 90.8333 313.929 91.1C313.489 91.3667 313.135 91.7467 312.869 92.24V99H310.129ZM322.983 99.2C321.943 99.2 320.996 98.96 320.143 98.48C319.303 98 318.636 97.3533 318.143 96.54C317.649 95.7267 317.403 94.8133 317.403 93.8C317.403 92.7867 317.636 91.8733 318.103 91.06C318.583 90.2467 319.229 89.6 320.043 89.12C320.856 88.64 321.763 88.4 322.763 88.4C323.763 88.4 324.649 88.6467 325.423 89.14C326.196 89.6333 326.803 90.3 327.243 91.14C327.696 91.98 327.923 92.9333 327.923 94V94.72H320.203C320.323 95.1333 320.516 95.5067 320.783 95.84C321.063 96.1733 321.403 96.4333 321.803 96.62C322.216 96.8067 322.656 96.9 323.123 96.9C323.589 96.9 324.016 96.8267 324.403 96.68C324.803 96.5333 325.143 96.3267 325.423 96.06L327.223 97.7C326.583 98.22 325.923 98.6 325.243 98.84C324.576 99.08 323.823 99.2 322.983 99.2ZM320.163 92.76H325.223C325.129 92.3467 324.956 91.9867 324.703 91.68C324.463 91.36 324.169 91.1133 323.823 90.94C323.489 90.7533 323.116 90.66 322.703 90.66C322.276 90.66 321.889 90.7467 321.543 90.92C321.196 91.0933 320.903 91.34 320.663 91.66C320.436 91.9667 320.269 92.3333 320.163 92.76ZM332.689 99L328.229 88.58H331.209L334.069 95.52L336.909 88.58H339.829L335.349 99H332.689ZM345.717 99.2C344.677 99.2 343.73 98.96 342.877 98.48C342.037 98 341.37 97.3533 340.877 96.54C340.384 95.7267 340.137 94.8133 340.137 93.8C340.137 92.7867 340.37 91.8733 340.837 91.06C341.317 90.2467 341.964 89.6 342.777 89.12C343.59 88.64 344.497 88.4 345.497 88.4C346.497 88.4 347.384 88.6467 348.157 89.14C348.93 89.6333 349.537 90.3 349.977 91.14C350.43 91.98 350.657 92.9333 350.657 94V94.72H342.937C343.057 95.1333 343.25 95.5067 343.517 95.84C343.797 96.1733 344.137 96.4333 344.537 96.62C344.95 96.8067 345.39 96.9 345.857 96.9C346.324 96.9 346.75 96.8267 347.137 96.68C347.537 96.5333 347.877 96.3267 348.157 96.06L349.957 97.7C349.317 98.22 348.657 98.6 347.977 98.84C347.31 99.08 346.557 99.2 345.717 99.2ZM342.897 92.76H347.957C347.864 92.3467 347.69 91.9867 347.437 91.68C347.197 91.36 346.904 91.1133 346.557 90.94C346.224 90.7533 345.85 90.66 345.437 90.66C345.01 90.66 344.624 90.7467 344.277 90.92C343.93 91.0933 343.637 91.34 343.397 91.66C343.17 91.9667 343.004 92.3333 342.897 92.76ZM352.336 99V88.58H355.076V89.44C355.863 88.7333 356.836 88.38 357.996 88.38C358.809 88.38 359.523 88.56 360.136 88.92C360.763 89.2667 361.249 89.7533 361.596 90.38C361.943 90.9933 362.116 91.7133 362.116 92.54V99H359.376V92.94C359.376 92.26 359.183 91.7267 358.796 91.34C358.409 90.94 357.883 90.74 357.216 90.74C356.749 90.74 356.336 90.8333 355.976 91.02C355.616 91.1933 355.316 91.4467 355.076 91.78V99H352.336ZM368.134 99.2C367.334 99.2 366.62 99.0267 365.994 98.68C365.38 98.32 364.894 97.8267 364.534 97.2C364.187 96.5733 364.014 95.8533 364.014 95.04V88.58H366.754V94.64C366.754 95.3067 366.947 95.84 367.334 96.24C367.734 96.64 368.267 96.84 368.934 96.84C369.387 96.84 369.794 96.7533 370.154 96.58C370.527 96.3933 370.834 96.1333 371.074 95.8V88.58H373.814V99H371.074V98.16C370.274 98.8533 369.294 99.2 368.134 99.2ZM381.049 99.2C380.009 99.2 379.062 98.96 378.209 98.48C377.369 98 376.702 97.3533 376.209 96.54C375.716 95.7267 375.469 94.8133 375.469 93.8C375.469 92.7867 375.702 91.8733 376.169 91.06C376.649 90.2467 377.296 89.6 378.109 89.12C378.922 88.64 379.829 88.4 380.829 88.4C381.829 88.4 382.716 88.6467 383.489 89.14C384.262 89.6333 384.869 90.3 385.309 91.14C385.762 91.98 385.989 92.9333 385.989 94V94.72H378.269C378.389 95.1333 378.582 95.5067 378.849 95.84C379.129 96.1733 379.469 96.4333 379.869 96.62C380.282 96.8067 380.722 96.9 381.189 96.9C381.656 96.9 382.082 96.8267 382.469 96.68C382.869 96.5333 383.209 96.3267 383.489 96.06L385.289 97.7C384.649 98.22 383.989 98.6 383.309 98.84C382.642 99.08 381.889 99.2 381.049 99.2ZM378.229 92.76H383.289C383.196 92.3467 383.022 91.9867 382.769 91.68C382.529 91.36 382.236 91.1133 381.889 90.94C381.556 90.7533 381.182 90.66 380.769 90.66C380.342 90.66 379.956 90.7467 379.609 90.92C379.262 91.0933 378.969 91.34 378.729 91.66C378.502 91.9667 378.336 92.3333 378.229 92.76ZM395.011 99.18C394.265 99.18 393.605 99.0467 393.031 98.78C392.458 98.5 392.011 98.12 391.691 97.64C391.371 97.16 391.211 96.6067 391.211 95.98C391.211 94.98 391.585 94.2067 392.331 93.66C393.091 93.1 394.131 92.82 395.451 92.82C396.358 92.82 397.211 92.96 398.011 93.24V92.48C398.011 91.88 397.825 91.4267 397.451 91.12C397.078 90.8133 396.531 90.66 395.811 90.66C395.371 90.66 394.898 90.7333 394.391 90.88C393.885 91.0133 393.298 91.2267 392.631 91.52L391.631 89.5C392.458 89.1267 393.245 88.8467 393.991 88.66C394.751 88.4733 395.511 88.38 396.271 88.38C397.671 88.38 398.758 88.72 399.531 89.4C400.318 90.0667 400.711 91.0133 400.711 92.24V99H398.011V98.26C397.585 98.58 397.125 98.8133 396.631 98.96C396.138 99.1067 395.598 99.18 395.011 99.18ZM393.811 95.92C393.811 96.32 393.985 96.64 394.331 96.88C394.678 97.1067 395.138 97.22 395.711 97.22C396.165 97.22 396.585 97.1667 396.971 97.06C397.358 96.94 397.705 96.7667 398.011 96.54V95.02C397.678 94.8867 397.331 94.7867 396.971 94.72C396.611 94.6533 396.225 94.62 395.811 94.62C395.185 94.62 394.691 94.74 394.331 94.98C393.985 95.2067 393.811 95.52 393.811 95.92ZM402.785 99V88.58H405.525V89.44C406.312 88.7333 407.285 88.38 408.445 88.38C409.258 88.38 409.972 88.56 410.585 88.92C411.212 89.2667 411.698 89.7533 412.045 90.38C412.392 90.9933 412.565 91.7133 412.565 92.54V99H409.825V92.94C409.825 92.26 409.632 91.7267 409.245 91.34C408.858 90.94 408.332 90.74 407.665 90.74C407.198 90.74 406.785 90.8333 406.425 91.02C406.065 91.1933 405.765 91.4467 405.525 91.78V99H402.785ZM419.461 99.14C418.474 99.14 417.581 98.9 416.781 98.42C415.981 97.94 415.341 97.3 414.861 96.5C414.394 95.6867 414.161 94.78 414.161 93.78C414.161 92.78 414.394 91.88 414.861 91.08C415.341 90.2667 415.987 89.6267 416.801 89.16C417.614 88.68 418.527 88.44 419.541 88.44C420.061 88.44 420.561 88.5133 421.041 88.66C421.521 88.7933 421.967 88.9933 422.381 89.26V85L425.121 84.54V99H422.421V98.14C421.567 98.8067 420.581 99.14 419.461 99.14ZM419.901 96.8C420.407 96.8 420.867 96.72 421.281 96.56C421.707 96.3867 422.074 96.1333 422.381 95.8V91.74C422.074 91.4333 421.707 91.1933 421.281 91.02C420.854 90.8467 420.394 90.76 419.901 90.76C419.327 90.76 418.807 90.8933 418.341 91.16C417.887 91.4133 417.527 91.7733 417.261 92.24C416.994 92.6933 416.861 93.2067 416.861 93.78C416.861 94.3533 416.994 94.8667 417.261 95.32C417.527 95.7733 417.887 96.1333 418.341 96.4C418.807 96.6667 419.327 96.8 419.901 96.8ZM431.281 103.08V88.58H433.981V89.44C434.835 88.7733 435.821 88.44 436.941 88.44C437.928 88.44 438.821 88.68 439.621 89.16C440.421 89.64 441.055 90.2867 441.521 91.1C442.001 91.9 442.241 92.8 442.241 93.8C442.241 94.8 442.001 95.7067 441.521 96.52C441.041 97.32 440.395 97.96 439.581 98.44C438.768 98.9067 437.861 99.14 436.861 99.14C436.341 99.14 435.841 99.0733 435.361 98.94C434.881 98.7933 434.435 98.5867 434.021 98.32V103.08H431.281ZM436.501 96.82C437.075 96.82 437.588 96.6867 438.041 96.42C438.508 96.1533 438.875 95.7933 439.141 95.34C439.408 94.8867 439.541 94.3733 439.541 93.8C439.541 93.2267 439.408 92.7133 439.141 92.26C438.875 91.7933 438.508 91.4333 438.041 91.18C437.588 90.9133 437.075 90.78 436.501 90.78C435.995 90.78 435.528 90.8667 435.101 91.04C434.688 91.2 434.328 91.4467 434.021 91.78V95.84C434.315 96.1467 434.675 96.3867 435.101 96.56C435.541 96.7333 436.008 96.82 436.501 96.82ZM443.898 99V88.58H446.638V89.74C446.972 89.2867 447.372 88.94 447.838 88.7C448.305 88.46 448.832 88.34 449.418 88.34C449.925 88.3533 450.305 88.4333 450.558 88.58V90.98C450.358 90.8867 450.138 90.82 449.898 90.78C449.658 90.7267 449.412 90.7 449.158 90.7C448.625 90.7 448.138 90.8333 447.698 91.1C447.258 91.3667 446.905 91.7467 446.638 92.24V99H443.898ZM456.732 99.2C455.692 99.2 454.752 98.96 453.912 98.48C453.072 98 452.406 97.3533 451.912 96.54C451.419 95.7267 451.172 94.8133 451.172 93.8C451.172 92.7867 451.412 91.8733 451.892 91.06C452.386 90.2333 453.052 89.58 453.892 89.1C454.746 88.62 455.692 88.38 456.732 88.38C457.772 88.38 458.712 88.62 459.552 89.1C460.406 89.58 461.072 90.2333 461.552 91.06C462.046 91.8733 462.292 92.7867 462.292 93.8C462.292 94.8133 462.046 95.7267 461.552 96.54C461.072 97.3533 460.412 98 459.572 98.48C458.732 98.96 457.786 99.2 456.732 99.2ZM456.732 96.82C457.279 96.82 457.766 96.6867 458.192 96.42C458.632 96.1533 458.979 95.7933 459.232 95.34C459.499 94.8733 459.632 94.36 459.632 93.8C459.632 93.2267 459.499 92.7133 459.232 92.26C458.979 91.8067 458.632 91.4467 458.192 91.18C457.766 90.9 457.279 90.76 456.732 90.76C456.199 90.76 455.712 90.9 455.272 91.18C454.832 91.4467 454.486 91.8067 454.232 92.26C453.979 92.7133 453.852 93.2267 453.852 93.8C453.852 94.36 453.979 94.8733 454.232 95.34C454.486 95.7933 454.832 96.1533 455.272 96.42C455.712 96.6867 456.199 96.82 456.732 96.82ZM465.166 99V90.86H462.846V88.58H465.166V87.58C465.166 86.4067 465.506 85.5133 466.186 84.9C466.866 84.2733 467.846 83.96 469.126 83.96C469.406 83.96 469.693 83.9733 469.986 84C470.28 84.0267 470.533 84.0733 470.746 84.14V86.44C470.493 86.3867 470.273 86.3467 470.086 86.32C469.9 86.2933 469.693 86.28 469.466 86.28C468.946 86.28 468.553 86.3933 468.286 86.62C468.033 86.8333 467.906 87.1733 467.906 87.64V88.58H470.746V90.86H467.906V99H465.166ZM472.18 99V88.58H474.92V99H472.18ZM473.54 87.34C473.113 87.34 472.746 87.1867 472.44 86.88C472.133 86.5733 471.98 86.2067 471.98 85.78C471.98 85.34 472.133 84.9733 472.44 84.68C472.746 84.3733 473.113 84.22 473.54 84.22C473.98 84.22 474.346 84.3733 474.64 84.68C474.946 84.9733 475.1 85.34 475.1 85.78C475.1 86.2067 474.946 86.5733 474.64 86.88C474.346 87.1867 473.98 87.34 473.54 87.34ZM482.002 99.16C480.842 99.16 479.962 98.9 479.362 98.38C478.776 97.8467 478.482 97.0733 478.482 96.06V90.86H476.342V88.58H478.482V85.92L481.222 85.3V88.58H484.202V90.86H481.222V95.5C481.222 95.98 481.329 96.3267 481.542 96.54C481.756 96.74 482.129 96.84 482.662 96.84C482.929 96.84 483.169 96.8267 483.382 96.8C483.609 96.76 483.856 96.6933 484.122 96.6V98.86C483.842 98.9533 483.489 99.0267 483.062 99.08C482.649 99.1333 482.296 99.16 482.002 99.16ZM488.859 99.18C488.112 99.18 487.452 99.0467 486.879 98.78C486.306 98.5 485.859 98.12 485.539 97.64C485.219 97.16 485.059 96.6067 485.059 95.98C485.059 94.98 485.432 94.2067 486.179 93.66C486.939 93.1 487.979 92.82 489.299 92.82C490.206 92.82 491.059 92.96 491.859 93.24V92.48C491.859 91.88 491.672 91.4267 491.299 91.12C490.926 90.8133 490.379 90.66 489.659 90.66C489.219 90.66 488.746 90.7333 488.239 90.88C487.732 91.0133 487.146 91.2267 486.479 91.52L485.479 89.5C486.306 89.1267 487.092 88.8467 487.839 88.66C488.599 88.4733 489.359 88.38 490.119 88.38C491.519 88.38 492.606 88.72 493.379 89.4C494.166 90.0667 494.559 91.0133 494.559 92.24V99H491.859V98.26C491.432 98.58 490.972 98.8133 490.479 98.96C489.986 99.1067 489.446 99.18 488.859 99.18ZM487.659 95.92C487.659 96.32 487.832 96.64 488.179 96.88C488.526 97.1067 488.986 97.22 489.559 97.22C490.012 97.22 490.432 97.1667 490.819 97.06C491.206 96.94 491.552 96.7667 491.859 96.54V95.02C491.526 94.8867 491.179 94.7867 490.819 94.72C490.459 94.6533 490.072 94.62 489.659 94.62C489.032 94.62 488.539 94.74 488.179 94.98C487.832 95.2067 487.659 95.52 487.659 95.92ZM496.633 99V85L499.373 84.54V89.42C500.199 88.7667 501.173 88.44 502.293 88.44C503.279 88.44 504.173 88.68 504.973 89.16C505.773 89.64 506.406 90.2867 506.873 91.1C507.353 91.9 507.593 92.8 507.593 93.8C507.593 94.8 507.353 95.7067 506.873 96.52C506.393 97.32 505.746 97.96 504.933 98.44C504.119 98.9067 503.213 99.14 502.213 99.14C501.693 99.14 501.186 99.0667 500.693 98.92C500.199 98.7733 499.746 98.56 499.333 98.28V99H496.633ZM501.853 96.82C502.426 96.82 502.939 96.6867 503.393 96.42C503.859 96.1533 504.226 95.7933 504.493 95.34C504.759 94.8867 504.893 94.3733 504.893 93.8C504.893 93.2267 504.759 92.7133 504.493 92.26C504.226 91.7933 503.859 91.4333 503.393 91.18C502.939 90.9133 502.426 90.78 501.853 90.78C501.346 90.78 500.879 90.8667 500.453 91.04C500.039 91.2 499.679 91.4467 499.373 91.78V95.84C499.666 96.1467 500.026 96.3867 500.453 96.56C500.893 96.7333 501.359 96.82 501.853 96.82ZM509.25 99V88.58H511.99V99H509.25ZM510.61 87.34C510.183 87.34 509.817 87.1867 509.51 86.88C509.203 86.5733 509.05 86.2067 509.05 85.78C509.05 85.34 509.203 84.9733 509.51 84.68C509.817 84.3733 510.183 84.22 510.61 84.22C511.05 84.22 511.417 84.3733 511.71 84.68C512.017 84.9733 512.17 85.34 512.17 85.78C512.17 86.2067 512.017 86.5733 511.71 86.88C511.417 87.1867 511.05 87.34 510.61 87.34ZM514.133 99V85L516.873 84.54V99H514.133ZM519.016 99V88.58H521.756V99H519.016ZM520.376 87.34C519.949 87.34 519.582 87.1867 519.276 86.88C518.969 86.5733 518.816 86.2067 518.816 85.78C518.816 85.34 518.969 84.9733 519.276 84.68C519.582 84.3733 519.949 84.22 520.376 84.22C520.816 84.22 521.182 84.3733 521.476 84.68C521.782 84.9733 521.936 85.34 521.936 85.78C521.936 86.2067 521.782 86.5733 521.476 86.88C521.182 87.1867 520.816 87.34 520.376 87.34ZM528.838 99.16C527.678 99.16 526.798 98.9 526.198 98.38C525.612 97.8467 525.318 97.0733 525.318 96.06V90.86H523.178V88.58H525.318V85.92L528.058 85.3V88.58H531.038V90.86H528.058V95.5C528.058 95.98 528.165 96.3267 528.378 96.54C528.592 96.74 528.965 96.84 529.498 96.84C529.765 96.84 530.005 96.8267 530.218 96.8C530.445 96.76 530.692 96.6933 530.958 96.6V98.86C530.678 98.9533 530.325 99.0267 529.898 99.08C529.485 99.1333 529.132 99.16 528.838 99.16ZM533.59 103.3C533.35 103.3 533.117 103.287 532.89 103.26C532.677 103.247 532.497 103.227 532.35 103.2V100.84C532.617 100.893 532.937 100.92 533.31 100.92C534.31 100.92 535.004 100.447 535.39 99.5L535.55 99.1L531.49 88.58H534.51L537.11 95.68L540.05 88.58H543.01L538.21 99.84C537.85 100.68 537.457 101.353 537.03 101.86C536.604 102.367 536.11 102.733 535.55 102.96C535.004 103.187 534.35 103.3 533.59 103.3ZM548.054 89.44L549.414 84.18H552.254L550.114 89.44H548.054ZM544.214 89.44L545.574 84.18H548.414L546.274 89.44H544.214Z" fill="white"/>
</g>
<g filter="url(#filter1_di_10825_17280)">
<rect x="33" y="486" width="538" height="6" rx="3" fill="#2E2F4F"/>
</g>
<g filter="url(#filter2_di_10825_17280)">
<mask id="path-4-inside-1_10825_17280" fill="white">
<path d="M66 443C66 438.582 69.5817 435 74 435H131C135.418 435 139 438.582 139 443V486H66V443Z"/>
</mask>
<path d="M66 443C66 438.582 69.5817 435 74 435H131C135.418 435 139 438.582 139 443V486H66V443Z" fill="url(#paint1_linear_10825_17280)"/>
<path d="M65 443C65 438.029 69.0294 434 74 434H131C135.971 434 140 438.029 140 443H138C138 439.134 134.866 436 131 436H74C70.134 436 67 439.134 67 443H65ZM139 486H66H139ZM65 486V443C65 438.029 69.0294 434 74 434V436C70.134 436 67 439.134 67 443V486H65ZM131 434C135.971 434 140 438.029 140 443V486H138V443C138 439.134 134.866 436 131 436V434Z" fill="white" fill-opacity="0.5" mask="url(#path-4-inside-1_10825_17280)"/>
</g>
<g filter="url(#filter3_d_10825_17280)">
<path d="M70.0705 517V507.2H74.8585C75.5211 507.2 76.1045 507.331 76.6085 507.592C77.1218 507.844 77.5185 508.199 77.7985 508.656C78.0878 509.113 78.2325 509.641 78.2325 510.238C78.2325 510.863 78.0598 511.414 77.7145 511.89C77.3691 512.366 76.9071 512.721 76.3285 512.954L78.4985 517H76.2305L74.3125 513.248H72.1005V517H70.0705ZM72.1005 511.582H74.6765C75.1338 511.582 75.4978 511.461 75.7685 511.218C76.0485 510.975 76.1885 510.658 76.1885 510.266C76.1885 509.874 76.0485 509.557 75.7685 509.314C75.4978 509.071 75.1338 508.95 74.6765 508.95H72.1005V511.582ZM79.5724 517V507.2H87.1044V508.964H81.6024V511.204H85.2284V512.912H81.6024V515.236H87.1604V517H79.5724ZM91.2699 517V508.992H87.9659V507.2H96.5899V508.992H93.2999V517H91.2699ZM101.915 517.14C101.028 517.14 100.258 516.963 99.6047 516.608C98.9607 516.253 98.4613 515.749 98.1067 515.096C97.752 514.433 97.5747 513.659 97.5747 512.772V507.2H99.6047V512.772C99.6047 513.276 99.698 513.719 99.8847 514.102C100.081 514.475 100.351 514.765 100.697 514.97C101.051 515.166 101.462 515.264 101.929 515.264C102.395 515.264 102.801 515.166 103.147 514.97C103.492 514.765 103.758 514.475 103.945 514.102C104.141 513.719 104.239 513.276 104.239 512.772V507.2H106.255V512.772C106.255 513.649 106.077 514.419 105.723 515.082C105.368 515.735 104.864 516.244 104.211 516.608C103.567 516.963 102.801 517.14 101.915 517.14ZM107.873 517V507.2H112.661C113.324 507.2 113.907 507.331 114.411 507.592C114.925 507.844 115.321 508.199 115.601 508.656C115.891 509.113 116.035 509.641 116.035 510.238C116.035 510.863 115.863 511.414 115.517 511.89C115.172 512.366 114.71 512.721 114.131 512.954L116.301 517H114.033L112.115 513.248H109.903V517H107.873ZM109.903 511.582H112.479C112.937 511.582 113.301 511.461 113.571 511.218C113.851 510.975 113.991 510.658 113.991 510.266C113.991 509.874 113.851 509.557 113.571 509.314C113.301 509.071 112.937 508.95 112.479 508.95H109.903V511.582ZM117.375 517V507.2H119.307L124.179 513.528V507.2H126.083V517H124.291L119.293 510.448V517H117.375ZM131.361 517.14C130.568 517.14 129.793 516.995 129.037 516.706C128.281 516.407 127.609 515.987 127.021 515.446L128.183 513.99C128.753 514.494 129.299 514.858 129.821 515.082C130.353 515.306 130.913 515.418 131.501 515.418C131.912 515.418 132.267 515.371 132.565 515.278C132.864 515.175 133.093 515.031 133.251 514.844C133.419 514.657 133.503 514.438 133.503 514.186C133.503 513.85 133.382 513.593 133.139 513.416C132.897 513.229 132.481 513.085 131.893 512.982L129.947 512.646C129.117 512.506 128.482 512.212 128.043 511.764C127.614 511.316 127.399 510.737 127.399 510.028C127.399 509.421 127.553 508.894 127.861 508.446C128.179 507.998 128.622 507.657 129.191 507.424C129.77 507.181 130.456 507.06 131.249 507.06C131.968 507.06 132.682 507.181 133.391 507.424C134.11 507.667 134.745 508.003 135.295 508.432L134.203 509.944C133.177 509.16 132.145 508.768 131.109 508.768C130.745 508.768 130.428 508.815 130.157 508.908C129.887 509.001 129.677 509.132 129.527 509.3C129.387 509.459 129.317 509.65 129.317 509.874C129.317 510.173 129.425 510.406 129.639 510.574C129.854 510.733 130.213 510.854 130.717 510.938L132.565 511.246C133.545 511.405 134.278 511.717 134.763 512.184C135.249 512.641 135.491 513.248 135.491 514.004C135.491 514.639 135.323 515.194 134.987 515.67C134.651 516.137 134.171 516.501 133.545 516.762C132.929 517.014 132.201 517.14 131.361 517.14Z" fill="white"/>
</g>
<g filter="url(#filter4_di_10825_17280)">
<mask id="path-7-inside-2_10825_17280" fill="white">
<path d="M340 377C340 372.582 343.582 369 348 369H405C409.418 369 413 372.582 413 377V486H340V377Z"/>
</mask>
<path d="M340 377C340 372.582 343.582 369 348 369H405C409.418 369 413 372.582 413 377V486H340V377Z" fill="url(#paint2_linear_10825_17280)"/>
<path d="M339 377C339 372.029 343.029 368 348 368H405C409.971 368 414 372.029 414 377H412C412 373.134 408.866 370 405 370H348C344.134 370 341 373.134 341 377H339ZM413 486H340H413ZM339 486V377C339 372.029 343.029 368 348 368V370C344.134 370 341 373.134 341 377V486H339ZM405 368C409.971 368 414 372.029 414 377V486H412V377C412 373.134 408.866 370 405 370V368Z" fill="white" fill-opacity="0.7" mask="url(#path-7-inside-2_10825_17280)"/>
</g>
<g filter="url(#filter5_d_10825_17280)">
<path d="M351.228 517V507.2H356.142C356.786 507.2 357.35 507.331 357.836 507.592C358.33 507.853 358.718 508.217 358.998 508.684C359.278 509.141 359.418 509.673 359.418 510.28C359.418 510.859 359.278 511.377 358.998 511.834C358.718 512.291 358.33 512.651 357.836 512.912C357.341 513.173 356.776 513.304 356.142 513.304H353.258V517H351.228ZM353.258 511.624H355.918C356.356 511.624 356.706 511.503 356.968 511.26C357.238 511.017 357.374 510.695 357.374 510.294C357.374 509.883 357.238 509.557 356.968 509.314C356.706 509.071 356.356 508.95 355.918 508.95H353.258V511.624ZM360.757 517V507.2H365.545C366.208 507.2 366.791 507.331 367.295 507.592C367.808 507.844 368.205 508.199 368.485 508.656C368.774 509.113 368.919 509.641 368.919 510.238C368.919 510.863 368.746 511.414 368.401 511.89C368.056 512.366 367.594 512.721 367.015 512.954L369.185 517H366.917L364.999 513.248H362.787V517H360.757ZM362.787 511.582H365.363C365.82 511.582 366.184 511.461 366.455 511.218C366.735 510.975 366.875 510.658 366.875 510.266C366.875 509.874 366.735 509.557 366.455 509.314C366.184 509.071 365.82 508.95 365.363 508.95H362.787V511.582ZM375.061 517.154C374.333 517.154 373.656 517.028 373.031 516.776C372.406 516.515 371.855 516.155 371.379 515.698C370.912 515.231 370.544 514.695 370.273 514.088C370.012 513.472 369.881 512.809 369.881 512.1C369.881 511.391 370.012 510.733 370.273 510.126C370.544 509.51 370.912 508.973 371.379 508.516C371.855 508.049 372.406 507.69 373.031 507.438C373.656 507.177 374.333 507.046 375.061 507.046C375.789 507.046 376.466 507.177 377.091 507.438C377.726 507.69 378.276 508.049 378.743 508.516C379.219 508.973 379.588 509.51 379.849 510.126C380.11 510.733 380.241 511.391 380.241 512.1C380.241 512.809 380.11 513.472 379.849 514.088C379.588 514.695 379.219 515.231 378.743 515.698C378.276 516.155 377.726 516.515 377.091 516.776C376.466 517.028 375.789 517.154 375.061 517.154ZM375.061 515.292C375.509 515.292 375.92 515.213 376.293 515.054C376.666 514.886 376.993 514.662 377.273 514.382C377.553 514.093 377.772 513.752 377.931 513.36C378.09 512.968 378.169 512.548 378.169 512.1C378.169 511.643 378.09 511.223 377.931 510.84C377.772 510.448 377.553 510.112 377.273 509.832C376.993 509.543 376.666 509.319 376.293 509.16C375.92 508.992 375.509 508.908 375.061 508.908C374.622 508.908 374.216 508.992 373.843 509.16C373.47 509.319 373.143 509.543 372.863 509.832C372.583 510.112 372.364 510.448 372.205 510.84C372.046 511.223 371.967 511.638 371.967 512.086C371.967 512.543 372.046 512.968 372.205 513.36C372.364 513.752 372.583 514.093 372.863 514.382C373.143 514.662 373.47 514.886 373.843 515.054C374.216 515.213 374.622 515.292 375.061 515.292ZM381.648 517V507.2H389.222V508.964H383.678V511.274H387.36V512.982H383.678V517H381.648ZM390.589 517V507.2H392.619V517H390.589ZM397.077 517V508.992H393.773V507.2H402.397V508.992H399.107V517H397.077ZM348.623 537V527.2H351.227L353.915 532.492L356.603 527.2H359.207V537H357.289V529.79L353.887 536.3L350.499 529.762V537H348.623ZM360.031 537L364.063 527.2H366.401L370.391 537H368.193L367.199 534.424H363.153L362.145 537H360.031ZM363.783 532.8H366.583L365.183 529.188L363.783 532.8ZM371.223 537V527.2H376.011C376.673 527.2 377.257 527.331 377.761 527.592C378.274 527.844 378.671 528.199 378.951 528.656C379.24 529.113 379.385 529.641 379.385 530.238C379.385 530.863 379.212 531.414 378.867 531.89C378.521 532.366 378.059 532.721 377.481 532.954L379.651 537H377.383L375.465 533.248H373.253V537H371.223ZM373.253 531.582H375.829C376.286 531.582 376.65 531.461 376.921 531.218C377.201 530.975 377.341 530.658 377.341 530.266C377.341 529.874 377.201 529.557 376.921 529.314C376.65 529.071 376.286 528.95 375.829 528.95H373.253V531.582ZM385.541 537.154C384.813 537.154 384.136 537.028 383.511 536.776C382.885 536.515 382.335 536.155 381.859 535.698C381.383 535.231 381.009 534.695 380.739 534.088C380.477 533.472 380.347 532.809 380.347 532.1C380.347 531.391 380.477 530.733 380.739 530.126C381.009 529.51 381.378 528.973 381.845 528.516C382.311 528.049 382.857 527.69 383.483 527.438C384.117 527.177 384.794 527.046 385.513 527.046C386.325 527.046 387.09 527.209 387.809 527.536C388.527 527.853 389.12 528.301 389.587 528.88L388.173 530.182C387.837 529.762 387.44 529.445 386.983 529.23C386.525 529.015 386.035 528.908 385.513 528.908C385.074 528.908 384.668 528.992 384.295 529.16C383.921 529.319 383.595 529.543 383.315 529.832C383.035 530.112 382.815 530.448 382.657 530.84C382.507 531.223 382.433 531.643 382.433 532.1C382.433 532.557 382.512 532.982 382.671 533.374C382.829 533.766 383.049 534.107 383.329 534.396C383.618 534.676 383.949 534.9 384.323 535.068C384.705 535.227 385.121 535.306 385.569 535.306C386.035 535.306 386.455 535.222 386.829 535.054C387.202 534.877 387.515 534.634 387.767 534.326C388.028 534.009 388.201 533.654 388.285 533.262H385.387V531.498H390.455V532.114C390.455 532.842 390.329 533.514 390.077 534.13C389.834 534.737 389.493 535.269 389.055 535.726C388.616 536.174 388.098 536.524 387.501 536.776C386.903 537.028 386.25 537.154 385.541 537.154ZM391.84 537V527.2H393.87V537H391.84ZM395.654 537V527.2H397.586L402.458 533.528V527.2H404.362V537H402.57L397.572 530.448V537H395.654Z" fill="white"/>
</g>
<g filter="url(#filter6_di_10825_17280)">
<mask id="path-10-inside-3_10825_17280" fill="white">
<path d="M465 202C465 197.582 468.582 194 473 194H530C534.418 194 538 197.582 538 202V486H465V202Z"/>
</mask>
<path d="M465 202C465 197.582 468.582 194 473 194H530C534.418 194 538 197.582 538 202V486H465V202Z" fill="url(#paint3_linear_10825_17280)"/>
<path d="M464 202C464 197.029 468.029 193 473 193H530C534.971 193 539 197.029 539 202H537C537 198.134 533.866 195 530 195H473C469.134 195 466 198.134 466 202H464ZM538 486H465H538ZM464 486V202C464 197.029 468.029 193 473 193V195C469.134 195 466 198.134 466 202V486H464ZM530 193C534.971 193 539 197.029 539 202V486H537V202C537 198.134 533.866 195 530 195V193Z" fill="white" fill-opacity="0.7" mask="url(#path-10-inside-3_10825_17280)"/>
</g>
<g filter="url(#filter7_d_10825_17280)">
<path d="M468.64 517V507.2H473.428C474.09 507.2 474.674 507.331 475.178 507.592C475.691 507.844 476.088 508.199 476.368 508.656C476.657 509.113 476.802 509.641 476.802 510.238C476.802 510.863 476.629 511.414 476.284 511.89C475.938 512.366 475.476 512.721 474.898 512.954L477.068 517H474.8L472.882 513.248H470.67V517H468.64ZM470.67 511.582H473.246C473.703 511.582 474.067 511.461 474.338 511.218C474.618 510.975 474.758 510.658 474.758 510.266C474.758 509.874 474.618 509.557 474.338 509.314C474.067 509.071 473.703 508.95 473.246 508.95H470.67V511.582ZM478.142 517V507.2H485.674V508.964H480.172V511.204H483.798V512.912H480.172V515.236H485.73V517H478.142ZM490.231 517L486.255 507.2H488.453L491.449 514.914L494.515 507.2H496.615L492.583 517H490.231ZM497.446 517V507.2H504.978V508.964H499.476V511.204H503.102V512.912H499.476V515.236H505.034V517H497.446ZM506.47 517V507.2H508.402L513.274 513.528V507.2H515.178V517H513.386L508.388 510.448V517H506.47ZM521.142 517.14C520.256 517.14 519.486 516.963 518.832 516.608C518.188 516.253 517.689 515.749 517.334 515.096C516.98 514.433 516.802 513.659 516.802 512.772V507.2H518.832V512.772C518.832 513.276 518.926 513.719 519.112 514.102C519.308 514.475 519.579 514.765 519.924 514.97C520.279 515.166 520.69 515.264 521.156 515.264C521.623 515.264 522.029 515.166 522.374 514.97C522.72 514.765 522.986 514.475 523.172 514.102C523.368 513.719 523.466 513.276 523.466 512.772V507.2H525.482V512.772C525.482 513.649 525.305 514.419 524.95 515.082C524.596 515.735 524.092 516.244 523.438 516.608C522.794 516.963 522.029 517.14 521.142 517.14ZM527.101 517V507.2H534.633V508.964H529.131V511.204H532.757V512.912H529.131V515.236H534.689V517H527.101Z" fill="white"/>
</g>
</g>
<defs>
<filter id="filter0_d_10825_17280" x="47.3984" y="56.1802" width="508.855" height="55.1196" filterUnits="userSpaceOnUse" color-interpolation-filters="sRGB">
<feFlood flood-opacity="0" result="BackgroundImageFix"/>
<feColorMatrix in="SourceAlpha" type="matrix" values="0 0 0 0 0 0 0 0 0 0 0 0 0 0 0 0 0 0 127 0" result="hardAlpha"/>
<feOffset dy="4"/>
<feGaussianBlur stdDeviation="2"/>
<feComposite in2="hardAlpha" operator="out"/>
<feColorMatrix type="matrix" values="0 0 0 0 0 0 0 0 0 0 0 0 0 0 0 0 0 0 0.2 0"/>
<feBlend mode="normal" in2="BackgroundImageFix" result="effect1_dropShadow_10825_17280"/>
<feBlend mode="normal" in="SourceGraphic" in2="effect1_dropShadow_10825_17280" result="shape"/>
</filter>
<filter id="filter1_di_10825_17280" x="29" y="486" width="546" height="14" filterUnits="userSpaceOnUse" color-interpolation-filters="sRGB">
<feFlood flood-opacity="0" result="BackgroundImageFix"/>
<feColorMatrix in="SourceAlpha" type="matrix" values="0 0 0 0 0 0 0 0 0 0 0 0 0 0 0 0 0 0 127 0" result="hardAlpha"/>
<feOffset dy="4"/>
<feGaussianBlur stdDeviation="2"/>
<feComposite in2="hardAlpha" operator="out"/>
<feColorMatrix type="matrix" values="0 0 0 0 0 0 0 0 0 0 0 0 0 0 0 0 0 0 0.25 0"/>
<feBlend mode="normal" in2="BackgroundImageFix" result="effect1_dropShadow_10825_17280"/>
<feBlend mode="normal" in="SourceGraphic" in2="effect1_dropShadow_10825_17280" result="shape"/>
<feColorMatrix in="SourceAlpha" type="matrix" values="0 0 0 0 0 0 0 0 0 0 0 0 0 0 0 0 0 0 127 0" result="hardAlpha"/>
<feOffset/>
<feGaussianBlur stdDeviation="3"/>
<feComposite in2="hardAlpha" operator="arithmetic" k2="-1" k3="1"/>
<feColorMatrix type="matrix" values="0 0 0 0 1 0 0 0 0 1 0 0 0 0 1 0 0 0 0.2 0"/>
<feBlend mode="normal" in2="shape" result="effect2_innerShadow_10825_17280"/>
</filter>
<filter id="filter2_di_10825_17280" x="62" y="435" width="81" height="59" filterUnits="userSpaceOnUse" color-interpolation-filters="sRGB">
<feFlood flood-opacity="0" result="BackgroundImageFix"/>
<feColorMatrix in="SourceAlpha" type="matrix" values="0 0 0 0 0 0 0 0 0 0 0 0 0 0 0 0 0 0 127 0" result="hardAlpha"/>
<feOffset dy="4"/>
<feGaussianBlur stdDeviation="2"/>
<feComposite in2="hardAlpha" operator="out"/>
<feColorMatrix type="matrix" values="0 0 0 0 0 0 0 0 0 0 0 0 0 0 0 0 0 0 0.25 0"/>
<feBlend mode="normal" in2="BackgroundImageFix" result="effect1_dropShadow_10825_17280"/>
<feBlend mode="normal" in="SourceGraphic" in2="effect1_dropShadow_10825_17280" result="shape"/>
<feColorMatrix in="SourceAlpha" type="matrix" values="0 0 0 0 0 0 0 0 0 0 0 0 0 0 0 0 0 0 127 0" result="hardAlpha"/>
<feOffset dx="2" dy="2"/>
<feGaussianBlur stdDeviation="11.5"/>
<feComposite in2="hardAlpha" operator="arithmetic" k2="-1" k3="1"/>
<feColorMatrix type="matrix" values="0 0 0 0 1 0 0 0 0 1 0 0 0 0 1 0 0 0 0.2 0"/>
<feBlend mode="normal" in2="shape" result="effect2_innerShadow_10825_17280"/>
</filter>
<filter id="filter3_d_10825_17280" x="66.0703" y="507.06" width="73.4219" height="18.0801" filterUnits="userSpaceOnUse" color-interpolation-filters="sRGB">
<feFlood flood-opacity="0" result="BackgroundImageFix"/>
<feColorMatrix in="SourceAlpha" type="matrix" values="0 0 0 0 0 0 0 0 0 0 0 0 0 0 0 0 0 0 127 0" result="hardAlpha"/>
<feOffset dy="4"/>
<feGaussianBlur stdDeviation="2"/>
<feComposite in2="hardAlpha" operator="out"/>
<feColorMatrix type="matrix" values="0 0 0 0 0 0 0 0 0 0 0 0 0 0 0 0 0 0 0.18 0"/>
<feBlend mode="normal" in2="BackgroundImageFix" result="effect1_dropShadow_10825_17280"/>
<feBlend mode="normal" in="SourceGraphic" in2="effect1_dropShadow_10825_17280" result="shape"/>
</filter>
<filter id="filter4_di_10825_17280" x="336" y="369" width="81" height="125" filterUnits="userSpaceOnUse" color-interpolation-filters="sRGB">
<feFlood flood-opacity="0" result="BackgroundImageFix"/>
<feColorMatrix in="SourceAlpha" type="matrix" values="0 0 0 0 0 0 0 0 0 0 0 0 0 0 0 0 0 0 127 0" result="hardAlpha"/>
<feOffset dy="4"/>
<feGaussianBlur stdDeviation="2"/>
<feComposite in2="hardAlpha" operator="out"/>
<feColorMatrix type="matrix" values="0 0 0 0 0 0 0 0 0 0 0 0 0 0 0 0 0 0 0.25 0"/>
<feBlend mode="normal" in2="BackgroundImageFix" result="effect1_dropShadow_10825_17280"/>
<feBlend mode="normal" in="SourceGraphic" in2="effect1_dropShadow_10825_17280" result="shape"/>
<feColorMatrix in="SourceAlpha" type="matrix" values="0 0 0 0 0 0 0 0 0 0 0 0 0 0 0 0 0 0 127 0" result="hardAlpha"/>
<feOffset dx="2" dy="2"/>
<feGaussianBlur stdDeviation="11.5"/>
<feComposite in2="hardAlpha" operator="arithmetic" k2="-1" k3="1"/>
<feColorMatrix type="matrix" values="0 0 0 0 1 0 0 0 0 1 0 0 0 0 1 0 0 0 0.15 0"/>
<feBlend mode="normal" in2="shape" result="effect2_innerShadow_10825_17280"/>
</filter>
<filter id="filter5_d_10825_17280" x="344.625" y="507.046" width="63.7383" height="38.1079" filterUnits="userSpaceOnUse" color-interpolation-filters="sRGB">
<feFlood flood-opacity="0" result="BackgroundImageFix"/>
<feColorMatrix in="SourceAlpha" type="matrix" values="0 0 0 0 0 0 0 0 0 0 0 0 0 0 0 0 0 0 127 0" result="hardAlpha"/>
<feOffset dy="4"/>
<feGaussianBlur stdDeviation="2"/>
<feComposite in2="hardAlpha" operator="out"/>
<feColorMatrix type="matrix" values="0 0 0 0 0 0 0 0 0 0 0 0 0 0 0 0 0 0 0.18 0"/>
<feBlend mode="normal" in2="BackgroundImageFix" result="effect1_dropShadow_10825_17280"/>
<feBlend mode="normal" in="SourceGraphic" in2="effect1_dropShadow_10825_17280" result="shape"/>
</filter>
<filter id="filter6_di_10825_17280" x="461" y="194" width="81" height="300" filterUnits="userSpaceOnUse" color-interpolation-filters="sRGB">
<feFlood flood-opacity="0" result="BackgroundImageFix"/>
<feColorMatrix in="SourceAlpha" type="matrix" values="0 0 0 0 0 0 0 0 0 0 0 0 0 0 0 0 0 0 127 0" result="hardAlpha"/>
<feOffset dy="4"/>
<feGaussianBlur stdDeviation="2"/>
<feComposite in2="hardAlpha" operator="out"/>
<feColorMatrix type="matrix" values="0 0 0 0 0 0 0 0 0 0 0 0 0 0 0 0 0 0 0.25 0"/>
<feBlend mode="normal" in2="BackgroundImageFix" result="effect1_dropShadow_10825_17280"/>
<feBlend mode="normal" in="SourceGraphic" in2="effect1_dropShadow_10825_17280" result="shape"/>
<feColorMatrix in="SourceAlpha" type="matrix" values="0 0 0 0 0 0 0 0 0 0 0 0 0 0 0 0 0 0 127 0" result="hardAlpha"/>
<feOffset dx="2" dy="2"/>
<feGaussianBlur stdDeviation="11.5"/>
<feComposite in2="hardAlpha" operator="arithmetic" k2="-1" k3="1"/>
<feColorMatrix type="matrix" values="0 0 0 0 1 0 0 0 0 1 0 0 0 0 1 0 0 0 0.15 0"/>
<feBlend mode="normal" in2="shape" result="effect2_innerShadow_10825_17280"/>
</filter>
<filter id="filter7_d_10825_17280" x="464.641" y="507.2" width="74.0469" height="17.9399" filterUnits="userSpaceOnUse" color-interpolation-filters="sRGB">
<feFlood flood-opacity="0" result="BackgroundImageFix"/>
<feColorMatrix in="SourceAlpha" type="matrix" values="0 0 0 0 0 0 0 0 0 0 0 0 0 0 0 0 0 0 127 0" result="hardAlpha"/>
<feOffset dy="4"/>
<feGaussianBlur stdDeviation="2"/>
<feComposite in2="hardAlpha" operator="out"/>
<feColorMatrix type="matrix" values="0 0 0 0 0 0 0 0 0 0 0 0 0 0 0 0 0 0 0.18 0"/>
<feBlend mode="normal" in2="BackgroundImageFix" result="effect1_dropShadow_10825_17280"/>
<feBlend mode="normal" in="SourceGraphic" in2="effect1_dropShadow_10825_17280" result="shape"/>
</filter>
<linearGradient id="paint0_linear_10825_17280" x1="604" y1="604" x2="-6.75036e-06" y2="6.75036e-06" gradientUnits="userSpaceOnUse">
<stop stop-color="#58C7E9"/>
<stop offset="1" stop-color="#003C9E"/>
</linearGradient>
<linearGradient id="paint1_linear_10825_17280" x1="102.5" y1="435" x2="102.485" y2="505.387" gradientUnits="userSpaceOnUse">
<stop stop-color="#00B10D"/>
<stop offset="1" stop-color="#A7F794"/>
</linearGradient>
<linearGradient id="paint2_linear_10825_17280" x1="376.5" y1="369" x2="376.5" y2="486" gradientUnits="userSpaceOnUse">
<stop stop-color="#002271"/>
<stop offset="1" stop-color="#2555A4"/>
</linearGradient>
<linearGradient id="paint3_linear_10825_17280" x1="501.5" y1="194" x2="501.5" y2="486" gradientUnits="userSpaceOnUse">
<stop stop-color="#002271"/>
<stop offset="1" stop-color="#2555A4"/>
</linearGradient>
<clipPath id="clip0_10825_17280">
<rect width="604" height="604" fill="white"/>
</clipPath>
</defs>
</svg>
