<svg width="555" height="492" viewBox="0 0 555 492" fill="none" xmlns="http://www.w3.org/2000/svg">
<path d="M248 234.5C233.732 223.334 237.5 210 242 201L229 220.5L193 221.5C206 221.139 224 226 224 247C224 261 210.25 270.25 199.5 270L221 270.5L241.5 304C238 294.667 237.5 278.5 251.5 271C268.549 261.867 281 275.167 286.5 282L269 252.5L285 225.5C276 238.5 259.5 243.5 248 234.5Z" fill="#B1C780"/>
<g filter="url(#filter0_b_4689_81987)">
<path d="M221.124 271H67.613L2 380.639L67.613 491H221.124L286 380.639L221.124 271Z" fill="url(#paint0_linear_4689_81987)" fill-opacity="0.8"/>
<path d="M221.124 271H67.613L2 380.639L67.613 491H221.124L286 380.639L221.124 271Z" stroke="url(#paint1_linear_4689_81987)" stroke-width="2"/>
</g>
<path fill-rule="evenodd" clip-rule="evenodd" d="M149.333 347C149.333 349.945 146.946 352.333 144 352.333C141.054 352.333 138.667 349.945 138.667 347C138.667 344.054 141.054 341.667 144 341.667C146.946 341.667 149.333 344.054 149.333 347ZM146.667 347C146.667 348.473 145.473 349.667 144 349.667C142.527 349.667 141.333 348.473 141.333 347C141.333 345.527 142.527 344.333 144 344.333C145.473 344.333 146.667 345.527 146.667 347Z" fill="white"/>
<path fill-rule="evenodd" clip-rule="evenodd" d="M129.333 336.333C128.597 336.333 128 336.93 128 337.667V356.333C128 357.07 128.597 357.667 129.333 357.667H158.667C159.403 357.667 160 357.07 160 356.333V337.667C160 336.93 159.403 336.333 158.667 336.333H129.333ZM130.667 349.667L130.667 344.333C133.612 344.333 136 341.945 136 339H152C152 341.945 154.388 344.333 157.333 344.333V349.667C154.388 349.667 152 352.054 152 355H136C136 352.054 133.612 349.667 130.667 349.667ZM130.667 352.333L130.667 355H133.333C133.333 353.527 132.139 352.333 130.667 352.333ZM157.333 341.667C155.861 341.667 154.667 340.473 154.667 339H157.333V341.667ZM154.667 355H157.333V352.333C155.861 352.333 154.667 353.527 154.667 355ZM133.333 339C133.333 340.473 132.139 341.667 130.667 341.667V339H133.333Z" fill="white"/>
<path d="M80.8089 406V386.4H95.8729V389.928H84.8689V394.408H92.1209V397.824H84.8689V402.472H95.9849V406H80.8089ZM104.755 406.28C103.318 406.28 102.021 405.953 100.863 405.3C99.7062 404.628 98.7915 403.723 98.1195 402.584C97.4475 401.427 97.1115 400.139 97.1115 398.72C97.1115 397.283 97.4475 395.995 98.1195 394.856C98.7915 393.717 99.7062 392.812 100.863 392.14C102.021 391.468 103.318 391.132 104.755 391.132C105.913 391.132 107.014 391.356 108.059 391.804C109.123 392.252 110.038 392.896 110.803 393.736L108.451 396.228C107.91 395.631 107.341 395.192 106.743 394.912C106.165 394.613 105.53 394.464 104.839 394.464C104.093 394.464 103.421 394.651 102.823 395.024C102.245 395.397 101.778 395.901 101.423 396.536C101.087 397.171 100.919 397.899 100.919 398.72C100.919 399.504 101.087 400.223 101.423 400.876C101.778 401.511 102.263 402.015 102.879 402.388C103.495 402.743 104.177 402.92 104.923 402.92C105.577 402.92 106.183 402.789 106.743 402.528C107.322 402.248 107.873 401.837 108.395 401.296L110.691 403.704C109.945 404.507 109.049 405.141 108.003 405.608C106.958 406.056 105.875 406.28 104.755 406.28ZM119.388 406.28C117.932 406.28 116.616 405.944 115.44 405.272C114.264 404.6 113.33 403.695 112.64 402.556C111.949 401.417 111.604 400.139 111.604 398.72C111.604 397.301 111.94 396.023 112.612 394.884C113.302 393.727 114.236 392.812 115.412 392.14C116.606 391.468 117.932 391.132 119.388 391.132C120.844 391.132 122.16 391.468 123.336 392.14C124.53 392.812 125.464 393.727 126.136 394.884C126.826 396.023 127.172 397.301 127.172 398.72C127.172 400.139 126.826 401.417 126.136 402.556C125.464 403.695 124.54 404.6 123.364 405.272C122.188 405.944 120.862 406.28 119.388 406.28ZM119.388 402.948C120.153 402.948 120.834 402.761 121.432 402.388C122.048 402.015 122.533 401.511 122.888 400.876C123.261 400.223 123.448 399.504 123.448 398.72C123.448 397.917 123.261 397.199 122.888 396.564C122.533 395.929 122.048 395.425 121.432 395.052C120.834 394.66 120.153 394.464 119.388 394.464C118.641 394.464 117.96 394.66 117.344 395.052C116.728 395.425 116.242 395.929 115.888 396.564C115.533 397.199 115.356 397.917 115.356 398.72C115.356 399.504 115.533 400.223 115.888 400.876C116.242 401.511 116.728 402.015 117.344 402.388C117.96 402.761 118.641 402.948 119.388 402.948ZM129.53 406V391.412H133.366V392.616C134.467 391.627 135.83 391.132 137.454 391.132C138.592 391.132 139.591 391.384 140.45 391.888C141.327 392.373 142.008 393.055 142.494 393.932C142.979 394.791 143.222 395.799 143.222 396.956V406H139.386V397.516C139.386 396.564 139.115 395.817 138.574 395.276C138.032 394.716 137.295 394.436 136.362 394.436C135.708 394.436 135.13 394.567 134.626 394.828C134.122 395.071 133.702 395.425 133.366 395.892V406H129.53ZM153.239 406.28C151.783 406.28 150.467 405.944 149.291 405.272C148.115 404.6 147.182 403.695 146.491 402.556C145.801 401.417 145.455 400.139 145.455 398.72C145.455 397.301 145.791 396.023 146.463 394.884C147.154 393.727 148.087 392.812 149.263 392.14C150.458 391.468 151.783 391.132 153.239 391.132C154.695 391.132 156.011 391.468 157.187 392.14C158.382 392.812 159.315 393.727 159.987 394.884C160.678 396.023 161.023 397.301 161.023 398.72C161.023 400.139 160.678 401.417 159.987 402.556C159.315 403.695 158.391 404.6 157.215 405.272C156.039 405.944 154.714 406.28 153.239 406.28ZM153.239 402.948C154.005 402.948 154.686 402.761 155.283 402.388C155.899 402.015 156.385 401.511 156.739 400.876C157.113 400.223 157.299 399.504 157.299 398.72C157.299 397.917 157.113 397.199 156.739 396.564C156.385 395.929 155.899 395.425 155.283 395.052C154.686 394.66 154.005 394.464 153.239 394.464C152.493 394.464 151.811 394.66 151.195 395.052C150.579 395.425 150.094 395.929 149.739 396.564C149.385 397.199 149.207 397.917 149.207 398.72C149.207 399.504 149.385 400.223 149.739 400.876C150.094 401.511 150.579 402.015 151.195 402.388C151.811 402.761 152.493 402.948 153.239 402.948ZM163.381 406V391.412H167.217V392.532C168.262 391.599 169.532 391.132 171.025 391.132C171.977 391.132 172.826 391.328 173.573 391.72C174.32 392.093 174.936 392.625 175.421 393.316C176.018 392.607 176.718 392.065 177.521 391.692C178.342 391.319 179.248 391.132 180.237 391.132C181.338 391.132 182.3 391.384 183.121 391.888C183.961 392.373 184.614 393.055 185.081 393.932C185.566 394.791 185.809 395.799 185.809 396.956V406H182.001V397.516C182.001 396.564 181.749 395.817 181.245 395.276C180.741 394.716 180.069 394.436 179.229 394.436C178.65 394.436 178.118 394.557 177.633 394.8C177.166 395.043 176.765 395.407 176.429 395.892C176.448 396.06 176.466 396.228 176.485 396.396C176.504 396.564 176.513 396.751 176.513 396.956V406H172.677V397.516C172.677 396.564 172.425 395.817 171.921 395.276C171.436 394.716 170.773 394.436 169.933 394.436C169.354 394.436 168.832 394.548 168.365 394.772C167.917 394.996 167.534 395.332 167.217 395.78V406H163.381ZM188.729 406V391.412H192.565V406H188.729ZM190.633 389.676C190.035 389.676 189.522 389.461 189.093 389.032C188.663 388.603 188.449 388.089 188.449 387.492C188.449 386.876 188.663 386.363 189.093 385.952C189.522 385.523 190.035 385.308 190.633 385.308C191.249 385.308 191.762 385.523 192.173 385.952C192.602 386.363 192.817 386.876 192.817 387.492C192.817 388.089 192.602 388.603 192.173 389.032C191.762 389.461 191.249 389.676 190.633 389.676ZM202.537 406.28C201.099 406.28 199.802 405.953 198.645 405.3C197.487 404.628 196.573 403.723 195.901 402.584C195.229 401.427 194.893 400.139 194.893 398.72C194.893 397.283 195.229 395.995 195.901 394.856C196.573 393.717 197.487 392.812 198.645 392.14C199.802 391.468 201.099 391.132 202.537 391.132C203.694 391.132 204.795 391.356 205.841 391.804C206.905 392.252 207.819 392.896 208.585 393.736L206.233 396.228C205.691 395.631 205.122 395.192 204.525 394.912C203.946 394.613 203.311 394.464 202.621 394.464C201.874 394.464 201.202 394.651 200.605 395.024C200.026 395.397 199.559 395.901 199.205 396.536C198.869 397.171 198.701 397.899 198.701 398.72C198.701 399.504 198.869 400.223 199.205 400.876C199.559 401.511 200.045 402.015 200.661 402.388C201.277 402.743 201.958 402.92 202.705 402.92C203.358 402.92 203.965 402.789 204.525 402.528C205.103 402.248 205.654 401.837 206.177 401.296L208.473 403.704C207.726 404.507 206.83 405.141 205.785 405.608C204.739 406.056 203.657 406.28 202.537 406.28Z" fill="white"/>
<g filter="url(#filter1_b_4689_81987)">
<path d="M488.124 143H333.613L269 252.639L334.613 363H488.124L553 252.639L488.124 143Z" fill="url(#paint2_linear_4689_81987)" fill-opacity="0.8"/>
<path d="M488.124 143H333.613L269 252.639L334.613 363H488.124L553 252.639L488.124 143Z" stroke="url(#paint3_linear_4689_81987)" stroke-width="2"/>
</g>
<path fill-rule="evenodd" clip-rule="evenodd" d="M402.678 212.887C400.379 216.134 399 220.168 399 223.321C399 224.561 399.306 225.397 399.759 225.999C400.223 226.615 400.94 227.119 401.982 227.511C403.841 228.209 406.414 228.439 409.5 228.489V224.621L404.689 219.811C404.104 219.225 404.104 218.275 404.689 217.689C405.275 217.104 406.225 217.104 406.811 217.689L409.5 220.379V213.5C409.5 212.672 410.172 212 411 212C411.828 212 412.5 212.672 412.5 213.5V220.379L415.189 217.689C415.775 217.104 416.725 217.104 417.311 217.689C417.896 218.275 417.896 219.225 417.311 219.811L412.5 224.621V228.489C415.586 228.439 418.159 228.209 420.018 227.511C421.06 227.119 421.777 226.615 422.241 225.999C422.694 225.397 423 224.561 423 223.321C423 220.168 421.621 216.134 419.322 212.887C417.003 209.612 414.022 207.5 411 207.5C407.978 207.5 404.997 209.612 402.678 212.887ZM412.5 231.49C415.671 231.442 418.711 231.207 421.074 230.319C422.475 229.792 423.735 229.003 424.638 227.803C425.551 226.589 426 225.087 426 223.321C426 219.433 424.357 214.806 421.77 211.153C419.203 207.528 415.434 204.5 411 204.5C406.566 204.5 402.797 207.528 400.23 211.153C397.643 214.806 396 219.433 396 223.321C396 225.087 396.449 226.589 397.362 227.803C398.265 229.003 399.525 229.792 400.926 230.319C403.289 231.207 406.329 231.442 409.5 231.49V234.5H405C404.172 234.5 403.5 235.172 403.5 236C403.5 236.828 404.172 237.5 405 237.5H417C417.828 237.5 418.5 236.828 418.5 236C418.5 235.172 417.828 234.5 417 234.5H412.5V231.49Z" fill="white"/>
<path d="M315.858 282V262.4H330.922V265.928H319.918V270.408H327.17V273.824H319.918V278.472H331.034V282H315.858ZM333.653 282V267.412H337.489V268.616C338.59 267.627 339.953 267.132 341.577 267.132C342.715 267.132 343.714 267.384 344.573 267.888C345.45 268.373 346.131 269.055 346.617 269.932C347.102 270.791 347.345 271.799 347.345 272.956V282H343.509V273.516C343.509 272.564 343.238 271.817 342.697 271.276C342.155 270.716 341.418 270.436 340.485 270.436C339.831 270.436 339.253 270.567 338.749 270.828C338.245 271.071 337.825 271.425 337.489 271.892V282H333.653ZM354.189 282L347.945 267.412H352.117L356.121 277.128L360.097 267.412H364.185L357.913 282H354.189ZM365.7 282V267.412H369.536V282H365.7ZM367.604 265.676C367.006 265.676 366.493 265.461 366.064 265.032C365.634 264.603 365.42 264.089 365.42 263.492C365.42 262.876 365.634 262.363 366.064 261.952C366.493 261.523 367.006 261.308 367.604 261.308C368.22 261.308 368.733 261.523 369.144 261.952C369.573 262.363 369.788 262.876 369.788 263.492C369.788 264.089 369.573 264.603 369.144 265.032C368.733 265.461 368.22 265.676 367.604 265.676ZM372.535 282V267.412H376.371V269.036C376.838 268.401 377.398 267.916 378.051 267.58C378.705 267.244 379.442 267.076 380.263 267.076C380.973 267.095 381.505 267.207 381.859 267.412V270.772C381.579 270.641 381.271 270.548 380.935 270.492C380.599 270.417 380.254 270.38 379.899 270.38C379.153 270.38 378.471 270.567 377.855 270.94C377.239 271.313 376.745 271.845 376.371 272.536V282H372.535ZM390.503 282.28C389.047 282.28 387.731 281.944 386.555 281.272C385.379 280.6 384.446 279.695 383.755 278.556C383.064 277.417 382.719 276.139 382.719 274.72C382.719 273.301 383.055 272.023 383.727 270.884C384.418 269.727 385.351 268.812 386.527 268.14C387.722 267.468 389.047 267.132 390.503 267.132C391.959 267.132 393.275 267.468 394.451 268.14C395.646 268.812 396.579 269.727 397.251 270.884C397.942 272.023 398.287 273.301 398.287 274.72C398.287 276.139 397.942 277.417 397.251 278.556C396.579 279.695 395.655 280.6 394.479 281.272C393.303 281.944 391.978 282.28 390.503 282.28ZM390.503 278.948C391.268 278.948 391.95 278.761 392.547 278.388C393.163 278.015 393.648 277.511 394.003 276.876C394.376 276.223 394.563 275.504 394.563 274.72C394.563 273.917 394.376 273.199 394.003 272.564C393.648 271.929 393.163 271.425 392.547 271.052C391.95 270.66 391.268 270.464 390.503 270.464C389.756 270.464 389.075 270.66 388.459 271.052C387.843 271.425 387.358 271.929 387.003 272.564C386.648 273.199 386.471 273.917 386.471 274.72C386.471 275.504 386.648 276.223 387.003 276.876C387.358 277.511 387.843 278.015 388.459 278.388C389.075 278.761 389.756 278.948 390.503 278.948ZM400.645 282V267.412H404.481V268.616C405.582 267.627 406.945 267.132 408.569 267.132C409.707 267.132 410.706 267.384 411.565 267.888C412.442 268.373 413.123 269.055 413.609 269.932C414.094 270.791 414.337 271.799 414.337 272.956V282H410.501V273.516C410.501 272.564 410.23 271.817 409.689 271.276C409.147 270.716 408.41 270.436 407.477 270.436C406.823 270.436 406.245 270.567 405.741 270.828C405.237 271.071 404.817 271.425 404.481 271.892V282H400.645ZM417.242 282V267.412H421.078V268.532C422.124 267.599 423.393 267.132 424.886 267.132C425.838 267.132 426.688 267.328 427.434 267.72C428.181 268.093 428.797 268.625 429.282 269.316C429.88 268.607 430.58 268.065 431.382 267.692C432.204 267.319 433.109 267.132 434.098 267.132C435.2 267.132 436.161 267.384 436.982 267.888C437.822 268.373 438.476 269.055 438.942 269.932C439.428 270.791 439.67 271.799 439.67 272.956V282H435.862V273.516C435.862 272.564 435.61 271.817 435.106 271.276C434.602 270.716 433.93 270.436 433.09 270.436C432.512 270.436 431.98 270.557 431.494 270.8C431.028 271.043 430.626 271.407 430.29 271.892C430.309 272.06 430.328 272.228 430.346 272.396C430.365 272.564 430.374 272.751 430.374 272.956V282H426.538V273.516C426.538 272.564 426.286 271.817 425.782 271.276C425.297 270.716 424.634 270.436 423.794 270.436C423.216 270.436 422.693 270.548 422.226 270.772C421.778 270.996 421.396 271.332 421.078 271.78V282H417.242ZM449.73 282.28C448.274 282.28 446.949 281.944 445.754 281.272C444.578 280.6 443.645 279.695 442.954 278.556C442.263 277.417 441.918 276.139 441.918 274.72C441.918 273.301 442.245 272.023 442.898 270.884C443.57 269.745 444.475 268.84 445.614 268.168C446.753 267.496 448.022 267.16 449.422 267.16C450.822 267.16 452.063 267.505 453.146 268.196C454.229 268.887 455.078 269.82 455.694 270.996C456.329 272.172 456.646 273.507 456.646 275V276.008H445.838C446.006 276.587 446.277 277.109 446.65 277.576C447.042 278.043 447.518 278.407 448.078 278.668C448.657 278.929 449.273 279.06 449.926 279.06C450.579 279.06 451.177 278.957 451.718 278.752C452.278 278.547 452.754 278.257 453.146 277.884L455.666 280.18C454.77 280.908 453.846 281.44 452.894 281.776C451.961 282.112 450.906 282.28 449.73 282.28ZM445.782 273.264H452.866C452.735 272.685 452.493 272.181 452.138 271.752C451.802 271.304 451.391 270.959 450.906 270.716C450.439 270.455 449.917 270.324 449.338 270.324C448.741 270.324 448.199 270.445 447.714 270.688C447.229 270.931 446.818 271.276 446.482 271.724C446.165 272.153 445.931 272.667 445.782 273.264ZM458.996 282V267.412H462.832V268.616C463.934 267.627 465.296 267.132 466.92 267.132C468.059 267.132 469.058 267.384 469.916 267.888C470.794 268.373 471.475 269.055 471.96 269.932C472.446 270.791 472.688 271.799 472.688 272.956V282H468.852V273.516C468.852 272.564 468.582 271.817 468.04 271.276C467.499 270.716 466.762 270.436 465.828 270.436C465.175 270.436 464.596 270.567 464.092 270.828C463.588 271.071 463.168 271.425 462.832 271.892V282H458.996ZM482.1 282.224C480.476 282.224 479.244 281.86 478.404 281.132C477.583 280.385 477.172 279.303 477.172 277.884V270.604H474.176V267.412H477.172V263.688L481.008 262.82V267.412H485.18V270.604H481.008V277.1C481.008 277.772 481.157 278.257 481.456 278.556C481.755 278.836 482.277 278.976 483.024 278.976C483.397 278.976 483.733 278.957 484.032 278.92C484.349 278.864 484.695 278.771 485.068 278.64V281.804C484.676 281.935 484.181 282.037 483.584 282.112C483.005 282.187 482.511 282.224 482.1 282.224ZM491.699 282.252C490.654 282.252 489.73 282.065 488.927 281.692C488.124 281.3 487.499 280.768 487.051 280.096C486.603 279.424 486.379 278.649 486.379 277.772C486.379 276.372 486.902 275.289 487.947 274.524C489.011 273.74 490.467 273.348 492.315 273.348C493.584 273.348 494.779 273.544 495.899 273.936V272.872C495.899 272.032 495.638 271.397 495.115 270.968C494.592 270.539 493.827 270.324 492.819 270.324C492.203 270.324 491.54 270.427 490.831 270.632C490.122 270.819 489.3 271.117 488.367 271.528L486.967 268.7C488.124 268.177 489.226 267.785 490.271 267.524C491.335 267.263 492.399 267.132 493.463 267.132C495.423 267.132 496.944 267.608 498.027 268.56C499.128 269.493 499.679 270.819 499.679 272.536V282H495.899V280.964C495.302 281.412 494.658 281.739 493.967 281.944C493.276 282.149 492.52 282.252 491.699 282.252ZM490.019 277.688C490.019 278.248 490.262 278.696 490.747 279.032C491.232 279.349 491.876 279.508 492.679 279.508C493.314 279.508 493.902 279.433 494.443 279.284C494.984 279.116 495.47 278.873 495.899 278.556V276.428C495.432 276.241 494.947 276.101 494.443 276.008C493.939 275.915 493.398 275.868 492.819 275.868C491.942 275.868 491.251 276.036 490.747 276.372C490.262 276.689 490.019 277.128 490.019 277.688ZM502.582 282V262.4L506.418 261.756V282H502.582Z" fill="white"/>
<g filter="url(#filter2_b_4689_81987)">
<path d="M229.124 1H75.613L10 110.639L75.613 221H229.124L294 110.639L229.124 1Z" fill="url(#paint4_linear_4689_81987)" fill-opacity="0.8"/>
<path d="M229.124 1H75.613L10 110.639L75.613 221H229.124L294 110.639L229.124 1Z" stroke="url(#paint5_linear_4689_81987)" stroke-width="2"/>
</g>
<path fill-rule="evenodd" clip-rule="evenodd" d="M165.5 71.5C165.5 76.4706 161.471 80.5 156.5 80.5C151.53 80.5 147.5 76.4706 147.5 71.5C147.5 66.5294 151.53 62.5 156.5 62.5C161.471 62.5 165.5 66.5294 165.5 71.5ZM162.5 71.5C162.5 74.8137 159.814 77.5 156.5 77.5C153.187 77.5 150.5 74.8137 150.5 71.5C150.5 68.1863 153.187 65.5 156.5 65.5C159.814 65.5 162.5 68.1863 162.5 71.5Z" fill="white"/>
<path d="M146.299 65.6197C147.11 65.4549 147.635 64.6632 147.47 63.8513C147.305 63.0394 146.514 62.5149 145.702 62.6797C141.593 63.5137 138.5 67.1438 138.5 71.4997C138.5 75.8555 141.593 79.4857 145.702 80.3197C146.514 80.4845 147.305 79.9599 147.47 79.1481C147.635 78.3362 147.11 77.5444 146.299 77.3796C143.561 76.8238 141.5 74.4007 141.5 71.4997C141.5 68.5987 143.561 66.1755 146.299 65.6197Z" fill="white"/>
<path fill-rule="evenodd" clip-rule="evenodd" d="M148.547 84.3603C150.396 82.9408 152.974 82 156.5 82C160.027 82 162.604 82.9408 164.453 84.3603C166.289 85.7693 167.287 87.5575 167.829 89.0629C168.306 90.388 167.972 91.685 167.172 92.6042C166.401 93.4919 165.232 94 164 94H149C147.769 94 146.6 93.4919 145.828 92.6042C145.029 91.685 144.695 90.3879 145.172 89.0629C145.713 87.5574 146.712 85.7692 148.547 84.3603ZM150.374 86.74C149.111 87.7097 148.398 88.9568 147.994 90.0784C147.91 90.3124 147.957 90.48 148.092 90.6357C148.255 90.8229 148.575 91 149 91H164C164.425 91 164.746 90.8229 164.909 90.6357C165.044 90.48 165.09 90.3124 165.006 90.0784C164.603 88.9568 163.89 87.7097 162.627 86.7401C161.377 85.781 159.469 85 156.5 85C153.532 85 151.623 85.781 150.374 86.74Z" fill="white"/>
<path d="M138.877 89.9153C139.184 88.733 139.711 87.4898 140.58 86.5606C141.407 85.6776 142.611 85 144.5 85C145.329 85 146 84.3284 146 83.5C146 82.6716 145.329 82 144.5 82C141.769 82 139.776 83.0301 138.39 84.5105C137.048 85.9448 136.347 87.7207 135.973 89.1612C135.248 91.952 137.622 94 140 94H141.154C141.982 94 142.654 93.3284 142.654 92.5C142.654 91.6716 141.982 91 141.154 91H140C139.576 91 139.239 90.8258 139.047 90.6138C138.873 90.4219 138.804 90.1944 138.877 89.9153Z" fill="white"/>
<path d="M121.116 140.28C119.529 140.28 117.98 139.991 116.468 139.412C114.956 138.815 113.612 137.975 112.436 136.892L114.76 133.98C115.898 134.988 116.99 135.716 118.036 136.164C119.1 136.612 120.22 136.836 121.396 136.836C122.217 136.836 122.926 136.743 123.524 136.556C124.121 136.351 124.578 136.061 124.896 135.688C125.232 135.315 125.4 134.876 125.4 134.372C125.4 133.7 125.157 133.187 124.672 132.832C124.186 132.459 123.356 132.169 122.18 131.964L118.288 131.292C116.626 131.012 115.357 130.424 114.48 129.528C113.621 128.632 113.192 127.475 113.192 126.056C113.192 124.843 113.5 123.788 114.116 122.892C114.75 121.996 115.637 121.315 116.776 120.848C117.933 120.363 119.305 120.12 120.892 120.12C122.329 120.12 123.757 120.363 125.176 120.848C126.613 121.333 127.882 122.005 128.984 122.864L126.8 125.888C124.746 124.32 122.684 123.536 120.612 123.536C119.884 123.536 119.249 123.629 118.708 123.816C118.166 124.003 117.746 124.264 117.448 124.6C117.168 124.917 117.028 125.3 117.028 125.748C117.028 126.345 117.242 126.812 117.672 127.148C118.101 127.465 118.82 127.708 119.828 127.876L123.524 128.492C125.484 128.809 126.949 129.435 127.92 130.368C128.89 131.283 129.376 132.496 129.376 134.008C129.376 135.277 129.04 136.388 128.368 137.34C127.696 138.273 126.734 139.001 125.484 139.524C124.252 140.028 122.796 140.28 121.116 140.28ZM138.913 140.28C137.457 140.28 136.141 139.944 134.965 139.272C133.789 138.6 132.856 137.695 132.165 136.556C131.474 135.417 131.129 134.139 131.129 132.72C131.129 131.301 131.465 130.023 132.137 128.884C132.828 127.727 133.761 126.812 134.937 126.14C136.132 125.468 137.457 125.132 138.913 125.132C140.369 125.132 141.685 125.468 142.861 126.14C144.056 126.812 144.989 127.727 145.661 128.884C146.352 130.023 146.697 131.301 146.697 132.72C146.697 134.139 146.352 135.417 145.661 136.556C144.989 137.695 144.065 138.6 142.889 139.272C141.713 139.944 140.388 140.28 138.913 140.28ZM138.913 136.948C139.678 136.948 140.36 136.761 140.957 136.388C141.573 136.015 142.058 135.511 142.413 134.876C142.786 134.223 142.973 133.504 142.973 132.72C142.973 131.917 142.786 131.199 142.413 130.564C142.058 129.929 141.573 129.425 140.957 129.052C140.36 128.66 139.678 128.464 138.913 128.464C138.166 128.464 137.485 128.66 136.869 129.052C136.253 129.425 135.768 129.929 135.413 130.564C135.058 131.199 134.881 131.917 134.881 132.72C134.881 133.504 135.058 134.223 135.413 134.876C135.768 135.511 136.253 136.015 136.869 136.388C137.485 136.761 138.166 136.948 138.913 136.948ZM156.027 140.28C154.59 140.28 153.292 139.953 152.135 139.3C150.978 138.628 150.063 137.723 149.391 136.584C148.719 135.427 148.383 134.139 148.383 132.72C148.383 131.283 148.719 129.995 149.391 128.856C150.063 127.717 150.978 126.812 152.135 126.14C153.292 125.468 154.59 125.132 156.027 125.132C157.184 125.132 158.286 125.356 159.331 125.804C160.395 126.252 161.31 126.896 162.075 127.736L159.723 130.228C159.182 129.631 158.612 129.192 158.015 128.912C157.436 128.613 156.802 128.464 156.111 128.464C155.364 128.464 154.692 128.651 154.095 129.024C153.516 129.397 153.05 129.901 152.695 130.536C152.359 131.171 152.191 131.899 152.191 132.72C152.191 133.504 152.359 134.223 152.695 134.876C153.05 135.511 153.535 136.015 154.151 136.388C154.767 136.743 155.448 136.92 156.195 136.92C156.848 136.92 157.455 136.789 158.015 136.528C158.594 136.248 159.144 135.837 159.667 135.296L161.963 137.704C161.216 138.507 160.32 139.141 159.275 139.608C158.23 140.056 157.147 140.28 156.027 140.28ZM163.957 140V125.412H167.793V140H163.957ZM165.861 123.676C165.264 123.676 164.751 123.461 164.321 123.032C163.892 122.603 163.677 122.089 163.677 121.492C163.677 120.876 163.892 120.363 164.321 119.952C164.751 119.523 165.264 119.308 165.861 119.308C166.477 119.308 166.991 119.523 167.401 119.952C167.831 120.363 168.045 120.876 168.045 121.492C168.045 122.089 167.831 122.603 167.401 123.032C166.991 123.461 166.477 123.676 165.861 123.676ZM175.441 140.252C174.396 140.252 173.472 140.065 172.669 139.692C171.867 139.3 171.241 138.768 170.793 138.096C170.345 137.424 170.121 136.649 170.121 135.772C170.121 134.372 170.644 133.289 171.689 132.524C172.753 131.74 174.209 131.348 176.057 131.348C177.327 131.348 178.521 131.544 179.641 131.936V130.872C179.641 130.032 179.38 129.397 178.857 128.968C178.335 128.539 177.569 128.324 176.561 128.324C175.945 128.324 175.283 128.427 174.573 128.632C173.864 128.819 173.043 129.117 172.109 129.528L170.709 126.7C171.867 126.177 172.968 125.785 174.013 125.524C175.077 125.263 176.141 125.132 177.205 125.132C179.165 125.132 180.687 125.608 181.769 126.56C182.871 127.493 183.421 128.819 183.421 130.536V140H179.641V138.964C179.044 139.412 178.4 139.739 177.709 139.944C177.019 140.149 176.263 140.252 175.441 140.252ZM173.761 135.688C173.761 136.248 174.004 136.696 174.489 137.032C174.975 137.349 175.619 137.508 176.421 137.508C177.056 137.508 177.644 137.433 178.185 137.284C178.727 137.116 179.212 136.873 179.641 136.556V134.428C179.175 134.241 178.689 134.101 178.185 134.008C177.681 133.915 177.14 133.868 176.561 133.868C175.684 133.868 174.993 134.036 174.489 134.372C174.004 134.689 173.761 135.128 173.761 135.688ZM186.325 140V120.4L190.161 119.756V140H186.325Z" fill="white"/>
<defs>
<filter id="filter0_b_4689_81987" x="-3.16455" y="266" width="294.326" height="230" filterUnits="userSpaceOnUse" color-interpolation-filters="sRGB">
<feFlood flood-opacity="0" result="BackgroundImageFix"/>
<feGaussianBlur in="BackgroundImageFix" stdDeviation="2"/>
<feComposite in2="SourceAlpha" operator="in" result="effect1_backgroundBlur_4689_81987"/>
<feBlend mode="normal" in="SourceGraphic" in2="effect1_backgroundBlur_4689_81987" result="shape"/>
</filter>
<filter id="filter1_b_4689_81987" x="263.838" y="138" width="294.323" height="230" filterUnits="userSpaceOnUse" color-interpolation-filters="sRGB">
<feFlood flood-opacity="0" result="BackgroundImageFix"/>
<feGaussianBlur in="BackgroundImageFix" stdDeviation="2"/>
<feComposite in2="SourceAlpha" operator="in" result="effect1_backgroundBlur_4689_81987"/>
<feBlend mode="normal" in="SourceGraphic" in2="effect1_backgroundBlur_4689_81987" result="shape"/>
</filter>
<filter id="filter2_b_4689_81987" x="4.83545" y="-4" width="294.326" height="230" filterUnits="userSpaceOnUse" color-interpolation-filters="sRGB">
<feFlood flood-opacity="0" result="BackgroundImageFix"/>
<feGaussianBlur in="BackgroundImageFix" stdDeviation="2"/>
<feComposite in2="SourceAlpha" operator="in" result="effect1_backgroundBlur_4689_81987"/>
<feBlend mode="normal" in="SourceGraphic" in2="effect1_backgroundBlur_4689_81987" result="shape"/>
</filter>
<linearGradient id="paint0_linear_4689_81987" x1="193.863" y1="271" x2="193" y2="594.5" gradientUnits="userSpaceOnUse">
<stop stop-color="#204808"/>
<stop offset="1" stop-color="#204808" stop-opacity="0"/>
</linearGradient>
<linearGradient id="paint1_linear_4689_81987" x1="221" y1="271" x2="68.5" y2="491" gradientUnits="userSpaceOnUse">
<stop stop-color="#B1C780"/>
<stop offset="1" stop-color="#E8F6C9"/>
</linearGradient>
<linearGradient id="paint2_linear_4689_81987" x1="460.863" y1="143" x2="460" y2="466.5" gradientUnits="userSpaceOnUse">
<stop stop-color="#204808"/>
<stop offset="1" stop-color="#204808" stop-opacity="0"/>
</linearGradient>
<linearGradient id="paint3_linear_4689_81987" x1="269" y1="253" x2="553" y2="253" gradientUnits="userSpaceOnUse">
<stop stop-color="#B1C780"/>
<stop offset="1" stop-color="#E8F6C9"/>
</linearGradient>
<linearGradient id="paint4_linear_4689_81987" x1="201.863" y1="1" x2="201" y2="324.5" gradientUnits="userSpaceOnUse">
<stop stop-color="#204808"/>
<stop offset="1" stop-color="#204808" stop-opacity="0"/>
</linearGradient>
<linearGradient id="paint5_linear_4689_81987" x1="230" y1="221" x2="75.5" y2="0.999988" gradientUnits="userSpaceOnUse">
<stop stop-color="#B1C780"/>
<stop offset="1" stop-color="#E8F6C9"/>
</linearGradient>
</defs>
</svg>
