<svg width="161" height="64" viewBox="0 0 161 64" fill="none" xmlns="http://www.w3.org/2000/svg">
<rect width="161" height="64" rx="16" fill="#F6F6FB"/>
<path d="M21.26 39V25H28.28C29.2 25 30.0067 25.1867 30.7 25.56C31.4067 25.9333 31.96 26.4533 32.36 27.12C32.76 27.7733 32.96 28.5333 32.96 29.4C32.96 30.2267 32.76 30.9667 32.36 31.62C31.96 32.2733 31.4067 32.7867 30.7 33.16C29.9933 33.5333 29.1867 33.72 28.28 33.72H24.16V39H21.26ZM24.16 31.32H27.96C28.5867 31.32 29.0867 31.1467 29.46 30.8C29.8467 30.4533 30.04 29.9933 30.04 29.42C30.04 28.8333 29.8467 28.3667 29.46 28.02C29.0867 27.6733 28.5867 27.5 27.96 27.5H24.16V31.32ZM38.7967 39.2C37.7567 39.2 36.8167 38.96 35.9767 38.48C35.1367 38 34.4701 37.3533 33.9767 36.54C33.4834 35.7267 33.2367 34.8133 33.2367 33.8C33.2367 32.7867 33.4767 31.8733 33.9567 31.06C34.4501 30.2333 35.1167 29.58 35.9567 29.1C36.8101 28.62 37.7567 28.38 38.7967 28.38C39.8367 28.38 40.7767 28.62 41.6167 29.1C42.4701 29.58 43.1367 30.2333 43.6167 31.06C44.1101 31.8733 44.3567 32.7867 44.3567 33.8C44.3567 34.8133 44.1101 35.7267 43.6167 36.54C43.1367 37.3533 42.4767 38 41.6367 38.48C40.7967 38.96 39.8501 39.2 38.7967 39.2ZM38.7967 36.82C39.3434 36.82 39.8301 36.6867 40.2567 36.42C40.6967 36.1533 41.0434 35.7933 41.2967 35.34C41.5634 34.8733 41.6967 34.36 41.6967 33.8C41.6967 33.2267 41.5634 32.7133 41.2967 32.26C41.0434 31.8067 40.6967 31.4467 40.2567 31.18C39.8301 30.9 39.3434 30.76 38.7967 30.76C38.2634 30.76 37.7767 30.9 37.3367 31.18C36.8967 31.4467 36.5501 31.8067 36.2967 32.26C36.0434 32.7133 35.9167 33.2267 35.9167 33.8C35.9167 34.36 36.0434 34.8733 36.2967 35.34C36.5501 35.7933 36.8967 36.1533 37.3367 36.42C37.7767 36.6867 38.2634 36.82 38.7967 36.82ZM46.0409 39V25L48.7809 24.54V39H46.0409ZM50.9238 39V28.58H53.6638V39H50.9238ZM52.2838 27.34C51.8571 27.34 51.4904 27.1867 51.1838 26.88C50.8771 26.5733 50.7238 26.2067 50.7238 25.78C50.7238 25.34 50.8771 24.9733 51.1838 24.68C51.4904 24.3733 51.8571 24.22 52.2838 24.22C52.7238 24.22 53.0904 24.3733 53.3838 24.68C53.6904 24.9733 53.8438 25.34 53.8438 25.78C53.8438 26.2067 53.6904 26.5733 53.3838 26.88C53.0904 27.1867 52.7238 27.34 52.2838 27.34ZM60.7866 39.2C59.7599 39.2 58.8332 38.9667 58.0066 38.5C57.1799 38.02 56.5266 37.3733 56.0466 36.56C55.5666 35.7333 55.3266 34.8133 55.3266 33.8C55.3266 32.7733 55.5666 31.8533 56.0466 31.04C56.5266 30.2267 57.1799 29.58 58.0066 29.1C58.8332 28.62 59.7599 28.38 60.7866 28.38C61.6132 28.38 62.3999 28.54 63.1466 28.86C63.9066 29.18 64.5599 29.64 65.1066 30.24L63.4266 32.02C63.0399 31.5933 62.6332 31.28 62.2066 31.08C61.7932 30.8667 61.3399 30.76 60.8466 30.76C60.3132 30.76 59.8332 30.8933 59.4066 31.16C58.9932 31.4267 58.6599 31.7867 58.4066 32.24C58.1666 32.6933 58.0466 33.2133 58.0466 33.8C58.0466 34.36 58.1666 34.8733 58.4066 35.34C58.6599 35.7933 59.0066 36.1533 59.4466 36.42C59.8866 36.6733 60.3732 36.8 60.9066 36.8C61.3732 36.8 61.8066 36.7067 62.2066 36.52C62.6199 36.32 63.0132 36.0267 63.3866 35.64L65.0266 37.36C64.4932 37.9333 63.8532 38.3867 63.1066 38.72C62.3599 39.04 61.5866 39.2 60.7866 39.2ZM67.4711 43.3C67.2311 43.3 66.9978 43.2867 66.7711 43.26C66.5578 43.2467 66.3778 43.2267 66.2311 43.2V40.84C66.4978 40.8933 66.8178 40.92 67.1911 40.92C68.1911 40.92 68.8844 40.4467 69.2711 39.5L69.4311 39.1L65.3711 28.58H68.3911L70.9911 35.68L73.9311 28.58H76.8911L72.0911 39.84C71.7311 40.68 71.3378 41.3533 70.9111 41.86C70.4844 42.3667 69.9911 42.7333 69.4311 42.96C68.8844 43.1867 68.2311 43.3 67.4711 43.3Z" fill="#1A1B35"/>
<path d="M141 32C141 43.0457 132.046 52 121 52C109.954 52 101 43.0457 101 32C101 20.9543 109.954 12 121 12C132.046 12 141 20.9543 141 32ZM105 32C105 40.8366 112.163 48 121 48C129.837 48 137 40.8366 137 32C137 23.1634 129.837 16 121 16C112.163 16 105 23.1634 105 32Z" fill="#D8D9E4"/>
<path d="M121 14C121 12.8954 121.898 11.9896 122.997 12.0999C125.095 12.3104 127.151 12.8519 129.087 13.7079C131.634 14.834 133.918 16.4798 135.793 18.5397C137.667 20.5997 139.091 23.0285 139.972 25.6705C140.853 28.3124 141.173 31.1094 140.911 33.8822C140.649 36.6549 139.811 39.3424 138.45 41.7724C137.089 44.2024 135.236 46.3214 133.008 47.9937C130.781 49.6659 128.229 50.8546 125.516 51.4835C123.454 51.9615 121.333 52.1081 119.232 51.9217C118.132 51.8241 117.42 50.7662 117.627 49.6812C117.834 48.5962 118.882 47.8977 119.985 47.9678C121.534 48.0663 123.093 47.939 124.613 47.5868C126.783 47.0837 128.825 46.1328 130.607 44.795C132.389 43.4571 133.871 41.7619 134.96 39.8179C136.049 37.8739 136.719 35.7239 136.929 33.5057C137.139 31.2875 136.883 29.0499 136.178 26.9364C135.472 24.8228 134.334 22.8798 132.834 21.2318C131.335 19.5838 129.507 18.2672 127.469 17.3663C126.043 16.7356 124.535 16.3184 122.995 16.1248C121.899 15.9871 121 15.1046 121 14Z" fill="#09A16C"/>
<path d="M116.294 38.1758C114.748 38.1758 113.409 37.6744 112.278 36.6718L113.526 35.2158C114.006 35.6211 114.47 35.9144 114.918 36.0958C115.366 36.2771 115.857 36.3678 116.39 36.3678C116.828 36.3678 117.206 36.2878 117.526 36.1278C117.846 35.9678 118.097 35.7438 118.278 35.4558C118.47 35.1678 118.566 34.8318 118.566 34.4478C118.566 33.9038 118.353 33.4558 117.926 33.1038C117.51 32.7518 116.966 32.5758 116.294 32.5758C115.964 32.5758 115.628 32.6238 115.286 32.7198C114.945 32.8051 114.598 32.9438 114.246 33.1358L112.79 32.7038L113.046 26.7998H120.102V28.5918H114.806L114.678 31.4878C115.041 31.3064 115.409 31.1731 115.782 31.0878C116.156 30.9918 116.545 30.9438 116.95 30.9438C117.708 30.9438 118.364 31.0878 118.918 31.3758C119.484 31.6531 119.921 32.0478 120.23 32.5598C120.54 33.0718 120.694 33.6691 120.694 34.3518C120.694 35.1091 120.508 35.7758 120.134 36.3518C119.772 36.9278 119.26 37.3758 118.598 37.6958C117.937 38.0158 117.169 38.1758 116.294 38.1758ZM125.925 38.1758C125.061 38.1758 124.255 38.0264 123.509 37.7278C122.773 37.4184 122.154 36.9864 121.653 36.4318L123.061 35.1198C123.487 35.5784 123.909 35.8984 124.325 36.0798C124.751 36.2504 125.274 36.3358 125.893 36.3358C126.341 36.3358 126.73 36.2718 127.061 36.1438C127.402 36.0051 127.663 35.8131 127.845 35.5678C128.037 35.3224 128.133 35.0398 128.133 34.7198C128.133 34.4211 128.058 34.1651 127.909 33.9518C127.759 33.7384 127.557 33.5731 127.301 33.4558C127.045 33.3278 126.741 33.2638 126.389 33.2638H124.981V31.5358H126.197C126.698 31.5358 127.093 31.4078 127.381 31.1518C127.669 30.8851 127.813 30.5224 127.813 30.0638C127.813 29.7651 127.727 29.4984 127.557 29.2638C127.386 29.0184 127.151 28.8264 126.853 28.6878C126.565 28.5491 126.234 28.4798 125.861 28.4798C125.306 28.4798 124.826 28.5758 124.421 28.7678C124.026 28.9598 123.61 29.3011 123.173 29.7918L121.749 28.4798C122.271 27.8931 122.895 27.4398 123.621 27.1198C124.357 26.7891 125.13 26.6238 125.941 26.6238C126.719 26.6238 127.407 26.7624 128.005 27.0398C128.602 27.3064 129.071 27.6798 129.413 28.1598C129.754 28.6398 129.925 29.1891 129.925 29.8078C129.925 30.4051 129.727 30.9384 129.333 31.4078C128.938 31.8664 128.426 32.1864 127.797 32.3678C128.543 32.5171 129.135 32.8158 129.573 33.2638C130.021 33.7118 130.245 34.2504 130.245 34.8798C130.245 35.5091 130.058 36.0744 129.685 36.5758C129.311 37.0771 128.799 37.4718 128.149 37.7598C127.509 38.0371 126.767 38.1758 125.925 38.1758Z" fill="#1A1B35"/>
</svg>
