<svg width="209" height="64" viewBox="0 0 209 64" fill="none" xmlns="http://www.w3.org/2000/svg">
<rect width="209" height="64" rx="16" fill="#F6F6FB"/>
<path d="M21.26 39V25H28.28C29.2 25 30.0067 25.1867 30.7 25.56C31.4067 25.9333 31.96 26.4533 32.36 27.12C32.76 27.7733 32.96 28.5333 32.96 29.4C32.96 30.2267 32.76 30.9667 32.36 31.62C31.96 32.2733 31.4067 32.7867 30.7 33.16C29.9933 33.5333 29.1867 33.72 28.28 33.72H24.16V39H21.26ZM24.16 31.32H27.96C28.5867 31.32 29.0867 31.1467 29.46 30.8C29.8467 30.4533 30.04 29.9933 30.04 29.42C30.04 28.8333 29.8467 28.3667 29.46 28.02C29.0867 27.6733 28.5867 27.5 27.96 27.5H24.16V31.32ZM34.6738 39V28.58H37.4138V29.74C37.7471 29.2867 38.1471 28.94 38.6138 28.7C39.0804 28.46 39.6071 28.34 40.1938 28.34C40.7004 28.3533 41.0804 28.4333 41.3338 28.58V30.98C41.1338 30.8867 40.9138 30.82 40.6738 30.78C40.4338 30.7267 40.1871 30.7 39.9338 30.7C39.4004 30.7 38.9138 30.8333 38.4738 31.1C38.0338 31.3667 37.6804 31.7467 37.4138 32.24V39H34.6738ZM47.5077 39.2C46.4677 39.2 45.5277 38.96 44.6877 38.48C43.8477 38 43.181 37.3533 42.6877 36.54C42.1943 35.7267 41.9477 34.8133 41.9477 33.8C41.9477 32.7867 42.1877 31.8733 42.6677 31.06C43.161 30.2333 43.8277 29.58 44.6677 29.1C45.521 28.62 46.4677 28.38 47.5077 28.38C48.5477 28.38 49.4877 28.62 50.3277 29.1C51.181 29.58 51.8477 30.2333 52.3277 31.06C52.821 31.8733 53.0677 32.7867 53.0677 33.8C53.0677 34.8133 52.821 35.7267 52.3277 36.54C51.8477 37.3533 51.1877 38 50.3477 38.48C49.5077 38.96 48.561 39.2 47.5077 39.2ZM47.5077 36.82C48.0543 36.82 48.541 36.6867 48.9677 36.42C49.4077 36.1533 49.7543 35.7933 50.0077 35.34C50.2743 34.8733 50.4077 34.36 50.4077 33.8C50.4077 33.2267 50.2743 32.7133 50.0077 32.26C49.7543 31.8067 49.4077 31.4467 48.9677 31.18C48.541 30.9 48.0543 30.76 47.5077 30.76C46.9743 30.76 46.4877 30.9 46.0477 31.18C45.6077 31.4467 45.261 31.8067 45.0077 32.26C44.7543 32.7133 44.6277 33.2267 44.6277 33.8C44.6277 34.36 44.7543 34.8733 45.0077 35.34C45.261 35.7933 45.6077 36.1533 46.0477 36.42C46.4877 36.6867 46.9743 36.82 47.5077 36.82ZM59.7319 39.2C58.7052 39.2 57.7785 38.9667 56.9519 38.5C56.1252 38.02 55.4719 37.3733 54.9919 36.56C54.5119 35.7333 54.2719 34.8133 54.2719 33.8C54.2719 32.7733 54.5119 31.8533 54.9919 31.04C55.4719 30.2267 56.1252 29.58 56.9519 29.1C57.7785 28.62 58.7052 28.38 59.7319 28.38C60.5585 28.38 61.3452 28.54 62.0919 28.86C62.8519 29.18 63.5052 29.64 64.0519 30.24L62.3719 32.02C61.9852 31.5933 61.5785 31.28 61.1519 31.08C60.7385 30.8667 60.2852 30.76 59.7919 30.76C59.2585 30.76 58.7785 30.8933 58.3519 31.16C57.9385 31.4267 57.6052 31.7867 57.3519 32.24C57.1119 32.6933 56.9919 33.2133 56.9919 33.8C56.9919 34.36 57.1119 34.8733 57.3519 35.34C57.6052 35.7933 57.9519 36.1533 58.3919 36.42C58.8319 36.6733 59.3185 36.8 59.8519 36.8C60.3185 36.8 60.7519 36.7067 61.1519 36.52C61.5652 36.32 61.9585 36.0267 62.3319 35.64L63.9719 37.36C63.4385 37.9333 62.7985 38.3867 62.0519 38.72C61.3052 39.04 60.5319 39.2 59.7319 39.2ZM70.2034 39.2C69.1634 39.2 68.2168 38.96 67.3634 38.48C66.5234 38 65.8568 37.3533 65.3634 36.54C64.8701 35.7267 64.6234 34.8133 64.6234 33.8C64.6234 32.7867 64.8568 31.8733 65.3234 31.06C65.8034 30.2467 66.4501 29.6 67.2634 29.12C68.0768 28.64 68.9834 28.4 69.9834 28.4C70.9834 28.4 71.8701 28.6467 72.6434 29.14C73.4168 29.6333 74.0234 30.3 74.4634 31.14C74.9168 31.98 75.1434 32.9333 75.1434 34V34.72H67.4234C67.5434 35.1333 67.7368 35.5067 68.0034 35.84C68.2834 36.1733 68.6234 36.4333 69.0234 36.62C69.4368 36.8067 69.8768 36.9 70.3434 36.9C70.8101 36.9 71.2368 36.8267 71.6234 36.68C72.0234 36.5333 72.3634 36.3267 72.6434 36.06L74.4434 37.7C73.8034 38.22 73.1434 38.6 72.4634 38.84C71.7968 39.08 71.0434 39.2 70.2034 39.2ZM67.3834 32.76H72.4434C72.3501 32.3467 72.1768 31.9867 71.9234 31.68C71.6834 31.36 71.3901 31.1133 71.0434 30.94C70.7101 30.7533 70.3368 30.66 69.9234 30.66C69.4968 30.66 69.1101 30.7467 68.7634 30.92C68.4168 31.0933 68.1234 31.34 67.8834 31.66C67.6568 31.9667 67.4901 32.3333 67.3834 32.76ZM80.8198 39.2C79.8598 39.2 78.9732 39.08 78.1598 38.84C77.3465 38.5867 76.6398 38.2267 76.0398 37.76L77.3998 35.94C77.9998 36.34 78.5732 36.64 79.1198 36.84C79.6798 37.04 80.2332 37.14 80.7798 37.14C81.3932 37.14 81.8798 37.04 82.2398 36.84C82.6132 36.6267 82.7998 36.3533 82.7998 36.02C82.7998 35.7533 82.6932 35.54 82.4798 35.38C82.2798 35.22 81.9532 35.1067 81.4998 35.04L79.4998 34.74C78.4598 34.58 77.6732 34.2467 77.1398 33.74C76.6065 33.22 76.3398 32.54 76.3398 31.7C76.3398 31.02 76.5132 30.44 76.8598 29.96C77.2198 29.4667 77.7198 29.0867 78.3598 28.82C79.0132 28.54 79.7865 28.4 80.6798 28.4C81.4398 28.4 82.1798 28.5067 82.8998 28.72C83.6332 28.9333 84.3198 29.26 84.9598 29.7L83.6398 31.48C83.0665 31.12 82.5198 30.86 81.9998 30.7C81.4798 30.54 80.9532 30.46 80.4198 30.46C79.9265 30.46 79.5265 30.5533 79.2198 30.74C78.9265 30.9267 78.7798 31.1733 78.7798 31.48C78.7798 31.76 78.8865 31.98 79.0998 32.14C79.3132 32.3 79.6798 32.4133 80.1998 32.48L82.1798 32.78C83.2198 32.9267 84.0132 33.26 84.5598 33.78C85.1065 34.2867 85.3798 34.9467 85.3798 35.76C85.3798 36.4267 85.1798 37.02 84.7798 37.54C84.3798 38.0467 83.8398 38.4533 83.1598 38.76C82.4798 39.0533 81.6998 39.2 80.8198 39.2ZM90.6441 39.2C89.6841 39.2 88.7974 39.08 87.9841 38.84C87.1707 38.5867 86.4641 38.2267 85.8641 37.76L87.2241 35.94C87.8241 36.34 88.3974 36.64 88.9441 36.84C89.5041 37.04 90.0574 37.14 90.6041 37.14C91.2174 37.14 91.7041 37.04 92.0641 36.84C92.4374 36.6267 92.6241 36.3533 92.6241 36.02C92.6241 35.7533 92.5174 35.54 92.3041 35.38C92.1041 35.22 91.7774 35.1067 91.3241 35.04L89.3241 34.74C88.2841 34.58 87.4974 34.2467 86.9641 33.74C86.4307 33.22 86.1641 32.54 86.1641 31.7C86.1641 31.02 86.3374 30.44 86.6841 29.96C87.0441 29.4667 87.5441 29.0867 88.1841 28.82C88.8374 28.54 89.6107 28.4 90.5041 28.4C91.2641 28.4 92.0041 28.5067 92.7241 28.72C93.4574 28.9333 94.1441 29.26 94.7841 29.7L93.4641 31.48C92.8907 31.12 92.3441 30.86 91.8241 30.7C91.3041 30.54 90.7774 30.46 90.2441 30.46C89.7507 30.46 89.3507 30.5533 89.0441 30.74C88.7507 30.9267 88.6041 31.1733 88.6041 31.48C88.6041 31.76 88.7107 31.98 88.9241 32.14C89.1374 32.3 89.5041 32.4133 90.0241 32.48L92.0041 32.78C93.0441 32.9267 93.8374 33.26 94.3841 33.78C94.9307 34.2867 95.2041 34.9467 95.2041 35.76C95.2041 36.4267 95.0041 37.02 94.6041 37.54C94.2041 38.0467 93.6641 38.4533 92.9841 38.76C92.3041 39.0533 91.5241 39.2 90.6441 39.2ZM96.5683 39V28.58H99.3083V39H96.5683ZM97.9283 27.34C97.5016 27.34 97.1349 27.1867 96.8283 26.88C96.5216 26.5733 96.3683 26.2067 96.3683 25.78C96.3683 25.34 96.5216 24.9733 96.8283 24.68C97.1349 24.3733 97.5016 24.22 97.9283 24.22C98.3683 24.22 98.7349 24.3733 99.0283 24.68C99.3349 24.9733 99.4883 25.34 99.4883 25.78C99.4883 26.2067 99.3349 26.5733 99.0283 26.88C98.7349 27.1867 98.3683 27.34 97.9283 27.34ZM101.451 39V28.58H104.191V29.44C104.978 28.7333 105.951 28.38 107.111 28.38C107.924 28.38 108.638 28.56 109.251 28.92C109.878 29.2667 110.364 29.7533 110.711 30.38C111.058 30.9933 111.231 31.7133 111.231 32.54V39H108.491V32.94C108.491 32.26 108.298 31.7267 107.911 31.34C107.524 30.94 106.998 30.74 106.331 30.74C105.864 30.74 105.451 30.8333 105.091 31.02C104.731 31.1933 104.431 31.4467 104.191 31.78V39H101.451ZM118.547 43.28C117.747 43.28 116.973 43.1933 116.227 43.02C115.48 42.86 114.807 42.6267 114.207 42.32L115.167 40.2C115.74 40.48 116.3 40.6867 116.847 40.82C117.393 40.9533 117.94 41.02 118.487 41.02C119.3 41.02 119.913 40.8467 120.327 40.5C120.753 40.1533 120.967 39.6333 120.967 38.94V38.12C120.113 38.7467 119.16 39.06 118.107 39.06C117.12 39.06 116.227 38.8267 115.427 38.36C114.64 37.88 114.007 37.2333 113.527 36.42C113.06 35.6067 112.827 34.7067 112.827 33.72C112.827 32.7333 113.06 31.84 113.527 31.04C114.007 30.24 114.653 29.6067 115.467 29.14C116.28 28.66 117.187 28.42 118.187 28.42C118.693 28.42 119.187 28.4933 119.667 28.64C120.147 28.7867 120.593 28.9933 121.007 29.26V28.58H123.707V38.98C123.707 40.3533 123.26 41.4133 122.367 42.16C121.487 42.9067 120.213 43.28 118.547 43.28ZM118.527 36.74C119.033 36.74 119.493 36.66 119.907 36.5C120.32 36.3267 120.673 36.0867 120.967 35.78V31.7C120.673 31.4067 120.313 31.18 119.887 31.02C119.473 30.8467 119.027 30.76 118.547 30.76C117.973 30.76 117.46 30.8933 117.007 31.16C116.553 31.4133 116.193 31.7667 115.927 32.22C115.66 32.66 115.527 33.16 115.527 33.72C115.527 34.2933 115.653 34.8067 115.907 35.26C116.173 35.7133 116.533 36.0733 116.987 36.34C117.453 36.6067 117.967 36.74 118.527 36.74Z" fill="#1A1B35"/>
<path d="M189 32C189 43.0457 180.046 52 169 52C157.954 52 149 43.0457 149 32C149 20.9543 157.954 12 169 12C180.046 12 189 20.9543 189 32ZM153 32C153 40.8366 160.163 48 169 48C177.837 48 185 40.8366 185 32C185 23.1634 177.837 16 169 16C160.163 16 153 23.1634 153 32Z" fill="#D8D9E4"/>
<path d="M169 14C169 12.8954 169.898 11.9896 170.997 12.0999C174.826 12.4841 178.479 13.9674 181.505 16.3914C185.053 19.2339 187.527 23.2004 188.518 27.6371C189.51 32.0739 188.961 36.7161 186.961 40.7988C184.96 44.8814 181.629 48.1608 177.516 50.0965C173.402 52.0322 168.752 52.5087 164.331 51.4474C159.91 50.3861 155.983 47.8504 153.197 44.2581C150.41 40.6659 148.931 36.2315 149.002 31.6858C149.063 27.8094 150.249 24.0493 152.394 20.8537C153.01 19.9366 154.28 19.8223 155.131 20.5264C155.982 21.2304 156.089 22.4856 155.496 23.4178C153.919 25.9003 153.049 28.7819 153.002 31.7487C152.945 35.3852 154.128 38.9327 156.358 41.8065C158.587 44.6803 161.728 46.7089 165.265 47.5579C168.801 48.407 172.522 48.0258 175.812 46.4772C179.103 44.9287 181.768 42.3051 183.368 39.039C184.968 35.7729 185.408 32.0591 184.615 28.5097C183.821 24.9603 181.842 21.7871 179.004 19.5131C176.688 17.6579 173.913 16.4915 170.995 16.1248C169.899 15.9871 169 15.1046 169 14Z" fill="#09A16C"/>
<path d="M164.399 38.1758C163.567 38.1758 162.831 38.0371 162.191 37.7598C161.551 37.4718 161.05 37.0824 160.687 36.5918C160.324 36.0904 160.143 35.5198 160.143 34.8798C160.143 34.4638 160.234 34.0798 160.415 33.7278C160.607 33.3651 160.874 33.0558 161.215 32.7998C161.567 32.5331 161.962 32.3358 162.399 32.2078C161.834 32.0051 161.375 31.6851 161.023 31.2478C160.671 30.8104 160.495 30.3198 160.495 29.7758C160.495 29.1784 160.666 28.6451 161.007 28.1758C161.348 27.6958 161.812 27.3171 162.399 27.0398C162.996 26.7624 163.663 26.6238 164.399 26.6238C165.146 26.6238 165.812 26.7624 166.399 27.0398C166.986 27.3171 167.45 27.6958 167.791 28.1758C168.132 28.6451 168.303 29.1784 168.303 29.7758C168.303 30.3198 168.127 30.8104 167.775 31.2478C167.423 31.6851 166.964 32.0051 166.399 32.2078C167.071 32.4104 167.615 32.7518 168.031 33.2318C168.447 33.7011 168.655 34.2504 168.655 34.8798C168.655 35.5198 168.474 36.0904 168.111 36.5918C167.759 37.0824 167.258 37.4718 166.607 37.7598C165.967 38.0371 165.231 38.1758 164.399 38.1758ZM164.399 31.4718C164.751 31.4718 165.066 31.4078 165.343 31.2798C165.631 31.1411 165.855 30.9544 166.015 30.7198C166.175 30.4851 166.255 30.2184 166.255 29.9198C166.255 29.6211 166.175 29.3544 166.015 29.1198C165.855 28.8744 165.631 28.6878 165.343 28.5598C165.066 28.4211 164.751 28.3518 164.399 28.3518C164.047 28.3518 163.727 28.4211 163.439 28.5598C163.162 28.6878 162.943 28.8691 162.783 29.1038C162.623 29.3384 162.543 29.6104 162.543 29.9198C162.543 30.2184 162.623 30.4851 162.783 30.7198C162.943 30.9544 163.162 31.1411 163.439 31.2798C163.727 31.4078 164.047 31.4718 164.399 31.4718ZM164.399 36.4318C164.826 36.4318 165.199 36.3624 165.519 36.2238C165.839 36.0744 166.09 35.8718 166.271 35.6158C166.452 35.3491 166.543 35.0558 166.543 34.7358C166.543 34.4051 166.452 34.1118 166.271 33.8558C166.09 33.5998 165.839 33.3971 165.519 33.2478C165.199 33.0984 164.826 33.0238 164.399 33.0238C163.983 33.0238 163.61 33.0984 163.279 33.2478C162.959 33.3971 162.708 33.5998 162.527 33.8558C162.346 34.1118 162.255 34.4051 162.255 34.7358C162.255 35.0558 162.346 35.3491 162.527 35.6158C162.708 35.8718 162.959 36.0744 163.279 36.2238C163.61 36.3624 163.983 36.4318 164.399 36.4318ZM174.909 38.1758C173.96 38.1758 173.128 37.9411 172.413 37.4718C171.698 37.0024 171.138 36.3571 170.733 35.5358C170.338 34.7038 170.141 33.7384 170.141 32.6398C170.141 31.4344 170.36 30.3838 170.797 29.4878C171.245 28.5811 171.864 27.8771 172.653 27.3758C173.453 26.8744 174.386 26.6238 175.453 26.6238C176.04 26.6238 176.621 26.7198 177.197 26.9118C177.773 27.1038 178.253 27.3704 178.637 27.7118L177.453 29.2158C177.144 28.9704 176.813 28.7891 176.461 28.6718C176.109 28.5544 175.72 28.4958 175.293 28.4958C174.642 28.4958 174.088 28.6611 173.629 28.9918C173.17 29.3224 172.818 29.7971 172.573 30.4158C172.338 31.0238 172.216 31.7704 172.205 32.6558C172.578 32.1438 173.026 31.7491 173.549 31.4718C174.072 31.1838 174.621 31.0398 175.197 31.0398C175.933 31.0398 176.584 31.1891 177.149 31.4878C177.714 31.7758 178.157 32.1811 178.477 32.7038C178.797 33.2158 178.957 33.8024 178.957 34.4638C178.957 35.1678 178.781 35.8024 178.429 36.3678C178.077 36.9224 177.597 37.3651 176.989 37.6958C176.381 38.0158 175.688 38.1758 174.909 38.1758ZM174.845 32.6878C174.354 32.6878 173.89 32.7891 173.453 32.9918C173.026 33.1944 172.648 33.4824 172.317 33.8558C172.424 34.3678 172.589 34.8158 172.813 35.1998C173.048 35.5731 173.336 35.8611 173.677 36.0638C174.018 36.2664 174.397 36.3678 174.813 36.3678C175.208 36.3678 175.56 36.2878 175.869 36.1278C176.189 35.9678 176.44 35.7491 176.621 35.4718C176.802 35.1838 176.893 34.8638 176.893 34.5118C176.893 34.1491 176.808 33.8344 176.637 33.5678C176.466 33.2904 176.226 33.0771 175.917 32.9278C175.618 32.7678 175.261 32.6878 174.845 32.6878Z" fill="#1A1B35"/>
</svg>
