<svg width="176" height="64" viewBox="0 0 176 64" fill="none" xmlns="http://www.w3.org/2000/svg">
<rect width="176" height="64" rx="16" fill="#F6F6FB"/>
<path d="M26.26 39.2C25.1267 39.2 24.02 38.9933 22.94 38.58C21.86 38.1533 20.9 37.5533 20.06 36.78L21.72 34.7C22.5333 35.42 23.3133 35.94 24.06 36.26C24.82 36.58 25.62 36.74 26.46 36.74C27.0467 36.74 27.5533 36.6733 27.98 36.54C28.4067 36.3933 28.7333 36.1867 28.96 35.92C29.2 35.6533 29.32 35.34 29.32 34.98C29.32 34.5 29.1467 34.1333 28.8 33.88C28.4533 33.6133 27.86 33.4067 27.02 33.26L24.24 32.78C23.0533 32.58 22.1467 32.16 21.52 31.52C20.9067 30.88 20.6 30.0533 20.6 29.04C20.6 28.1733 20.82 27.42 21.26 26.78C21.7133 26.14 22.3467 25.6533 23.16 25.32C23.9867 24.9733 24.9667 24.8 26.1 24.8C27.1267 24.8 28.1467 24.9733 29.16 25.32C30.1867 25.6667 31.0933 26.1467 31.88 26.76L30.32 28.92C28.8533 27.8 27.38 27.24 25.9 27.24C25.38 27.24 24.9267 27.3067 24.54 27.44C24.1533 27.5733 23.8533 27.76 23.64 28C23.44 28.2267 23.34 28.5 23.34 28.82C23.34 29.2467 23.4933 29.58 23.8 29.82C24.1067 30.0467 24.62 30.22 25.34 30.34L27.98 30.78C29.38 31.0067 30.4267 31.4533 31.12 32.12C31.8133 32.7733 32.16 33.64 32.16 34.72C32.16 35.6267 31.92 36.42 31.44 37.1C30.96 37.7667 30.2733 38.2867 29.38 38.66C28.5 39.02 27.46 39.2 26.26 39.2ZM34.4242 43.3C34.1842 43.3 33.9509 43.2867 33.7242 43.26C33.5109 43.2467 33.3309 43.2267 33.1842 43.2V40.84C33.4509 40.8933 33.7709 40.92 34.1442 40.92C35.1442 40.92 35.8376 40.4467 36.2242 39.5L36.3842 39.1L32.3242 28.58H35.3442L37.9442 35.68L40.8842 28.58H43.8442L39.0442 39.84C38.6842 40.68 38.2909 41.3533 37.8642 41.86C37.4376 42.3667 36.9442 42.7333 36.3842 42.96C35.8376 43.1867 35.1842 43.3 34.4242 43.3ZM48.8472 39.2C47.8872 39.2 47.0005 39.08 46.1872 38.84C45.3739 38.5867 44.6672 38.2267 44.0672 37.76L45.4272 35.94C46.0272 36.34 46.6005 36.64 47.1472 36.84C47.7072 37.04 48.2605 37.14 48.8072 37.14C49.4205 37.14 49.9072 37.04 50.2672 36.84C50.6405 36.6267 50.8272 36.3533 50.8272 36.02C50.8272 35.7533 50.7205 35.54 50.5072 35.38C50.3072 35.22 49.9805 35.1067 49.5272 35.04L47.5272 34.74C46.4872 34.58 45.7005 34.2467 45.1672 33.74C44.6339 33.22 44.3672 32.54 44.3672 31.7C44.3672 31.02 44.5405 30.44 44.8872 29.96C45.2472 29.4667 45.7472 29.0867 46.3872 28.82C47.0405 28.54 47.8139 28.4 48.7072 28.4C49.4672 28.4 50.2072 28.5067 50.9272 28.72C51.6605 28.9333 52.3472 29.26 52.9872 29.7L51.6672 31.48C51.0939 31.12 50.5472 30.86 50.0272 30.7C49.5072 30.54 48.9805 30.46 48.4472 30.46C47.9539 30.46 47.5539 30.5533 47.2472 30.74C46.9539 30.9267 46.8072 31.1733 46.8072 31.48C46.8072 31.76 46.9139 31.98 47.1272 32.14C47.3405 32.3 47.7072 32.4133 48.2272 32.48L50.2072 32.78C51.2472 32.9267 52.0405 33.26 52.5872 33.78C53.1339 34.2867 53.4072 34.9467 53.4072 35.76C53.4072 36.4267 53.2072 37.02 52.8072 37.54C52.4072 38.0467 51.8672 38.4533 51.1872 38.76C50.5072 39.0533 49.7272 39.2 48.8472 39.2ZM59.5161 39.16C58.3561 39.16 57.4761 38.9 56.8761 38.38C56.2894 37.8467 55.9961 37.0733 55.9961 36.06V30.86H53.8561V28.58H55.9961V25.92L58.7361 25.3V28.58H61.7161V30.86H58.7361V35.5C58.7361 35.98 58.8428 36.3267 59.0561 36.54C59.2694 36.74 59.6428 36.84 60.1761 36.84C60.4428 36.84 60.6828 36.8267 60.8961 36.8C61.1228 36.76 61.3694 36.6933 61.6361 36.6V38.86C61.3561 38.9533 61.0028 39.0267 60.5761 39.08C60.1628 39.1333 59.8094 39.16 59.5161 39.16ZM68.0355 39.2C66.9955 39.2 66.0488 38.96 65.1955 38.48C64.3555 38 63.6888 37.3533 63.1955 36.54C62.7021 35.7267 62.4555 34.8133 62.4555 33.8C62.4555 32.7867 62.6888 31.8733 63.1555 31.06C63.6355 30.2467 64.2821 29.6 65.0955 29.12C65.9088 28.64 66.8155 28.4 67.8155 28.4C68.8155 28.4 69.7021 28.6467 70.4755 29.14C71.2488 29.6333 71.8555 30.3 72.2955 31.14C72.7488 31.98 72.9755 32.9333 72.9755 34V34.72H65.2555C65.3755 35.1333 65.5688 35.5067 65.8355 35.84C66.1155 36.1733 66.4555 36.4333 66.8555 36.62C67.2688 36.8067 67.7088 36.9 68.1755 36.9C68.6421 36.9 69.0688 36.8267 69.4555 36.68C69.8555 36.5333 70.1955 36.3267 70.4755 36.06L72.2755 37.7C71.6355 38.22 70.9755 38.6 70.2955 38.84C69.6288 39.08 68.8755 39.2 68.0355 39.2ZM65.2155 32.76H70.2755C70.1821 32.3467 70.0088 31.9867 69.7555 31.68C69.5155 31.36 69.2221 31.1133 68.8755 30.94C68.5421 30.7533 68.1688 30.66 67.7555 30.66C67.3288 30.66 66.9421 30.7467 66.5955 30.92C66.2488 31.0933 65.9555 31.34 65.7155 31.66C65.4888 31.9667 65.3221 32.3333 65.2155 32.76ZM74.6542 39V28.58H77.3942V29.38C78.1409 28.7133 79.0476 28.38 80.1142 28.38C80.7942 28.38 81.4009 28.52 81.9342 28.8C82.4676 29.0667 82.9076 29.4467 83.2542 29.94C83.6809 29.4333 84.1809 29.0467 84.7542 28.78C85.3409 28.5133 85.9876 28.38 86.6942 28.38C87.4809 28.38 88.1676 28.56 88.7542 28.92C89.3542 29.2667 89.8209 29.7533 90.1542 30.38C90.5009 30.9933 90.6742 31.7133 90.6742 32.54V39H87.9542V32.94C87.9542 32.26 87.7742 31.7267 87.4142 31.34C87.0542 30.94 86.5742 30.74 85.9742 30.74C85.5609 30.74 85.1809 30.8267 84.8342 31C84.5009 31.1733 84.2142 31.4333 83.9742 31.78C83.9876 31.9 84.0009 32.02 84.0142 32.14C84.0276 32.26 84.0342 32.3933 84.0342 32.54V39H81.2942V32.94C81.2942 32.26 81.1142 31.7267 80.7542 31.34C80.4076 30.94 79.9342 30.74 79.3342 30.74C78.9209 30.74 78.5476 30.82 78.2142 30.98C77.8942 31.14 77.6209 31.38 77.3942 31.7V39H74.6542Z" fill="#1A1B35"/>
<path d="M156 32C156 43.0457 147.046 52 136 52C124.954 52 116 43.0457 116 32C116 20.9543 124.954 12 136 12C147.046 12 156 20.9543 156 32ZM120 32C120 40.8366 127.163 48 136 48C144.837 48 152 40.8366 152 32C152 23.1634 144.837 16 136 16C127.163 16 120 23.1634 120 32Z" fill="#D8D9E4"/>
<path d="M136 14C136 12.8954 136.898 11.9896 137.997 12.0999C141.51 12.4524 144.88 13.7304 147.756 15.8197C150.631 17.9089 152.888 20.7193 154.309 23.9515C154.754 24.9627 154.17 26.0964 153.119 26.4377C152.069 26.779 150.951 26.1968 150.482 25.1971C149.339 22.7643 147.596 20.6482 145.405 19.0557C143.213 17.4633 140.662 16.4599 137.995 16.1248C136.899 15.9871 136 15.1046 136 14Z" fill="#09A16C"/>
<path d="M127.222 37.9998V36.4958L131.894 31.7598C132.118 31.5251 132.294 31.3064 132.422 31.1038C132.56 30.9011 132.656 30.7038 132.71 30.5118C132.774 30.3091 132.806 30.1064 132.806 29.9038C132.806 29.4878 132.63 29.1411 132.278 28.8638C131.936 28.5864 131.499 28.4478 130.966 28.4478C130.454 28.4478 129.979 28.5544 129.542 28.7678C129.104 28.9704 128.624 29.3224 128.102 29.8238L126.918 28.3838C127.547 27.7971 128.203 27.3598 128.886 27.0718C129.568 26.7731 130.283 26.6238 131.03 26.6238C131.787 26.6238 132.454 26.7571 133.03 27.0238C133.606 27.2904 134.054 27.6584 134.374 28.1278C134.694 28.5971 134.854 29.1464 134.854 29.7758C134.854 30.1384 134.8 30.4798 134.694 30.7998C134.598 31.1198 134.438 31.4451 134.214 31.7758C133.99 32.0958 133.691 32.4424 133.318 32.8158L129.926 36.2238L135.03 36.2078V37.9998H127.222ZM141.081 38.1758C140.111 38.1758 139.252 37.9358 138.505 37.4558C137.769 36.9651 137.193 36.2878 136.777 35.4238C136.372 34.5491 136.169 33.5411 136.169 32.3998C136.169 31.2478 136.372 30.2398 136.777 29.3758C137.193 28.5118 137.769 27.8398 138.505 27.3598C139.252 26.8691 140.111 26.6238 141.081 26.6238C142.063 26.6238 142.921 26.8691 143.657 27.3598C144.404 27.8398 144.98 28.5118 145.385 29.3758C145.801 30.2398 146.009 31.2478 146.009 32.3998C146.009 33.5411 145.801 34.5491 145.385 35.4238C144.98 36.2878 144.404 36.9651 143.657 37.4558C142.921 37.9358 142.063 38.1758 141.081 38.1758ZM141.081 36.2718C141.657 36.2718 142.153 36.1171 142.569 35.8078C142.985 35.4984 143.305 35.0504 143.529 34.4638C143.764 33.8771 143.881 33.1891 143.881 32.3998C143.881 31.5998 143.764 30.9118 143.529 30.3358C143.305 29.7491 142.985 29.3011 142.569 28.9918C142.153 28.6824 141.657 28.5278 141.081 28.5278C140.516 28.5278 140.025 28.6824 139.609 28.9918C139.193 29.3011 138.868 29.7491 138.633 30.3358C138.409 30.9118 138.297 31.5998 138.297 32.3998C138.297 33.1891 138.409 33.8771 138.633 34.4638C138.868 35.0504 139.193 35.4984 139.609 35.8078C140.025 36.1171 140.516 36.2718 141.081 36.2718Z" fill="#1A1B35"/>
</svg>
