<svg width="68" height="68" viewBox="0 0 68 68" fill="none" xmlns="http://www.w3.org/2000/svg">
<rect x="0.5" y="0.5" width="67" height="67" rx="15.5" stroke="#58C7E9"/>
<path fill-rule="evenodd" clip-rule="evenodd" d="M42.8917 23.1582C41.5248 21.7913 39.3087 21.7913 37.9419 23.1582L35.9917 25.1084C34.6249 26.4752 34.6249 28.6913 35.9917 30.0581L37.9419 32.0083C39.3087 33.3751 41.5248 33.3751 42.8917 32.0083L44.8418 30.0581C46.2087 28.6913 46.2087 26.4752 44.8418 25.1084L42.8917 23.1582ZM39.5918 24.8081C40.0474 24.3525 40.7861 24.3525 41.2417 24.8081L43.1919 26.7583C43.6475 27.2139 43.6475 27.9526 43.1919 28.4082L41.2417 30.3584C40.7861 30.814 40.0474 30.814 39.5918 30.3584L37.6417 28.4082C37.186 27.9526 37.186 27.2139 37.6417 26.7583L39.5918 24.8081Z" fill="#58C7E9"/>
<path fill-rule="evenodd" clip-rule="evenodd" d="M25.8335 22.3333C23.9005 22.3333 22.3335 23.9003 22.3335 25.8333V29.3333C22.3335 31.2663 23.9005 32.8333 25.8335 32.8333H29.3335C31.2665 32.8333 32.8335 31.2663 32.8335 29.3333V25.8333C32.8335 23.9003 31.2665 22.3333 29.3335 22.3333H25.8335ZM24.6668 25.8333C24.6668 25.189 25.1892 24.6667 25.8335 24.6667H29.3335C29.9778 24.6667 30.5002 25.189 30.5002 25.8333V29.3333C30.5002 29.9777 29.9778 30.5 29.3335 30.5H25.8335C25.1892 30.5 24.6668 29.9777 24.6668 29.3333V25.8333Z" fill="#58C7E9"/>
<path fill-rule="evenodd" clip-rule="evenodd" d="M22.3335 38.6667C22.3335 36.7337 23.9005 35.1667 25.8335 35.1667H29.3335C31.2665 35.1667 32.8335 36.7337 32.8335 38.6667V42.1667C32.8335 44.0997 31.2665 45.6667 29.3335 45.6667H25.8335C23.9005 45.6667 22.3335 44.0997 22.3335 42.1667V38.6667ZM25.8335 37.5C25.1892 37.5 24.6668 38.0223 24.6668 38.6667V42.1667C24.6668 42.811 25.1892 43.3333 25.8335 43.3333H29.3335C29.9778 43.3333 30.5002 42.811 30.5002 42.1667V38.6667C30.5002 38.0223 29.9778 37.5 29.3335 37.5H25.8335Z" fill="#58C7E9"/>
<path fill-rule="evenodd" clip-rule="evenodd" d="M38.6668 35.1667C36.7338 35.1667 35.1668 36.7337 35.1668 38.6667V42.1667C35.1668 44.0997 36.7338 45.6667 38.6668 45.6667H42.1668C44.0998 45.6667 45.6668 44.0997 45.6668 42.1667V38.6667C45.6668 36.7337 44.0998 35.1667 42.1668 35.1667H38.6668ZM37.5002 38.6667C37.5002 38.0223 38.0225 37.5 38.6668 37.5H42.1668C42.8112 37.5 43.3335 38.0223 43.3335 38.6667V42.1667C43.3335 42.811 42.8112 43.3333 42.1668 43.3333H38.6668C38.0225 43.3333 37.5002 42.811 37.5002 42.1667V38.6667Z" fill="#58C7E9"/>
</svg>
