<svg width="16" height="16" viewBox="0 0 16 16" fill="none" xmlns="http://www.w3.org/2000/svg">
<path d="M0.666992 4.00004C0.666992 3.63185 0.965469 3.33337 1.33366 3.33337H14.667C15.0352 3.33337 15.3337 3.63185 15.3337 4.00004C15.3337 4.36823 15.0352 4.66671 14.667 4.66671L1.33366 4.66671C0.965469 4.66671 0.666992 4.36823 0.666992 4.00004Z" fill="#1A1B35"/>
<path d="M12.667 8.66671L3.33366 8.66671C2.96547 8.66671 2.66699 8.36823 2.66699 8.00004C2.66699 7.63185 2.96547 7.33338 3.33366 7.33338L12.667 7.33337C13.0352 7.33337 13.3337 7.63185 13.3337 8.00004C13.3337 8.36823 13.0352 8.66671 12.667 8.66671Z" fill="#1A1B35"/>
<path d="M5.33366 11.3334C4.96547 11.3334 4.66699 11.6319 4.66699 12C4.66699 12.3682 4.96547 12.6667 5.33366 12.6667L10.667 12.6667C11.0352 12.6667 11.3337 12.3682 11.3337 12C11.3337 11.6319 11.0352 11.3334 10.667 11.3334L5.33366 11.3334Z" fill="#1A1B35"/>
</svg>
