<svg width="121" height="111" viewBox="0 0 121 111" fill="none" xmlns="http://www.w3.org/2000/svg">
<rect x="22.5" y="0.5" width="75" height="75" rx="15.5" stroke="#68972D"/>
<path fill-rule="evenodd" clip-rule="evenodd" d="M55.6374 27.6812C56.4048 27.2057 57.3906 27 58.5001 27C58.859 27 59.1903 27.1923 59.3684 27.5039C60.2072 28.9718 61.1832 29.9807 62.1922 31.0237C62.2972 31.1323 62.4026 31.2412 62.5082 31.3511C63.4858 32.3679 64.476 33.4588 65.1719 35H69.0001C69.5524 35 70.0001 35.4477 70.0001 36V46C70.0001 46.5523 69.5524 47 69.0001 47H64.5796L56.7901 48.2463C53.7522 48.7324 51.0001 46.3857 51.0001 43.3091V40.1926L50.1688 38.1142C49.3809 36.1445 50.8296 34 52.9529 34H55.4718C55.1637 33.5326 54.9079 33.0756 54.7067 32.6319C54.2761 31.683 54.0667 30.7318 54.1987 29.8517C54.3366 28.9322 54.8366 28.1775 55.6374 27.6812ZM65.5001 45H68.0001V37H65.5001V45ZM63.5001 36.1823C62.9556 34.7866 62.1075 33.82 61.0665 32.7372C60.9625 32.629 60.8564 32.5196 60.7486 32.4084C59.8542 31.4855 58.8452 30.4444 57.949 29.024C57.3635 29.0778 56.9565 29.2167 56.691 29.3813C56.3824 29.5725 56.2261 29.8178 56.1766 30.1483C56.1211 30.5182 56.1929 31.067 56.528 31.8056C56.8595 32.5364 57.4222 33.3924 58.2527 34.3415C58.5111 34.6368 58.5729 35.0559 58.4108 35.4132C58.2486 35.7705 57.8925 36 57.5001 36H52.9529C52.2465 36 51.7626 36.7136 52.0257 37.3714L52.9286 39.6286C52.9759 39.7467 53.0001 39.8728 53.0001 40V43.3091C53.0001 45.1551 54.6514 46.5631 56.4741 46.2714L63.5001 45.1473V36.1823Z" fill="#3E6C16"/>
<path d="M5.98055 105.14C5.25255 105.14 4.57122 105.014 3.93656 104.762C3.30189 104.501 2.74655 104.141 2.27055 103.684C1.80389 103.227 1.43522 102.695 1.16455 102.088C0.903221 101.472 0.772555 100.809 0.772555 100.1C0.772555 99.3813 0.903221 98.7187 1.16455 98.112C1.43522 97.496 1.80855 96.9593 2.28455 96.502C2.76055 96.0447 3.31122 95.69 3.93656 95.438C4.57122 95.1767 5.25255 95.046 5.98055 95.046C6.52189 95.046 7.04456 95.1207 7.54856 95.27C8.05255 95.4193 8.51922 95.6293 8.94855 95.9C9.38722 96.1707 9.76056 96.4973 10.0686 96.88L8.69656 98.238C8.34189 97.7993 7.93122 97.468 7.46455 97.244C7.00722 97.02 6.51256 96.908 5.98055 96.908C5.54189 96.908 5.13122 96.992 4.74856 97.16C4.36589 97.3187 4.03455 97.5427 3.75455 97.832C3.47455 98.112 3.25522 98.448 3.09655 98.84C2.93789 99.2227 2.85855 99.6427 2.85855 100.1C2.85855 100.548 2.93789 100.968 3.09655 101.36C3.25522 101.743 3.47922 102.079 3.76855 102.368C4.05789 102.648 4.39389 102.867 4.77656 103.026C5.16856 103.185 5.59322 103.264 6.05055 103.264C6.56389 103.264 7.04456 103.157 7.49256 102.942C7.94055 102.727 8.33722 102.419 8.68255 102.018L10.0126 103.334C9.70456 103.707 9.33589 104.029 8.90656 104.3C8.47722 104.571 8.01056 104.781 7.50655 104.93C7.01189 105.07 6.50322 105.14 5.98055 105.14ZM13.6963 105.14C13.1363 105.14 12.637 105.019 12.1983 104.776C11.769 104.524 11.4283 104.179 11.1763 103.74C10.9336 103.301 10.8123 102.797 10.8123 102.228V97.706H12.7303V101.948C12.7303 102.415 12.8656 102.788 13.1363 103.068C13.4163 103.348 13.7896 103.488 14.2563 103.488C14.5736 103.488 14.8583 103.427 15.1103 103.306C15.3716 103.175 15.5863 102.993 15.7543 102.76V97.706H17.6723V105H15.7543V104.412C15.1943 104.897 14.5083 105.14 13.6963 105.14ZM21.8971 105.14C21.2251 105.14 20.6045 105.056 20.0351 104.888C19.4658 104.711 18.9711 104.459 18.5511 104.132L19.5031 102.858C19.9231 103.138 20.3245 103.348 20.7071 103.488C21.0991 103.628 21.4865 103.698 21.8691 103.698C22.2985 103.698 22.6391 103.628 22.8911 103.488C23.1525 103.339 23.2831 103.147 23.2831 102.914C23.2831 102.727 23.2085 102.578 23.0591 102.466C22.9191 102.354 22.6905 102.275 22.3731 102.228L20.9731 102.018C20.2451 101.906 19.6945 101.673 19.3211 101.318C18.9478 100.954 18.7611 100.478 18.7611 99.89C18.7611 99.414 18.8825 99.008 19.1251 98.672C19.3771 98.3267 19.7271 98.0607 20.1751 97.874C20.6325 97.678 21.1738 97.58 21.7991 97.58C22.3311 97.58 22.8491 97.6547 23.3531 97.804C23.8665 97.9533 24.3471 98.182 24.7951 98.49L23.8711 99.736C23.4698 99.484 23.0871 99.302 22.7231 99.19C22.3591 99.078 21.9905 99.022 21.6171 99.022C21.2718 99.022 20.9918 99.0873 20.7771 99.218C20.5718 99.3487 20.4691 99.5213 20.4691 99.736C20.4691 99.932 20.5438 100.086 20.6931 100.198C20.8425 100.31 21.0991 100.389 21.4631 100.436L22.8491 100.646C23.5771 100.749 24.1325 100.982 24.5151 101.346C24.8978 101.701 25.0891 102.163 25.0891 102.732C25.0891 103.199 24.9491 103.614 24.6691 103.978C24.3891 104.333 24.0111 104.617 23.5351 104.832C23.0591 105.037 22.5131 105.14 21.8971 105.14ZM29.3654 105.112C28.5534 105.112 27.9374 104.93 27.5174 104.566C27.1067 104.193 26.9014 103.651 26.9014 102.942V99.302H25.4034V97.706H26.9014V95.844L28.8194 95.41V97.706H30.9054V99.302H28.8194V102.55C28.8194 102.886 28.894 103.129 29.0434 103.278C29.1927 103.418 29.454 103.488 29.8274 103.488C30.014 103.488 30.182 103.479 30.3314 103.46C30.49 103.432 30.6627 103.385 30.8494 103.32V104.902C30.6534 104.967 30.406 105.019 30.1074 105.056C29.818 105.093 29.5707 105.112 29.3654 105.112ZM35.3149 105.14C34.5869 105.14 33.9289 104.972 33.3409 104.636C32.7529 104.3 32.2863 103.847 31.9409 103.278C31.5956 102.709 31.4229 102.069 31.4229 101.36C31.4229 100.651 31.5909 100.011 31.9269 99.442C32.2723 98.8633 32.7389 98.406 33.3269 98.07C33.9243 97.734 34.5869 97.566 35.3149 97.566C36.0429 97.566 36.7009 97.734 37.2889 98.07C37.8863 98.406 38.3529 98.8633 38.6889 99.442C39.0343 100.011 39.2069 100.651 39.2069 101.36C39.2069 102.069 39.0343 102.709 38.6889 103.278C38.3529 103.847 37.8909 104.3 37.3029 104.636C36.7149 104.972 36.0523 105.14 35.3149 105.14ZM35.3149 103.474C35.6976 103.474 36.0383 103.381 36.3369 103.194C36.6449 103.007 36.8876 102.755 37.0649 102.438C37.2516 102.111 37.3449 101.752 37.3449 101.36C37.3449 100.959 37.2516 100.599 37.0649 100.282C36.8876 99.9647 36.6449 99.7127 36.3369 99.526C36.0383 99.33 35.6976 99.232 35.3149 99.232C34.9416 99.232 34.6009 99.33 34.2929 99.526C33.9849 99.7127 33.7423 99.9647 33.5649 100.282C33.3876 100.599 33.2989 100.959 33.2989 101.36C33.2989 101.752 33.3876 102.111 33.5649 102.438C33.7423 102.755 33.9849 103.007 34.2929 103.194C34.6009 103.381 34.9416 103.474 35.3149 103.474ZM40.3859 105V97.706H42.3039V98.266C42.8265 97.7993 43.4612 97.566 44.2079 97.566C44.6839 97.566 45.1085 97.664 45.4819 97.86C45.8552 98.0467 46.1632 98.3127 46.4059 98.658C46.7045 98.3033 47.0545 98.0327 47.4559 97.846C47.8665 97.6593 48.3192 97.566 48.8139 97.566C49.3645 97.566 49.8452 97.692 50.2559 97.944C50.6759 98.1867 51.0025 98.5273 51.2359 98.966C51.4785 99.3953 51.5999 99.8993 51.5999 100.478V105H49.6959V100.758C49.6959 100.282 49.5699 99.9087 49.3179 99.638C49.0659 99.358 48.7299 99.218 48.3099 99.218C48.0205 99.218 47.7546 99.2787 47.5119 99.4C47.2786 99.5213 47.0779 99.7033 46.9099 99.946C46.9192 100.03 46.9285 100.114 46.9379 100.198C46.9472 100.282 46.9519 100.375 46.9519 100.478V105H45.0339V100.758C45.0339 100.282 44.9079 99.9087 44.6559 99.638C44.4132 99.358 44.0819 99.218 43.6619 99.218C43.3725 99.218 43.1112 99.274 42.8779 99.386C42.6539 99.498 42.4625 99.666 42.3039 99.89V105H40.3859ZM56.6297 105.14C55.9017 105.14 55.239 104.972 54.6417 104.636C54.0537 104.3 53.587 103.847 53.2417 103.278C52.8964 102.709 52.7237 102.069 52.7237 101.36C52.7237 100.651 52.887 100.011 53.2137 99.442C53.5497 98.8727 54.0024 98.42 54.5717 98.084C55.141 97.748 55.7757 97.58 56.4757 97.58C57.1757 97.58 57.7964 97.7527 58.3377 98.098C58.879 98.4433 59.3037 98.91 59.6117 99.498C59.929 100.086 60.0877 100.753 60.0877 101.5V102.004H54.6837C54.7677 102.293 54.903 102.555 55.0897 102.788C55.2857 103.021 55.5237 103.203 55.8037 103.334C56.093 103.465 56.401 103.53 56.7277 103.53C57.0544 103.53 57.353 103.479 57.6237 103.376C57.9037 103.273 58.1417 103.129 58.3377 102.942L59.5977 104.09C59.1497 104.454 58.6877 104.72 58.2117 104.888C57.745 105.056 57.2177 105.14 56.6297 105.14ZM54.6557 100.632H58.1977C58.1324 100.343 58.011 100.091 57.8337 99.876C57.6657 99.652 57.4604 99.4793 57.2177 99.358C56.9844 99.2273 56.723 99.162 56.4337 99.162C56.135 99.162 55.8644 99.2227 55.6217 99.344C55.379 99.4653 55.1737 99.638 55.0057 99.862C54.847 100.077 54.7304 100.333 54.6557 100.632ZM61.2628 105V97.706H63.1808V98.518C63.4142 98.2007 63.6942 97.958 64.0208 97.79C64.3475 97.622 64.7162 97.538 65.1268 97.538C65.4815 97.5473 65.7475 97.6033 65.9248 97.706V99.386C65.7848 99.3207 65.6308 99.274 65.4628 99.246C65.2948 99.2087 65.1222 99.19 64.9448 99.19C64.5715 99.19 64.2308 99.2833 63.9228 99.47C63.6148 99.6567 63.3675 99.9227 63.1808 100.268V105H61.2628ZM72.5241 105.14C71.8521 105.14 71.2314 105.056 70.6621 104.888C70.0928 104.711 69.5981 104.459 69.1781 104.132L70.1301 102.858C70.5501 103.138 70.9514 103.348 71.3341 103.488C71.7261 103.628 72.1134 103.698 72.4961 103.698C72.9254 103.698 73.2661 103.628 73.5181 103.488C73.7794 103.339 73.9101 103.147 73.9101 102.914C73.9101 102.727 73.8354 102.578 73.6861 102.466C73.5461 102.354 73.3174 102.275 73.0001 102.228L71.6001 102.018C70.8721 101.906 70.3214 101.673 69.9481 101.318C69.5748 100.954 69.3881 100.478 69.3881 99.89C69.3881 99.414 69.5094 99.008 69.7521 98.672C70.0041 98.3267 70.3541 98.0607 70.8021 97.874C71.2594 97.678 71.8008 97.58 72.4261 97.58C72.9581 97.58 73.4761 97.6547 73.9801 97.804C74.4934 97.9533 74.9741 98.182 75.4221 98.49L74.4981 99.736C74.0968 99.484 73.7141 99.302 73.3501 99.19C72.9861 99.078 72.6174 99.022 72.2441 99.022C71.8988 99.022 71.6188 99.0873 71.4041 99.218C71.1988 99.3487 71.0961 99.5213 71.0961 99.736C71.0961 99.932 71.1708 100.086 71.3201 100.198C71.4694 100.31 71.7261 100.389 72.0901 100.436L73.4761 100.646C74.2041 100.749 74.7594 100.982 75.1421 101.346C75.5248 101.701 75.7161 102.163 75.7161 102.732C75.7161 103.199 75.5761 103.614 75.2961 103.978C75.0161 104.333 74.6381 104.617 74.1621 104.832C73.6861 105.037 73.1401 105.14 72.5241 105.14ZM79.499 105.14C78.939 105.14 78.4397 105.019 78.001 104.776C77.5717 104.524 77.231 104.179 76.979 103.74C76.7364 103.301 76.615 102.797 76.615 102.228V97.706H78.533V101.948C78.533 102.415 78.6684 102.788 78.939 103.068C79.219 103.348 79.5924 103.488 80.059 103.488C80.3764 103.488 80.661 103.427 80.913 103.306C81.1744 103.175 81.389 102.993 81.557 102.76V97.706H83.475V105H81.557V104.412C80.997 104.897 80.311 105.14 79.499 105.14ZM88.4559 105.14C87.7372 105.14 87.0885 104.977 86.5099 104.65C85.9312 104.314 85.4739 103.861 85.1379 103.292C84.8019 102.713 84.6339 102.069 84.6339 101.36C84.6339 100.641 84.8019 99.9973 85.1379 99.428C85.4739 98.8587 85.9312 98.406 86.5099 98.07C87.0885 97.734 87.7372 97.566 88.4559 97.566C89.0345 97.566 89.5852 97.678 90.1079 97.902C90.6399 98.126 91.0972 98.448 91.4799 98.868L90.3039 100.114C90.0332 99.8153 89.7485 99.596 89.4499 99.456C89.1605 99.3067 88.8432 99.232 88.4979 99.232C88.1245 99.232 87.7885 99.3253 87.4899 99.512C87.2005 99.6987 86.9672 99.9507 86.7899 100.268C86.6219 100.585 86.5379 100.949 86.5379 101.36C86.5379 101.752 86.6219 102.111 86.7899 102.438C86.9672 102.755 87.2099 103.007 87.5179 103.194C87.8259 103.371 88.1665 103.46 88.5399 103.46C88.8665 103.46 89.1699 103.395 89.4499 103.264C89.7392 103.124 90.0145 102.919 90.2759 102.648L91.4239 103.852C91.0505 104.253 90.6025 104.571 90.0799 104.804C89.5572 105.028 89.0159 105.14 88.4559 105.14ZM95.702 105.14C94.9833 105.14 94.3346 104.977 93.756 104.65C93.1773 104.314 92.72 103.861 92.384 103.292C92.048 102.713 91.88 102.069 91.88 101.36C91.88 100.641 92.048 99.9973 92.384 99.428C92.72 98.8587 93.1773 98.406 93.756 98.07C94.3346 97.734 94.9833 97.566 95.702 97.566C96.2806 97.566 96.8313 97.678 97.354 97.902C97.886 98.126 98.3433 98.448 98.726 98.868L97.55 100.114C97.2793 99.8153 96.9946 99.596 96.696 99.456C96.4066 99.3067 96.0893 99.232 95.744 99.232C95.3706 99.232 95.0346 99.3253 94.736 99.512C94.4466 99.6987 94.2133 99.9507 94.036 100.268C93.868 100.585 93.784 100.949 93.784 101.36C93.784 101.752 93.868 102.111 94.036 102.438C94.2133 102.755 94.456 103.007 94.764 103.194C95.072 103.371 95.4126 103.46 95.786 103.46C96.1126 103.46 96.416 103.395 96.696 103.264C96.9853 103.124 97.2606 102.919 97.522 102.648L98.67 103.852C98.2966 104.253 97.8486 104.571 97.326 104.804C96.8033 105.028 96.262 105.14 95.702 105.14ZM103.032 105.14C102.304 105.14 101.641 104.972 101.044 104.636C100.456 104.3 99.9894 103.847 99.6441 103.278C99.2987 102.709 99.1261 102.069 99.1261 101.36C99.1261 100.651 99.2894 100.011 99.6161 99.442C99.9521 98.8727 100.405 98.42 100.974 98.084C101.543 97.748 102.178 97.58 102.878 97.58C103.578 97.58 104.199 97.7527 104.74 98.098C105.281 98.4433 105.706 98.91 106.014 99.498C106.331 100.086 106.49 100.753 106.49 101.5V102.004H101.086C101.17 102.293 101.305 102.555 101.492 102.788C101.688 103.021 101.926 103.203 102.206 103.334C102.495 103.465 102.803 103.53 103.13 103.53C103.457 103.53 103.755 103.479 104.026 103.376C104.306 103.273 104.544 103.129 104.74 102.942L106 104.09C105.552 104.454 105.09 104.72 104.614 104.888C104.147 105.056 103.62 105.14 103.032 105.14ZM101.058 100.632H104.6C104.535 100.343 104.413 100.091 104.236 99.876C104.068 99.652 103.863 99.4793 103.62 99.358C103.387 99.2273 103.125 99.162 102.836 99.162C102.537 99.162 102.267 99.2227 102.024 99.344C101.781 99.4653 101.576 99.638 101.408 99.862C101.249 100.077 101.133 100.333 101.058 100.632ZM110.464 105.14C109.792 105.14 109.171 105.056 108.602 104.888C108.032 104.711 107.538 104.459 107.118 104.132L108.07 102.858C108.49 103.138 108.891 103.348 109.274 103.488C109.666 103.628 110.053 103.698 110.436 103.698C110.865 103.698 111.206 103.628 111.458 103.488C111.719 103.339 111.85 103.147 111.85 102.914C111.85 102.727 111.775 102.578 111.626 102.466C111.486 102.354 111.257 102.275 110.94 102.228L109.54 102.018C108.812 101.906 108.261 101.673 107.888 101.318C107.514 100.954 107.328 100.478 107.328 99.89C107.328 99.414 107.449 99.008 107.692 98.672C107.944 98.3267 108.294 98.0607 108.742 97.874C109.199 97.678 109.74 97.58 110.366 97.58C110.898 97.58 111.416 97.6547 111.92 97.804C112.433 97.9533 112.914 98.182 113.362 98.49L112.438 99.736C112.036 99.484 111.654 99.302 111.29 99.19C110.926 99.078 110.557 99.022 110.184 99.022C109.838 99.022 109.558 99.0873 109.344 99.218C109.138 99.3487 109.036 99.5213 109.036 99.736C109.036 99.932 109.11 100.086 109.26 100.198C109.409 100.31 109.666 100.389 110.03 100.436L111.416 100.646C112.144 100.749 112.699 100.982 113.082 101.346C113.464 101.701 113.656 102.163 113.656 102.732C113.656 103.199 113.516 103.614 113.236 103.978C112.956 104.333 112.578 104.617 112.102 104.832C111.626 105.037 111.08 105.14 110.464 105.14ZM117.34 105.14C116.668 105.14 116.048 105.056 115.478 104.888C114.909 104.711 114.414 104.459 113.994 104.132L114.946 102.858C115.366 103.138 115.768 103.348 116.15 103.488C116.542 103.628 116.93 103.698 117.312 103.698C117.742 103.698 118.082 103.628 118.334 103.488C118.596 103.339 118.726 103.147 118.726 102.914C118.726 102.727 118.652 102.578 118.502 102.466C118.362 102.354 118.134 102.275 117.816 102.228L116.416 102.018C115.688 101.906 115.138 101.673 114.764 101.318C114.391 100.954 114.204 100.478 114.204 99.89C114.204 99.414 114.326 99.008 114.568 98.672C114.82 98.3267 115.17 98.0607 115.618 97.874C116.076 97.678 116.617 97.58 117.242 97.58C117.774 97.58 118.292 97.6547 118.796 97.804C119.31 97.9533 119.79 98.182 120.238 98.49L119.314 99.736C118.913 99.484 118.53 99.302 118.166 99.19C117.802 99.078 117.434 99.022 117.06 99.022C116.715 99.022 116.435 99.0873 116.22 99.218C116.015 99.3487 115.912 99.5213 115.912 99.736C115.912 99.932 115.987 100.086 116.136 100.198C116.286 100.31 116.542 100.389 116.906 100.436L118.292 100.646C119.02 100.749 119.576 100.982 119.958 101.346C120.341 101.701 120.532 102.163 120.532 102.732C120.532 103.199 120.392 103.614 120.112 103.978C119.832 104.333 119.454 104.617 118.978 104.832C118.502 105.037 117.956 105.14 117.34 105.14Z" fill="#1A1B35"/>
</svg>
