<svg width="76" height="111" viewBox="0 0 76 111" fill="none" xmlns="http://www.w3.org/2000/svg">
<rect x="0.5" y="0.5" width="75" height="75" rx="15.5" stroke="#514AB7"/>
<path fill-rule="evenodd" clip-rule="evenodd" d="M42 38.0002C42 40.2094 40.2091 42.0002 38 42.0002C35.7909 42.0002 34 40.2094 34 38.0002C34 35.7911 35.7909 34.0002 38 34.0002C40.2091 34.0002 42 35.7911 42 38.0002ZM40 38.0002C40 39.1048 39.1046 40.0002 38 40.0002C36.8954 40.0002 36 39.1048 36 38.0002C36 36.8957 36.8954 36.0002 38 36.0002C39.1046 36.0002 40 36.8957 40 38.0002Z" fill="#514AB7"/>
<path fill-rule="evenodd" clip-rule="evenodd" d="M49.4061 30.0864C44.5638 27.9343 41.0057 29.0292 37.7415 30.0335L37.7059 30.0445C34.4798 31.0372 31.5462 31.9265 27.4061 30.0864C27.0968 29.9489 26.7389 29.9773 26.4551 30.1617C26.1713 30.3462 26 30.6617 26 31.0002V45.0002C26 45.3954 26.2327 45.7535 26.5939 45.914C31.311 48.0105 34.8267 46.7876 37.9731 45.6931C38.0916 45.6519 38.2096 45.6108 38.3271 45.5702C39.9564 45.0062 41.456 44.5234 43.0751 44.4523C44.6623 44.3827 46.4175 44.7095 48.5144 45.8744C48.8241 46.0464 49.2017 46.0418 49.5071 45.8621C49.8125 45.6824 50 45.3545 50 45.0002V31.0002C50 30.605 49.7673 30.2469 49.4061 30.0864ZM28 35.8742V32.4626C29.0031 32.7986 29.9496 32.9958 30.8501 33.0889C30.4653 34.4523 29.3759 35.5201 28 35.8742ZM28 37.9173V40.0832C30.5071 40.5038 32.487 42.4792 32.9143 44.9841C34.4442 44.8005 35.8849 44.3006 37.3947 43.7767L37.6729 43.6802C39.2936 43.1192 41.044 42.5395 42.9874 42.4543C43.0591 42.4511 43.131 42.4486 43.203 42.4469C43.8035 40.2004 45.675 38.4733 48 38.0832V35.9173C45.4461 35.4888 43.4392 33.4469 43.0634 30.8755C41.4236 30.9964 39.8948 31.4635 38.2941 31.9561L38.2586 31.967C36.591 32.4801 34.8466 33.0169 32.8934 33.1322C32.4257 35.582 30.4684 37.5032 28 37.9173ZM48 31.6653V33.8742C46.5672 33.5054 45.4451 32.3628 45.1059 30.9183C46.0131 31.0262 46.9694 31.2606 48 31.6653ZM45.2559 42.5895C45.7113 41.3815 46.7344 40.452 48 40.1263V43.3985C47.0444 42.9945 46.1331 42.7346 45.2559 42.5895ZM28 42.1263V44.3334C29.0256 44.7305 29.9766 44.9438 30.8796 45.0223C30.5238 43.6062 29.413 42.4899 28 42.1263Z" fill="#514AB7"/>
<path d="M12.8986 105V95.2H20.4726V96.964H14.9286V99.274H18.6106V100.982H14.9286V105H12.8986ZM21.5089 105V97.706H23.4269V105H21.5089ZM22.4609 96.838C22.1623 96.838 21.9056 96.7307 21.6909 96.516C21.4763 96.3013 21.3689 96.0447 21.3689 95.746C21.3689 95.438 21.4763 95.1813 21.6909 94.976C21.9056 94.7613 22.1623 94.654 22.4609 94.654C22.7689 94.654 23.0256 94.7613 23.2309 94.976C23.4456 95.1813 23.5529 95.438 23.5529 95.746C23.5529 96.0447 23.4456 96.3013 23.2309 96.516C23.0256 96.7307 22.7689 96.838 22.4609 96.838ZM24.9269 105V97.706H26.8449V98.308C27.3956 97.8133 28.0769 97.566 28.8889 97.566C29.4582 97.566 29.9576 97.692 30.3869 97.944C30.8256 98.1867 31.1662 98.5273 31.4089 98.966C31.6516 99.3953 31.7729 99.8993 31.7729 100.478V105H29.8549V100.758C29.8549 100.282 29.7196 99.9087 29.4489 99.638C29.1782 99.358 28.8096 99.218 28.3429 99.218C28.0162 99.218 27.7269 99.2833 27.4749 99.414C27.2229 99.5353 27.0129 99.7127 26.8449 99.946V105H24.9269ZM35.5497 105.126C35.0271 105.126 34.5651 105.033 34.1637 104.846C33.7624 104.65 33.4497 104.384 33.2257 104.048C33.0017 103.712 32.8897 103.325 32.8897 102.886C32.8897 102.186 33.1511 101.645 33.6737 101.262C34.2057 100.87 34.9337 100.674 35.8577 100.674C36.4924 100.674 37.0897 100.772 37.6497 100.968V100.436C37.6497 100.016 37.5191 99.6987 37.2577 99.484C36.9964 99.2693 36.6137 99.162 36.1097 99.162C35.8017 99.162 35.4704 99.2133 35.1157 99.316C34.7611 99.4093 34.3504 99.5587 33.8837 99.764L33.1837 98.35C33.7624 98.0887 34.3131 97.8927 34.8357 97.762C35.3677 97.6313 35.8997 97.566 36.4317 97.566C37.4117 97.566 38.1724 97.804 38.7137 98.28C39.2644 98.7467 39.5397 99.4093 39.5397 100.268V105H37.6497V104.482C37.3511 104.706 37.0291 104.869 36.6837 104.972C36.3384 105.075 35.9604 105.126 35.5497 105.126ZM34.7097 102.844C34.7097 103.124 34.8311 103.348 35.0737 103.516C35.3164 103.675 35.6384 103.754 36.0397 103.754C36.3571 103.754 36.6511 103.717 36.9217 103.642C37.1924 103.558 37.4351 103.437 37.6497 103.278V102.214C37.4164 102.121 37.1737 102.051 36.9217 102.004C36.6697 101.957 36.3991 101.934 36.1097 101.934C35.6711 101.934 35.3257 102.018 35.0737 102.186C34.8311 102.345 34.7097 102.564 34.7097 102.844ZM40.9914 105V97.706H42.9094V98.308C43.46 97.8133 44.1414 97.566 44.9534 97.566C45.5227 97.566 46.022 97.692 46.4514 97.944C46.89 98.1867 47.2307 98.5273 47.4734 98.966C47.716 99.3953 47.8374 99.8993 47.8374 100.478V105H45.9194V100.758C45.9194 100.282 45.784 99.9087 45.5134 99.638C45.2427 99.358 44.874 99.218 44.4074 99.218C44.0807 99.218 43.7914 99.2833 43.5394 99.414C43.2874 99.5353 43.0774 99.7127 42.9094 99.946V105H40.9914ZM52.7762 105.14C52.0575 105.14 51.4088 104.977 50.8302 104.65C50.2515 104.314 49.7942 103.861 49.4582 103.292C49.1222 102.713 48.9542 102.069 48.9542 101.36C48.9542 100.641 49.1222 99.9973 49.4582 99.428C49.7942 98.8587 50.2515 98.406 50.8302 98.07C51.4088 97.734 52.0575 97.566 52.7762 97.566C53.3548 97.566 53.9055 97.678 54.4282 97.902C54.9602 98.126 55.4175 98.448 55.8002 98.868L54.6242 100.114C54.3535 99.8153 54.0688 99.596 53.7702 99.456C53.4808 99.3067 53.1635 99.232 52.8182 99.232C52.4448 99.232 52.1088 99.3253 51.8102 99.512C51.5208 99.6987 51.2875 99.9507 51.1102 100.268C50.9422 100.585 50.8582 100.949 50.8582 101.36C50.8582 101.752 50.9422 102.111 51.1102 102.438C51.2875 102.755 51.5302 103.007 51.8382 103.194C52.1462 103.371 52.4868 103.46 52.8602 103.46C53.1868 103.46 53.4902 103.395 53.7702 103.264C54.0595 103.124 54.3348 102.919 54.5962 102.648L55.7442 103.852C55.3708 104.253 54.9228 104.571 54.4002 104.804C53.8775 105.028 53.3362 105.14 52.7762 105.14ZM60.1063 105.14C59.3783 105.14 58.7156 104.972 58.1183 104.636C57.5303 104.3 57.0636 103.847 56.7183 103.278C56.3729 102.709 56.2003 102.069 56.2003 101.36C56.2003 100.651 56.3636 100.011 56.6903 99.442C57.0263 98.8727 57.4789 98.42 58.0483 98.084C58.6176 97.748 59.2523 97.58 59.9523 97.58C60.6523 97.58 61.2729 97.7527 61.8143 98.098C62.3556 98.4433 62.7803 98.91 63.0883 99.498C63.4056 100.086 63.5643 100.753 63.5643 101.5V102.004H58.1603C58.2443 102.293 58.3796 102.555 58.5663 102.788C58.7623 103.021 59.0003 103.203 59.2803 103.334C59.5696 103.465 59.8776 103.53 60.2043 103.53C60.5309 103.53 60.8296 103.479 61.1003 103.376C61.3803 103.273 61.6183 103.129 61.8143 102.942L63.0743 104.09C62.6263 104.454 62.1643 104.72 61.6883 104.888C61.2216 105.056 60.6943 105.14 60.1063 105.14ZM58.1323 100.632H61.6743C61.6089 100.343 61.4876 100.091 61.3103 99.876C61.1423 99.652 60.9369 99.4793 60.6943 99.358C60.4609 99.2273 60.1996 99.162 59.9103 99.162C59.6116 99.162 59.3409 99.2227 59.0983 99.344C58.8556 99.4653 58.6503 99.638 58.4823 99.862C58.3236 100.077 58.2069 100.333 58.1323 100.632Z" fill="#1A1B35"/>
</svg>
