<svg width="21" height="20" viewBox="0 0 21 20" fill="none" xmlns="http://www.w3.org/2000/svg">
<g id="material-symbols:attach-file">
<path id="Vector" d="M10.0833 18.3337C8.80556 18.3337 7.72222 17.8892 6.83333 17.0003C5.94444 16.1114 5.5 15.0281 5.5 13.7503V5.00033C5.5 4.08366 5.82639 3.29894 6.47917 2.64616C7.13194 1.99338 7.91667 1.66699 8.83333 1.66699C9.75 1.66699 10.5347 1.99338 11.1875 2.64616C11.8403 3.29894 12.1667 4.08366 12.1667 5.00033V12.917C12.1667 13.5003 11.9653 13.9934 11.5625 14.3962C11.1597 14.7989 10.6667 15.0003 10.0833 15.0003C9.5 15.0003 9.00694 14.7989 8.60417 14.3962C8.20139 13.9934 8 13.5003 8 12.917V5.00033H9.25V12.917C9.25 13.1531 9.33 13.3512 9.49 13.5112C9.65 13.6712 9.84778 13.7509 10.0833 13.7503C10.3194 13.7503 10.5175 13.6703 10.6775 13.5103C10.8375 13.3503 10.9172 13.1525 10.9167 12.917V5.00033C10.9167 4.41699 10.7153 3.92394 10.3125 3.52116C9.90972 3.11838 9.41667 2.91699 8.83333 2.91699C8.25 2.91699 7.75694 3.11838 7.35417 3.52116C6.95139 3.92394 6.75 4.41699 6.75 5.00033V13.7503C6.75 14.667 7.07639 15.4517 7.72917 16.1045C8.38194 16.7573 9.16667 17.0837 10.0833 17.0837C11 17.0837 11.7847 16.7573 12.4375 16.1045C13.0903 15.4517 13.4167 14.667 13.4167 13.7503V5.00033H14.6667V13.7503C14.6667 15.0281 14.2222 16.1114 13.3333 17.0003C12.4444 17.8892 11.3611 18.3337 10.0833 18.3337Z" fill="#1A1B35"/>
</g>
</svg>
