<svg width="76" height="111" viewBox="0 0 76 111" fill="none" xmlns="http://www.w3.org/2000/svg">
<rect x="0.5" y="0.5" width="75" height="75" rx="15.5" stroke="#FC7B94"/>
<path fill-rule="evenodd" clip-rule="evenodd" d="M46.9998 33C46.9998 36.3137 44.3135 39 40.9998 39C37.6861 39 34.9998 36.3137 34.9998 33C34.9998 29.6863 37.6861 27 40.9998 27C44.3135 27 46.9998 29.6863 46.9998 33ZM44.9998 33C44.9998 35.2091 43.209 37 40.9998 37C38.7907 37 36.9998 35.2091 36.9998 33C36.9998 30.7909 38.7907 29 40.9998 29C43.209 29 44.9998 30.7909 44.9998 33Z" fill="#B53D6B"/>
<path d="M34.1987 29.0798C34.74 28.97 35.0897 28.4421 34.9798 27.9009C34.87 27.3596 34.3421 27.0099 33.8009 27.1198C31.0618 27.6758 28.9998 30.0959 28.9998 32.9998C28.9998 35.9037 31.0618 38.3238 33.8009 38.8798C34.3421 38.9896 34.87 38.6399 34.9798 38.0987C35.0897 37.5575 34.74 37.0296 34.1987 36.9198C32.3734 36.5492 30.9998 34.9338 30.9998 32.9998C30.9998 31.0658 32.3734 29.4503 34.1987 29.0798Z" fill="#B53D6B"/>
<path fill-rule="evenodd" clip-rule="evenodd" d="M35.6977 41.5735C36.9306 40.6272 38.6489 40 40.9999 40C43.3509 40 45.0692 40.6272 46.302 41.5736C47.5256 42.5128 48.1913 43.705 48.5523 44.7086C48.8701 45.592 48.6475 46.4567 48.1146 47.0695C47.6 47.6613 46.8209 48 45.9998 48H35.9998C35.1787 48 34.3996 47.6613 33.885 47.0695C33.3522 46.4566 33.1296 45.5919 33.4473 44.7086C33.8084 43.705 34.4741 42.5128 35.6977 41.5735ZM36.9155 43.16C36.0734 43.8065 35.5983 44.6378 35.3293 45.3856C35.2732 45.5416 35.304 45.6534 35.3943 45.7572C35.5028 45.882 35.7164 46 35.9998 46H45.9998C46.2833 46 46.4969 45.882 46.6054 45.7572C46.6956 45.6534 46.7265 45.5416 46.6704 45.3856C46.4014 44.6379 45.9263 43.8065 45.0842 43.16C44.2513 42.5207 42.9788 42 40.9999 42C39.0209 42 37.7485 42.5207 36.9155 43.16Z" fill="#B53D6B"/>
<path d="M29.2507 45.2769C29.4554 44.4886 29.8068 43.6598 30.3866 43.0404C30.9377 42.4517 31.7403 42 32.9998 42C33.5521 42 33.9998 41.5523 33.9998 41C33.9998 40.4477 33.5521 40 32.9998 40C31.1791 40 29.8504 40.6867 28.9265 41.6736C28.0314 42.6298 27.5644 43.8138 27.315 44.7741C26.8318 46.6347 28.4143 48 29.9998 48H30.769C31.3213 48 31.769 47.5523 31.769 47C31.769 46.4477 31.3213 46 30.769 46H29.9998C29.7173 46 29.4923 45.8839 29.3644 45.7426C29.2485 45.6146 29.2024 45.4629 29.2507 45.2769Z" fill="#B53D6B"/>
<path d="M28.9562 105V95.2H30.9862V99.148H35.4942V95.2H37.5242V105H35.4942V100.982H30.9862V105H28.9562ZM39.3058 105V95.2H44.0938C44.7565 95.2 45.3398 95.3307 45.8438 95.592C46.3572 95.844 46.7538 96.1987 47.0338 96.656C47.3232 97.1133 47.4678 97.6407 47.4678 98.238C47.4678 98.8633 47.2952 99.414 46.9498 99.89C46.6045 100.366 46.1425 100.721 45.5638 100.954L47.7338 105H45.4658L43.5478 101.248H41.3358V105H39.3058ZM41.3358 99.582H43.9118C44.3692 99.582 44.7332 99.4607 45.0038 99.218C45.2838 98.9753 45.4238 98.658 45.4238 98.266C45.4238 97.874 45.2838 97.5567 45.0038 97.314C44.7332 97.0713 44.3692 96.95 43.9118 96.95H41.3358V99.582Z" fill="#1A1B35"/>
</svg>
