<svg width="76" height="111" viewBox="0 0 76 111" fill="none" xmlns="http://www.w3.org/2000/svg">
<rect x="0.5" y="0.5" width="75" height="75" rx="15.5" stroke="#514AB7"/>
<path fill-rule="evenodd" clip-rule="evenodd" d="M27 30C27 28.3431 28.3431 27 30 27H46C47.6569 27 49 28.3431 49 30V42C49 43.6569 47.6569 45 46 45H39V47H43C43.5523 47 44 47.4477 44 48C44 48.5523 43.5523 49 43 49H33C32.4477 49 32 48.5523 32 48C32 47.4477 32.4477 47 33 47H37V45H30C28.3431 45 27 43.6569 27 42V30ZM30 29C29.4477 29 29 29.4477 29 30V42C29 42.5523 29.4477 43 30 43H46C46.5523 43 47 42.5523 47 42V30C47 29.4477 46.5523 29 46 29H30Z" fill="#514AB7"/>
<path d="M32.9395 39.9996V31.5996H34.6795V39.9996H32.9395Z" fill="#514AB7"/>
<path d="M38.501 39.9996V33.1356H35.669V31.5996H43.061V33.1356H40.241V39.9996H38.501Z" fill="#514AB7"/>
<path d="M32.9084 105V95.2H34.9384V105H32.9084ZM39.3968 105V96.992H36.0928V95.2H44.7168V96.992H41.4268V105H39.3968Z" fill="#1A1B35"/>
</svg>
