<svg width="76" height="111" viewBox="0 0 76 111" fill="none" xmlns="http://www.w3.org/2000/svg">
<rect x="0.5" y="0.5" width="75" height="75" rx="15.5" stroke="#F9D104"/>
<path d="M41.0345 29.6733C40.8916 30.2067 41.2082 30.7551 41.7416 30.898C42.2751 31.041 42.8234 30.7244 42.9664 30.1909L43.484 28.2591C43.627 27.7256 43.3104 27.1773 42.7769 27.0343C42.2434 26.8914 41.6951 27.208 41.5522 27.7414L41.0345 29.6733Z" fill="#B17C2F"/>
<path fill-rule="evenodd" clip-rule="evenodd" d="M39.3842 29.5324C39.2397 29.2595 38.9773 29.0686 38.6731 29.0153C38.369 28.962 38.0573 29.0521 37.8285 29.2596L31.8587 34.6746L28.4872 36.6212C27.0529 37.4492 26.5599 39.2829 27.3886 40.7183L28.389 42.451C29.2171 43.8853 31.0512 44.3784 32.4867 43.5497L32.5176 43.5318L36.4424 48.3751C36.752 48.7572 37.2934 48.8574 37.7193 48.6115L42.0494 46.1115C42.3222 45.954 42.5049 45.6772 42.5423 45.3644C42.5798 45.0516 42.4676 44.7394 42.2397 44.522L38.3709 40.8311L43.2694 39.4635C43.5608 39.3821 43.7998 39.1731 43.9192 38.8951C44.0387 38.617 44.0258 38.2999 43.8842 38.0324L39.3842 29.5324ZM29.4872 38.3532L32.0853 36.8532L34.0853 40.3173L31.4867 41.8176C31.009 42.0934 30.3975 41.9298 30.121 41.451L29.1207 39.7183C28.8449 39.2406 29.0084 38.6297 29.4872 38.3532ZM34.2714 42.5193L35.8733 41.5944L36.1644 41.4902L39.8929 45.0472L37.4587 46.4526L34.2714 42.5193ZM36.0713 39.3993L35.9001 39.4606L33.7207 35.6858L38.2189 31.6058L41.5358 37.871L36.1394 39.3776C36.1164 39.384 36.0937 39.3913 36.0713 39.3993Z" fill="#B17C2F"/>
<path d="M47.3303 32.0921C47.8085 31.816 47.9724 31.2044 47.6963 30.7261C47.4201 30.2478 46.8085 30.0839 46.3303 30.36L43.8808 31.7743C43.4025 32.0504 43.2386 32.662 43.5147 33.1403C43.7909 33.6186 44.4025 33.7825 44.8808 33.5063L47.3303 32.0921Z" fill="#B17C2F"/>
<path d="M44.6044 35.5382C44.7473 35.0048 45.2956 34.6882 45.8291 34.8311L47.761 35.3488C48.2944 35.4917 48.611 36.04 48.4681 36.5735C48.3251 37.107 47.7768 37.4236 47.2433 37.2806L45.3115 36.763C44.778 36.62 44.4614 36.0717 44.6044 35.5382Z" fill="#B17C2F"/>
<path d="M5.16032 105V95.2H7.76432L10.4523 100.492L13.1403 95.2H15.7443V105H13.8263V97.79L10.4243 104.3L7.03632 97.762V105H5.16032ZM19.5673 105.126C19.0446 105.126 18.5826 105.033 18.1813 104.846C17.78 104.65 17.4673 104.384 17.2433 104.048C17.0193 103.712 16.9073 103.325 16.9073 102.886C16.9073 102.186 17.1686 101.645 17.6913 101.262C18.2233 100.87 18.9513 100.674 19.8753 100.674C20.51 100.674 21.1073 100.772 21.6673 100.968V100.436C21.6673 100.016 21.5366 99.6987 21.2753 99.484C21.014 99.2693 20.6313 99.162 20.1273 99.162C19.8193 99.162 19.488 99.2133 19.1333 99.316C18.7786 99.4093 18.368 99.5587 17.9013 99.764L17.2013 98.35C17.78 98.0887 18.3306 97.8927 18.8533 97.762C19.3853 97.6313 19.9173 97.566 20.4493 97.566C21.4293 97.566 22.19 97.804 22.7313 98.28C23.282 98.7467 23.5573 99.4093 23.5573 100.268V105H21.6673V104.482C21.3686 104.706 21.0466 104.869 20.7013 104.972C20.356 105.075 19.978 105.126 19.5673 105.126ZM18.7273 102.844C18.7273 103.124 18.8486 103.348 19.0913 103.516C19.334 103.675 19.656 103.754 20.0573 103.754C20.3746 103.754 20.6686 103.717 20.9393 103.642C21.21 103.558 21.4526 103.437 21.6673 103.278V102.214C21.434 102.121 21.1913 102.051 20.9393 102.004C20.6873 101.957 20.4166 101.934 20.1273 101.934C19.6886 101.934 19.3433 102.018 19.0913 102.186C18.8486 102.345 18.7273 102.564 18.7273 102.844ZM25.0089 105V97.706H26.9269V98.518C27.1603 98.2007 27.4403 97.958 27.7669 97.79C28.0936 97.622 28.4623 97.538 28.8729 97.538C29.2276 97.5473 29.4936 97.6033 29.6709 97.706V99.386C29.5309 99.3207 29.3769 99.274 29.2089 99.246C29.0409 99.2087 28.8683 99.19 28.6909 99.19C28.3176 99.19 27.9769 99.2833 27.6689 99.47C27.3609 99.6567 27.1136 99.9227 26.9269 100.268V105H25.0089ZM30.7238 105V95.2L32.6418 94.878V100.772L35.7918 97.706H37.9618L34.5178 101.052L38.1718 105H35.7218L32.6418 101.668V105H30.7238ZM41.6219 105.14C40.8939 105.14 40.2312 104.972 39.6339 104.636C39.0459 104.3 38.5792 103.847 38.2339 103.278C37.8886 102.709 37.7159 102.069 37.7159 101.36C37.7159 100.651 37.8792 100.011 38.2059 99.442C38.5419 98.8727 38.9946 98.42 39.5639 98.084C40.1332 97.748 40.7679 97.58 41.4679 97.58C42.1679 97.58 42.7886 97.7527 43.3299 98.098C43.8712 98.4433 44.2959 98.91 44.6039 99.498C44.9212 100.086 45.0799 100.753 45.0799 101.5V102.004H39.6759C39.7599 102.293 39.8952 102.555 40.0819 102.788C40.2779 103.021 40.5159 103.203 40.7959 103.334C41.0852 103.465 41.3932 103.53 41.7199 103.53C42.0466 103.53 42.3452 103.479 42.6159 103.376C42.8959 103.273 43.1339 103.129 43.3299 102.942L44.5899 104.09C44.1419 104.454 43.6799 104.72 43.2039 104.888C42.7372 105.056 42.2099 105.14 41.6219 105.14ZM39.6479 100.632H43.1899C43.1246 100.343 43.0032 100.091 42.8259 99.876C42.6579 99.652 42.4526 99.4793 42.2099 99.358C41.9766 99.2273 41.7152 99.162 41.4259 99.162C41.1272 99.162 40.8566 99.2227 40.6139 99.344C40.3712 99.4653 40.1659 99.638 39.9979 99.862C39.8392 100.077 39.7226 100.333 39.6479 100.632ZM49.5079 105.112C48.6959 105.112 48.0799 104.93 47.6599 104.566C47.2493 104.193 47.0439 103.651 47.0439 102.942V99.302H45.5459V97.706H47.0439V95.844L48.9619 95.41V97.706H51.0479V99.302H48.9619V102.55C48.9619 102.886 49.0366 103.129 49.1859 103.278C49.3353 103.418 49.5966 103.488 49.9699 103.488C50.1566 103.488 50.3246 103.479 50.4739 103.46C50.6326 103.432 50.8053 103.385 50.9919 103.32V104.902C50.7959 104.967 50.5486 105.019 50.2499 105.056C49.9606 105.093 49.7133 105.112 49.5079 105.112ZM51.9835 105V97.706H53.9015V105H51.9835ZM52.9355 96.838C52.6369 96.838 52.3802 96.7307 52.1655 96.516C51.9509 96.3013 51.8435 96.0447 51.8435 95.746C51.8435 95.438 51.9509 95.1813 52.1655 94.976C52.3802 94.7613 52.6369 94.654 52.9355 94.654C53.2435 94.654 53.5002 94.7613 53.7055 94.976C53.9202 95.1813 54.0275 95.438 54.0275 95.746C54.0275 96.0447 53.9202 96.3013 53.7055 96.516C53.5002 96.7307 53.2435 96.838 52.9355 96.838ZM55.4015 105V97.706H57.3195V98.308C57.8702 97.8133 58.5515 97.566 59.3635 97.566C59.9328 97.566 60.4322 97.692 60.8615 97.944C61.3002 98.1867 61.6408 98.5273 61.8835 98.966C62.1262 99.3953 62.2475 99.8993 62.2475 100.478V105H60.3295V100.758C60.3295 100.282 60.1942 99.9087 59.9235 99.638C59.6528 99.358 59.2842 99.218 58.8175 99.218C58.4908 99.218 58.2015 99.2833 57.9495 99.414C57.6975 99.5353 57.4875 99.7127 57.3195 99.946V105H55.4015ZM67.3683 107.996C66.8083 107.996 66.267 107.935 65.7443 107.814C65.2217 107.702 64.7503 107.539 64.3303 107.324L65.0023 105.84C65.4037 106.036 65.7957 106.181 66.1783 106.274C66.561 106.367 66.9437 106.414 67.3263 106.414C67.8957 106.414 68.325 106.293 68.6143 106.05C68.913 105.807 69.0623 105.443 69.0623 104.958V104.384C68.465 104.823 67.7977 105.042 67.0603 105.042C66.3697 105.042 65.7443 104.879 65.1843 104.552C64.6337 104.216 64.1903 103.763 63.8543 103.194C63.5277 102.625 63.3643 101.995 63.3643 101.304C63.3643 100.613 63.5277 99.988 63.8543 99.428C64.1903 98.868 64.643 98.4247 65.2123 98.098C65.7817 97.762 66.4163 97.594 67.1163 97.594C67.471 97.594 67.8163 97.6453 68.1523 97.748C68.4883 97.8507 68.801 97.9953 69.0903 98.182V97.706H70.9803V104.986C70.9803 105.947 70.6677 106.689 70.0423 107.212C69.4263 107.735 68.535 107.996 67.3683 107.996ZM67.3543 103.418C67.709 103.418 68.031 103.362 68.3203 103.25C68.6097 103.129 68.857 102.961 69.0623 102.746V99.89C68.857 99.6847 68.605 99.526 68.3063 99.414C68.017 99.2927 67.7043 99.232 67.3683 99.232C66.967 99.232 66.6077 99.3253 66.2903 99.512C65.973 99.6893 65.721 99.9367 65.5343 100.254C65.3477 100.562 65.2543 100.912 65.2543 101.304C65.2543 101.705 65.343 102.065 65.5203 102.382C65.707 102.699 65.959 102.951 66.2763 103.138C66.603 103.325 66.9623 103.418 67.3543 103.418Z" fill="#1A1B35"/>
</svg>
