<svg width="76" height="111" viewBox="0 0 76 111" fill="none" xmlns="http://www.w3.org/2000/svg">
<rect x="0.5" y="0.5" width="75" height="75" rx="15.5" stroke="#58C7E9"/>
<path fill-rule="evenodd" clip-rule="evenodd" d="M38.0005 33C35.2391 33 33.0005 35.2386 33.0005 38C33.0005 40.7614 35.2391 43 38.0005 43C40.7619 43 43.0005 40.7614 43.0005 38C43.0005 35.2386 40.7619 33 38.0005 33ZM35.0005 38C35.0005 36.3431 36.3436 35 38.0005 35C39.6573 35 41.0005 36.3431 41.0005 38C41.0005 39.6569 39.6573 41 38.0005 41C36.3436 41 35.0005 39.6569 35.0005 38Z" fill="#2C79A7"/>
<path fill-rule="evenodd" clip-rule="evenodd" d="M38.0003 26C36.3435 26 35.0003 27.3431 35.0003 29V29.5124C33.9463 29.885 32.983 30.4479 32.1517 31.1592L31.706 30.9019C30.2711 30.0735 28.4364 30.5651 27.6079 32C26.7795 33.4348 27.2711 35.2696 28.706 36.098L29.1505 36.3547C29.0518 36.8887 29.0003 37.4387 29.0003 38C29.0003 38.5657 29.0526 39.1198 29.1528 39.6577L28.7022 39.912C27.2564 40.7277 26.754 42.5663 27.584 44.0039C28.4114 45.4369 30.2466 45.9234 31.6752 45.0883L32.1302 44.8223C32.9653 45.5414 33.9345 46.1103 34.996 46.4861L34.9917 46.9738C34.9772 48.6408 36.3245 50 37.9916 50C39.6381 50 40.9769 48.6728 40.9914 47.0263L40.9961 46.4891C42.051 46.1168 43.0151 45.5539 43.8471 44.8423L44.2613 45.0839C45.697 45.9212 47.5398 45.4318 48.3708 43.9924C49.1966 42.562 48.7109 40.7332 47.2841 39.901L46.8497 39.6476C46.9487 39.1129 47.0003 38.5621 47.0003 38C47.0003 37.4379 46.9487 36.8872 46.8497 36.3524L47.2842 36.099C48.7109 35.2669 49.1966 33.438 48.3708 32.0076C47.5398 30.5683 45.6969 30.0788 44.2613 30.9162L43.8472 31.1577C43.0162 30.4471 42.0536 29.8847 41.0003 29.5124V29C41.0003 27.3431 39.6572 26 38.0003 26ZM37.0003 29C37.0003 28.4477 37.448 28 38.0003 28C38.5526 28 39.0003 28.4477 39.0003 29V30.252C39.0003 30.7083 39.3092 31.1067 39.7511 31.2205C41.0011 31.5422 42.1176 32.2016 42.9967 33.0973C43.3189 33.4257 43.8235 33.4918 44.2194 33.2577L44.4323 33.1318L44.4375 33.1287L45.2689 32.6438C45.7475 32.3647 46.3617 32.5278 46.6387 33.0076C46.914 33.4844 46.7521 34.094 46.2765 34.3714L45.4395 34.8596L45.2344 34.97C44.8228 35.1914 44.6196 35.6684 44.7449 36.1186C44.9111 36.7161 45.0003 37.3468 45.0003 38C45.0003 38.6521 44.9114 39.2818 44.7457 39.8785C44.622 40.3237 44.8195 40.7957 45.2233 41.0202L45.4337 41.1371L46.2765 41.6287C46.7521 41.906 46.914 42.5156 46.6387 42.9924C46.3617 43.4722 45.7475 43.6354 45.2689 43.3563L44.4323 42.8683C44.4238 42.8634 44.4152 42.8585 44.4066 42.8538L44.1818 42.7315C43.7898 42.5181 43.3039 42.5904 42.9909 42.9086C42.1127 43.8014 40.9984 44.4585 39.7511 44.7795C39.3092 44.8933 39.0003 45.2917 39.0003 45.748V45.9956L38.9914 47.0088C38.9866 47.5576 38.5404 48 37.9916 48C37.4359 48 36.9868 47.5469 36.9917 46.9913L37.0003 46.0088V45.748C37.0003 45.2917 36.6915 44.8933 36.2496 44.7795C34.991 44.4556 33.8679 43.7895 32.9861 42.8845C32.6655 42.5554 32.1619 42.4871 31.7652 42.719L30.6658 43.3617C30.1945 43.6372 29.589 43.4767 29.3161 43.0039C29.0422 42.5296 29.208 41.923 29.685 41.6539L30.787 41.0321C31.188 40.8058 31.3827 40.335 31.2586 39.8916C31.0905 39.291 31.0003 38.6569 31.0003 38C31.0003 37.3498 31.0887 36.7219 31.2535 36.1268C31.3744 35.6903 31.1868 35.227 30.7962 34.9976L30.5785 34.8697L29.706 34.366C29.2277 34.0898 29.0638 33.4783 29.34 33C29.6161 32.5217 30.2277 32.3578 30.706 32.6339L31.5556 33.1245L31.7528 33.2485C32.1511 33.499 32.6702 33.4379 32.9996 33.1018C33.8793 32.2037 34.9974 31.5428 36.2496 31.2205C36.6915 31.1067 37.0003 30.7083 37.0003 30.252V29Z" fill="#2C79A7"/>
<path d="M6.85978 105.154C6.13178 105.154 5.45511 105.028 4.82978 104.776C4.20445 104.515 3.65378 104.155 3.17778 103.698C2.71111 103.231 2.34245 102.695 2.07178 102.088C1.81045 101.472 1.67978 100.809 1.67978 100.1C1.67978 99.3907 1.81045 98.7327 2.07178 98.126C2.34245 97.51 2.71111 96.9733 3.17778 96.516C3.65378 96.0493 4.20445 95.69 4.82978 95.438C5.45511 95.1767 6.13178 95.046 6.85978 95.046C7.58778 95.046 8.26445 95.1767 8.88978 95.438C9.52445 95.69 10.0751 96.0493 10.5418 96.516C11.0178 96.9733 11.3864 97.51 11.6478 98.126C11.9091 98.7327 12.0398 99.3907 12.0398 100.1C12.0398 100.809 11.9091 101.472 11.6478 102.088C11.3864 102.695 11.0178 103.231 10.5418 103.698C10.0751 104.155 9.52445 104.515 8.88978 104.776C8.26445 105.028 7.58778 105.154 6.85978 105.154ZM6.85978 103.292C7.30778 103.292 7.71845 103.213 8.09178 103.054C8.46512 102.886 8.79178 102.662 9.07178 102.382C9.35178 102.093 9.57111 101.752 9.72978 101.36C9.88845 100.968 9.96778 100.548 9.96778 100.1C9.96778 99.6427 9.88845 99.2227 9.72978 98.84C9.57111 98.448 9.35178 98.112 9.07178 97.832C8.79178 97.5427 8.46512 97.3187 8.09178 97.16C7.71845 96.992 7.30778 96.908 6.85978 96.908C6.42111 96.908 6.01511 96.992 5.64178 97.16C5.26845 97.3187 4.94178 97.5427 4.66178 97.832C4.38178 98.112 4.16245 98.448 4.00378 98.84C3.84511 99.2227 3.76578 99.638 3.76578 100.086C3.76578 100.543 3.84511 100.968 4.00378 101.36C4.16245 101.752 4.38178 102.093 4.66178 102.382C4.94178 102.662 5.26845 102.886 5.64178 103.054C6.01511 103.213 6.42111 103.292 6.85978 103.292ZM13.3205 107.856V97.706H15.2105V98.308C15.8078 97.8413 16.4985 97.608 17.2825 97.608C17.9731 97.608 18.5985 97.776 19.1585 98.112C19.7185 98.448 20.1618 98.9007 20.4885 99.47C20.8245 100.03 20.9925 100.66 20.9925 101.36C20.9925 102.06 20.8245 102.695 20.4885 103.264C20.1525 103.824 19.6998 104.272 19.1305 104.608C18.5611 104.935 17.9265 105.098 17.2265 105.098C16.8625 105.098 16.5125 105.051 16.1765 104.958C15.8405 104.855 15.5278 104.711 15.2385 104.524V107.856H13.3205ZM16.9745 103.474C17.3758 103.474 17.7351 103.381 18.0525 103.194C18.3791 103.007 18.6358 102.755 18.8225 102.438C19.0091 102.121 19.1025 101.761 19.1025 101.36C19.1025 100.959 19.0091 100.599 18.8225 100.282C18.6358 99.9553 18.3791 99.7033 18.0525 99.526C17.7351 99.3393 17.3758 99.246 16.9745 99.246C16.6198 99.246 16.2931 99.3067 15.9945 99.428C15.7051 99.54 15.4531 99.7127 15.2385 99.946V102.788C15.4438 103.003 15.6958 103.171 15.9945 103.292C16.3025 103.413 16.6291 103.474 16.9745 103.474ZM25.7225 105.14C24.9945 105.14 24.3318 104.972 23.7345 104.636C23.1465 104.3 22.6798 103.847 22.3345 103.278C21.9892 102.709 21.8165 102.069 21.8165 101.36C21.8165 100.651 21.9798 100.011 22.3065 99.442C22.6425 98.8727 23.0952 98.42 23.6645 98.084C24.2338 97.748 24.8685 97.58 25.5685 97.58C26.2685 97.58 26.8892 97.7527 27.4305 98.098C27.9718 98.4433 28.3965 98.91 28.7045 99.498C29.0218 100.086 29.1805 100.753 29.1805 101.5V102.004H23.7765C23.8605 102.293 23.9958 102.555 24.1825 102.788C24.3785 103.021 24.6165 103.203 24.8965 103.334C25.1858 103.465 25.4938 103.53 25.8205 103.53C26.1472 103.53 26.4458 103.479 26.7165 103.376C26.9965 103.273 27.2345 103.129 27.4305 102.942L28.6905 104.09C28.2425 104.454 27.7805 104.72 27.3045 104.888C26.8378 105.056 26.3105 105.14 25.7225 105.14ZM23.7485 100.632H27.2905C27.2252 100.343 27.1038 100.091 26.9265 99.876C26.7585 99.652 26.5532 99.4793 26.3105 99.358C26.0772 99.2273 25.8158 99.162 25.5265 99.162C25.2278 99.162 24.9572 99.2227 24.7145 99.344C24.4718 99.4653 24.2665 99.638 24.0985 99.862C23.9398 100.077 23.8232 100.333 23.7485 100.632ZM30.3556 105V97.706H32.2736V98.518C32.5069 98.2007 32.7869 97.958 33.1136 97.79C33.4403 97.622 33.8089 97.538 34.2196 97.538C34.5743 97.5473 34.8403 97.6033 35.0176 97.706V99.386C34.8776 99.3207 34.7236 99.274 34.5556 99.246C34.3876 99.2087 34.2149 99.19 34.0376 99.19C33.6643 99.19 33.3236 99.2833 33.0156 99.47C32.7076 99.6567 32.4603 99.9227 32.2736 100.268V105H30.3556ZM38.1894 105.126C37.6667 105.126 37.2047 105.033 36.8034 104.846C36.402 104.65 36.0894 104.384 35.8654 104.048C35.6414 103.712 35.5294 103.325 35.5294 102.886C35.5294 102.186 35.7907 101.645 36.3134 101.262C36.8454 100.87 37.5734 100.674 38.4974 100.674C39.132 100.674 39.7294 100.772 40.2894 100.968V100.436C40.2894 100.016 40.1587 99.6987 39.8974 99.484C39.636 99.2693 39.2534 99.162 38.7494 99.162C38.4414 99.162 38.11 99.2133 37.7554 99.316C37.4007 99.4093 36.99 99.5587 36.5234 99.764L35.8234 98.35C36.402 98.0887 36.9527 97.8927 37.4754 97.762C38.0074 97.6313 38.5394 97.566 39.0714 97.566C40.0514 97.566 40.812 97.804 41.3534 98.28C41.904 98.7467 42.1794 99.4093 42.1794 100.268V105H40.2894V104.482C39.9907 104.706 39.6687 104.869 39.3234 104.972C38.978 105.075 38.6 105.126 38.1894 105.126ZM37.3494 102.844C37.3494 103.124 37.4707 103.348 37.7134 103.516C37.956 103.675 38.278 103.754 38.6794 103.754C38.9967 103.754 39.2907 103.717 39.5614 103.642C39.832 103.558 40.0747 103.437 40.2894 103.278V102.214C40.056 102.121 39.8134 102.051 39.5614 102.004C39.3094 101.957 39.0387 101.934 38.7494 101.934C38.3107 101.934 37.9654 102.018 37.7134 102.186C37.4707 102.345 37.3494 102.564 37.3494 102.844ZM46.8839 105.112C46.0719 105.112 45.4559 104.93 45.0359 104.566C44.6253 104.193 44.4199 103.651 44.4199 102.942V99.302H42.9219V97.706H44.4199V95.844L46.3379 95.41V97.706H48.4239V99.302H46.3379V102.55C46.3379 102.886 46.4126 103.129 46.5619 103.278C46.7113 103.418 46.9726 103.488 47.3459 103.488C47.5326 103.488 47.7006 103.479 47.8499 103.46C48.0086 103.432 48.1813 103.385 48.3679 103.32V104.902C48.1719 104.967 47.9246 105.019 47.6259 105.056C47.3366 105.093 47.0893 105.112 46.8839 105.112ZM49.3595 105V97.706H51.2775V105H49.3595ZM50.3115 96.838C50.0128 96.838 49.7562 96.7307 49.5415 96.516C49.3268 96.3013 49.2195 96.0447 49.2195 95.746C49.2195 95.438 49.3268 95.1813 49.5415 94.976C49.7562 94.7613 50.0128 94.654 50.3115 94.654C50.6195 94.654 50.8762 94.7613 51.0815 94.976C51.2962 95.1813 51.4035 95.438 51.4035 95.746C51.4035 96.0447 51.2962 96.3013 51.0815 96.516C50.8762 96.7307 50.6195 96.838 50.3115 96.838ZM56.3335 105.14C55.6055 105.14 54.9475 104.972 54.3595 104.636C53.7715 104.3 53.3048 103.847 52.9595 103.278C52.6142 102.709 52.4415 102.069 52.4415 101.36C52.4415 100.651 52.6095 100.011 52.9455 99.442C53.2908 98.8633 53.7575 98.406 54.3455 98.07C54.9428 97.734 55.6055 97.566 56.3335 97.566C57.0615 97.566 57.7195 97.734 58.3075 98.07C58.9048 98.406 59.3715 98.8633 59.7075 99.442C60.0528 100.011 60.2255 100.651 60.2255 101.36C60.2255 102.069 60.0528 102.709 59.7075 103.278C59.3715 103.847 58.9095 104.3 58.3215 104.636C57.7335 104.972 57.0708 105.14 56.3335 105.14ZM56.3335 103.474C56.7162 103.474 57.0568 103.381 57.3555 103.194C57.6635 103.007 57.9062 102.755 58.0835 102.438C58.2702 102.111 58.3635 101.752 58.3635 101.36C58.3635 100.959 58.2702 100.599 58.0835 100.282C57.9062 99.9647 57.6635 99.7127 57.3555 99.526C57.0568 99.33 56.7162 99.232 56.3335 99.232C55.9602 99.232 55.6195 99.33 55.3115 99.526C55.0035 99.7127 54.7608 99.9647 54.5835 100.282C54.4062 100.599 54.3175 100.959 54.3175 101.36C54.3175 101.752 54.4062 102.111 54.5835 102.438C54.7608 102.755 55.0035 103.007 55.3115 103.194C55.6195 103.381 55.9602 103.474 56.3335 103.474ZM61.4044 105V97.706H63.3224V98.308C63.8731 97.8133 64.5544 97.566 65.3664 97.566C65.9358 97.566 66.4351 97.692 66.8644 97.944C67.3031 98.1867 67.6438 98.5273 67.8864 98.966C68.1291 99.3953 68.2504 99.8993 68.2504 100.478V105H66.3324V100.758C66.3324 100.282 66.1971 99.9087 65.9264 99.638C65.6558 99.358 65.2871 99.218 64.8204 99.218C64.4938 99.218 64.2044 99.2833 63.9524 99.414C63.7004 99.5353 63.4904 99.7127 63.3224 99.946V105H61.4044ZM72.4333 105.14C71.7613 105.14 71.1406 105.056 70.5713 104.888C70.0019 104.711 69.5073 104.459 69.0873 104.132L70.0393 102.858C70.4593 103.138 70.8606 103.348 71.2433 103.488C71.6353 103.628 72.0226 103.698 72.4053 103.698C72.8346 103.698 73.1753 103.628 73.4273 103.488C73.6886 103.339 73.8193 103.147 73.8193 102.914C73.8193 102.727 73.7446 102.578 73.5953 102.466C73.4553 102.354 73.2266 102.275 72.9093 102.228L71.5093 102.018C70.7813 101.906 70.2306 101.673 69.8573 101.318C69.4839 100.954 69.2973 100.478 69.2973 99.89C69.2973 99.414 69.4186 99.008 69.6613 98.672C69.9133 98.3267 70.2633 98.0607 70.7113 97.874C71.1686 97.678 71.7099 97.58 72.3353 97.58C72.8673 97.58 73.3853 97.6547 73.8893 97.804C74.4026 97.9533 74.8833 98.182 75.3313 98.49L74.4073 99.736C74.0059 99.484 73.6233 99.302 73.2593 99.19C72.8953 99.078 72.5266 99.022 72.1533 99.022C71.8079 99.022 71.5279 99.0873 71.3133 99.218C71.1079 99.3487 71.0053 99.5213 71.0053 99.736C71.0053 99.932 71.0799 100.086 71.2293 100.198C71.3786 100.31 71.6353 100.389 71.9993 100.436L73.3853 100.646C74.1133 100.749 74.6686 100.982 75.0513 101.346C75.4339 101.701 75.6253 102.163 75.6253 102.732C75.6253 103.199 75.4853 103.614 75.2053 103.978C74.9253 104.333 74.5473 104.617 74.0713 104.832C73.5953 105.037 73.0493 105.14 72.4333 105.14Z" fill="#1A1B35"/>
</svg>
