<svg width="76" height="111" viewBox="0 0 76 111" fill="none" xmlns="http://www.w3.org/2000/svg">
<rect x="0.5" y="0.5" width="75" height="75" rx="15.5" stroke="#58C7E9"/>
<path d="M41.3163 28.0516C41.8402 28.2262 42.1234 28.7926 41.9487 29.3165L35.9487 47.3165C35.7741 47.8404 35.2077 48.1236 34.6838 47.949C34.1599 47.7743 33.8767 47.208 34.0513 46.684L40.0513 28.684C40.226 28.1601 40.7923 27.8769 41.3163 28.0516Z" fill="#2C79A7"/>
<path d="M32.7071 33.2931C33.0976 33.6837 33.0976 34.3168 32.7071 34.7074L29.4142 38.0002L32.7071 41.2931C33.0976 41.6837 33.0976 42.3168 32.7071 42.7074C32.3166 43.0979 31.6834 43.0979 31.2929 42.7074L27.2929 38.7074C26.9024 38.3168 26.9024 37.6837 27.2929 37.2931L31.2929 33.2931C31.6834 32.9026 32.3166 32.9026 32.7071 33.2931Z" fill="#2C79A7"/>
<path d="M43.2929 34.7074C42.9024 34.3168 42.9024 33.6837 43.2929 33.2931C43.6834 32.9026 44.3166 32.9026 44.7071 33.2931L48.7071 37.2931C49.0976 37.6837 49.0976 38.3168 48.7071 38.7074L44.7071 42.7074C44.3166 43.0979 43.6834 43.0979 43.2929 42.7074C42.9024 42.3168 42.9024 41.6837 43.2929 41.2931L46.5858 38.0002L43.2929 34.7074Z" fill="#2C79A7"/>
<path d="M12.2707 105V95.2H17.1847C17.8287 95.2 18.3933 95.3307 18.8787 95.592C19.3733 95.8533 19.7607 96.2173 20.0407 96.684C20.3207 97.1413 20.4607 97.6733 20.4607 98.28C20.4607 98.8587 20.3207 99.3767 20.0407 99.834C19.7607 100.291 19.3733 100.651 18.8787 100.912C18.384 101.173 17.8193 101.304 17.1847 101.304H14.3007V105H12.2707ZM14.3007 99.624H16.9607C17.3993 99.624 17.7493 99.5027 18.0107 99.26C18.2813 99.0173 18.4167 98.6953 18.4167 98.294C18.4167 97.8833 18.2813 97.5567 18.0107 97.314C17.7493 97.0713 17.3993 96.95 16.9607 96.95H14.3007V99.624ZM21.6603 105V97.706H23.5783V98.518C23.8116 98.2007 24.0916 97.958 24.4183 97.79C24.745 97.622 25.1136 97.538 25.5243 97.538C25.879 97.5473 26.145 97.6033 26.3223 97.706V99.386C26.1823 99.3207 26.0283 99.274 25.8603 99.246C25.6923 99.2087 25.5196 99.19 25.3423 99.19C24.969 99.19 24.6283 99.2833 24.3203 99.47C24.0123 99.6567 23.765 99.9227 23.5783 100.268V105H21.6603ZM30.644 105.14C29.916 105.14 29.258 104.972 28.67 104.636C28.082 104.3 27.6154 103.847 27.27 103.278C26.9247 102.709 26.752 102.069 26.752 101.36C26.752 100.651 26.92 100.011 27.256 99.442C27.6014 98.8633 28.068 98.406 28.656 98.07C29.2534 97.734 29.916 97.566 30.644 97.566C31.372 97.566 32.03 97.734 32.618 98.07C33.2154 98.406 33.682 98.8633 34.018 99.442C34.3634 100.011 34.536 100.651 34.536 101.36C34.536 102.069 34.3634 102.709 34.018 103.278C33.682 103.847 33.22 104.3 32.632 104.636C32.044 104.972 31.3814 105.14 30.644 105.14ZM30.644 103.474C31.0267 103.474 31.3674 103.381 31.666 103.194C31.974 103.007 32.2167 102.755 32.394 102.438C32.5807 102.111 32.674 101.752 32.674 101.36C32.674 100.959 32.5807 100.599 32.394 100.282C32.2167 99.9647 31.974 99.7127 31.666 99.526C31.3674 99.33 31.0267 99.232 30.644 99.232C30.2707 99.232 29.93 99.33 29.622 99.526C29.314 99.7127 29.0714 99.9647 28.894 100.282C28.7167 100.599 28.628 100.959 28.628 101.36C28.628 101.752 28.7167 102.111 28.894 102.438C29.0714 102.755 29.314 103.007 29.622 103.194C29.93 103.381 30.2707 103.474 30.644 103.474ZM39.089 105.098C38.3983 105.098 37.773 104.93 37.213 104.594C36.653 104.258 36.205 103.81 35.869 103.25C35.5423 102.681 35.379 102.046 35.379 101.346C35.379 100.646 35.5423 100.016 35.869 99.456C36.205 98.8867 36.6577 98.4387 37.227 98.112C37.7963 97.776 38.4357 97.608 39.145 97.608C39.509 97.608 39.859 97.6593 40.195 97.762C40.531 97.8553 40.8437 97.9953 41.133 98.182V95.2L43.051 94.878V105H41.161V104.398C40.5637 104.865 39.873 105.098 39.089 105.098ZM39.397 103.46C39.7517 103.46 40.0737 103.404 40.363 103.292C40.6617 103.171 40.9183 102.993 41.133 102.76V99.918C40.9183 99.7033 40.6617 99.5353 40.363 99.414C40.0643 99.2927 39.7423 99.232 39.397 99.232C38.9957 99.232 38.6317 99.3253 38.305 99.512C37.9877 99.6893 37.7357 99.9413 37.549 100.268C37.3623 100.585 37.269 100.945 37.269 101.346C37.269 101.747 37.3623 102.107 37.549 102.424C37.7357 102.741 37.9877 102.993 38.305 103.18C38.6317 103.367 38.9957 103.46 39.397 103.46ZM47.375 105.14C46.815 105.14 46.3157 105.019 45.877 104.776C45.4477 104.524 45.107 104.179 44.855 103.74C44.6123 103.301 44.491 102.797 44.491 102.228V97.706H46.409V101.948C46.409 102.415 46.5443 102.788 46.815 103.068C47.095 103.348 47.4683 103.488 47.935 103.488C48.2523 103.488 48.537 103.427 48.789 103.306C49.0503 103.175 49.265 102.993 49.433 102.76V97.706H51.351V105H49.433V104.412C48.873 104.897 48.187 105.14 47.375 105.14ZM56.3318 105.14C55.6132 105.14 54.9645 104.977 54.3858 104.65C53.8072 104.314 53.3498 103.861 53.0138 103.292C52.6778 102.713 52.5098 102.069 52.5098 101.36C52.5098 100.641 52.6778 99.9973 53.0138 99.428C53.3498 98.8587 53.8072 98.406 54.3858 98.07C54.9645 97.734 55.6132 97.566 56.3318 97.566C56.9105 97.566 57.4612 97.678 57.9838 97.902C58.5158 98.126 58.9732 98.448 59.3558 98.868L58.1798 100.114C57.9092 99.8153 57.6245 99.596 57.3258 99.456C57.0365 99.3067 56.7192 99.232 56.3738 99.232C56.0005 99.232 55.6645 99.3253 55.3658 99.512C55.0765 99.6987 54.8432 99.9507 54.6658 100.268C54.4978 100.585 54.4138 100.949 54.4138 101.36C54.4138 101.752 54.4978 102.111 54.6658 102.438C54.8432 102.755 55.0858 103.007 55.3938 103.194C55.7018 103.371 56.0425 103.46 56.4158 103.46C56.7425 103.46 57.0458 103.395 57.3258 103.264C57.6152 103.124 57.8905 102.919 58.1518 102.648L59.2998 103.852C58.9265 104.253 58.4785 104.571 57.9558 104.804C57.4332 105.028 56.8918 105.14 56.3318 105.14ZM63.8917 105.112C63.0797 105.112 62.4637 104.93 62.0437 104.566C61.6331 104.193 61.4277 103.651 61.4277 102.942V99.302H59.9297V97.706H61.4277V95.844L63.3457 95.41V97.706H65.4317V99.302H63.3457V102.55C63.3457 102.886 63.4204 103.129 63.5697 103.278C63.7191 103.418 63.9804 103.488 64.3537 103.488C64.5404 103.488 64.7084 103.479 64.8577 103.46C65.0164 103.432 65.1891 103.385 65.3757 103.32V104.902C65.1797 104.967 64.9324 105.019 64.6337 105.056C64.3444 105.093 64.0971 105.112 63.8917 105.112Z" fill="#1A1B35"/>
</svg>
