<svg width="76" height="111" viewBox="0 0 76 111" fill="none" xmlns="http://www.w3.org/2000/svg">
<rect x="0.5" y="0.5" width="75" height="75" rx="15.5" stroke="#68972D"/>
<path fill-rule="evenodd" clip-rule="evenodd" d="M35 28C35 27.4477 35.4477 27 36 27H40C40.5523 27 41 27.4477 41 28V48C41 48.5523 40.5523 49 40 49H36C35.4477 49 35 48.5523 35 48V28ZM37 29V47H39V29H37Z" fill="#68972D"/>
<path fill-rule="evenodd" clip-rule="evenodd" d="M43 35C43 34.4477 43.4477 34 44 34H48C48.5523 34 49 34.4477 49 35V48C49 48.5523 48.5523 49 48 49H44C43.4477 49 43 48.5523 43 48V35ZM45 36V47H47V36H45Z" fill="#68972D"/>
<path fill-rule="evenodd" clip-rule="evenodd" d="M27 39C27 38.4477 27.4477 38 28 38H32C32.5523 38 33 38.4477 33 39V48C33 48.5523 32.5523 49 32 49H28C27.4477 49 27 48.5523 27 48V39ZM29 40V47H31V40H29Z" fill="#68972D"/>
<path d="M24.6974 105.14C23.9041 105.14 23.1294 104.995 22.3734 104.706C21.6174 104.407 20.9454 103.987 20.3574 103.446L21.5194 101.99C22.0888 102.494 22.6348 102.858 23.1574 103.082C23.6894 103.306 24.2494 103.418 24.8374 103.418C25.2481 103.418 25.6028 103.371 25.9014 103.278C26.2001 103.175 26.4288 103.031 26.5874 102.844C26.7554 102.657 26.8394 102.438 26.8394 102.186C26.8394 101.85 26.7181 101.593 26.4754 101.416C26.2328 101.229 25.8174 101.085 25.2294 100.982L23.2834 100.646C22.4528 100.506 21.8181 100.212 21.3794 99.764C20.9501 99.316 20.7354 98.7373 20.7354 98.028C20.7354 97.4213 20.8894 96.894 21.1974 96.446C21.5148 95.998 21.9581 95.6573 22.5274 95.424C23.1061 95.1813 23.7921 95.06 24.5854 95.06C25.3041 95.06 26.0181 95.1813 26.7274 95.424C27.4461 95.6667 28.0808 96.0027 28.6314 96.432L27.5394 97.944C26.5128 97.16 25.4814 96.768 24.4454 96.768C24.0814 96.768 23.7641 96.8147 23.4934 96.908C23.2228 97.0013 23.0128 97.132 22.8634 97.3C22.7234 97.4587 22.6534 97.65 22.6534 97.874C22.6534 98.1727 22.7608 98.406 22.9754 98.574C23.1901 98.7327 23.5494 98.854 24.0534 98.938L25.9014 99.246C26.8814 99.4047 27.6141 99.7173 28.0994 100.184C28.5848 100.641 28.8274 101.248 28.8274 102.004C28.8274 102.639 28.6594 103.194 28.3234 103.67C27.9874 104.137 27.5068 104.501 26.8814 104.762C26.2654 105.014 25.5374 105.14 24.6974 105.14ZM32.4325 105.126C31.9099 105.126 31.4479 105.033 31.0465 104.846C30.6452 104.65 30.3325 104.384 30.1085 104.048C29.8845 103.712 29.7725 103.325 29.7725 102.886C29.7725 102.186 30.0339 101.645 30.5565 101.262C31.0885 100.87 31.8165 100.674 32.7405 100.674C33.3752 100.674 33.9725 100.772 34.5325 100.968V100.436C34.5325 100.016 34.4019 99.6987 34.1405 99.484C33.8792 99.2693 33.4965 99.162 32.9925 99.162C32.6845 99.162 32.3532 99.2133 31.9985 99.316C31.6439 99.4093 31.2332 99.5587 30.7665 99.764L30.0665 98.35C30.6452 98.0887 31.1959 97.8927 31.7185 97.762C32.2505 97.6313 32.7825 97.566 33.3145 97.566C34.2945 97.566 35.0552 97.804 35.5965 98.28C36.1472 98.7467 36.4225 99.4093 36.4225 100.268V105H34.5325V104.482C34.2339 104.706 33.9119 104.869 33.5665 104.972C33.2212 105.075 32.8432 105.126 32.4325 105.126ZM31.5925 102.844C31.5925 103.124 31.7139 103.348 31.9565 103.516C32.1992 103.675 32.5212 103.754 32.9225 103.754C33.2399 103.754 33.5339 103.717 33.8045 103.642C34.0752 103.558 34.3179 103.437 34.5325 103.278V102.214C34.2992 102.121 34.0565 102.051 33.8045 102.004C33.5525 101.957 33.2819 101.934 32.9925 101.934C32.5539 101.934 32.2085 102.018 31.9565 102.186C31.7139 102.345 31.5925 102.564 31.5925 102.844ZM37.8742 105V95.2L39.7922 94.878V105H37.8742ZM44.8621 105.14C44.1341 105.14 43.4715 104.972 42.8741 104.636C42.2861 104.3 41.8195 103.847 41.4741 103.278C41.1288 102.709 40.9561 102.069 40.9561 101.36C40.9561 100.651 41.1195 100.011 41.4461 99.442C41.7821 98.8727 42.2348 98.42 42.8041 98.084C43.3735 97.748 44.0081 97.58 44.7081 97.58C45.4081 97.58 46.0288 97.7527 46.5701 98.098C47.1115 98.4433 47.5361 98.91 47.8441 99.498C48.1615 100.086 48.3201 100.753 48.3201 101.5V102.004H42.9161C43.0001 102.293 43.1355 102.555 43.3221 102.788C43.5181 103.021 43.7561 103.203 44.0361 103.334C44.3255 103.465 44.6335 103.53 44.9601 103.53C45.2868 103.53 45.5855 103.479 45.8561 103.376C46.1361 103.273 46.3741 103.129 46.5701 102.942L47.8301 104.09C47.3821 104.454 46.9201 104.72 46.4441 104.888C45.9775 105.056 45.4501 105.14 44.8621 105.14ZM42.8881 100.632H46.4301C46.3648 100.343 46.2435 100.091 46.0661 99.876C45.8981 99.652 45.6928 99.4793 45.4501 99.358C45.2168 99.2273 44.9555 99.162 44.6661 99.162C44.3675 99.162 44.0968 99.2227 43.8541 99.344C43.6115 99.4653 43.4061 99.638 43.2381 99.862C43.0795 100.077 42.9628 100.333 42.8881 100.632ZM52.2936 105.14C51.6216 105.14 51.001 105.056 50.4316 104.888C49.8623 104.711 49.3676 104.459 48.9476 104.132L49.8996 102.858C50.3196 103.138 50.721 103.348 51.1036 103.488C51.4956 103.628 51.883 103.698 52.2656 103.698C52.695 103.698 53.0356 103.628 53.2876 103.488C53.549 103.339 53.6796 103.147 53.6796 102.914C53.6796 102.727 53.605 102.578 53.4556 102.466C53.3156 102.354 53.087 102.275 52.7696 102.228L51.3696 102.018C50.6416 101.906 50.091 101.673 49.7176 101.318C49.3443 100.954 49.1576 100.478 49.1576 99.89C49.1576 99.414 49.279 99.008 49.5216 98.672C49.7736 98.3267 50.1236 98.0607 50.5716 97.874C51.029 97.678 51.5703 97.58 52.1956 97.58C52.7276 97.58 53.2456 97.6547 53.7496 97.804C54.263 97.9533 54.7436 98.182 55.1916 98.49L54.2676 99.736C53.8663 99.484 53.4836 99.302 53.1196 99.19C52.7556 99.078 52.387 99.022 52.0136 99.022C51.6683 99.022 51.3883 99.0873 51.1736 99.218C50.9683 99.3487 50.8656 99.5213 50.8656 99.736C50.8656 99.932 50.9403 100.086 51.0896 100.198C51.239 100.31 51.4956 100.389 51.8596 100.436L53.2456 100.646C53.9736 100.749 54.529 100.982 54.9116 101.346C55.2943 101.701 55.4856 102.163 55.4856 102.732C55.4856 103.199 55.3456 103.614 55.0656 103.978C54.7856 104.333 54.4076 104.617 53.9316 104.832C53.4556 105.037 52.9096 105.14 52.2936 105.14Z" fill="#1A1B35"/>
</svg>
